<svg xmlns="http://www.w3.org/2000/svg" viewBox="0 0 829.44 639.67"><defs><style>.cls-1{fill:#fcf1cc;}.cls-2{fill:#fae18e;}.cls-3{fill:#f6d151;}.cls-4{fill:#fc9262;}.cls-5{fill:#e1e1e1;}.cls-6{fill:#f0f0f0;}.cls-7{fill:#f5f5f5;}.cls-8{fill:#a693e1;}.cls-9{fill:#c6bbec;}.cls-10{fill:#5c3bc8;}.cls-11,.cls-12{fill:#fff;}.cls-12{opacity:0.3;}.cls-13{opacity:0.2;}</style></defs><g id="Layer_2" data-name="Layer 2"><g id="Layer_1-2" data-name="Layer 1"><path class="cls-1" d="M756.92,469.21H83.29c-11,0-19.91-4.25-19.91-9.47V9.47C63.38,4.25,72.31,0,83.29,0H756.92c11,0,19.91,4.25,19.91,9.47V459.74C776.83,465,767.9,469.21,756.92,469.21Z"/><rect class="cls-2" y="543.19" width="829.44" height="0.41"/><rect class="cls-2" x="710.37" y="569.89" width="35.96" height="0.41"/><rect class="cls-2" x="515.18" y="561.28" width="56.58" height="0.41"/><rect class="cls-2" x="657.89" y="554.49" width="73.86" height="0.41"/><rect class="cls-2" x="268.53" y="562.85" width="18.48" height="0.41"/><rect class="cls-2" x="190.08" y="562.85" width="63.68" height="0.41"/><rect class="cls-2" x="109.99" y="555.85" width="45.94" height="0.41"/><path class="cls-3" d="M358.44,242.07l.74-21.8L345.8,215.9A130.16,130.16,0,0,0,342.23,194l11.35-8.37-7.71-20.47-14,1.13a129.46,129.46,0,0,0-11.68-18.83l7.27-12.13L312.48,119.4l-12.54,6.42a137.92,137.92,0,0,0-18-13l2-13.92-19.9-9L255,100.55a134.37,134.37,0,0,0-21.59-5L230,81.85l-21.85-.75-4.32,13.38a135.46,135.46,0,0,0-21.89,3.57L173.5,86.76,153,94.41l1.14,14a132.75,132.75,0,0,0-18.83,11.73l-12.08-7.27-16,14.89,6.42,12.6a129.31,129.31,0,0,0-12.94,18l-13.92-2.09-9.09,19.9,10.75,9.12a129.54,129.54,0,0,0-5.06,21.6L69.7,210.35,69,232.15l13.44,4.38A129.34,129.34,0,0,0,86,258.42l-11.34,8.36,7.71,20.48,14-1.13A127.75,127.75,0,0,0,108,305l-7.27,12.13L115.71,333l12.54-6.42a134.08,134.08,0,0,0,18,13l-2.09,13.92,19.9,9,9.18-10.69a133.88,133.88,0,0,0,21.59,5.06l3.39,13.65,21.86.75L224.38,358a135.28,135.28,0,0,0,21.89-3.57l8.37,11.28L275.11,358,274,344a138.85,138.85,0,0,0,18.83-11.74l12.07,7.27,16-14.89L314.52,312a128.49,128.49,0,0,0,12.94-18l13.92,2.09,9.09-19.91-10.74-9.12a129.78,129.78,0,0,0,5.06-21.59Zm-147.3,70.62a86.53,86.53,0,1,1,89.41-83.49A86.5,86.5,0,0,1,211.14,312.69Z"/><path class="cls-4" d="M731.49,170l5.5-5.14-2.2-4.33a44.74,44.74,0,0,0,4.47-6.21l4.81.73,3.11-6.87-3.7-3.15a44.42,44.42,0,0,0,1.75-7.44L750,136.4l.24-7.53-4.62-1.5a47.32,47.32,0,0,0-1.22-7.55l3.89-2.9-2.65-7.06-4.83.39a46,46,0,0,0-4-6.5l2.5-4.16-5.15-5.51-4.31,2.21a46.27,46.27,0,0,0-6.21-4.46l.7-4.81-6.86-3.13-3.15,3.7a45.72,45.72,0,0,0-7.45-1.73l-1.17-4.72-7.53-.27-1.51,4.64a44.07,44.07,0,0,0-7.54,1.23l-2.89-3.9-7.06,2.63.39,4.85a44.06,44.06,0,0,0-6.5,4l-4.18-2.51L663.32,97l2.21,4.34a45.72,45.72,0,0,0-4.47,6.21l-4.8-.73-3.12,6.88,3.7,3.14a44.62,44.62,0,0,0-1.74,7.44l-4.73,1.19-.25,7.53,4.63,1.49A46.37,46.37,0,0,0,656,142l-3.9,2.89,2.65,7.06,4.84-.37a46.68,46.68,0,0,0,4,6.5l-2.5,4.15,5.14,5.51,4.32-2.21a46.35,46.35,0,0,0,6.21,4.47l-.72,4.79,6.86,3.13,3.16-3.68a49.35,49.35,0,0,0,7.45,1.73l1.18,4.71,7.53.27,1.5-4.63a45,45,0,0,0,7.55-1.23l2.88,3.9,7.07-2.64-.4-4.84a43.24,43.24,0,0,0,6.5-4Zm-39.17-31.74a10.73,10.73,0,1,1,15.16.52A10.72,10.72,0,0,1,692.32,138.25Z"/><path class="cls-4" d="M530.82,393.79l-17.15-11.85a.06.06,0,0,1,0,0,94.72,94.72,0,0,0-6.9-17.87l4.39-17.25-24.88-26.65-17.51,3.21a94.37,94.37,0,0,0-17.35-8.1h0L440.72,297.3l-36.44-1.25L392.44,313.2l-.07,0a94.24,94.24,0,0,0-17.85,6.89l-17.24-4.39L330.63,340.6l3.2,17.48v0a92.47,92.47,0,0,0-8.1,17.4l-17.93,10.65-1.25,36.44,17.17,11.85a91.47,91.47,0,0,0,6.88,17.95h0l-4.38,17.19,24.88,26.65,17.41-3.19A94.77,94.77,0,0,0,386,501.17h0l10.63,17.91,36.44,1.25,11.84-17.15a95,95,0,0,0,18-6.89h0l17.17,4.38,26.64-24.88-3.2-17.49a92,92,0,0,0,8.11-17.41h0l17.93-10.65ZM417.27,449.18a41,41,0,1,1,42.38-39.57A41,41,0,0,1,417.27,449.18Z"/><path class="cls-2" d="M569.9,290.31h-.12l-28.72-1a3.52,3.52,0,0,1-2.9-1.71l-7.73-13a78.36,78.36,0,0,1-12.08-5.6l-12.45,2.28a3.49,3.49,0,0,1-3.19-1.06l-19.62-21a3.49,3.49,0,0,1-.84-3.25l3.14-12.29a76.1,76.1,0,0,1-4.75-12.4l-12.49-8.62a3.52,3.52,0,0,1-1.51-3l1-28.72a3.49,3.49,0,0,1,1.72-2.89l13-7.75a76.89,76.89,0,0,1,5.6-12l-2.29-12.49a3.48,3.48,0,0,1,1.05-3.19l21-19.62a3.51,3.51,0,0,1,3.26-.84l12.33,3.15a78.65,78.65,0,0,1,12.36-4.77L544.32,108a3.39,3.39,0,0,1,3-1.51l28.73,1a3.49,3.49,0,0,1,2.89,1.71l7.75,13a78.07,78.07,0,0,1,12,5.59l12.53-2.29a3.5,3.5,0,0,1,3.19,1l19.62,21a3.54,3.54,0,0,1,.83,3.26l-3.14,12.34a77.53,77.53,0,0,1,4.76,12.35L649,184.16a3.49,3.49,0,0,1,1.51,3l-1,28.73a3.51,3.51,0,0,1-1.71,2.89l-13.06,7.75a76.29,76.29,0,0,1-5.58,12l2.29,12.5a3.52,3.52,0,0,1-1.06,3.19l-21,19.61a3.46,3.46,0,0,1-3.25.84l-12.28-3.13a79,79,0,0,1-12.42,4.76l-8.62,12.47A3.49,3.49,0,0,1,569.9,290.31Zm-26.69-7.93,24.9.86,8.24-11.94a3.55,3.55,0,0,1,2-1.4,71.25,71.25,0,0,0,13.52-5.18h0a3.52,3.52,0,0,1,2.42-.26l11.67,3,18.21-17L622,238.53a3.53,3.53,0,0,1,.45-2.44,69.37,69.37,0,0,0,6-13,3.54,3.54,0,0,1,1.56-1.94l12.48-7.42.86-24.89-11.95-8.26a3.47,3.47,0,0,1-1.34-1.77c0-.09-.05-.19-.08-.28a70.52,70.52,0,0,0-5.16-13.36,3.47,3.47,0,0,1-.27-2.45l3-11.75-17-18.21L598.66,135a3.52,3.52,0,0,1-2.42-.44,70.6,70.6,0,0,0-13-6.08,4.43,4.43,0,0,1-.73-.34,3.47,3.47,0,0,1-1.18-1.2l-7.42-12.49-24.9-.85-8.25,12a3.47,3.47,0,0,1-2.06,1.41,70.6,70.6,0,0,0-13.36,5.17,3.53,3.53,0,0,1-2.45.27l-11.74-3-18.21,17,2.18,11.9a3.45,3.45,0,0,1-.31,2.19l-.16.29a69,69,0,0,0-6.06,13,3.55,3.55,0,0,1-1.52,1.87l-12.49,7.41-.85,24.9,12,8.26a3.53,3.53,0,0,1,1.39,2,68.62,68.62,0,0,0,5.16,13.46,3.29,3.29,0,0,1,.28.76,3.53,3.53,0,0,1,0,1.71l-3,11.7,17,18.21,11.84-2.17a3.55,3.55,0,0,1,2.41.43,71,71,0,0,0,13.09,6.08,3.55,3.55,0,0,1,1.95,1.55ZM584.32,125.1h0ZM558.59,250.92c-.61,0-1.23,0-1.84,0a52.55,52.55,0,1,1,1.84,0Zm-.06-98a45.61,45.61,0,1,0,1.57,0C559.58,152.9,559.05,152.89,558.53,152.89Z"/><polygon class="cls-5" points="636.08 83.56 624.18 80.36 620.98 68.46 625.64 63.8 630.56 73.98 640.74 78.9 636.08 83.56"/><path class="cls-5" d="M636.82,75.59A5.55,5.55,0,1,0,629,67.74l5.92-8.88,7.94,4,1.74,8.34Z"/><path class="cls-6" d="M624.7,64.74,633.42,56l11.9,3.2,3.2,11.9-8.72,8.72-11.9-3.2Zm15.84,7.13a5.55,5.55,0,1,0-7.86,0A5.59,5.59,0,0,0,640.54,71.87Z"/><polygon class="cls-5" points="149.66 401.04 156.05 399.33 157.76 392.94 155.26 390.44 152.63 395.9 147.16 398.54 149.66 401.04"/><path class="cls-5" d="M149.27,396.77a3,3,0,1,1,4.21-4.22l-3.17-4.76-4.26,2.15-.94,4.48Z"/><path class="cls-6" d="M155.77,390.94l-4.68-4.67L144.7,388,143,394.37l4.68,4.68,6.38-1.72Zm-8.5,3.83a3,3,0,1,1,4.22,0A3,3,0,0,1,147.27,394.77Z"/><path class="cls-6" d="M126.68,50.94l5.3,5.3a3.55,3.55,0,0,0,5,0h0a3.55,3.55,0,0,0,0-5l-5.3-5.3a3.55,3.55,0,0,0-5,0h0A3.55,3.55,0,0,0,126.68,50.94Z"/><path class="cls-5" d="M122.94,37.74A7.64,7.64,0,0,1,132.83,42,7.87,7.87,0,0,1,118,47.34,7.63,7.63,0,0,1,122.94,37.74Z"/><rect class="cls-6" x="124.3" y="36.31" width="2.27" height="16.76" transform="translate(125.78 177.84) rotate(-109.76)"/><ellipse id="_Path_" data-name="&lt;Path&gt;" class="cls-7" cx="414.72" cy="599.33" rx="321.64" ry="18.78"/><path class="cls-8" d="M143.85,109q-2.49-11,2.23-18.45t15.61-10q11.17-2.55,18.58,2.08t9.86,15.43q1.78,7.84.29,13.47a19.28,19.28,0,0,1-5.86,9.55,25.77,25.77,0,0,1-11.8,5.62,29.41,29.41,0,0,1-13.08.44,19.37,19.37,0,0,1-9.78-5.81Q145.64,116.82,143.85,109Zm13.84-3.08q1.55,6.76,4.73,9.16A9.79,9.79,0,0,0,176.19,112q1.78-3.47.07-11-1.42-6.32-4.64-8.65A8.94,8.94,0,0,0,164,91a8.62,8.62,0,0,0-6,4.49Q156.14,99.06,157.69,105.9Z"/><path class="cls-8" d="M196.73,103.51A16.66,16.66,0,0,1,199,90.14q3.91-5.94,12.43-7.88,9.74-2.22,16,2.3a16.78,16.78,0,0,1,6.55,10.3,16.71,16.71,0,0,1-2.17,13.38q-3.88,5.91-12.64,7.9-7.81,1.77-13.54-1.1A16.35,16.35,0,0,1,196.73,103.51Zm12.45-2.87c.65,2.89,1.73,4.9,3.21,6a5.9,5.9,0,0,0,8.83-2c.84-1.63.92-3.94.23-7q-1-4.22-3.16-5.88a5.57,5.57,0,0,0-4.78-1.08,5.78,5.78,0,0,0-4,3.11Q208.21,96.37,209.18,100.64Z"/><path class="cls-8" d="M246.48,122.12,236.31,77.36l11.63-2.64L249,79.51a15.86,15.86,0,0,1,3.49-5.09,13,13,0,0,1,5.69-2.8A11.93,11.93,0,0,1,269.4,74.3a21.11,21.11,0,0,1,6.35,11.5q1.85,8.08-1.07,13.23a13,13,0,0,1-8.83,6.48,13.67,13.67,0,0,1-5.45.21,12.69,12.69,0,0,1-4.89-1.93L259,119.26Zm6-31.29q.87,3.86,2.91,5.34a5.34,5.34,0,0,0,4.52.94,4.66,4.66,0,0,0,3.23-2.62q1-2.11.08-6.39-.88-3.93-2.84-5.43a4.77,4.77,0,0,0-4.14-1,5.18,5.18,0,0,0-3.55,2.77C251.91,85.91,251.84,88.05,252.47,90.83Z"/><path class="cls-8" d="M281.07,91.81l12.07-4A6.26,6.26,0,0,0,296,90.51a6.51,6.51,0,0,0,3.88.11,6.32,6.32,0,0,0,3.63-2,2.45,2.45,0,0,0,.62-2.22,2.3,2.3,0,0,0-1.87-1.75,25.62,25.62,0,0,0-5.64-.07,58.13,58.13,0,0,1-9.46,0,9.81,9.81,0,0,1-5-2.29,8.6,8.6,0,0,1-2.91-4.82,8.71,8.71,0,0,1,.6-5.94,11.3,11.3,0,0,1,4.35-4.63,27.94,27.94,0,0,1,8.5-3.14,31,31,0,0,1,8.76-1.06,11.4,11.4,0,0,1,5.23,1.7,14.74,14.74,0,0,1,4.22,4.34L299.4,72.59a4.1,4.1,0,0,0-2-1.94,6.34,6.34,0,0,0-3.76-.17,5.11,5.11,0,0,0-2.9,1.44,2.28,2.28,0,0,0-.55,2,2,2,0,0,0,1.63,1.52,20.06,20.06,0,0,0,5.56-.11,37.12,37.12,0,0,1,9.66-.14,10.38,10.38,0,0,1,5.44,2.51,9,9,0,0,1,2.76,4.73,10.41,10.41,0,0,1-.45,5.85,11.77,11.77,0,0,1-4.39,5.43,26.2,26.2,0,0,1-9.57,3.83q-8.89,2-13.23.35A11.7,11.7,0,0,1,281.07,91.81Z"/><path class="cls-8" d="M321.57,50.78l13.62-.07.06,10.45-2.51,21-8.43,0-2.68-21Zm.67,34.65,12.7-.07L335,96.6l-12.71.07Z"/><path class="cls-9" d="M213.46,193.47a1,1,0,0,1-.3-.05c-7.46-2.9-11.93-5.72-14.25-9.12a8.59,8.59,0,0,1-5.36-.73,10.67,10.67,0,0,1-4.61-4.35,4.26,4.26,0,0,1-4,.62,10.23,10.23,0,0,1-4.89-4,3.79,3.79,0,0,1-2.58.71c-4.93-.4-11.61-10.22-12.09-20.68a.83.83,0,1,1,1.65-.07c.46,9.93,6.82,18.79,10.58,19.1a2.12,2.12,0,0,0,1.54-.46,20.41,20.41,0,0,1-1.7-15.62c1.43-5,2.69-6.93,4.2-6.57,2.86.71,2.49,11.56,1,18.72a10,10,0,0,1-1.4,3.63,9,9,0,0,0,4.22,3.66,2.62,2.62,0,0,0,2.78-.58c-1.31-3.21-1.58-7.58.19-13.17,2.33-7.34,3.27-7.54,3.83-7.66a1.13,1.13,0,0,1,1.07.36c1.53,1.73-.3,13.15-2.23,18.79a8,8,0,0,1-.93,1.92,9.16,9.16,0,0,0,4.14,4.15,7.3,7.3,0,0,0,3.77.71c-.15-.31-.28-.63-.4-.95-1.32-3.57-.68-7.68,2-12.57,1.75-3.25,3.18-4.77,4.49-4.77h0a1.85,1.85,0,0,1,1.63,1.1c1.45,2.67.4,11.48-2.46,15.85a6.46,6.46,0,0,1-2.68,2.32c2.22,2.92,6.44,5.5,13.18,8.11a.83.83,0,0,1-.3,1.6Zm-9.38-27.32s-.93,0-3,3.89c-2.4,4.46-3,8.12-1.87,11.21a9.19,9.19,0,0,0,.5,1.11,4.81,4.81,0,0,0,2.19-1.83c2.33-3.55,3.44-10.84,2.57-13.7C204.27,166.25,204.09,166.15,204.08,166.15Zm-11.89-7A37.65,37.65,0,0,0,190,165c-1.42,4.49-1.43,8.1-.63,10.86l.15-.42C191.43,169.76,192.38,161.9,192.19,159.16Zm-10.93-5.22c-.28.25-1.09,1.3-2.24,5.34a18.66,18.66,0,0,0,1.2,13.68,10.06,10.06,0,0,0,.75-2.33C182.69,162.49,182.19,155.12,181.26,153.94Z"/><path class="cls-9" d="M276.53,280.42a14.9,14.9,0,0,1-7.57-2,.83.83,0,0,1,.84-1.43c5.92,3.47,13.57,1.05,15.14-1.48a1.43,1.43,0,0,0,.25-1.11c-2.34.24-5.22-.38-8.51-2.44-4.22-2.63-4.55-3.42-4.52-4.05a1,1,0,0,1,.56-.87c1.65-.83,9.13,2.62,12.25,4.67a4.7,4.7,0,0,1,1,.86,5.86,5.86,0,0,0,3.16-1.9,4.79,4.79,0,0,0,1-1.86l-.34,0c-2.65.27-5.31-.87-8.14-3.49-2-1.8-2.71-3-2.46-4a1.51,1.51,0,0,1,1.2-1.09c2.29-.57,8,1.85,10.27,4.38a4.57,4.57,0,0,1,1.06,2c2.17-1,4.46-3.3,7.17-7.09a.83.83,0,0,1,1.35,1c-3.14,4.38-5.75,6.86-8.37,7.87a6.22,6.22,0,0,1-1.44,3.38,7.58,7.58,0,0,1-3.62,2.35,3.07,3.07,0,0,1-.47,2.3C285,278.67,280.94,280.42,276.53,280.42Zm-1.47-11.5c.56.41,1.35.95,2.5,1.67a13.26,13.26,0,0,0,6,2.19A41.46,41.46,0,0,0,275.06,268.92Zm5.79-7.05a7.08,7.08,0,0,0,1.93,2.3c2.47,2.28,4.71,3.29,6.85,3.06a5,5,0,0,0,.54-.08,3.13,3.13,0,0,0-.72-1.37C287.11,263.22,282,261.6,280.85,261.87Z"/><path class="cls-10" d="M298.5,278.15l-25.85,4.69L249.19,154.76l-49.88,9.06L118.05,308.14l8.72,47.62L231,336.82l7.14,39L288,366.72l-7.14-39,25.85-4.7ZM167.7,301.91l43.06-75.59,12,65.58Z"/><path class="cls-10" d="M506.67,146.05a97.34,97.34,0,0,0-5.3-23.59,76.28,76.28,0,0,0-11.6-20.22Q482,92.32,468.7,85T433.49,74.9Q388,69,362.52,91.06T329,175.68a230.07,230.07,0,0,0-1.62,47q1.65,21.59,7.92,34.73a72.74,72.74,0,0,0,24.3,29.48q15.7,11,43.05,14.58,48.76,6.36,72.28-18.72T506.14,198A214.41,214.41,0,0,0,506.67,146.05Z"/><path class="cls-9" d="M417.65,284.46c-4-.13-8.24-.49-12.62-1.06-15.19-2-26.94-5.82-34.93-11.43a54.18,54.18,0,0,1-18.23-22.24l-.08-.17c-3.19-6.67-5.28-16.18-6.2-28.25a214.53,214.53,0,0,1,1.52-43.3c5.93-46,18.15-65.17,27.37-73.17,10.75-9.32,25.25-13.53,44.34-12.88,3.91.13,8.06.48,12.31,1,12.26,1.59,21.95,4.31,28.82,8.06,6.65,3.63,11.85,7.81,15.44,12.41a58.47,58.47,0,0,1,8.88,15.38A79.93,79.93,0,0,1,488.53,148a197.19,197.19,0,0,1-.49,47.65c-4.6,35.73-13.48,60.83-26.41,74.62-9.58,10.22-24,14.86-44,14.17Z"/><path class="cls-10" d="M452.43,144.22l.21-6.28-3.86-1.26a36.6,36.6,0,0,0-1-6.31L451,128l-2.22-5.9-4,.32a37.85,37.85,0,0,0-3.37-5.43l2.1-3.49-4.31-4.6-3.62,1.85a39.2,39.2,0,0,0-5.18-3.74l.59-4-5.74-2.6-2.63,3.08a38.58,38.58,0,0,0-6.22-1.46l-1-3.93-6.3-.22-1.24,3.86a38.28,38.28,0,0,0-6.31,1l-2.43-3.25-5.9,2.2.32,4a38.14,38.14,0,0,0-5.42,3.38l-3.48-2.1L380,111.28l1.85,3.64a37.63,37.63,0,0,0-3.73,5.18l-4-.6-2.62,5.73,3.1,2.63a38.15,38.15,0,0,0-1.46,6.23l-3.95,1-.22,6.28,3.88,1.26a37.26,37.26,0,0,0,1,6.31l-3.27,2.41,2.22,5.91,4-.33a37.85,37.85,0,0,0,3.37,5.43l-2.1,3.49,4.31,4.6,3.62-1.85a38.62,38.62,0,0,0,5.18,3.75l-.6,4,5.73,2.6,2.65-3.08a38.58,38.58,0,0,0,6.22,1.46l1,3.93,6.3.22,1.25-3.86a38.34,38.34,0,0,0,6.3-1l2.42,3.26,5.9-2.21-.31-4a39.47,39.47,0,0,0,5.43-3.39l3.48,2.1,4.61-4.29-1.85-3.63a38.34,38.34,0,0,0,3.73-5.19l4,.61,2.62-5.74-3.1-2.63a37.55,37.55,0,0,0,1.46-6.22ZM410,164.58a24.94,24.94,0,1,1,25.77-24.07A24.94,24.94,0,0,1,410,164.58Z"/><path class="cls-10" d="M476.3,262l.46-4.24-2.55-1a25.65,25.65,0,0,0-.38-4.3l2.32-1.47-1.18-4.1-2.75,0a24.38,24.38,0,0,0-2-3.83l1.57-2.26-2.66-3.31-2.54,1a26,26,0,0,0-3.3-2.77l.62-2.7-3.74-2-1.95,2a24.53,24.53,0,0,0-4.11-1.31l-.47-2.71-4.23-.48-1,2.55a27,27,0,0,0-4.31.39L442.6,229l-4.1,1.2,0,2.76a27.23,27.23,0,0,0-3.83,2l-2.26-1.59-3.31,2.67,1.06,2.54a25.33,25.33,0,0,0-2.77,3.3l-2.68-.6L422.68,245l1.95,1.93a26.75,26.75,0,0,0-1.31,4.13l-2.71.45-.45,4.23,2.54,1.06a24.41,24.41,0,0,0,.38,4.28l-2.34,1.48,1.2,4.1h2.75a25.19,25.19,0,0,0,2,3.82l-1.59,2.25,2.66,3.34,2.56-1.08a26,26,0,0,0,3.3,2.77l-.61,2.7,3.73,2.05,1.95-2a26.39,26.39,0,0,0,4.11,1.28l.47,2.72,4.23.47,1-2.54a27.2,27.2,0,0,0,4.31-.4l1.47,2.34,4.08-1.2V280.5a26.22,26.22,0,0,0,3.83-2l2.24,1.59,3.33-2.66-1.08-2.54a26.88,26.88,0,0,0,2.79-3.3l2.68.59,2.05-3.73-2-1.93a27.48,27.48,0,0,0,1.29-4.11Zm-21.36-1.65a7.4,7.4,0,1,1-2.93-10A7.41,7.41,0,0,1,454.94,260.31Z"/><path class="cls-11" d="M428,220.76l-5.57-3.85h0a30.38,30.38,0,0,0-2.24-5.81l1.43-5.6-8.08-8.65-5.69,1a30.78,30.78,0,0,0-5.63-2.63h0l-3.46-5.82L386.88,189,383,194.59h0a30.52,30.52,0,0,0-5.8,2.23l-5.59-1.42L363,203.49l1,5.67h0a30.27,30.27,0,0,0-2.63,5.65l-5.82,3.45-.41,11.84,5.58,3.85a29.41,29.41,0,0,0,2.23,5.82h0l-1.42,5.59,8.08,8.65,5.65-1a31.24,31.24,0,0,0,5.68,2.63h0l3.46,5.82,11.83.4,3.84-5.57a31,31,0,0,0,5.85-2.23h0l5.57,1.42,8.65-8.07-1-5.68a29,29,0,0,0,2.63-5.65h0l5.83-3.45Zm-36.87,18a13.31,13.31,0,1,1,13.76-12.85A13.31,13.31,0,0,1,391.09,238.74Z"/><path class="cls-10" d="M535.89,106.45l.86-2.08h0a10.15,10.15,0,0,0,1.73-1.14l1.93.07,2.25-3.23-.74-1.79a10.25,10.25,0,0,0,.47-2h0l1.65-1.53-.69-3.89L541.27,90h0a10.1,10.1,0,0,0-1.13-1.73l.07-1.93L537,84.06l-1.78.73h0a10.57,10.57,0,0,0-2-.46l-1.54-1.66-3.88.7-.87,2.09a9.62,9.62,0,0,0-1.74,1.13h0l-1.92-.07L521,89.76l.74,1.77a10.52,10.52,0,0,0-.47,2h0l-1.65,1.54.69,3.88,2.09.86a9.74,9.74,0,0,0,1.14,1.75h0l-.08,1.92,3.24,2.25,1.78-.73a10,10,0,0,0,2,.46h0l1.53,1.66Zm-8.44-10.76a4.43,4.43,0,1,1,5.15,3.59A4.43,4.43,0,0,1,527.45,95.69Z"/><path class="cls-10" d="M490.38,95.45l-1.27-1.07a33,33,0,0,1,10-8.35l.77,1.47A31.73,31.73,0,0,0,490.38,95.45Z"/><path class="cls-10" d="M503.62,86,503,84.49a39.64,39.64,0,0,1,19.48-3.12L522.28,83A37.74,37.74,0,0,0,503.62,86Z"/><path class="cls-10" d="M500.49,97.49l-1.37-.94c3.4-5,10.14-9.36,16.37-10.59l.32,1.62A26.09,26.09,0,0,0,500.49,97.49Z"/><path class="cls-11" d="M456.61,220.28a.55.55,0,0,1-.39-.16L454,217.81a19,19,0,0,1-3.36-.63l-3.49,1.54a.52.52,0,0,1-.51,0l-5.85-3.88a.54.54,0,0,1-.24-.45l.06-3.81a18.87,18.87,0,0,1-1.89-2.86l-3-1.16a.56.56,0,0,1-.33-.4L434,199.25a.52.52,0,0,1,.15-.49l2.31-2.24a18.35,18.35,0,0,1,.62-3.37l-1.54-3.49a.55.55,0,0,1,.05-.51l3.87-5.85a.52.52,0,0,1,.46-.24l3.8.06a19.48,19.48,0,0,1,2.87-1.89l1.16-3a.54.54,0,0,1,.39-.34l6.88-1.39a.55.55,0,0,1,.49.15l2.24,2.31a19.4,19.4,0,0,1,3.37.62l3.48-1.53a.52.52,0,0,1,.51,0l5.85,3.88a.5.5,0,0,1,.24.45l-.05,3.81A18.81,18.81,0,0,1,473,189.1l3,1.16a.56.56,0,0,1,.33.39l1.4,6.88a.55.55,0,0,1-.16.49l-2.31,2.24a18.4,18.4,0,0,1-.62,3.36l1.54,3.5a.52.52,0,0,1-.05.51l-3.87,5.85a.59.59,0,0,1-.46.24l-3.8-.06a18.81,18.81,0,0,1-2.86,1.88l-1.17,3a.51.51,0,0,1-.39.33l-6.88,1.4Zm-6-4.2.15,0a17.68,17.68,0,0,0,3.54.66.54.54,0,0,1,.34.16l2.17,2.24,6.31-1.27,1.13-2.92a.53.53,0,0,1,.26-.29,17.25,17.25,0,0,0,3-2,.44.44,0,0,1,.35-.12l3.71,0,3.55-5.36-1.5-3.4a.53.53,0,0,1,0-.37,18,18,0,0,0,.66-3.53.5.5,0,0,1,.16-.34l2.24-2.18-1.28-6.31L472.44,190a.5.5,0,0,1-.29-.26,17,17,0,0,0-2-3,.55.55,0,0,1-.12-.35l.06-3.71-5.36-3.56-3.4,1.5a.5.5,0,0,1-.36,0,19.48,19.48,0,0,0-3.55-.66.53.53,0,0,1-.34-.15l-2.17-2.25-6.31,1.28-1.13,2.92a.57.57,0,0,1-.25.28,17.19,17.19,0,0,0-3,2,.47.47,0,0,1-.35.12l-3.71-.06-3.55,5.37,1.5,3.4a.54.54,0,0,1,0,.45,18,18,0,0,0-.63,3.46.54.54,0,0,1-.16.34l-2.24,2.17,1.28,6.31,2.91,1.12a.53.53,0,0,1,.29.28,17.68,17.68,0,0,0,2,3,.58.58,0,0,1,.13.35l-.06,3.71,5.36,3.56,3.41-1.5A.5.5,0,0,1,450.58,216.08Zm5.26-3.46A14.23,14.23,0,0,1,444,190.53h0a14.24,14.24,0,1,1,11.85,22.09Zm-11-21.5a13.17,13.17,0,0,0,3.7,18.25,13.17,13.17,0,1,0-3.7-18.25Z"/><path class="cls-10" d="M706.39,293.12l-26-3.52,17.22-129.07-50.24-6.78L525.49,265.93l-6.4,48,105,14.17-5.23,39.26,50.23,6.78,5.24-39.26,26,3.52ZM574.65,275.34l64.29-58.61-8.82,66.1Z"/><path class="cls-9" d="M653.82,372.9l-.15,0a.83.83,0,0,1-.67-1L691.7,159.7a.83.83,0,1,1,1.63.3l-38.7,212.22A.82.82,0,0,1,653.82,372.9Z"/><path class="cls-9" d="M688.15,163.26a1.36,1.36,0,1,1-1.31-1.4A1.35,1.35,0,0,1,688.15,163.26Z"/><path class="cls-9" d="M682.62,192a1.36,1.36,0,1,1-1.31-1.4A1.35,1.35,0,0,1,682.62,192Z"/><path class="cls-9" d="M677.1,220.66a1.36,1.36,0,0,1-1.41,1.31,1.36,1.36,0,0,1,.09-2.71A1.36,1.36,0,0,1,677.1,220.66Z"/><path class="cls-9" d="M666.23,250.54a1.36,1.36,0,1,1-1.32-1.41A1.38,1.38,0,0,1,666.23,250.54Z"/><path class="cls-9" d="M666,278.06a1.36,1.36,0,1,1-1.31-1.4A1.35,1.35,0,0,1,666,278.06Z"/><path class="cls-9" d="M660.51,306.76a1.35,1.35,0,0,1-1.4,1.31,1.36,1.36,0,1,1,.09-2.71A1.35,1.35,0,0,1,660.51,306.76Z"/><path class="cls-9" d="M655,335.46a1.36,1.36,0,1,1-1.31-1.4A1.35,1.35,0,0,1,655,335.46Z"/><path class="cls-9" d="M649.46,364.16a1.36,1.36,0,0,1-1.41,1.31,1.36,1.36,0,0,1,.09-2.71A1.36,1.36,0,0,1,649.46,364.16Z"/><path class="cls-9" d="M664.87,251.32a.82.82,0,0,1-.81-.65.83.83,0,0,1,.63-1l4.12-.88a.83.83,0,0,1,1,.63.84.84,0,0,1-.64,1l-4.12.88A.52.52,0,0,1,664.87,251.32Z"/><path class="cls-9" d="M678.62,236a138.5,138.5,0,0,0-5,15.53c-1.25,5.86-1.33,18.95-1.33,18.95"/><path class="cls-9" d="M672.33,271.35h0a.84.84,0,0,1-.83-.84c0-.53.09-13.24,1.35-19.12a136,136,0,0,1,5-15.65.83.83,0,0,1,1.07-.48.84.84,0,0,1,.47,1.08c0,.09-3.7,9.67-4.92,15.4s-1.31,18.65-1.31,18.78A.83.83,0,0,1,672.33,271.35Z"/><path class="cls-10" d="M364.18,438.16c2.49-40.06-2.08-112.87,73.21-103.24C518.1,345.26,495,439.62,495,439.62Z"/><path class="cls-9" d="M369,438.27c2.3-37.17-1.93-104.72,67.92-95.78,74.88,9.58,53.45,97.13,53.45,97.13Z"/><circle class="cls-11" cx="417.23" cy="385.44" r="30.48"/><path class="cls-9" d="M421.23,355c-14.44-2.47-29.87,8.18-31.39,19l57.24,5.26C445.06,366.94,432.69,357,421.23,355Z"/><path class="cls-9" d="M440.56,384.69c-.41,8-4.76,14.22-9.7,14s-8.63-6.92-8.22-14.89,4.75-14.23,9.7-14S441,376.72,440.56,384.69Z"/><path class="cls-10" d="M417.23,417.59a32.15,32.15,0,1,1,32.14-32.15A32.18,32.18,0,0,1,417.23,417.59Zm0-61a28.83,28.83,0,1,0,28.82,28.82A28.85,28.85,0,0,0,417.23,356.62Z"/><path class="cls-12" d="M481.88,437.33l-.2,0a.83.83,0,0,1-.61-1c.05-.23,5.34-22.72-.15-45.46a.83.83,0,1,1,1.61-.39c5.59,23.14.21,46,.15,46.23A.82.82,0,0,1,481.88,437.33Z"/><path class="cls-12" d="M477.25,378.41a.82.82,0,0,1-.75-.49,58.62,58.62,0,0,0-7.87-12.7.83.83,0,0,1,1.29-1.05A60.67,60.67,0,0,1,478,377.23a.83.83,0,0,1-.41,1.1A.85.85,0,0,1,477.25,378.41Z"/><path class="cls-9" d="M213.55,612.57h-.61a8.3,8.3,0,0,1,.45-16.59h.16c4.79,0,16.32-5.83,40.44-43.85a8.31,8.31,0,0,1,12.46-1.81,343.73,343.73,0,0,0,61.61,42.27,8.29,8.29,0,0,1-7.5,14.79A353.77,353.77,0,0,1,262.83,569C242.62,599.38,227.62,612.57,213.55,612.57Z"/><path class="cls-9" d="M264.87,548.84a4.31,4.31,0,0,1-.71-.05,5,5,0,0,1-4.22-5.63c1.18-8.25-.28-39.19-10.74-63.24a5,5,0,0,1,1.76-6.1c22.72-15.49,71.13-17.34,73.18-17.41a5,5,0,0,1,.34,9.95c-.44,0-42.76,1.64-64.51,13.6,9.27,24,11.37,53.81,9.82,64.61A5,5,0,0,1,264.87,548.84Z"/><path class="cls-10" d="M273.23,542.4c-3.31-7.81-18.22-6.92-27-.23-4.68,3.58-11,14.33-11.69,18.23s2,7.44,6.68,7c5.72-.49,13.57-8.8,13.57-8.8-5.22,5.12,1.52,8.73,11.57,1.33C272,555.85,276.94,551.14,273.23,542.4Z"/><path class="cls-9" d="M558.55,440.45a.63.63,0,0,1-.23,0,.83.83,0,0,1-.57-1c2.21-7.7,4.63-12.4,7.8-15a8.61,8.61,0,0,1,.25-5.4,10.74,10.74,0,0,1,3.92-5,4.24,4.24,0,0,1-1-3.95,10.24,10.24,0,0,1,3.55-5.23,3.8,3.8,0,0,1-.94-2.51c-.05-4.94,9.13-12.48,19.51-13.9a.82.82,0,0,1,.93.71.83.83,0,0,1-.71.94c-9.85,1.34-18.11,8.47-18.07,12.24a2.14,2.14,0,0,0,.6,1.5A20.31,20.31,0,0,1,589,400.7c5.1,1,7.17,2.05,6.93,3.59-.46,2.91-11.3,3.51-18.57,2.65a10.19,10.19,0,0,1-3.73-1.08,9,9,0,0,0-3.27,4.53,2.61,2.61,0,0,0,.83,2.72c3.07-1.59,7.41-2.25,13.13-1,7.52,1.66,7.8,2.58,8,3.12a1.1,1.1,0,0,1-.26,1.1c-1.59,1.68-13.12.89-18.91-.53a8.68,8.68,0,0,1-2-.75,9.09,9.09,0,0,0-3.76,4.49,7.1,7.1,0,0,0-.37,3.82c.3-.18.6-.34.91-.49,3.43-1.63,7.59-1.35,12.7.83,3.39,1.46,5,2.74,5.15,4.05a1.84,1.84,0,0,1-1,1.73c-2.53,1.68-11.4,1.42-16-1a6.54,6.54,0,0,1-2.56-2.47c-2.71,2.48-4.9,6.91-6.89,13.86A.83.83,0,0,1,558.55,440.45Zm9-15.47a4.92,4.92,0,0,0,2,2c3.74,2,11.1,2.45,13.87,1.34.56-.23.64-.42.64-.42S584,427,580,425.24c-4.65-2-8.36-2.27-11.34-.86A8.66,8.66,0,0,0,567.55,425Zm5.53-10.9.43.12c5.86,1.43,13.77,1.67,16.48,1.23a37.42,37.42,0,0,0-6-1.69C579.36,412.73,575.76,413,573.08,414.08Zm2.1-9.33a10.15,10.15,0,0,0,2.38.54c8.27,1,15.56-.18,16.65-1.21-.28-.25-1.39-1-5.52-1.75A18.69,18.69,0,0,0,575.18,404.75Z"/><path class="cls-9" d="M342.6,609.8c1.1-.35.73-1.4-.49-1.4H319.65c-42.77-4.53-72.65,1.54-53.82,3s-1.33,1.13-15.08,6.33,102.28,6.52,112.83,0C373.32,611.7,327.45,614.66,342.6,609.8Z"/><polygon class="cls-10" points="503.42 616.42 308 609.95 299.89 420.46 530.65 425.63 503.42 616.42"/><path class="cls-9" d="M369,612.8a.84.84,0,0,1-.83-.76L352.53,421.73a.83.83,0,0,1,1.65-.14L369.85,611.9a.83.83,0,0,1-.76.89Z"/><polygon class="cls-10" points="503.42 616.42 555.94 608.43 572.48 432.24 530.65 425.63 503.42 616.42"/><polygon class="cls-13" points="503.42 616.42 555.94 608.43 572.48 432.24 530.65 425.63 503.42 616.42"/><path class="cls-9" d="M324.7,573.42l-4.82-112.57a20.36,20.36,0,0,1,20.79-21.22l146.08,3.27a20.34,20.34,0,0,1,19.69,23.22l-16.2,113.45A20.35,20.35,0,0,1,469.42,597l-125.06-4.15A20.34,20.34,0,0,1,324.7,573.42Z"/><path class="cls-11" d="M340.48,474.17l22.6.72-.19,5.83-14.14-.45-.14,4.34,13.12.42-.18,5.56-13.12-.42-.17,5.39,14.56.46-.2,6.18-23-.73Z"/><path class="cls-11" d="M367.27,502.35l.87-27.29,14.06.44a20.68,20.68,0,0,1,5.95.86,6.4,6.4,0,0,1,3.26,2.59,7.72,7.72,0,0,1-2.72,10.94,10.29,10.29,0,0,1-3,1,8.18,8.18,0,0,1,2.17,1.07,9.26,9.26,0,0,1,1.3,1.48,10.88,10.88,0,0,1,1.13,1.73l3.83,8-9.53-.3-4.24-8.49a6.62,6.62,0,0,0-1.46-2.15,3.61,3.61,0,0,0-2.05-.7l-.74,0-.35,11.08Zm9-16,3.56.12a13.2,13.2,0,0,0,2.24-.3,2.25,2.25,0,0,0,1.4-.82,2.77,2.77,0,0,0-.19-3.62,5.11,5.11,0,0,0-3.13-.81l-3.7-.11Z"/><path class="cls-11" d="M396.93,503.29,397.8,476l14.05.45a20.35,20.35,0,0,1,6,.86,6.33,6.33,0,0,1,3.25,2.59,7.52,7.52,0,0,1,1.13,4.46,7.65,7.65,0,0,1-1.1,3.89,7.47,7.47,0,0,1-2.74,2.58,10.21,10.21,0,0,1-3,1,8.53,8.53,0,0,1,2.16,1.08,8.15,8.15,0,0,1,1.31,1.47,10.64,10.64,0,0,1,1.12,1.74l3.84,8-9.53-.3L410,495.36a6.11,6.11,0,0,0-1.46-2.15,3.42,3.42,0,0,0-2-.7l-.75,0-.35,11.08Zm9-16,3.55.11a13.16,13.16,0,0,0,2.25-.3,2.26,2.26,0,0,0,1.39-.81,2.75,2.75,0,0,0-.19-3.63,5.13,5.13,0,0,0-3.12-.8l-3.71-.12Z"/><path class="cls-11" d="M425.2,490.55q.21-6.69,4.05-10.29t10.49-3.39q6.81.21,10.38,4t3.36,10.37a16.76,16.76,0,0,1-1.86,7.79,11.5,11.5,0,0,1-4.8,4.62,15.39,15.39,0,0,1-7.65,1.46,17.58,17.58,0,0,1-7.59-1.71,11.56,11.56,0,0,1-4.76-4.81A15.46,15.46,0,0,1,425.2,490.55Zm8.43.3q-.13,4.14,1.34,6a5.83,5.83,0,0,0,8.39.31q1.54-1.72,1.69-6.31c.08-2.56-.38-4.46-1.37-5.68a5.36,5.36,0,0,0-4.16-1.91,5.16,5.16,0,0,0-4.16,1.68C434.29,486.1,433.72,488.07,433.63,490.85Z"/><path class="cls-11" d="M457.69,505.22l.87-27.29,14.06.45a20.33,20.33,0,0,1,5.95.86,6.35,6.35,0,0,1,3.26,2.59,7.72,7.72,0,0,1-2.72,10.94,10,10,0,0,1-3,1,5.7,5.7,0,0,1,3.47,2.56,10.88,10.88,0,0,1,1.13,1.73l3.83,8-9.53-.3-4.24-8.49a6.35,6.35,0,0,0-1.46-2.15,3.54,3.54,0,0,0-2.05-.7l-.74,0-.35,11.07Zm9-16,3.56.11a12.2,12.2,0,0,0,2.24-.3,2.19,2.19,0,0,0,1.4-.81,2.77,2.77,0,0,0-.19-3.62,5.11,5.11,0,0,0-3.13-.81l-3.7-.12Z"/><path class="cls-11" d="M471.12,551.59a2.17,2.17,0,0,1-1.61-.7l-14.2-15.55-15.32,14a2.18,2.18,0,0,1-3.08-.13l-14.2-15.55-15.32,14a2.18,2.18,0,0,1-3.08-.13L390.11,532l-15.32,14a2.2,2.2,0,0,1-3.08-.14l-14.2-15.54-15.32,14a2.18,2.18,0,0,1-2.94-3.22l16.93-15.47a2.18,2.18,0,0,1,3.08.14l14.2,15.54,15.32-14a2.17,2.17,0,0,1,3.08.14L406.06,543l15.32-14a2.18,2.18,0,0,1,3.08.14l14.2,15.54,15.32-14a2.18,2.18,0,0,1,3.08.14L472.73,548a2.18,2.18,0,0,1-.14,3.07A2.15,2.15,0,0,1,471.12,551.59Z"/><polygon class="cls-10" points="208.6 620.45 198.22 615.5 188.96 570.43 193.99 564.9 208.6 620.45"/><polygon class="cls-10" points="208.6 620.45 222.38 612.4 210.57 575.27 193.99 564.9 208.6 620.45"/><polygon class="cls-13" points="208.6 620.45 222.38 612.4 210.57 575.27 193.99 564.9 208.6 620.45"/><path class="cls-9" d="M434.54,628.64h-1.15a8.29,8.29,0,1,1,.46-16.58c12.78.41,39.82-7.44,55.27-22.43a8.41,8.41,0,0,1,3.39-2c26.19-7.86,35.94,8,36.34,8.7l-14.27,8.45a1.91,1.91,0,0,0,.19.3c-.16-.22-3.87-5-15.68-2.06C479.7,620.71,449.94,628.64,434.54,628.64Z"/><polygon class="cls-10" points="433.62 639.67 403.41 637.77 401.02 582.07 441.63 583.59 433.62 639.67"/><polygon class="cls-10" points="433.62 639.67 440.68 632.64 445.06 597.91 441.63 583.59 433.62 639.67"/><polygon class="cls-13" points="433.62 639.67 440.68 632.64 445.06 597.91 441.63 583.59 433.62 639.67"/><path class="cls-9" d="M608.66,618.58a4.93,4.93,0,0,1-3-1c-17.24-13.1-40.55-36.37-49.5-58.81a5.14,5.14,0,0,1-.28-1c-4.36-25.94-8.53-80.53-8.7-82.84a5,5,0,1,1,9.92-.75c0,.56,4.25,55.68,8.51,81.41,8.92,21.82,33.1,44.23,46.07,54.09a5,5,0,0,1-3,8.94Z"/><path class="cls-9" d="M631.66,621.09c-3.85,0-8.21-1.74-13-5.18a5,5,0,0,1,5.83-8.07c4.11,3,6.36,3.3,7.13,3.3a5,5,0,1,1,0,10Z"/><path class="cls-10" d="M620.09,615.77c5.33-15.82,27.16-12.7,34.68-10.35s14.29,5.31,18.36,8,4.14,7.11-1.29,9.65c-6.7,3.13-23.49.35-23.49.35,8.69,3.81,0,9.91-15.27,3.92C628.11,625.36,618.21,621.56,620.09,615.77Z"/><path class="cls-9" d="M567.1,481.72c-2,13.44-13.1,23.35-22.15,22s-9.43-13.33-7.46-26.77,5.56-23.23,14.61-21.9S569.08,468.28,567.1,481.72Z"/><circle class="cls-9" cx="348.16" cy="426.71" r="1.36"/><path class="cls-9" d="M362,436.5a1.36,1.36,0,1,1-1.36-1.36A1.36,1.36,0,0,1,362,436.5Z"/><path class="cls-9" d="M363.5,597.25a1.36,1.36,0,1,1-1.36-1.36A1.36,1.36,0,0,1,363.5,597.25Z"/><path class="cls-9" d="M376,607.05a1.36,1.36,0,1,1-1.36-1.36A1.36,1.36,0,0,1,376,607.05Z"/><path class="cls-9" d="M136.87,599.63a16,16,0,0,1-12.16-6.55.83.83,0,1,1,1.36-1c3.1,4.47,9.92,6.86,13,5.44a2.17,2.17,0,0,0,.78-.56,10,10,0,0,1-5.85-7.43c-.38-2.1-.68-5,1.06-5.34,2.38-.53,5.49,5.22,6.69,9.58a5.89,5.89,0,0,1,.21,2.23,7.34,7.34,0,0,0,3,.23,3.22,3.22,0,0,0,2.28-1.23c-2-1.37-3.38-3.77-3.83-6.95-.64-4.54-.16-5.33.34-5.72a1.15,1.15,0,0,1,1.15-.13c1.77.76,3.92,7.19,4.33,10.84a4.91,4.91,0,0,1,0,1.15,6.47,6.47,0,0,0,2.24.43,7.25,7.25,0,0,0,4-1,5.49,5.49,0,0,1-.67-.49c-1.72-1.47-2.41-3.82-2.12-7.19.22-2.6.82-4,1.86-4.47a1.89,1.89,0,0,1,2,.4c1.8,1.43,3.47,6,2.87,9.22a4.93,4.93,0,0,1-.84,1.91c3,.52,7.33-.33,11-1.24a.83.83,0,1,1,.4,1.61c-4.49,1.11-9.33,2-12.75,1a9.45,9.45,0,0,1-5.8,1.93,8.22,8.22,0,0,1-2.72-.51,4.72,4.72,0,0,1-3.53,2.11,9.15,9.15,0,0,1-3.71-.32,3.74,3.74,0,0,1-1.68,1.47A6.77,6.77,0,0,1,136.87,599.63Zm-1.43-13.73c-.1.25-.27,1.09.14,3.39a8.41,8.41,0,0,0,4.71,6.15,5.44,5.44,0,0,0-.19-1.18C138.79,589.52,136.32,586.25,135.44,585.9Zm9.24-1.45a22.81,22.81,0,0,0,.3,3.41,8.56,8.56,0,0,0,2.51,5.35A25.93,25.93,0,0,0,144.68,584.45ZM155.12,583h0s-.62.31-.86,3.08.27,4.69,1.55,5.79a4.49,4.49,0,0,0,1,.62,3.59,3.59,0,0,0,.91-1.7,10.36,10.36,0,0,0-2-7.35C155.38,583.08,155.16,583,155.12,583Z"/><polygon class="cls-9" points="379.67 612.17 384.17 604.37 379.67 596.57 374.86 596.57 377.58 604.37 374.86 612.17 379.67 612.17"/><path class="cls-9" d="M375.18,608.43a4.06,4.06,0,1,1,0-8.11l-7.65-1.53-2,6.17,3.41,5.21Z"/><path class="cls-10" d="M375.83,596.57h-9l-4.49,7.8,4.49,7.8h9l4.49-7.8Zm-4.5,11.86a4.06,4.06,0,1,1,4.05-4.06A4.06,4.06,0,0,1,371.33,608.43Z"/><polygon class="cls-10" points="693.23 596.05 689.89 590.26 693.23 584.47 696.8 584.47 694.78 590.26 696.8 596.05 693.23 596.05"/><path class="cls-10" d="M696.56,593.28a3,3,0,1,0,0-6l5.68-1.14,1.51,4.59-2.54,3.86Z"/><path class="cls-9" d="M696.08,584.47h6.69l3.34,5.79-3.34,5.79h-6.69l-3.34-5.79Zm3.34,8.81a3,3,0,1,0-3-3A3,3,0,0,0,699.42,593.28Z"/><path class="cls-9" d="M568.91,603.74h7.49a3.56,3.56,0,0,0,3.55-3.55h0a3.56,3.56,0,0,0-3.55-3.55h-7.49a3.56,3.56,0,0,0-3.55,3.55h0A3.56,3.56,0,0,0,568.91,603.74Z"/><path class="cls-10" d="M556.93,597.05a7.39,7.39,0,1,1,3.32,10.25A7.64,7.64,0,0,1,556.93,597.05Z"/><rect class="cls-9" x="562.47" y="591.81" width="2.27" height="16.76" transform="translate(817.44 1383.42) rotate(-154.76)"/></g></g></svg>