<svg xmlns="http://www.w3.org/2000/svg" viewBox="0 0 38.99 39.24"><defs><style>.cls-1{fill:#f5c932;}.cls-2{fill:#fff;}</style></defs><g id="Layer_2" data-name="Layer 2"><g id="Layer_1-2" data-name="Layer 1"><path class="cls-1" d="M32.49,25a14.57,14.57,0,0,1-1.35,2.64A13.87,13.87,0,0,1,19.5,34.13a14.28,14.28,0,0,1-14-14.52A14.34,14.34,0,0,1,17.92,5.21V.08A19.62,19.62,0,0,0,19.5,39.24a19.56,19.56,0,0,0,19.42-18H33.41A14.8,14.8,0,0,1,32.49,25Z"/><polygon class="cls-2" points="33.49 5.11 33.49 18.04 38.99 18.04 38.99 0 21.07 0 21.07 5.11 33.49 5.11"/><polygon class="cls-2" points="21.75 7.09 31.05 7.09 31.05 16.77 21.75 7.09"/></g></g></svg>