<svg xmlns="http://www.w3.org/2000/svg" viewBox="0 0 222.92 61.25"><defs><style>.cls-1{fill:#f5c932;}.cls-2{fill:#fff;}.cls-3{fill:#b3b3b3;}</style></defs><g id="Layer_2" data-name="Layer 2"><g id="Layer_1-2" data-name="Layer 1"><polygon class="cls-1" points="55.66 26.93 62.76 10.84 68.24 10.84 55.66 39.06 43.08 10.84 48.56 10.84 55.66 26.93"/><rect class="cls-1" x="70.66" y="10.84" width="4.67" height="28.22"/><path class="cls-1" d="M77.3,39.06V23.56A12.4,12.4,0,0,1,89.64,10.84h2l.11,5.24-2.12,0c-4.11,0-7.61,4.17-7.7,8.12V39.06H77.3V23.56"/><path class="cls-1" d="M118.79,39.06H105.93c-7.09,0-12.86-6.33-12.86-14.11s5.77-14.11,12.86-14.11S118.79,17.17,118.79,25ZM105.93,15.72c-4.47,0-8.12,4.14-8.12,9.23s3.65,9.23,8.12,9.23h8.12V25C114.05,19.86,110.41,15.72,105.93,15.72Z"/><path class="cls-2" d="M121.68,39.24V0h4.77V34.44h13.2v4.8Z"/><path class="cls-2" d="M149.23,33.86c.8.71,2.25,1.06,4.36,1.06a8,8,0,0,0,5.84-2.4c.2-.21.61-.69,1.22-1.43l4.78,1.71A33,33,0,0,1,162.89,36a13.14,13.14,0,0,1-22.43-9.3,12.71,12.71,0,0,1,3.85-9.3,13.16,13.16,0,0,1,17.45-1c.38.32.76.67,1.13,1,.15.15.59.64,1.32,1.45l-2.4,2.42Zm8-14.77c-.53-.41-1.74-.62-3.62-.62a8.23,8.23,0,0,0-8.21,8.24c0,1.86.2,3.06.62,3.62Z"/><path class="cls-2" d="M189.66,17.15V15.49h4.8V39.26h-4.8v-3a10.85,10.85,0,0,1-8,3.58A13.11,13.11,0,0,1,168.5,26.73a12.66,12.66,0,0,1,3.84-9.29,12.66,12.66,0,0,1,9.29-3.84A10.89,10.89,0,0,1,189.66,17.15Zm0,11.33V25a7.78,7.78,0,0,0-2.22-4.07,8.23,8.23,0,0,0-14.05,5.82,8.24,8.24,0,0,0,14.05,5.81A7.75,7.75,0,0,0,189.66,28.48Z"/><path class="cls-2" d="M218.12,17.13V6.8h4.8V39.24h-4.8v-3a10.86,10.86,0,0,1-8.05,3.58A12.67,12.67,0,0,1,200.78,36a12.7,12.7,0,0,1-3.84-9.3,12.7,12.7,0,0,1,3.84-9.3,12.64,12.64,0,0,1,9.29-3.86A10.89,10.89,0,0,1,218.12,17.13Zm0,11.35V25a7.69,7.69,0,0,0-2.24-4.06,8.23,8.23,0,0,0-14,5.82,8.24,8.24,0,0,0,14,5.81A7.63,7.63,0,0,0,218.12,28.48Z"/><path class="cls-1" d="M33.34,25A14.57,14.57,0,0,1,32,27.65a13.87,13.87,0,0,1-11.64,6.48,14.28,14.28,0,0,1-14-14.52A14.34,14.34,0,0,1,18.77,5.21V.08a19.62,19.62,0,0,0,1.58,39.16,19.56,19.56,0,0,0,19.42-18H34.25A14.38,14.38,0,0,1,33.34,25Z"/><polygon class="cls-2" points="34.34 5.11 34.34 18.04 39.84 18.04 39.84 0 21.92 0 21.92 5.11 34.34 5.11"/><polygon class="cls-2" points="22.59 7.09 31.9 7.09 31.9 16.77 22.59 7.09"/><path class="cls-3" d="M15.73,46.7V61.13h-2.9V51.75L9,61.13H6.78L2.89,51.75v9.38H0V46.7H3.29L7.87,57.43,12.46,46.7Z"/><path class="cls-3" d="M36.1,58.38H30.36l-.95,2.75h-3l5.19-14.45h3.36l5.19,14.45H37.05Zm-.78-2.31-2.09-6-2.09,6Z"/><path class="cls-3" d="M63.07,61.13H60.18l-6.55-9.9v9.9h-2.9V46.68h2.9l6.55,9.92V46.68h2.89Z"/><path class="cls-3" d="M83.45,58.38H77.7l-1,2.75h-3L78.9,46.68h3.37l5.19,14.45H84.4Zm-.79-2.31-2.09-6-2.08,6Z"/><path class="cls-3" d="M108.12,51a3.41,3.41,0,0,0-1.36-1.38,4.14,4.14,0,0,0-2-.48,4.48,4.48,0,0,0-2.27.58,4,4,0,0,0-1.55,1.66,5.81,5.81,0,0,0,0,5,4.05,4.05,0,0,0,1.58,1.65,4.64,4.64,0,0,0,2.36.58,4,4,0,0,0,2.7-.88A4.16,4.16,0,0,0,109,55.32h-5V53.11h7.81v2.52a6.74,6.74,0,0,1-1.24,2.79,7,7,0,0,1-2.45,2.06,7.29,7.29,0,0,1-3.36.77,7.56,7.56,0,0,1-3.77-.94,6.89,6.89,0,0,1-2.64-2.61,8,8,0,0,1,0-7.62A6.78,6.78,0,0,1,101,47.46a8.05,8.05,0,0,1,8,.25A6.07,6.07,0,0,1,111.45,51Z"/><path class="cls-3" d="M125.52,49v3.62h4.86V55h-4.86v3.82H131v2.36h-8.37V46.68H131V49Z"/><path class="cls-3" d="M158,46.7V61.13h-2.89V51.75l-3.87,9.38h-2.19l-3.88-9.38v9.38h-2.9V46.7h3.29l4.59,10.73,4.58-10.73Z"/><path class="cls-3" d="M172.45,49v3.62h4.86V55h-4.86v3.82h5.48v2.36h-8.37V46.68h8.37V49Z"/><path class="cls-3" d="M201.57,61.13h-2.89l-6.55-9.9v9.9h-2.9V46.68h2.9l6.55,9.92V46.68h2.89Z"/><path class="cls-3" d="M222.92,46.7V49h-3.84V61.13h-2.9V49h-3.84V46.7Z"/></g></g></svg>