<svg xmlns="http://www.w3.org/2000/svg" viewBox="0 0 957.71 488.82"><defs><style>.cls-1{fill:#d6cef1;}.cls-2{fill:#fcf1cc;}.cls-3{fill:#fee4d8;}.cls-4{fill:#cdf3f8;}</style></defs><g id="Layer_2" data-name="Layer 2"><g id="Layer_1-2" data-name="Layer 1"><polygon class="cls-1" points="956.56 298.94 957.71 298.28 957.71 299.61 956.56 298.94"/><polygon class="cls-1" points="30.02 33.24 34.22 25.97 38.42 33.24 30.02 33.24"/><polygon class="cls-2" points="34.22 81.65 23.57 63.2 44.88 63.2 34.22 81.65"/><polygon class="cls-1" points="65.27 89.96 67.59 85.93 69.92 89.96 65.27 89.96"/><polygon class="cls-2" points="741.94 381.88 771.27 398.82 741.94 415.75 741.94 381.88"/><polygon class="cls-1" points="766.36 432.19 773.29 428.19 773.29 436.19 766.36 432.19"/><polygon class="cls-1" points="692.77 363.46 696.21 365.45 692.77 367.44 692.77 363.46"/><polygon class="cls-1" points="693.97 398.82 722.79 382.17 722.79 415.46 693.97 398.82"/><polygon class="cls-1" points="644.82 365.45 660.67 356.3 660.67 374.6 644.82 365.45"/><polygon class="cls-3" points="685.29 417.24 711.17 432.19 685.29 447.13 685.29 417.24"/><polygon class="cls-4" points="622.83 375.79 662.71 398.82 622.83 421.84 622.83 375.79"/><polygon class="cls-2" points="638.13 432.19 664.01 417.24 664.01 447.13 638.13 432.19"/><polygon class="cls-4" points="573.03 355.79 589.31 365.18 573.03 374.58 573.03 355.79"/><polygon class="cls-3" points="571.14 398.55 611.02 375.53 611.02 421.58 571.14 398.55"/><polygon class="cls-1" points="649.07 365.68 649.08 365.68 649.07 365.69 649.07 365.68"/><polygon class="cls-2" points="527.03 365.18 546.37 354.01 546.37 376.35 527.03 365.18"/><polygon class="cls-4" points="567.5 412.94 600.38 431.92 567.5 450.9 567.5 412.94"/><polygon class="cls-2" points="507.37 375.53 547.25 398.55 507.37 421.58 507.37 375.53"/><polygon class="cls-1" points="513.34 431.92 553.22 408.9 553.22 454.95 513.34 431.92"/><polygon class="cls-1" points="462.29 340.5 470.63 345.32 462.29 350.13 462.29 340.5"/><polygon class="cls-1" points="457.75 378.69 497.63 355.66 497.63 401.71 457.75 378.69"/><polygon class="cls-1" points="517.88 460.48 526.22 465.29 517.88 470.11 517.88 460.48"/><polygon class="cls-1" points="358.64 129.59 362.97 132.09 358.64 134.59 358.64 129.59"/><polygon class="cls-1" points="378.12 165.46 379.96 164.4 379.96 166.53 378.12 165.46"/><polygon class="cls-1" points="420 345.32 429.81 339.65 429.81 350.99 420 345.32"/><polygon class="cls-4" points="451.78 389.03 491.66 412.06 451.78 435.08 451.78 389.03"/><polygon class="cls-2" points="477.03 445.43 487.99 439.1 487.99 451.76 477.03 445.43"/><polygon class="cls-2" points="49.2 0 55.52 10.96 42.87 10.96 49.2 0"/><polygon class="cls-3" points="393.98 355.66 433.86 378.69 393.98 401.71 393.98 355.66"/><polygon class="cls-1" points="399.95 412.06 439.83 389.03 439.83 435.08 399.95 412.06"/><polygon class="cls-4" points="353.63 254.4 372.98 265.57 353.63 276.74 353.63 254.4"/><polygon class="cls-1" points="352.76 298.94 392.64 275.92 392.64 321.97 352.76 298.94"/><polygon class="cls-2" points="399.76 432.41 422.31 445.43 399.76 458.45 399.76 432.41"/><polygon class="cls-1" points="313.19 265.57 325.73 258.33 325.73 272.81 313.19 265.57"/><polygon class="cls-1" points="94.3 169.51 106.84 162.27 106.84 176.74 94.3 169.51"/><polygon class="cls-4" points="346.79 309.29 386.67 332.31 346.79 355.34 346.79 309.29"/><polygon class="cls-1" points="364.31 365.68 386.87 352.66 386.87 378.7 364.31 365.68"/><polygon class="cls-3" points="346.11 369.1 377.38 387.15 346.11 405.21 346.11 369.1"/><polygon class="cls-1" points="350.8 413.32 382.07 395.26 382.07 431.37 350.8 413.32"/><polygon class="cls-1" points="305.48 387.15 336.75 369.1 336.75 405.21 305.48 387.15"/><polygon class="cls-2" points="350.64 429.27 368.33 439.48 350.64 449.69 350.64 429.27"/><polygon class="cls-4" points="300.8 395.26 332.06 413.32 300.8 431.37 300.8 395.26"/><polygon class="cls-1" points="314.54 439.48 332.22 429.27 332.22 449.69 314.54 439.48"/><polygon class="cls-1" points="263.5 232.2 263.88 231.98 263.88 232.43 263.5 232.2"/><polygon class="cls-4" points="239.2 256.42 255.05 265.57 239.2 274.72 239.2 256.42"/><polygon class="cls-1" points="128.81 131.96 129.04 132.09 128.81 132.23 128.81 131.96"/><polygon class="cls-1" points="197.86 265.57 210 258.57 210 272.58 197.86 265.57"/><polygon class="cls-2" points="288.99 275.92 328.87 298.94 288.99 321.97 288.99 275.92"/><polygon class="cls-1" points="294.96 332.31 334.84 309.29 334.84 355.34 294.96 332.31"/><polygon class="cls-1" points="237.16 298.94 277.05 275.92 277.05 321.97 237.16 298.94"/><polygon class="cls-3" points="291.83 347.59 323.18 365.68 291.83 383.78 291.83 347.59"/><polygon class="cls-3" points="231.19 309.29 271.07 332.31 231.19 355.34 231.19 309.29"/><polygon class="cls-4" points="239.75 365.68 275.75 344.89 275.75 386.47 239.75 365.68"/><polygon class="cls-2" points="55.16 174.53 85.08 191.79 55.16 209.06 55.16 174.53"/><polygon class="cls-1" points="59.65 216.82 89.56 199.55 89.56 234.09 59.65 216.82"/><polygon class="cls-1" points="16.3 191.79 46.21 174.53 46.21 209.06 16.3 191.79"/><polygon class="cls-3" points="57.3 228.28 80.81 241.85 57.3 255.42 57.3 228.28"/><polygon class="cls-3" points="11.82 199.55 41.73 216.82 11.82 234.09 11.82 199.55"/><polygon class="cls-4" points="18.23 241.85 45.24 226.26 45.24 257.44 18.23 241.85"/><polygon class="cls-2" points="53.83 101.77 77.52 115.44 53.83 129.12 53.83 101.77"/><polygon class="cls-1" points="57.38 135.26 81.06 121.59 81.06 148.93 57.38 135.26"/><polygon class="cls-1" points="23.06 115.44 46.74 101.77 46.74 129.12 23.06 115.44"/><polygon class="cls-3" points="55.52 144.33 74.14 155.07 55.52 165.82 55.52 144.33"/><polygon class="cls-3" points="19.51 121.59 43.2 135.26 19.51 148.93 19.51 121.59"/><polygon class="cls-4" points="24.59 155.07 45.97 142.73 45.97 167.42 24.59 155.07"/><polygon class="cls-3" points="173.39 275.92 213.28 298.94 173.39 321.97 173.39 275.92"/><polygon class="cls-1" points="179.37 332.31 219.25 309.29 219.25 355.34 179.37 332.31"/><polygon class="cls-2" points="121.83 253.35 143 265.57 121.83 277.79 121.83 253.35"/><polygon class="cls-1" points="121.57 298.94 161.45 275.92 161.45 321.97 121.57 298.94"/><polygon class="cls-2" points="173.39 342.66 213.28 365.68 173.39 388.71 173.39 342.66"/><polygon class="cls-1" points="75.32 265.57 97.88 252.55 97.88 278.6 75.32 265.57"/><polygon class="cls-4" points="115.6 309.29 155.48 332.31 115.6 355.34 115.6 309.29"/><polygon class="cls-1" points="121.57 365.68 161.45 342.66 161.45 388.71 121.57 365.68"/><polygon class="cls-3" points="231.19 376.03 271.07 399.05 231.19 422.08 231.19 376.03"/><polygon class="cls-1" points="237.16 432.42 277.05 409.4 277.05 455.45 237.16 432.42"/><polygon class="cls-1" points="179.37 399.05 219.25 376.03 219.25 422.08 179.37 399.05"/><polygon class="cls-2" points="231.19 442.77 271.07 465.79 231.19 488.82 231.19 442.77"/><polygon class="cls-4" points="173.39 409.4 213.28 432.42 173.39 455.45 173.39 409.4"/><polygon class="cls-4" points="162.94 409.4 134.98 425.54 162.94 441.68 162.94 409.4"/><polygon class="cls-1" points="179.37 465.79 219.25 442.77 219.25 488.82 179.37 465.79"/><polygon class="cls-2" points="57.8 275.92 97.68 298.94 57.8 321.97 57.8 275.92"/><polygon class="cls-1" points="63.77 332.31 103.65 309.29 103.65 355.34 63.77 332.31"/><polygon class="cls-1" points="116.71 377.96 153.25 399.05 116.71 420.15 116.71 377.96"/><polygon class="cls-1" points="1.64 245.39 36.6 265.57 1.64 285.75 1.64 245.39"/><polygon class="cls-4" points="5.97 298.94 45.85 275.92 45.85 321.97 5.97 298.94"/><polygon class="cls-3" points="57.8 342.66 97.68 365.68 57.8 388.71 57.8 342.66"/><polygon class="cls-1" points="65.29 399.05 102.89 377.35 102.89 420.76 65.29 399.05"/><polygon class="cls-1" points="0 309.29 39.88 332.31 0 355.34 0 309.29"/><polygon class="cls-1" points="5.97 365.68 45.85 342.66 45.85 388.71 5.97 365.68"/><polygon class="cls-4" points="61.15 415.2 90.98 432.42 61.15 449.64 61.15 415.2"/><polygon class="cls-1" points="75.01 465.79 98.03 452.5 98.03 479.08 75.01 465.79"/><polygon class="cls-4" points="4.18 383.26 31.52 399.05 4.18 414.84 4.18 383.26"/><polygon class="cls-1" points="15.63 432.42 41.03 417.76 41.03 447.09 15.63 432.42"/><polygon class="cls-1" points="0.94 444.39 38 465.79 0.94 487.19 0.94 444.39"/></g></g></svg>