<svg id="Capa_1" enable-background="new 0 0 512 512" height="512" viewBox="0 0 512 512" width="512" xmlns="http://www.w3.org/2000/svg"><g><path d="m497 432h-170.188l-6.581 19.743c-2.042 6.125-7.774 10.257-14.231 10.257h-100c-6.457 0-12.189-4.132-14.231-10.257l-6.581-19.743h-170.188c-8.284 0-15 6.716-15 15v10c0 30.376 24.624 55 55 55h402c30.376 0 55-24.624 55-55v-10c0-8.284-6.716-15-15-15z"/><path d="m171 262c13.785 0 25-11.215 25-25v-20c0-13.785-11.215-25-25-25s-25 11.215-25 25v20c0 13.785 11.215 25 25 25z"/><path d="m171 292c-30.681 0-56.464 21.365-63.253 50h126.507c-6.79-28.635-32.573-50-63.254-50z"/><path d="m210.23 412.257 6.582 19.743h78.377l6.581-19.743c2.042-6.125 7.774-10.257 14.23-10.257h166v-255c0-19.926-13.022-36.858-31-42.759v70.759c0 24.813-20.187 45-45 45-19.634 0-36.371-12.641-42.504-30.21l-62.496-26.04v46.25c0 8.284-6.716 15-15 15s-15-6.716-15-15v-55h-15c-30.715 0-56.098-23.204-59.578-53h-121.422c-24.813 0-45 20.187-45 45v255h166c6.456 0 12.188 4.132 14.23 10.257zm-134.23-55.257c0-37.157 21.446-69.394 52.607-84.999-7.871-9.516-12.607-21.716-12.607-35.001v-20c0-30.327 24.673-55 55-55s55 24.673 55 55v20c0 13.285-4.736 25.485-12.607 35.001 31.161 15.605 52.607 47.842 52.607 84.999 0 8.284-6.716 15-15 15h-160c-8.284 0-15-6.716-15-15z"/><path d="m391 175c0 8.284 6.716 15 15 15s15-6.716 15-15v-160c0-8.284-6.716-15-15-15s-15 6.716-15 15v6.25l-90 37.5v72.5l90 37.5z"/><path d="m256 125h15v-60h-15c-16.569 0-30 13.431-30 30 0 16.569 13.431 30 30 30z"/></g></svg>