<svg xmlns="http://www.w3.org/2000/svg" viewBox="0 0 108.54 96.66"><defs><style>.cls-1{fill:#5c4fa1;}</style></defs><g id="Layer_2" data-name="Layer 2"><g id="Layer_1-2" data-name="Layer 1"><path class="cls-1" d="M0,91.24V14.53A5.41,5.41,0,0,1,5.42,9.11h68L62.62,19.92H10.81v65.9h65.9v-28L87.52,47V91.24a5.42,5.42,0,0,1-5.41,5.42H5.42A5.41,5.41,0,0,1,0,91.24ZM47.08,49.73,35.54,38.19a8.32,8.32,0,0,0-14.19,5.88,8.16,8.16,0,0,0,2.45,5.86l17.4,17.4a8.29,8.29,0,0,0,11.74,0L106.1,14.17a8.28,8.28,0,0,0,0-11.74,8.3,8.3,0,0,0-11.74,0Z"/></g></g></svg>