<svg id="Layer_1" data-name="Layer 1" xmlns="http://www.w3.org/2000/svg" xmlns:xlink="http://www.w3.org/1999/xlink" viewBox="0 0 600 650"><defs><style>.cls-1{fill:none;}.cls-2{fill:url(#linear-gradient);}.cls-3{clip-path:url(#clip-path);}.cls-4{fill:url(#linear-gradient-2);}.cls-5{fill:url(#linear-gradient-3);}.cls-6{opacity:0.4;}.cls-7,.cls-8,.cls-9{fill:#fff;}.cls-8{opacity:0.15;}.cls-8,.cls-9{isolation:isolate;}.cls-9{opacity:0.6;}</style><linearGradient id="linear-gradient" x1="300" y1="-22.26" x2="300" y2="652" gradientTransform="matrix(1, 0, 0, -1, 0, 652)" gradientUnits="userSpaceOnUse"><stop offset="0" stop-color="#5c3bc8"/><stop offset="0.23" stop-color="#6140cb"/><stop offset="0.52" stop-color="#6f4fd5"/><stop offset="0.83" stop-color="#8668e4"/><stop offset="1" stop-color="#9679ef"/></linearGradient><clipPath id="clip-path"><rect class="cls-1" width="600" height="674.26"/></clipPath><linearGradient id="linear-gradient-2" x1="252.61" y1="129.92" x2="273.6" y2="-109.94" gradientTransform="matrix(1, 0, 0, -1, 0, 652)" gradientUnits="userSpaceOnUse"><stop offset="0" stop-color="#af9fe5"/><stop offset="0.31" stop-color="#ac9ae6"/><stop offset="0.69" stop-color="#a28bea"/><stop offset="1" stop-color="#9679ef"/></linearGradient><linearGradient id="linear-gradient-3" x1="279.51" y1="-119.58" x2="279.51" y2="83.33" xlink:href="#linear-gradient"/></defs><rect class="cls-2" width="600" height="674.26"/><g class="cls-3"><rect class="cls-1" width="550.92" height="674.26"/><path class="cls-4" d="M-96.65,600c25.4-24.68,67.13-40.36,106.09-32.89,26.82,5.14,50.71,17.36,75.23,27.72s51.5,19.19,78.86,16.68c59.9-5.51,97.61-61.64,156.94-70.43,63.11-9.35,128.82,38.24,187.7,17.23,42.52-15.17,63.61-61.75,109.27-68.15v241.7H-96.65Z"/><path class="cls-5" d="M-41,618c34.44,5.41,53.53-.16,82.14-14.92,19.22-9.91,35.43-24,58.34-28.31,28-5.23,56.87,6.05,78.43,19.85s39.85,30.72,65.19,40.7c52.6,20.72,120,5.18,167.34-21.21,20.51-11.42,39.05-24.8,61.38-34.3s50.1-14.78,74.42-8.25c20,5.37,34.71,17.82,53.77,24.72v175.3H-41Z"/><g class="cls-6"><path class="cls-7" d="M89.16,131.5a4.06,4.06,0,1,1-4.06-4.06h0a4,4,0,0,1,4.06,4Z"/><path class="cls-7" d="M387.15,523.5a4.06,4.06,0,1,1-4.12-4h.06A4.06,4.06,0,0,1,387.15,523.5Z"/><path class="cls-7" d="M114.76,632.08a2.08,2.08,0,1,1-2.09-2.07h0a2.07,2.07,0,0,1,2.08,2.06Z"/><circle class="cls-7" cx="460.2" cy="518.51" r="4.44"/><path class="cls-7" d="M137.81,599.12a5.1,5.1,0,1,1-5.1-5.1h0A5.1,5.1,0,0,1,137.81,599.12Z"/><path class="cls-7" d="M94.18,103.8a2.44,2.44,0,1,1-2.45-2.43h0a2.43,2.43,0,0,1,2.43,2.43Z"/><path class="cls-7" d="M450.38,554.89a2.44,2.44,0,1,1-2.45-2.43h0A2.45,2.45,0,0,1,450.38,554.89Z"/><circle class="cls-7" cx="37.59" cy="118.79" r="1.46"/><path class="cls-7" d="M502.24,388.3a1.46,1.46,0,1,1-1.46-1.46h0A1.47,1.47,0,0,1,502.24,388.3Z"/><path class="cls-7" d="M183.68,558.49a1.42,1.42,0,1,1-1.42-1.42h0A1.43,1.43,0,0,1,183.68,558.49Z"/><path class="cls-7" d="M51,532.57a3,3,0,1,1-3-3A3,3,0,0,1,51,532.57Z"/><circle class="cls-7" cx="463.95" cy="428.76" r="1.46"/></g><path class="cls-8" d="M573.84,746.85h2.48V-64h-2.48v46.58H521.31V-64h-2.48v46.58H466.29V-64h-2.48v46.58H411.27V-64h-2.48v46.58H356.26V-64h-2.48v46.58H301.24V-64h-2.48v46.58H246.22V-64h-2.48v46.58H191.21V-64h-2.48v46.58H136.19V-64h-2.48v46.58H81.17V-64H78.69v46.58H26.16V-64H23.68V746.9h2.48V700.23H78.69v46.62h2.48V700.23h52.54v46.62h2.48V700.23h52.54v46.62h2.48V700.23h52.53v46.62h2.48V700.23h52.54v46.62h2.48V700.23h52.54v46.62h2.48V700.23h52.53v46.62h2.48V700.23h52.54v46.62h2.48V700.23h52.54v46.62h2.48V700.23h52.53ZM78.69,697.75H26.16V645.21H78.69Zm55,0H81.17V645.21h52.54Zm55,0h-52.5V645.21h52.54Zm55,0H191.21V645.21h52.53Zm55,0H246.22V645.21h52.54Zm55,0H301.24V645.21h52.54Zm55,0H356.26V645.21h52.53Zm55,0H411.27V645.21h52.54Zm55,0h-52.4V645.21h52.54Zm55,0H521.31V645.21h52.53Zm-495.15-55H26.16V590.19H78.69Zm55,0H81.17V590.19h52.54Zm55,0H136.19V590.19h52.54Zm55,0H191.21V590.19h52.53Zm55,0H246.22V590.19h52.54Zm55,0h-52.3V590.19h52.54Zm55,0H356.26V590.19h52.53Zm55,0H411.27V590.19h52.54Zm55,0H466.29V590.19h52.54Zm55,0H521.31V590.19h52.53Zm-495.15-55H26.16V535.18H78.69Zm55,0H81.17V535.18h52.54Zm55,0h-52.2V535.18h52.54Zm55,0H191.21V535.18h52.53Zm55,0H246.22V535.18h52.54Zm55,0H301.24V535.18h52.54Zm55,0H356.26V535.18h52.53Zm55,0H411.27V535.18h52.54Zm55,0h-52.1V535.18h52.54Zm55,0H521.31V535.18h52.53Zm-495.15-55H26.16V480.16H78.69Zm55,0H81.17V480.16h52.54Zm55,0H136.19V480.16h52.54Zm55,0h-52V480.16h52.53Zm55,0h-52V480.16h52.54Zm55,0h-52V480.16h52.54Zm55,0h-52V480.16h52.53Zm55,0h-52V480.16h52.54Zm55,0H466.29V480.16h52.54Zm55,0H521.31V480.16h52.53Zm-495.15-55H26.16V425.14H78.69Zm55,0H81.17V425.14h52.54Zm55,0h-51.9V425.14h52.54Zm55,0H191.21V425.14h52.53Zm55,0H246.22V425.14h52.54Zm55,0H301.24V425.14h52.54Zm55,0H356.26V425.14h52.53Zm55,0H411.27V425.14h52.54Zm55,0h-51.8V425.14h52.54Zm55,0H521.31V425.14h52.53Zm-495.15-55H26.16V370.12H78.69Zm55,0H81.17V370.12h52.54Zm55,0H136.19V370.12h52.54Zm55,0H191.21V370.12h52.53Zm55,0H246.22V370.12h52.54Zm55,0h-51.7V370.12h52.54Zm55,0H356.26V370.12h52.53Zm55,0H411.27V370.12h52.54Zm55,0H466.29V370.12h52.54Zm55,0H521.31V370.12h52.53Zm-495.15-55H26.16V315.11H78.69Zm55,0H81.17V315.11h52.54Zm55,0h-51.6V315.11h52.54Zm55,0H191.21V315.11h52.53Zm55,0H246.22V315.11h52.54Zm55,0H301.24V315.11h52.54Zm55,0H356.26V315.11h52.53Zm55,0H411.27V315.11h52.54Zm55,0h-51.5V315.11h52.54Zm55,0H521.31V315.11h52.53Zm-495.15-55H26.16V260.09H78.69Zm55,0H81.17V260.09h52.54Zm55,0H136.19V260.09h52.54Zm55,0H191.21V260.09h52.53Zm55,0H246.22V260.09h52.54Zm55,0h-51.4V260.09h52.54Zm55,0H356.26V260.09h52.53Zm55,0H411.27V260.09h52.54Zm55,0H466.29V260.09h52.54Zm55,0H521.31V260.09h52.53Zm-495.15-55H26.16V205.08H78.69Zm55,0H81.17V205.08h52.54Zm55,0h-51.3V205.08h52.54Zm55,0H191.21V205.08h52.53Zm55,0H246.22V205.08h52.54Zm55,0H301.24V205.08h52.54Zm55,0H356.26V205.08h52.53Zm55,0H411.27V205.08h52.54Zm55,0h-51.2V205.08h52.54Zm55,0H521.31V205.08h52.53Zm-495.15-55H26.16V150.06H78.69Zm55,0H81.17V150.06h52.54Zm55,0H136.19V150.06h52.54Zm55,0H191.21V150.06h52.53Zm55,0H246.22V150.06h52.54Zm55,0h-51.1V150.06h52.54Zm55,0H356.26V150.06h52.53Zm55,0H411.27V150.06h52.54Zm55,0H466.29V150.06h52.54Zm55,0h-51V150.06h52.53Zm-495.15-55h-51V95H78.69Zm55,0h-51V95h52.54Zm55,0h-51V95h52.54Zm55,0h-51V95h52.53Zm55,0h-51V95h52.54Zm55,0H301.24V95h52.54Zm55,0H356.26V95h52.53Zm55,0H411.27V95h52.54Zm55,0h-50.9V95h52.54Zm55,0H521.31V95h52.53ZM77,92.75H26.16V40H78.69Zm55,0H81.17V40h52.54Zm55,0H136.19V40h52.54Zm55,0H191.21V40h52.53Zm55,0H246.22V40h52.54Zm55,0h-50.8V40h52.54Zm55,0H356.26V40h52.53Zm55,0H411.27V40h52.54Zm55,0H466.29V40h52.54Zm55,0H521.31V40h52.53Zm-495.15-55H26.16V-15H78.69Zm55,0H81.17V-15h52.54Zm55,0h-50.7V-15h52.54Zm55,0H191.21V-15h52.53Zm55,0H246.22V-15h52.54Zm55,0H301.24V-15h52.54Zm55,0H356.26V-15h52.53Zm55,0H411.27V-15h52.54Zm55,0h-50.6V-15h52.54Zm55,0H521.31V-15h52.53Z"/><path class="cls-9" d="M424.51,556a12.38,12.38,0,1,1-12.39-12.37h0A12.39,12.39,0,0,1,424.51,556Z"/><circle class="cls-9" cx="55.2" cy="183.66" r="12.37"/></g></svg>