<svg xmlns="http://www.w3.org/2000/svg" xmlns:xlink="http://www.w3.org/1999/xlink" viewBox="0 0 344.8 243.77"><defs><style>.cls-1{fill:none;}.cls-2{fill:#bdd0fb;}.cls-3{fill:#ff8f65;}.cls-4,.cls-5,.cls-6{fill:#ad9be6;}.cls-4{opacity:0.6;}.cls-11,.cls-4,.cls-5,.cls-65{isolation:isolate;}.cls-5{opacity:0.53;}.cls-11,.cls-65,.cls-7{fill:#fff;}.cls-8{fill:url(#linear-gradient);}.cls-9{fill:#28187b;}.cls-10{fill:url(#linear-gradient-2);}.cls-11{opacity:0.65;}.cls-12{fill:#7d97f4;}.cls-13{fill:url(#linear-gradient-3);}.cls-14{fill:url(#linear-gradient-4);}.cls-15{fill:url(#linear-gradient-5);}.cls-16{fill:url(#linear-gradient-6);}.cls-17{fill:url(#linear-gradient-7);}.cls-18{fill:url(#linear-gradient-8);}.cls-19{fill:#a9f;}.cls-20{fill:url(#linear-gradient-9);}.cls-21{fill:url(#linear-gradient-10);}.cls-22{fill:url(#linear-gradient-11);}.cls-23{fill:url(#linear-gradient-12);}.cls-24{fill:url(#linear-gradient-13);}.cls-25{fill:url(#linear-gradient-14);}.cls-26{fill:url(#linear-gradient-15);}.cls-27{fill:url(#linear-gradient-16);}.cls-28{fill:#d2ccff;}.cls-29{fill:#ed7c58;}.cls-30,.cls-65{opacity:0.66;}.cls-31{fill:url(#linear-gradient-17);}.cls-32{fill:url(#linear-gradient-18);}.cls-33{fill:url(#linear-gradient-19);}.cls-34{fill:url(#linear-gradient-20);}.cls-35{fill:url(#linear-gradient-21);}.cls-36{fill:url(#linear-gradient-22);}.cls-37{fill:url(#linear-gradient-23);}.cls-38{fill:url(#linear-gradient-24);}.cls-39{fill:url(#linear-gradient-25);}.cls-40{fill:url(#linear-gradient-26);}.cls-41{fill:url(#linear-gradient-27);}.cls-42{fill:url(#linear-gradient-28);}.cls-43{fill:url(#linear-gradient-29);}.cls-44{fill:url(#linear-gradient-30);}.cls-45{fill:url(#linear-gradient-31);}.cls-46{fill:url(#linear-gradient-32);}.cls-47{fill:url(#linear-gradient-33);}.cls-48{fill:url(#linear-gradient-34);}.cls-49{fill:url(#linear-gradient-35);}.cls-50{fill:url(#linear-gradient-36);}.cls-51{fill:url(#linear-gradient-37);}.cls-52{fill:url(#linear-gradient-38);}.cls-53{fill:url(#linear-gradient-39);}.cls-54{fill:url(#linear-gradient-40);}.cls-55{fill:url(#linear-gradient-41);}.cls-56{fill:url(#linear-gradient-42);}.cls-57{fill:url(#linear-gradient-43);}.cls-58{fill:url(#linear-gradient-44);}.cls-59{fill:url(#linear-gradient-45);}.cls-60{clip-path:url(#clip-path);}.cls-61{fill:url(#linear-gradient-46);}.cls-62{fill:url(#linear-gradient-47);}.cls-63{fill:url(#linear-gradient-48);}.cls-64{fill:url(#linear-gradient-49);}.cls-66{fill:url(#linear-gradient-50);}.cls-67{fill:url(#linear-gradient-51);}.cls-68{fill:url(#linear-gradient-52);}.cls-69{fill:url(#linear-gradient-53);}.cls-70{fill:url(#linear-gradient-54);}.cls-71{fill:url(#linear-gradient-55);}.cls-72{fill:url(#linear-gradient-56);}.cls-73{fill:url(#linear-gradient-57);}.cls-74{fill:url(#linear-gradient-58);}</style><linearGradient id="linear-gradient" x1="185.82" y1="258.99" x2="166.71" y2="183.59" gradientTransform="matrix(1, 0, 0, -1, 0, 447.38)" gradientUnits="userSpaceOnUse"><stop offset="0" stop-color="#09005d"/><stop offset="1" stop-color="#1a0f91"/></linearGradient><linearGradient id="linear-gradient-2" x1="177" y1="288.92" x2="177" y2="215.07" xlink:href="#linear-gradient"/><linearGradient id="linear-gradient-3" x1="-352.53" y1="251.62" x2="-353.59" y2="243.85" gradientTransform="translate(-35.35 447.38) rotate(180)" xlink:href="#linear-gradient"/><linearGradient id="linear-gradient-4" x1="-352.91" y1="245.75" x2="-355.35" y2="230.28" gradientTransform="translate(-35.35 447.38) rotate(180)" gradientUnits="userSpaceOnUse"><stop offset="0" stop-color="#020039"/><stop offset="1" stop-color="#090056"/></linearGradient><linearGradient id="linear-gradient-5" x1="-357.16" y1="250.13" x2="-354.03" y2="250.13" gradientTransform="translate(-35.35 447.38) rotate(180)" gradientUnits="userSpaceOnUse"><stop offset="0" stop-color="#ff928e"/><stop offset="1" stop-color="#feb3b1"/></linearGradient><linearGradient id="linear-gradient-6" x1="-343.76" y1="261.17" x2="-351" y2="255.12" xlink:href="#linear-gradient-4"/><linearGradient id="linear-gradient-7" x1="-346.16" y1="262.7" x2="-338" y2="262.7" gradientTransform="translate(-35.35 447.38) rotate(180)" xlink:href="#linear-gradient"/><linearGradient id="linear-gradient-8" x1="-344.08" y1="267.57" x2="-339.69" y2="267.57" xlink:href="#linear-gradient-5"/><linearGradient id="linear-gradient-9" x1="-353.55" y1="272.27" x2="-347.67" y2="284.82" gradientTransform="translate(-35.35 447.38) rotate(180)" xlink:href="#linear-gradient"/><linearGradient id="linear-gradient-10" x1="-327.95" y1="291.28" x2="-321.53" y2="291.28" xlink:href="#linear-gradient-5"/><linearGradient id="linear-gradient-11" x1="299.28" y1="329.99" x2="303.29" y2="314.62" gradientTransform="matrix(1, 0, 0, -1, 0, 447.38)" xlink:href="#linear-gradient-5"/><linearGradient id="linear-gradient-12" x1="302.34" y1="331.97" x2="295.8" y2="323.13" gradientTransform="matrix(1, 0, 0, -1, 0, 447.38)" xlink:href="#linear-gradient-5"/><linearGradient id="linear-gradient-13" x1="-338.59" y1="334.12" x2="-329.94" y2="322.99" gradientTransform="translate(-35.35 447.38) rotate(180)" xlink:href="#linear-gradient"/><linearGradient id="linear-gradient-14" x1="304.98" y1="330.01" x2="298.43" y2="321.17" gradientTransform="matrix(1, 0, 0, -1, 0, 447.38)" xlink:href="#linear-gradient-5"/><linearGradient id="linear-gradient-15" x1="-334.24" y1="312.35" x2="-334.9" y2="301.58" gradientTransform="translate(-35.35 447.38) rotate(180)" gradientUnits="userSpaceOnUse"><stop offset="0" stop-color="#cb236d"/><stop offset="1" stop-color="#4c246d"/></linearGradient><linearGradient id="linear-gradient-16" x1="-3255.81" y1="1379.42" x2="-3269.98" y2="1363.22" gradientTransform="matrix(1, -0.04, -0.04, -1, 4105.71, 723.27)" xlink:href="#linear-gradient-5"/><linearGradient id="linear-gradient-17" x1="-2697.07" y1="813.9" x2="-2704.21" y2="792.03" gradientTransform="matrix(0.93, -0.37, -0.37, -0.93, 3071.98, -80.01)" xlink:href="#linear-gradient-5"/><linearGradient id="linear-gradient-18" x1="-466.73" y1="220.64" x2="-453.08" y2="220.64" gradientTransform="matrix(1, 0, 0, -1, 738.16, 447.38)" xlink:href="#linear-gradient-5"/><linearGradient id="linear-gradient-19" x1="-475.01" y1="219.61" x2="-467.11" y2="219.61" gradientTransform="matrix(1, 0, 0, -1, 738.16, 447.38)" xlink:href="#linear-gradient-5"/><linearGradient id="linear-gradient-20" x1="270.88" y1="254.61" x2="251.03" y2="282.27" gradientTransform="matrix(1, 0, 0, -1, 0, 447.38)" xlink:href="#linear-gradient-5"/><linearGradient id="linear-gradient-21" x1="269.25" y1="252.58" x2="269.36" y2="219.53" gradientTransform="matrix(1, 0, 0, -1, 0, 447.38)" xlink:href="#linear-gradient-4"/><linearGradient id="linear-gradient-22" x1="-472.62" y1="271.34" x2="-467.78" y2="271.34" gradientTransform="matrix(1, 0, 0, -1, 738.16, 447.38)" xlink:href="#linear-gradient-5"/><linearGradient id="linear-gradient-23" x1="-464.93" y1="277.59" x2="-429.71" y2="275.2" gradientTransform="matrix(1, 0, 0, -1, 738.16, 447.38)" xlink:href="#linear-gradient-5"/><linearGradient id="linear-gradient-24" x1="-4756.44" y1="297.57" x2="-4750.83" y2="283.51" gradientTransform="translate(-4661.6 447.38) rotate(180)" xlink:href="#linear-gradient-4"/><linearGradient id="linear-gradient-25" x1="-4767.98" y1="289.46" x2="-4757.63" y2="265.9" gradientTransform="translate(-4661.6 447.38) rotate(180)" xlink:href="#linear-gradient-5"/><linearGradient id="linear-gradient-26" x1="-4756" y1="188.84" x2="-4749.16" y2="268.77" gradientTransform="translate(-4661.6 447.38) rotate(180)" xlink:href="#linear-gradient-5"/><linearGradient id="linear-gradient-27" x1="-4742.26" y1="187.65" x2="-4735.42" y2="267.6" gradientTransform="translate(-4661.6 447.38) rotate(180)" xlink:href="#linear-gradient-5"/><linearGradient id="linear-gradient-28" x1="94.51" y1="283.74" x2="91.42" y2="266.75" gradientTransform="matrix(1, 0, 0, -1, 0, 447.38)" xlink:href="#linear-gradient-5"/><linearGradient id="linear-gradient-29" x1="-4751.47" y1="263.04" x2="-4742.93" y2="263.04" gradientTransform="translate(-4661.6 447.38) rotate(180)" xlink:href="#linear-gradient-5"/><linearGradient id="linear-gradient-30" x1="92.49" y1="291.24" x2="96.62" y2="282.06" gradientTransform="matrix(1, 0, 0, -1, 0, 447.38)" xlink:href="#linear-gradient-5"/><linearGradient id="linear-gradient-31" x1="-4757.59" y1="297.11" x2="-4751.99" y2="283.05" gradientTransform="translate(-4661.6 447.38) rotate(180)" xlink:href="#linear-gradient-4"/><linearGradient id="linear-gradient-32" x1="89.92" y1="290.09" x2="94.05" y2="280.91" gradientTransform="matrix(1, 0, 0, -1, 0, 447.38)" xlink:href="#linear-gradient-5"/><linearGradient id="linear-gradient-33" x1="-4770.03" y1="288.56" x2="-4759.67" y2="265" gradientTransform="translate(-4661.6 447.38) rotate(180)" xlink:href="#linear-gradient-5"/><linearGradient id="linear-gradient-34" x1="117.25" y1="268.03" x2="113.12" y2="292.02" gradientTransform="matrix(1, 0, 0, -1, 0, 447.38)" xlink:href="#linear-gradient-5"/><linearGradient id="linear-gradient-35" x1="22.4" y1="217.09" x2="21.1" y2="205.73" gradientTransform="matrix(1, 0, 0, -1, 0, 447.38)" xlink:href="#linear-gradient-5"/><linearGradient id="linear-gradient-36" x1="32.98" y1="215.87" x2="31.68" y2="204.51" gradientTransform="matrix(1, 0, 0, -1, 0, 447.38)" xlink:href="#linear-gradient-5"/><linearGradient id="linear-gradient-37" x1="24.48" y1="288.15" x2="24.48" y2="271.11" gradientTransform="matrix(1, 0, 0, -1, 0, 447.38)" xlink:href="#linear-gradient-5"/><linearGradient id="linear-gradient-38" x1="30.28" y1="296.18" x2="22.54" y2="287.06" gradientTransform="matrix(1, 0, 0, -1, 0, 447.38)" xlink:href="#linear-gradient-5"/><linearGradient id="linear-gradient-39" x1="-5149.78" y1="1814.08" x2="-5139.25" y2="1814.08" gradientTransform="matrix(0.64, -0.77, -0.77, -0.64, 4707.13, -2634.3)" xlink:href="#linear-gradient"/><linearGradient id="linear-gradient-40" x1="29.23" y1="296.87" x2="22.51" y2="288.1" gradientTransform="matrix(1, 0, 0, -1, 0, 447.38)" xlink:href="#linear-gradient-5"/><linearGradient id="linear-gradient-41" x1="21.07" y1="285.69" x2="10.78" y2="266.78" xlink:href="#linear-gradient"/><linearGradient id="linear-gradient-42" x1="11.35" y1="256.07" x2="22.47" y2="256.07" gradientTransform="matrix(1, 0, 0, -1, 0, 447.38)" xlink:href="#linear-gradient-5"/><linearGradient id="linear-gradient-43" x1="704.64" y1="-1754.71" x2="711.7" y2="-1754.71" gradientTransform="matrix(0.46, 0.89, 0.89, -0.46, 1279.13, -1257.45)" xlink:href="#linear-gradient-5"/><linearGradient id="linear-gradient-44" x1="-1943.09" y1="-183.49" x2="-1933.99" y2="-171.29" gradientTransform="matrix(0.9, -0.43, -0.43, -0.9, 1720.05, -819.82)" xlink:href="#linear-gradient"/><linearGradient id="linear-gradient-45" x1="-1896.43" y1="-157.85" x2="-1913.29" y2="-164.87" gradientTransform="matrix(1, 0, 0, -1, 1973.96, -17.65)" gradientUnits="userSpaceOnUse"><stop offset="0" stop-color="#e1473d"/><stop offset="1" stop-color="#e9605a"/></linearGradient><clipPath id="clip-path"><path class="cls-1" d="M68.56,156.48c-.31-.11-1.15-.71-2.53-2.64A52.8,52.8,0,0,1,59,139c-.61-2.29-.55-3.32-.44-3.63.31.11,1.15.71,2.53,2.64s5.55,3.09,6.85,5.85-.4,6.8.19,9A8.15,8.15,0,0,1,68.56,156.48Z"/></clipPath><linearGradient id="linear-gradient-46" x1="-1905.05" y1="-163.11" x2="-1923.09" y2="-164.15" gradientTransform="matrix(0.9, -0.43, -0.43, -0.9, 1720.05, -819.82)" xlink:href="#linear-gradient"/><linearGradient id="linear-gradient-47" x1="-1939.19" y1="-169.6" x2="-1939.85" y2="-152.85" gradientTransform="matrix(0.9, -0.43, -0.43, -0.9, 1720.05, -819.82)" xlink:href="#linear-gradient"/><linearGradient id="linear-gradient-48" x1="34.24" y1="290.55" x2="38.86" y2="290.55" gradientTransform="matrix(1, 0, 0, -1, 0, 447.38)" gradientUnits="userSpaceOnUse"><stop offset="0" stop-color="#dae3fe"/><stop offset="1" stop-color="#e9effd"/></linearGradient><linearGradient id="linear-gradient-49" x1="34.69" y1="288.74" x2="39.32" y2="288.74" xlink:href="#linear-gradient-48"/><linearGradient id="linear-gradient-50" x1="35.94" y1="286.96" x2="40.57" y2="286.96" xlink:href="#linear-gradient-48"/><linearGradient id="linear-gradient-51" x1="37.32" y1="284.93" x2="41.94" y2="284.93" xlink:href="#linear-gradient-48"/><linearGradient id="linear-gradient-52" x1="41.43" y1="278" x2="51.98" y2="278" xlink:href="#linear-gradient-48"/><linearGradient id="linear-gradient-53" x1="39.83" y1="281.97" x2="40.85" y2="281.97" xlink:href="#linear-gradient-48"/><linearGradient id="linear-gradient-54" x1="60.88" y1="303.68" x2="65.99" y2="303.68" xlink:href="#linear-gradient-48"/><linearGradient id="linear-gradient-55" x1="45.88" y1="279.98" x2="50.16" y2="279.98" gradientTransform="matrix(1, 0, 0, -1, 0, 447.38)" xlink:href="#linear-gradient-5"/><linearGradient id="linear-gradient-56" x1="70.52" y1="307.57" x2="83.1" y2="307.57" xlink:href="#linear-gradient-48"/><linearGradient id="linear-gradient-57" x1="71.82" y1="297.67" x2="82.38" y2="297.67" xlink:href="#linear-gradient-48"/><linearGradient id="linear-gradient-58" x1="65.7" y1="315.49" x2="72.71" y2="315.49" xlink:href="#linear-gradient-48"/></defs><g id="Layer_2" data-name="Layer 2"><g id="Layer_1-2" data-name="Layer 1"><path class="cls-2" d="M121.38,12.32h0a.13.13,0,0,1-.13-.13h0a12.49,12.49,0,0,1,.13-1.49.12.12,0,0,1,.13-.1h0a.13.13,0,0,1,.11.15h0a11.45,11.45,0,0,0-.17,1.42.14.14,0,0,1-.07.16Z"/><path class="cls-2" d="M122.59,7.79h-.06a.12.12,0,0,1-.07-.15v0a11.5,11.5,0,0,1,10.32-6.36,11.29,11.29,0,0,1,2.09.19.13.13,0,0,1,0,.26h0a11.38,11.38,0,0,0-12.13,6A.14.14,0,0,1,122.59,7.79Z"/><path class="cls-3" d="M136.13,8.92c0,1.84-1.48,3.82-3.32,3.82s-3.32-2-3.32-3.82a3.33,3.33,0,0,1,6.64,0Z"/><path class="cls-2" d="M201.25,9.11h-.06a.12.12,0,0,1-.05-.17h0a11.5,11.5,0,0,1,10.32-6.36,12.1,12.1,0,0,1,2.08.19.13.13,0,0,1,.11.15h0a.13.13,0,0,1-.15.11h0a12.2,12.2,0,0,0-2-.19A11.27,11.27,0,0,0,201.38,9,.15.15,0,0,1,201.25,9.11Z"/><path class="cls-4" d="M306.86,78h19.46a2.42,2.42,0,0,0,2.42-2.42h0a2.42,2.42,0,0,0-2.42-2.42H306.86a2.42,2.42,0,0,0-2.42,2.42h0A2.42,2.42,0,0,0,306.86,78Z"/><path class="cls-4" d="M266.62,87h62.57a2.42,2.42,0,0,0,2.42-2.42h0a2.42,2.42,0,0,0-2.42-2.42H266.62a2.42,2.42,0,0,0-2.42,2.42h0A2.42,2.42,0,0,0,266.62,87Z"/><path class="cls-5" d="M259.1,96.49h62.57a2.42,2.42,0,0,0,2.42-2.42h0a2.42,2.42,0,0,0-2.41-2.43H259.1a2.42,2.42,0,0,0-2.42,2.42h0a2.42,2.42,0,0,0,2.42,2.42Z"/><path class="cls-5" d="M276.89,115.45h44.78a2.42,2.42,0,0,0,2.42-2.42h0a2.42,2.42,0,0,0-2.42-2.42H276.89a2.42,2.42,0,0,0-2.42,2.42h0a2.42,2.42,0,0,0,2.42,2.42Z"/><path class="cls-4" d="M252.08,106h62.57a2.42,2.42,0,0,0,2.42-2.42h0a2.42,2.42,0,0,0-2.42-2.42H252.08a2.42,2.42,0,0,0-2.42,2.42h0a2.42,2.42,0,0,0,2.42,2.42Z"/><path class="cls-6" d="M21.48,67.53H2.38A2.37,2.37,0,0,1,0,65.17v0H0a2.39,2.39,0,0,1,2.38-2.38h19.1a2.4,2.4,0,0,1,2.38,2.38h0a2.38,2.38,0,0,1-2.38,2.38Z"/><path class="cls-6" d="M68.76,80.08H7.23A2.39,2.39,0,0,1,4.85,77.7h0a2.39,2.39,0,0,1,2.38-2.38H68.76a2.39,2.39,0,0,1,2.38,2.38h0A2.39,2.39,0,0,1,68.76,80.08Z"/><path class="cls-6" d="M76.15,89.4H14.62A2.38,2.38,0,0,1,12.24,87h0a2.4,2.4,0,0,1,2.38-2.38H76.15A2.4,2.4,0,0,1,78.53,87h0a2.38,2.38,0,0,1-2.38,2.38Z"/><path class="cls-6" d="M58.65,108.05h-44a2.38,2.38,0,0,1-2.38-2.38h0a2.4,2.4,0,0,1,2.38-2.38h44A2.39,2.39,0,0,1,61,105.67h0a2.36,2.36,0,0,1-2.36,2.38Z"/><path class="cls-6" d="M83.05,98.69H21.52a2.39,2.39,0,0,1-2.38-2.38h0a2.39,2.39,0,0,1,2.38-2.38H83.05a2.39,2.39,0,0,1,2.38,2.38h0A2.39,2.39,0,0,1,83.05,98.69Z"/><path class="cls-6" d="M245.73,241.28s8.11-9.1,6.79-17.7-7.9-7.57-10.83-2.49-5.56,4.39-3.82-.39,3.92-7.9.32-12.66-4-6.78-2-11,4.57-10.27-3.49-12.41-16.09,4.45-14.21,13.08,3,9.58.42,12.78-1.51,4.51-1.14,6.59-3.59,2.57-3.5-.36,5.11-9.85,1.68-13.08-10.17-3.27-11.89,4.2,3.8,10.82,3.52,13.52-3.24-1.39-5.82,1.36.89,4.92,3.45,6.41,6.42,4.16,2.75,6.11-7.15.08-4.9,6.07Z"/><path class="cls-7" d="M229.06,190.82a4.93,4.93,0,0,0-.73.45,5.5,5.5,0,0,0-.62.56,6.38,6.38,0,0,0-1,1.32,7.55,7.55,0,0,0-.92,3.07,2.54,2.54,0,0,0,0,.39,2.67,2.67,0,0,0,0,.4v1.2l.05.39a3.62,3.62,0,0,0,.13.79c.06.26.11.51.18.77l.1.39.1.37.41,1.49c.55,2,1.08,4,1.49,6a25.75,25.75,0,0,1,.62,6,12.14,12.14,0,0,1-.12,1.48,11.49,11.49,0,0,1-.3,1.44,8.43,8.43,0,0,1-.53,1.37,8.65,8.65,0,0,0-.57,1.54,23.32,23.32,0,0,0-.57,3.09c-.12,1-.21,2.05-.29,3.08-.16,2-.29,4.08-.62,6.09a4,4,0,0,1-.14.75c0,.25-.11.5-.16.75s-.13.49-.2.74-.07.24-.11.36-.08.24-.13.36l-.13.36c-.05.12-.11.24-.16.35a5.66,5.66,0,0,1-.34.7,7.23,7.23,0,0,1-.95,1.25l.09.08a6.66,6.66,0,0,0,1.09-1.22,9.92,9.92,0,0,0,.76-1.4,16.6,16.6,0,0,0,.95-3,60.09,60.09,0,0,0,.94-6.11c.12-1,.24-2,.39-3a22.79,22.79,0,0,1,.64-2.95,9.56,9.56,0,0,1,.55-1.37,9.1,9.1,0,0,0,.61-1.52,10.53,10.53,0,0,0,.37-1.57,11.91,11.91,0,0,0,.16-1.58,26.12,26.12,0,0,0-.59-6.23c-.42-2-.94-4-1.56-6-.15-.5-.31-1-.46-1.49l-.13-.36-.11-.36c-.07-.24-.13-.49-.2-.73s-.11-.48-.17-.73l-.06-.36v-.37a10.42,10.42,0,0,1-.11-1.48,8.13,8.13,0,0,1,.14-1.47,7,7,0,0,1,.43-1.42,6.16,6.16,0,0,1,.34-.68,4.41,4.41,0,0,1,.42-.64,5.61,5.61,0,0,1,1.11-1.12Z"/><path class="cls-7" d="M246.32,221.69a43.15,43.15,0,0,1-1,4.78c-.21.79-.45,1.57-.71,2.34-.06.2-.13.39-.19.58l-.21.58c-.14.38-.3.76-.45,1.14s-.32.76-.49,1.13-.36.74-.54,1.11c-.38.73-.78,1.45-1.23,2.15a20.91,20.91,0,0,1-1.46,2,23.76,23.76,0,0,1-1.74,1.87l.09.08a15.45,15.45,0,0,0,2-1.71,19.59,19.59,0,0,0,1.64-2,22.81,22.81,0,0,0,1.32-2.17c.19-.38.39-.75.56-1.13s.33-.77.5-1.15.3-.78.44-1.17c.07-.2.13-.39.19-.59s.13-.4.19-.6c.25-.79.45-1.59.62-2.39a26.71,26.71,0,0,0,.62-4.88Z"/><path class="cls-6" d="M109.13,241.28s-9.66-10.84-8.09-21.09,9.41-9,12.9-3,6.63,5.23,4.56-.47-4.68-9.41-.38-15.08,4.74-8.08,2.33-13.14-5.45-12.23,4.16-14.79,19.16,5.3,16.92,15.59-3.58,11.41-.5,15.22,1.8,5.38,1.37,7.86,4.27,3.06,4.17-.44-6.09-11.74-2-15.58,12.11-3.89,14.16,5-4.53,12.9-4.2,16.11,3.86-1.66,6.94,1.62-1.09,5.9-4.09,7.68-7.65,5-3.28,7.27,8.52.1,5.84,7.24Z"/><path class="cls-7" d="M129,181.17a4.78,4.78,0,0,1,.86.54,5.9,5.9,0,0,1,.75.66,7.46,7.46,0,0,1,1.17,1.57,8.85,8.85,0,0,1,1.1,3.65v2.33l0,.47c-.05.31-.09.63-.16.94s-.12.62-.21.92l-.12.46-.12.44-.49,1.77c-.66,2.37-1.28,4.73-1.78,7.1a31.06,31.06,0,0,0-.74,7.13,12.93,12.93,0,0,0,.15,1.76,10.11,10.11,0,0,0,.36,1.72,10.83,10.83,0,0,0,.62,1.64,11.86,11.86,0,0,1,.69,1.83,25.59,25.59,0,0,1,.67,3.68c.15,1.23.26,2.45.35,3.67.19,2.43.35,4.86.74,7.26.05.3.1.6.17.89s.12.6.19.89.16.59.23.88.1.29.14.44a3.12,3.12,0,0,0,.15.43l.16.43c0,.14.12.28.18.42s.27.54.42.82a7.14,7.14,0,0,0,1.13,1.49l-.11.1a7.86,7.86,0,0,1-1.3-1.46,10.81,10.81,0,0,1-.91-1.67,19.05,19.05,0,0,1-1.13-3.55,69,69,0,0,1-1.11-7.29c-.16-1.21-.29-2.42-.48-3.62a24.65,24.65,0,0,0-.76-3.51,10.86,10.86,0,0,0-.65-1.63,10.64,10.64,0,0,1-.73-1.82,13.23,13.23,0,0,1-.44-1.86,17,17,0,0,1-.19-1.89,31.38,31.38,0,0,1,.7-7.42,73.62,73.62,0,0,1,1.86-7.19c.18-.59.37-1.17.56-1.76l.14-.44.13-.43c.1-.29.17-.57.24-.86s.13-.58.2-.87l.08-.44c0-.14.05-.29.06-.44a10.23,10.23,0,0,0,.12-1.75,8.91,8.91,0,0,0-.67-3.45,7.61,7.61,0,0,0-.4-.81c-.15-.26-.32-.52-.5-.77a6.17,6.17,0,0,0-1.33-1.32Z"/><path class="cls-7" d="M108.43,217.89a54.94,54.94,0,0,0,1.2,5.7c.25.94.53,1.87.83,2.79l.24.69c.08.23.16.46.25.69.16.45.35.91.53,1.36s.38.9.59,1.34.42.88.64,1.32c.45.87.93,1.73,1.46,2.56A24.66,24.66,0,0,0,118,239l-.1.1a18.76,18.76,0,0,1-2.36-2,22.23,22.23,0,0,1-2-2.38,28.25,28.25,0,0,1-1.58-2.58c-.22-.45-.46-.89-.66-1.35s-.4-.91-.59-1.37-.37-.92-.53-1.39l-.24-.7c-.07-.24-.15-.47-.22-.71-.29-.94-.53-1.9-.74-2.86a32.42,32.42,0,0,1-.74-5.8Z"/><polygon class="cls-8" points="153.17 185.87 148 232.25 207.99 232.25 200.17 185.87 153.17 185.87"/><path class="cls-9" d="M52.38,71.62v106.2a16.11,16.11,0,0,0,15.7,16.11c38.79,1,174.47,3.43,211.4,2.88a11.85,11.85,0,0,0,11.67-11.52c.71-24.67,1.87-84-2.41-111.55a12.19,12.19,0,0,0-11.67-10.32c-32.5-1-176.33-4.34-213.24-3.52A11.73,11.73,0,0,0,52.38,71.62Z"/><path class="cls-7" d="M59.06,71.1V172a9.34,9.34,0,0,0,9.19,9.34l205.93,2.54a9.08,9.08,0,0,0,9.22-8.94v-.11l.34-100a6.64,6.64,0,0,0-6.48-6.67L66.43,63.9a7.2,7.2,0,0,0-7.37,7Z"/><path class="cls-2" d="M285,188.05h0L59.06,184.2a.32.32,0,0,1-.11-.63h.11L285,187.42a.31.31,0,0,1,.31.29v0A.31.31,0,0,1,285,188.05Z"/><path class="cls-10" d="M220.91,241.69h-87.8c-2.39,0-4.18-1.7-3.72-3.52l1.13-4.45a3.62,3.62,0,0,1,3.56-2.38l84.65-2.64a3.72,3.72,0,0,1,3.84,2.3l2,7.1C225.13,240,223.38,241.69,220.91,241.69Z"/><path class="cls-2" d="M180.38,232.61a.32.32,0,0,1-.26-.37.33.33,0,0,1,.26-.26l3.63,0a.33.33,0,0,1,.32.31.31.31,0,0,1-.3.32h0l-3.63.05Z"/><path class="cls-2" d="M132.64,239.31h0a.3.3,0,0,1-.26-.35h0l.52-3.24a3.64,3.64,0,0,1,3.55-3.08l38.47-.56a.33.33,0,0,1,.32.31.3.3,0,0,1-.28.32h0l-38.47.57a3,3,0,0,0-2.94,2.54l-.51,3.24A.32.32,0,0,1,132.64,239.31Z"/><path class="cls-6" d="M133.69,107.13a4.24,4.24,0,1,0-4-4.47,4.12,4.12,0,0,0,1.1,3A4.2,4.2,0,0,0,133.69,107.13Z"/><path class="cls-6" d="M157.05,100.9l-1-5.16a.36.36,0,0,0-.3-.29l-4.35-.58A19,19,0,0,0,148,89.74l1.1-4.25a.36.36,0,0,0-.15-.39l-4.38-2.91a.36.36,0,0,0-.42,0l-3.49,2.66a19.42,19.42,0,0,0-6.07-1.19l-2.22-3.78a.36.36,0,0,0-.38-.17l-5.16,1a.4.4,0,0,0-.29.31l-.57,4.34a19.27,19.27,0,0,0-5.14,3.46l-4.25-1.1a.35.35,0,0,0-.39.15l-2.91,4.38a.4.4,0,0,0,0,.42l2.66,3.48a19.43,19.43,0,0,0-1.19,6.08l-3.78,2.22a.36.36,0,0,0-.17.38l1,5.16a.36.36,0,0,0,.31.28l4.34.58a19.27,19.27,0,0,0,3.46,5.14l-1.1,4.24a.35.35,0,0,0,.15.39l4.38,2.91a.36.36,0,0,0,.42,0l3.48-2.67a18.89,18.89,0,0,0,6.08,1.2l2.22,3.77a.35.35,0,0,0,.38.17l5.16-1a.35.35,0,0,0,.28-.3l.58-4.35A19.16,19.16,0,0,0,147,116.9l4.24,1.1a.35.35,0,0,0,.39-.15l2.91-4.38a.36.36,0,0,0,0-.42l-2.67-3.49a19,19,0,0,0,1.2-6.07l3.77-2.22A.34.34,0,0,0,157.05,100.9Zm-12.15,9.16a13.14,13.14,0,0,1-15.31,5.12l.29-.81a12.25,12.25,0,1,0-7.94-9.14c0,.25.11.49.17.73.12.43.25.86.41,1.27h0a1.11,1.11,0,0,1,.07.16.78.78,0,0,0,.13.3l-.79.35a12.55,12.55,0,0,1-.84-2.67,13.15,13.15,0,0,1,6.53-14.09,10.07,10.07,0,0,1,1.19-.58,13.34,13.34,0,0,1,2.54-.79A13.12,13.12,0,0,1,144.89,110Zm-16.1-7.37a5.1,5.1,0,1,1,4.85,5.34,5.13,5.13,0,0,1-3.53-1.67A5,5,0,0,1,128.8,102.69Z"/><path class="cls-6" d="M98.3,130.43a2.68,2.68,0,0,0,1.4.15,2.62,2.62,0,0,0,2-3.59,2.52,2.52,0,0,0-1.41-1.38,2.58,2.58,0,0,0-1.92,4.79Z"/><path class="cls-6" d="M114.74,128.09l-2.63-1.32a13,13,0,0,0-1.07-4l1.63-2.45a.24.24,0,0,0,0-.28l-2.14-2.81a.25.25,0,0,0-.27-.08l-2.8.92a13.15,13.15,0,0,0-3.59-2.08l-.59-2.89a.23.23,0,0,0-.2-.19l-3.51-.47a.23.23,0,0,0-.24.13L98,115.2a13,13,0,0,0-4,1.07l-2.46-1.63a.28.28,0,0,0-.28,0l-2.8,2.15a.24.24,0,0,0-.09.27l.93,2.79a13.21,13.21,0,0,0-2.08,3.6l-2.89.58a.24.24,0,0,0-.19.21l-.47,3.5a.26.26,0,0,0,.13.25l2.63,1.32a13,13,0,0,0,1.07,4l-1.63,2.45a.28.28,0,0,0,0,.28L88,138.85a.25.25,0,0,0,.27.08l2.79-.93a12.6,12.6,0,0,0,3.6,2.09l.58,2.89a.24.24,0,0,0,.21.19l3.5.47a.25.25,0,0,0,.25-.14l1.32-2.63a12.36,12.36,0,0,0,4-1.07l2.46,1.63a.21.21,0,0,0,.28,0l2.81-2.14a.25.25,0,0,0,.08-.27l-.93-2.8a12.79,12.79,0,0,0,2.09-3.59l2.88-.59a.24.24,0,0,0,.2-.2l.46-3.5A.23.23,0,0,0,114.74,128.09Zm-6.36,1.11a9.08,9.08,0,0,1-14.66,5.9l.69-.87a8,8,0,0,0,12.86-5.18,8.11,8.11,0,0,0,0-2.41,8,8,0,0,0-15.75.3,8.68,8.68,0,0,0-.06,1.61v.08l-1.11.09a8.9,8.9,0,0,1,.05-1.93v-.15a9.11,9.11,0,0,1,7.44-7.6c.3,0,.61-.09.91-.11h0a9.34,9.34,0,0,1,1.83.06,9.11,9.11,0,0,1,7.75,7.46A9.39,9.39,0,0,1,108.38,129.2Zm-12.55-2.51a3.76,3.76,0,0,1,2-2,3.53,3.53,0,0,1,.84-.25,3.6,3.6,0,0,1,2,.21,3.7,3.7,0,0,1,2,2,3.63,3.63,0,0,1,0,2.82,3.69,3.69,0,1,1-6.86-2.74Z"/><path class="cls-6" d="M260.81,108.69l-.73-3.61a.27.27,0,0,0-.21-.2l-3.05-.41a13,13,0,0,0-2.42-3.59l.78-3a.26.26,0,0,0-.11-.27l-3.07-2a.26.26,0,0,0-.29,0l-2.44,1.87a13.5,13.5,0,0,0-4.26-.84L243.45,94a.23.23,0,0,0-.26-.11l-3.62.73a.27.27,0,0,0-.2.21l-.4,3a13.47,13.47,0,0,0-3.6,2.42l-3-.77a.27.27,0,0,0-.28.11l-2,3.07a.26.26,0,0,0,0,.29l1.87,2.44a13.55,13.55,0,0,0-.84,4.26l-2.64,1.55a.27.27,0,0,0-.12.27l.73,3.61a.22.22,0,0,0,.21.2l3.08.42a13.09,13.09,0,0,0,2.42,3.6l-.78,3a.27.27,0,0,0,.11.28l3.07,2a.23.23,0,0,0,.29,0l2.44-1.86a13.16,13.16,0,0,0,4.26.83l1.56,2.65a.25.25,0,0,0,.26.12l3.62-.73a.27.27,0,0,0,.2-.21l.4-3a13.09,13.09,0,0,0,3.6-2.42l3,.77a.25.25,0,0,0,.28-.1l2-3.07a.27.27,0,0,0,0-.3l-1.9-2.56a13.43,13.43,0,0,0,.84-4.25l2.64-1.56A.25.25,0,0,0,260.81,108.69Zm-8.28,6.58a9.48,9.48,0,0,1-11.06,3.7l.39-1.1a8.31,8.31,0,0,0,10.92-9.48,8.63,8.63,0,0,0-.86-2.37,8.31,8.31,0,0,0-15.43,5.66,8,8,0,0,0,.49,1.6v.09l-1.07.46a9.11,9.11,0,0,1-.6-1.92v-.16a9.49,9.49,0,0,1,4.74-10,7,7,0,0,1,.87-.42h0a9.71,9.71,0,0,1,1.83-.57,9.47,9.47,0,0,1,9.77,14.53Zm-11.8-5.36a3.86,3.86,0,0,1,1.26-2.67,4.33,4.33,0,0,1,.74-.53,4,4,0,0,1,2-.47,3.85,3.85,0,0,1-.33,7.7,3.8,3.8,0,0,1-2.67-1.26,3.85,3.85,0,0,1-1-2.82Z"/><path class="cls-6" d="M244.46,112.69a2.7,2.7,0,0,0,2.48-4,2.54,2.54,0,0,0-.36-.5,2.73,2.73,0,0,0-1.87-.88,2.7,2.7,0,0,0-1.93.7,2.69,2.69,0,0,0,1.68,4.68Z"/><path class="cls-6" d="M200.85,142.23a5.53,5.53,0,0,0,2.64.66h0a5.52,5.52,0,0,0,2.68-10.36h0a5.53,5.53,0,0,0-7.51,2.2v0a5.51,5.51,0,0,0,2.22,7.49Z"/><path class="cls-6" d="M232.74,141l-4.67-3.09a24.74,24.74,0,0,0-1.12-7.83l3.64-4.27a.48.48,0,0,0,0-.54l-3.42-5.79a.46.46,0,0,0-.49-.21l-5.49,1.12a24.53,24.53,0,0,0-6.33-4.76l-.45-5.58a.46.46,0,0,0-.34-.41L207.56,108a.46.46,0,0,0-.5.2L204,112.82a24.18,24.18,0,0,0-7.83,1.12l-4.27-3.64a.48.48,0,0,0-.54,0l-5.75,3.39a.46.46,0,0,0-.21.49l1.12,5.49a24.71,24.71,0,0,0-4.76,6.32l-5.58.45a.47.47,0,0,0-.41.35l-1.68,6.51a.47.47,0,0,0,.19.5l4.68,3.09a24.45,24.45,0,0,0,1.11,7.83L176.38,149a.44.44,0,0,0,0,.53l3.42,5.79a.46.46,0,0,0,.49.22l5.5-1.12a24.31,24.31,0,0,0,6.32,4.76l.45,5.58a.45.45,0,0,0,.34.41l6.52,1.67a.44.44,0,0,0,.5-.19L203,162a24.18,24.18,0,0,0,7.83-1.12l4.27,3.64a.47.47,0,0,0,.53,0l5.79-3.42a.46.46,0,0,0,.22-.49l-1.12-5.49a24.5,24.5,0,0,0,4.75-6.32l5.59-.45a.47.47,0,0,0,.41-.35l1.67-6.51A.47.47,0,0,0,232.74,141Zm-34.86-6.66a6.4,6.4,0,0,1,11.76,1.25,6,6,0,0,1-.52,4.7,6.22,6.22,0,0,1-5.63,3.16h0a5.93,5.93,0,0,1-6.13-4.33A6.1,6.1,0,0,1,197.88,134.33Zm21.81,7.08h0l.13.14.13.12h-.2v-.29h0v.35h0v.07h.37c-1.85,7.24-8.87,12-16.38,12h0a10.69,10.69,0,0,1-4.16-.55h0a16.44,16.44,0,0,1-12-20.1,16.59,16.59,0,0,1,4.41-7.66.43.43,0,0,1,.61,0h0a.43.43,0,0,1,0,.61h0a15.79,15.79,0,0,0-4.19,7.3,15.39,15.39,0,0,0-.5,3.87,15.57,15.57,0,0,0,11.69,15.41h0l.17.09a16.33,16.33,0,0,0,4.11.6h0A15.41,15.41,0,0,0,219,141.6h-.08v0H219a14.51,14.51,0,0,0,.41-3.94,15.83,15.83,0,0,0-11.9-15.29,15.12,15.12,0,0,0-3.27-.49.39.39,0,0,1-.36-.42h0c.19-.24.13-.42.37-.41a16.63,16.63,0,0,1,16,16.51A15.21,15.21,0,0,1,219.69,141.41Z"/><circle class="cls-9" cx="185.81" cy="191.33" r="15.24"/><path class="cls-11" d="M173.25,185.17a.11.11,0,0,1-.08,0,.15.15,0,0,1-.07-.21h0a14.18,14.18,0,0,1,12.71-7.83,14.79,14.79,0,0,1,2.57.23.19.19,0,0,1,.14.2.17.17,0,0,1-.2.13,13.89,13.89,0,0,0-14.94,7.4A.14.14,0,0,1,173.25,185.17Z"/><circle class="cls-7" cx="186.15" cy="191.67" r="12.9"/><path class="cls-9" d="M184.88,201.26v-1.41a11.14,11.14,0,0,1-3.94-.85.81.81,0,0,1-.45-1l.36-1.31a.81.81,0,0,1,1-.56l.1,0a9.49,9.49,0,0,0,3.64.76c1.41,0,2.46-.47,2.46-1.45s-.82-1.41-2.77-1.94c-2.8-.76-4.81-2-4.81-4.44,0-2.22,1.63-3.92,4.45-4.37v-1.4a.81.81,0,0,1,.8-.82h.84a.82.82,0,0,1,.82.82h0v1.26a10,10,0,0,1,3.12.56.81.81,0,0,1,.51,1l-.33,1.21a.83.83,0,0,1-1,.57l0,0a8.64,8.64,0,0,0-3.06-.56c-1.67,0-2.15.7-2.15,1.32s1,1.29,3.18,2c3.1.93,4.39,2.22,4.39,4.53,0,2.13-1.57,4-4.63,4.52v1.57a.82.82,0,0,1-.82.82h-.82a.82.82,0,0,1-.82-.82Z"/><circle class="cls-9" cx="223.22" cy="168.44" r="12.92"/><path class="cls-11" d="M212.57,163.22h-.07a.14.14,0,0,1-.06-.19h0a12,12,0,0,1,10.78-6.63,12.27,12.27,0,0,1,2.18.19.15.15,0,0,1,.11.17.14.14,0,0,1-.16.11,11.84,11.84,0,0,0-12.66,6.29A.12.12,0,0,1,212.57,163.22Z"/><circle class="cls-7" cx="223.5" cy="168.74" r="10.93"/><path class="cls-9" d="M222.43,176.85v-1.16a9.57,9.57,0,0,1-3.34-.72.69.69,0,0,1-.38-.81l.3-1.11a.69.69,0,0,1,.85-.48l.09,0a8.21,8.21,0,0,0,3.09.64c1.19,0,2.08-.4,2.08-1.23s-.69-1.19-2.35-1.64c-2.37-.65-4.07-1.68-4.07-3.77,0-1.88,1.38-3.32,3.77-3.7v-1.21a.69.69,0,0,1,.69-.69h.7a.69.69,0,0,1,.69.69h0v1.07a8.84,8.84,0,0,1,2.65.47.7.7,0,0,1,.43.84l-.28,1a.68.68,0,0,1-.84.49l-.07,0a7.42,7.42,0,0,0-2.59-.47c-1.42,0-1.83.58-1.83,1.11s.85,1.09,2.7,1.66c2.63.79,3.72,1.88,3.72,3.85,0,1.8-1.34,3.42-3.93,3.82v1.33a.69.69,0,0,1-.68.7h-.71A.69.69,0,0,1,222.43,176.85Z"/><circle class="cls-9" cx="160.95" cy="176.12" r="9.16"/><path class="cls-11" d="M153.38,172.39h0a.11.11,0,0,1,0-.14,8.52,8.52,0,0,1,7.64-4.7,8.93,8.93,0,0,1,1.55.14.1.1,0,0,1,.1.1.09.09,0,0,1-.1.1,8.35,8.35,0,0,0-9,4.45.1.1,0,0,1-.13.06Z"/><circle class="cls-7" cx="161.14" cy="176.29" r="7.75"/><path class="cls-9" d="M160.38,182.06v-.85a6.62,6.62,0,0,1-2.36-.51.48.48,0,0,1-.27-.58l.21-.78a.49.49,0,0,1,.6-.34l.07,0a5.83,5.83,0,0,0,2.18.46c.85,0,1.48-.29,1.48-.88s-.49-.85-1.66-1.16c-1.68-.46-2.89-1.19-2.89-2.67s1-2.36,2.67-2.63v-.84a.49.49,0,0,1,.49-.49h.5a.49.49,0,0,1,.49.49v.76a6.56,6.56,0,0,1,1.87.33.49.49,0,0,1,.31.59l-.2.73a.48.48,0,0,1-.58.35l-.06,0a5.33,5.33,0,0,0-1.85-.35c-1,0-1.29.41-1.29.79s.6.77,1.9,1.17c1.87.56,2.64,1.34,2.64,2.73s-.94,2.42-2.78,2.71V182a.49.49,0,0,1-.49.49h-.5A.48.48,0,0,1,160.38,182.06Z"/><circle class="cls-9" cx="218.47" cy="200.2" r="8.32"/><path class="cls-11" d="M211.6,196.82h0a.09.09,0,0,1,0-.12,7.74,7.74,0,0,1,6.94-4.28,8.19,8.19,0,0,1,1.4.13.12.12,0,0,1,.08.11.09.09,0,0,1-.11.07h0a7.84,7.84,0,0,0-1.37-.12,7.58,7.58,0,0,0-6.78,4.17.08.08,0,0,1-.06.1A.08.08,0,0,1,211.6,196.82Z"/><circle class="cls-11" cx="218.63" cy="200.35" r="7.04"/><path class="cls-9" d="M218,205.6v-.77a6.32,6.32,0,0,1-2.15-.46.45.45,0,0,1-.24-.53l.19-.71a.45.45,0,0,1,.56-.31l.05,0a5.08,5.08,0,0,0,2,.41c.77,0,1.34-.26,1.34-.79s-.44-.77-1.51-1.06c-1.52-.41-2.62-1.08-2.62-2.42s.89-2.14,2.43-2.39v-.76a.46.46,0,0,1,.44-.45h.45a.45.45,0,0,1,.45.45h0v.69a5.79,5.79,0,0,1,1.7.3.45.45,0,0,1,.28.54l-.18.66a.45.45,0,0,1-.55.31h0a4.54,4.54,0,0,0-1.67-.31c-.91,0-1.17.38-1.17.72s.55.71,1.73,1.07c1.7.51,2.4,1.21,2.4,2.48s-.86,2.2-2.53,2.46v.86a.44.44,0,0,1-.44.44h-.49A.45.45,0,0,1,218,205.6Z"/><path class="cls-12" d="M342.81,242.08l-47.63-91.87a1.06,1.06,0,0,1,1.87-1l47.64,91.87a1.07,1.07,0,0,1-.45,1.42,1,1,0,0,1-.49.12A1.07,1.07,0,0,1,342.81,242.08Z"/><path class="cls-12" d="M320.19,242.78l-40.72-93.54a1.06,1.06,0,1,1,1.88-1l.06.14,40.71,93.54a1.06,1.06,0,0,1-.55,1.39,1,1,0,0,1-.42.09A1,1,0,0,1,320.19,242.78Z"/><path class="cls-12" d="M288.13,167h16.52a.66.66,0,0,0,.74-.57.68.68,0,0,0-.58-.74H288.13a.67.67,0,0,0-.74.58.66.66,0,0,0,.58.73A.43.43,0,0,0,288.13,167Z"/><path class="cls-12" d="M292.55,177.28h16.51a.66.66,0,0,0,0-1.32H292.55a.66.66,0,1,0,0,1.32Z"/><path class="cls-12" d="M298.38,189.53h17.56a.66.66,0,0,0,0-1.32H298.38a.66.66,0,0,0,0,1.32Z"/><path class="cls-12" d="M283.74,157.12H299.5a.66.66,0,0,0,0-1.32H283.74a.66.66,0,1,0,0,1.32Z"/><path class="cls-12" d="M304.16,203.62h19.09a.66.66,0,1,0,0-1.32H304.16a.66.66,0,1,0,0,1.32Z"/><path class="cls-12" d="M308.65,214.55h20.47a.66.66,0,0,0,0-1.32H308.65a.66.66,0,0,0,0,1.32Z"/><path class="cls-13" d="M312.67,201.26c2.11-1.83,6.64-3.3,6.64-3.3l2.72,0a6.72,6.72,0,0,1,1.14,3.24,7.38,7.38,0,0,1-3.24.66A26.45,26.45,0,0,1,312.67,201.26Z"/><path class="cls-14" d="M312.67,201.26a26.45,26.45,0,0,0,7.26.65,7.38,7.38,0,0,0,3.24-.66v.21a.8.8,0,0,1-.56.87c-2.49.76-8,.52-10.1.39a.57.57,0,0,1-.53-.61.59.59,0,0,1,.12-.31A7.27,7.27,0,0,1,312.67,201.26Z"/><path class="cls-15" d="M321.81,195.69v2.17a.87.87,0,0,1-.7.86,3.25,3.25,0,0,1-1.52,0A.86.86,0,0,1,319,198l-.28-2.3Z"/><path class="cls-16" d="M308,184.56c.85-1.88.6-2.73,2.28-2.54a2.21,2.21,0,0,1,.51.11,1.56,1.56,0,0,1,0,1,18.79,18.79,0,0,1-2.93,5.34,1.83,1.83,0,0,1-1.42.69h-1.84A11.63,11.63,0,0,0,308,184.56Z"/><path class="cls-17" d="M304.51,186.38c1.42-1,1.95-5.07,1.95-5.07l2.18-1.11,1.65,1.2a1.54,1.54,0,0,1,.53.73,2.21,2.21,0,0,0-.51-.11c-1.68-.19-1.43.66-2.28,2.54a11.6,11.6,0,0,1-3.4,4.61h-1.27a.68.68,0,0,1-.7-.66.71.71,0,0,1,.15-.44A8.25,8.25,0,0,1,304.51,186.38Z"/><path class="cls-18" d="M307.32,178.15l1.32,2a.6.6,0,0,1-.13.8,2,2,0,0,1-2.05.31l-2.08-1.45Z"/><path class="cls-19" d="M317.21,156.52s.7,1.95,1.7,8.81,1.67,11.86,2.22,14.58a118.11,118.11,0,0,1,1.25,15.37.92.92,0,0,1-.93.93h-.07l-2.6-.08a.83.83,0,0,1-.8-.7c-.69-4-5.43-24.86-8.29-30.85,0,0-7.61,2.15-9.51,3,0,0,2.45,1,7.48,10.4a12.71,12.71,0,0,1-3.71,2.09s-11-9.13-12.16-10.08-2.22-2.6.74-5.6,12.1-7.7,12.1-7.7Z"/><path class="cls-20" d="M310.14,164.79h.06l2.71-1a3.38,3.38,0,0,0,1.93-3,.13.13,0,0,0-.13-.13h0a.12.12,0,0,0-.13.11v0a3.13,3.13,0,0,1-1.78,2.8l-2.72,1a.15.15,0,0,0-.06.18A.13.13,0,0,0,310.14,164.79Z"/><path class="cls-21" d="M292.6,155.94s-2.86-2.17-4.16-1.76a5.46,5.46,0,0,0-2.26,1.62h2.88s.68,1.32,0,1.32h-1S290.73,159.93,292.6,155.94Z"/><path class="cls-3" d="M297.44,135.53s-3.35,13.26-7.9,18.6a6.39,6.39,0,0,0,3.06,1.81s7-6.12,9.1-10.37S297.44,135.53,297.44,135.53Z"/><path class="cls-22" d="M301.93,122.9l3.33,6.1H300a10.56,10.56,0,0,0-1.81-4.46Z"/><path class="cls-23" d="M296.88,115.69a25,25,0,0,0-1.79,5.85c-.11,2-.54,3.32,1.79,3.73a5,5,0,0,0,5.35-2.76s1.66-3.09,1.29-4.36S296.88,115.69,296.88,115.69Z"/><path class="cls-24" d="M301.43,121h-.29s1.21-2.49.14-2.93-5.28-1.3-6.19-2.79a2.79,2.79,0,0,1,1-3.8l.06,0a.16.16,0,0,1,.2.07l.1.18a.16.16,0,0,0,.29,0h0a.17.17,0,0,1,.21-.08.2.2,0,0,1,.08.08c.28.45,1,1.18,3,1.55,2.88.53,4.77,1.69,4.82,3.68a.18.18,0,0,0,.19.15l.06,0c.21-.13.55-.19,1,.19.79.66.47,2.38-1.26,3.8a.15.15,0,0,0,0,.21.08.08,0,0,0,0,0c.31.21.78.69-.43,1.34a3.25,3.25,0,0,1-2.25.52.15.15,0,0,1-.12-.17l.11-1.76a.16.16,0,0,0-.16-.16h0Z"/><path class="cls-25" d="M301.38,121.38s.64-2.45,1.73-1.76-.57,2.75-1.45,2.84Z"/><path class="cls-3" d="M306,128.52s-1.49-2.44-11.21-1.84c-5.05.31-16.41-4.09-18.94-6.31a4.78,4.78,0,0,0-3.17,1.58s10.49,11.08,22.73,12.49c0,0,9.29,19.14,9.22,22.25a15.26,15.26,0,0,0,13,1.05,33.86,33.86,0,0,0-2.69-12.67A82.64,82.64,0,0,0,306,128.52Z"/><path class="cls-26" d="M301.59,135.12a.12.12,0,0,0,.13-.11h0a.13.13,0,0,0-.12-.14h0s-4.71-.38-5.44-.46a.12.12,0,0,0-.14.1h0a.13.13,0,0,0,.11.15h0c.74.08,5.4.46,5.45.46Z"/><path class="cls-27" d="M272.87,121.41c-.08.31,1.05.74,1.66-.54,0-.6.27-3.19-.1-3.66a48.13,48.13,0,0,0-5.84-5.67.89.89,0,0,0-.06,1.23l1.87,1.81a8.49,8.49,0,0,0-1,2.11,2.5,2.5,0,0,0,.32,1.85c.34.55.79,1.28,1.22,1.84A2.45,2.45,0,0,0,272.87,121.41Z"/><circle class="cls-19" cx="172.28" cy="29.47" r="20.13" transform="translate(129.16 198.85) rotate(-85.43)"/><circle class="cls-9" cx="172.12" cy="30.57" r="19.4"/><path class="cls-2" d="M154.24,29.84h0a.21.21,0,0,1-.19-.22,17.69,17.69,0,0,1,.26-2.28.2.2,0,1,1,.4.08,16.76,16.76,0,0,0-.25,2.22A.22.22,0,0,1,154.24,29.84Z"/><path class="cls-2" d="M156.13,22.69H156a.19.19,0,0,1-.1-.26h0a18,18,0,0,1,16.19-10,18.81,18.81,0,0,1,3.26.29.22.22,0,0,1,.17.24.21.21,0,0,1-.24.16,17.93,17.93,0,0,0-3.19-.28,17.64,17.64,0,0,0-15.82,9.73A.19.19,0,0,1,156.13,22.69Z"/><circle class="cls-7" cx="172.55" cy="30.98" r="16.42" transform="translate(-2.4 42.24) rotate(-13.86)"/><path class="cls-3" d="M177.38,24.51c0,2.88-2.33,6-5.21,6s-5.2-3.1-5.2-6a5.21,5.21,0,0,1,10.41,0Z"/><path class="cls-28" d="M165.69,41.57h12.69a3.08,3.08,0,0,0,2.93-2.14l.68-2.14a3.06,3.06,0,0,0-1.86-3.82c-5.17-1.9-10.52-1.65-16,.17a3.06,3.06,0,0,0-2,3.71l.53,2A3.06,3.06,0,0,0,165.69,41.57Z"/><circle class="cls-19" cx="220.84" cy="45.09" r="12.8" transform="translate(132.04 252.26) rotate(-78.34)"/><circle class="cls-28" cx="220.86" cy="45.11" r="12.38"/><path class="cls-2" d="M209.44,44.62h0a.14.14,0,0,1-.12-.14,11.93,11.93,0,0,1,.17-1.45.13.13,0,0,1,.15-.11h0a.15.15,0,0,1,.11.16,11.3,11.3,0,0,0-.17,1.41.13.13,0,0,1-.13.13Z"/><path class="cls-2" d="M210.64,40.08h0a.12.12,0,0,1-.06-.17h0a11.52,11.52,0,0,1,10.32-6.35,12.2,12.2,0,0,1,2.09.18.12.12,0,0,1,.1.15h0a.13.13,0,0,1-.15.1,11.29,11.29,0,0,0-12.09,6,.12.12,0,0,1-.16.06Z"/><circle class="cls-7" cx="221.12" cy="45.36" r="10.48"/><path class="cls-3" d="M224.19,41.22c0,1.84-1.48,3.82-3.32,3.82s-3.32-2-3.32-3.82a3.33,3.33,0,0,1,6.64,0Z"/><path class="cls-28" d="M216.75,52.1h8.11a2,2,0,0,0,1.87-1.36l.44-1.37A2,2,0,0,0,226,46.93a15.23,15.23,0,0,0-10.21.11,2,2,0,0,0-1.26,2.38l.34,1.23A2,2,0,0,0,216.75,52.1Z"/><circle class="cls-19" cx="123.4" cy="43.47" r="12.81" transform="translate(60.72 158.31) rotate(-80.78)"/><circle class="cls-9" cx="123.4" cy="43.47" r="12.38" transform="translate(60.72 158.31) rotate(-80.78)"/><path class="cls-2" d="M112,43h0a.13.13,0,0,1-.12-.14h0a10.06,10.06,0,0,1,.17-1.45.13.13,0,0,1,.15-.11h0a.12.12,0,0,1,.1.14h0a11.43,11.43,0,0,0-.16,1.42A.13.13,0,0,1,112,43Z"/><path class="cls-2" d="M113.19,38.46h-.06a.12.12,0,0,1,0-.17h0a11.52,11.52,0,0,1,10.3-6.37,12.21,12.21,0,0,1,2.09.19.13.13,0,0,1,.1.15.13.13,0,0,1-.15.11h0a11.29,11.29,0,0,0-12.09,6A.13.13,0,0,1,113.19,38.46Z"/><circle class="cls-7" cx="123.67" cy="43.74" r="10.48"/><path class="cls-3" d="M126.74,39.6c0,1.84-1.49,3.82-3.32,3.82s-3.33-2-3.33-3.82a3.33,3.33,0,0,1,6.65,0Z"/><path class="cls-28" d="M119.29,50.48h8.09a2,2,0,0,0,1.87-1.36l.43-1.37a2,2,0,0,0-1.18-2.44,15.23,15.23,0,0,0-10.21.11A2,2,0,0,0,117,47.79l.34,1.24A2,2,0,0,0,119.29,50.48Z"/><circle class="cls-19" cx="132.81" cy="12.81" r="12.81"/><circle class="cls-9" cx="132.79" cy="12.8" r="12.38"/><circle class="cls-7" cx="134.08" cy="12.76" r="10.51"/><path class="cls-28" d="M128.69,19.81h8.11a2,2,0,0,0,1.87-1.37l.44-1.36a2,2,0,0,0-1.19-2.44,15.11,15.11,0,0,0-10.21.11,2,2,0,0,0-1.25,2.37l.33,1.24A2,2,0,0,0,128.69,19.81Z"/><circle class="cls-19" cx="211.48" cy="14.13" r="12.81"/><circle class="cls-9" cx="211.46" cy="14.12" r="12.38"/><path class="cls-2" d="M200.05,13.69h0a.13.13,0,0,1-.12-.14h0a10.06,10.06,0,0,1,.17-1.45.13.13,0,0,1,.15-.11h0a.12.12,0,0,1,.1.14h0a11.43,11.43,0,0,0-.16,1.42A.14.14,0,0,1,200.05,13.69Z"/><circle class="cls-7" cx="211.73" cy="14.39" r="10.48"/><path class="cls-3" d="M214.8,10.25c0,1.83-1.49,3.81-3.32,3.81s-3.33-2-3.33-3.81a3.33,3.33,0,0,1,6.65,0Z"/><path class="cls-28" d="M207.38,21.13h8.12a2,2,0,0,0,1.87-1.36l.43-1.37A2,2,0,0,0,216.62,16a15.14,15.14,0,0,0-10.22.11,2,2,0,0,0-1.25,2.37l.34,1.24A2,2,0,0,0,207.38,21.13Z"/><path class="cls-3" d="M206.3,137H138c-13.37-27.27-26.74-54.91-40.1-82.19H246.38C233,82.08,219.66,109.69,206.3,137Z"/><rect class="cls-29" x="93.16" y="51.48" width="157.93" height="6.27" rx="1.72"/><path class="cls-3" d="M201.38,169.24H142.92c-1.7-10.5-3.39-21.38-5.09-32.25h68.65C204.78,147.86,203.09,158.74,201.38,169.24Z"/><path class="cls-29" d="M203.18,169.47c0,1.18-.77,2.16-1.63,2.16H142.32c-.86,0-1.43-1-1.43-2.16v-1.32c0-1.19.57-2.23,1.43-2.23h59.23c.86,0,1.63,1,1.63,2.23Z"/><g class="cls-30"><path class="cls-7" d="M134.27,123.32a.49.49,0,0,1-.45-.29l-26-59.62a.5.5,0,0,1,.25-.64.49.49,0,0,1,.64.24h0l26,59.62a.49.49,0,0,1-.24.64h0A.41.41,0,0,1,134.27,123.32Z"/></g><path class="cls-7" d="M143.93,162a.49.49,0,0,1-.48-.42L141,141.79a.48.48,0,1,1,1-.12l2.43,19.81a.48.48,0,0,1-.41.54h0Z"/><path class="cls-7" d="M125.72,27.58h-1.09a.37.37,0,0,1-.43-.3.39.39,0,0,1,.31-.43.24.24,0,0,1,.12,0h1.1a.36.36,0,0,1,.34.38h0A.37.37,0,0,1,125.72,27.58Z"/><path class="cls-7" d="M122.08,27.41,121,27.36a.37.37,0,0,1,0-.73h0l1.1.05a.38.38,0,0,1,.43.31.37.37,0,0,1-.31.42.24.24,0,0,1-.12,0Z"/><path class="cls-7" d="M118.44,27.25h-1.09a.38.38,0,0,1-.44-.31.39.39,0,0,1,.32-.44.24.24,0,0,1,.12,0h1.1a.38.38,0,0,1,.37.37.37.37,0,0,1-.37.37Z"/><path class="cls-7" d="M114.8,27.1h-1.09a.37.37,0,0,1-.33-.4h0a.38.38,0,0,1,.38-.36h1.1a.39.39,0,0,1,.37.39.38.38,0,0,1-.38.38Z"/><path class="cls-7" d="M111.17,27h-1.1a.39.39,0,0,1-.45-.32.4.4,0,0,1,.33-.45.24.24,0,0,1,.12,0h1.09a.38.38,0,0,1,.37.37v0A.38.38,0,0,1,111.17,27Z"/><path class="cls-7" d="M107.53,26.88h-1.09a.38.38,0,0,1-.38-.38h0a.4.4,0,0,1,.39-.38h1.09a.39.39,0,0,1,.38.4h0a.37.37,0,0,1-.37.37Z"/><path class="cls-7" d="M103.89,26.83H102.8a.38.38,0,0,1-.39-.37v0a.41.41,0,0,1,.39-.39h1.1a.39.39,0,0,1,0,.78Z"/><path class="cls-7" d="M100.25,26.83H99.16a.4.4,0,0,1-.4-.4.39.39,0,0,1,.39-.39h1.1a.4.4,0,0,1,0,.79Z"/><path class="cls-7" d="M96.62,26.88h-1.1a.41.41,0,0,1-.41-.39.4.4,0,0,1,.39-.41h1.1a.4.4,0,0,1,.4.38h0A.39.39,0,0,1,96.62,26.88Z"/><path class="cls-7" d="M93,27H91.89a.4.4,0,1,1,0-.8h0l1.1-.05a.39.39,0,0,1,.41.37v0a.41.41,0,0,1-.33.46Z"/><path class="cls-7" d="M89.38,27.19l-1.09.07a.4.4,0,0,1-.34-.47.41.41,0,0,1,.34-.34h0l1.09-.07a.4.4,0,0,1,.43.37h0a.41.41,0,0,1-.39.43Z"/><path class="cls-7" d="M85.73,27.46l-1.09.1a.4.4,0,0,1-.45-.34v0a.44.44,0,0,1,.37-.45h0l1.08-.09a.41.41,0,0,1,.18.8h-.09Z"/><path class="cls-7" d="M82.12,27.83,81,28a.42.42,0,0,1-.11-.83h0L82,27a.41.41,0,1,1,.1.82Z"/><path class="cls-7" d="M78.52,28.31l-1.08.16a.42.42,0,0,1-.48-.33v0a.42.42,0,0,1,.35-.48h0l1.08-.16a.43.43,0,0,1,.48.35A.43.43,0,0,1,78.52,28.31Z"/><path class="cls-7" d="M74.94,28.9l-1.08.2a.41.41,0,0,1-.49-.31v0a.42.42,0,0,1,.32-.5h0l1.08-.2a.44.44,0,0,1,.5.34.42.42,0,0,1-.34.49Z"/><path class="cls-7" d="M71.38,29.62l-1.07.24a.42.42,0,0,1-.51-.31h0a.43.43,0,0,1,.32-.51h0l1.07-.24a.44.44,0,0,1,.56.25.43.43,0,0,1-.25.55.27.27,0,0,1-.12,0Z"/><path class="cls-7" d="M67.86,30.48l-1.06.29a.42.42,0,0,1-.54-.27.44.44,0,0,1,.27-.55h0l1-.29a.43.43,0,0,1,.23.83Z"/><path class="cls-7" d="M64.38,31.5l-1,.34a.43.43,0,0,1-.51-.35.44.44,0,0,1,.24-.48h0l1-.34a.44.44,0,1,1,.38.8Z"/><path class="cls-7" d="M61,32.69l-1,.39a.44.44,0,1,1-.32-.82h0l1-.39a.44.44,0,0,1,.57.25h0a.43.43,0,0,1-.23.56Z"/><path class="cls-7" d="M57.61,34.05l-1,.44A.43.43,0,0,1,56,34.3v0a.45.45,0,0,1,.22-.59h0l1-.44a.45.45,0,0,1,.37.81Z"/><path class="cls-7" d="M54.38,35.6l-1,.51a.45.45,0,0,1-.61-.19h0a.44.44,0,0,1,.18-.59h0l1-.51a.45.45,0,0,1,.53.73.34.34,0,0,1-.12.06Z"/><path class="cls-7" d="M51.18,37.36l-.93.57a.45.45,0,1,1-.47-.77h0l.93-.57a.45.45,0,0,1,.47.77Z"/><path class="cls-7" d="M48.15,39.32l-.89.63a.45.45,0,0,1-.63-.1h0a.46.46,0,0,1,.1-.64h0l.89-.63a.46.46,0,0,1,.64.1.45.45,0,0,1-.09.63Z"/><path class="cls-7" d="M45.27,41.49l-.84.69a.44.44,0,0,1-.63,0l0,0a.46.46,0,0,1,.06-.64h0l.84-.7a.47.47,0,0,1,.65.06.46.46,0,0,1-.06.65Z"/><path class="cls-7" d="M42.54,43.86l-.78.76a.46.46,0,0,1-.65-.65h0l.79-.76a.46.46,0,1,1,.66.64l0,0Z"/><path class="cls-7" d="M40,46.43l-.73.81a.46.46,0,1,1-.69-.62h0l.73-.81a.47.47,0,0,1,.66,0A.46.46,0,0,1,40,46.43Z"/><path class="cls-7" d="M37.65,49.17,37,50a.45.45,0,0,1-.63.1l0,0a.45.45,0,0,1-.08-.64h0l.68-.86a.46.46,0,1,1,.72.58Z"/><path class="cls-7" d="M35.49,52.06l-.62.9a.47.47,0,0,1-.77-.53h0l.62-.9a.47.47,0,0,1,.83.45Z"/><path class="cls-7" d="M33.51,55.08,33,56a.47.47,0,0,1-.8-.48h0l.56-.93a.47.47,0,0,1,.63-.18h0A.47.47,0,0,1,33.51,55.08Z"/><path class="cls-7" d="M31.73,58.23l-.51,1a.46.46,0,0,1-.62.21h0a.47.47,0,0,1-.2-.63h0l.51-1a.47.47,0,0,1,.88.34l-.05.09Z"/><path class="cls-7" d="M30.13,61.47l-.45,1a.48.48,0,0,1-.62.24.47.47,0,0,1-.23-.62h0l.44-1a.48.48,0,0,1,.62-.24.46.46,0,0,1,.25.6Z"/><path class="cls-7" d="M28.72,64.8l-.39,1a.46.46,0,0,1-.59.28h0a.47.47,0,0,1-.27-.6h0l.39-1a.47.47,0,0,1,.6-.28h0A.48.48,0,0,1,28.72,64.8Z"/><path class="cls-7" d="M27.49,68.21l-.33,1a.48.48,0,0,1-.6.3.47.47,0,0,1-.3-.59h0l.33-1a.48.48,0,0,1,.6-.31.47.47,0,0,1,.3.59Z"/><path class="cls-7" d="M26.44,71.69l-.28,1.06a.47.47,0,0,1-.91-.25h0l.28-1a.47.47,0,0,1,.58-.33.46.46,0,0,1,.33.57Z"/><path class="cls-7" d="M25.58,75.18l-.23,1.07a.49.49,0,0,1-.57.37.47.47,0,0,1-.36-.57h0L24.65,75a.47.47,0,0,1,.55-.37h0A.48.48,0,0,1,25.58,75.18Z"/><path class="cls-7" d="M24.88,78.74l-.17,1.08a.48.48,0,0,1-.55.39.46.46,0,0,1-.39-.53v0h0l.17-1.08a.48.48,0,1,1,.94.16Z"/><path class="cls-7" d="M24.38,82.32l-.12,1.09a.5.5,0,1,1-1-.11h0l.12-1.09a.48.48,0,0,1,.49-.46.47.47,0,0,1,.47.49.22.22,0,0,1,0,.08Z"/><path class="cls-7" d="M24,85.92,23.94,87a.48.48,0,0,1-1,.07A.53.53,0,0,1,23,87h0l.07-1.09a.48.48,0,0,1,.5-.44h0a.47.47,0,0,1,.44.48Z"/><path class="cls-7" d="M23.84,89.54v1.09a.5.5,0,0,1-.49.48.47.47,0,0,1-.47-.49h0v-1.1a.49.49,0,0,1,.49-.47h0A.49.49,0,0,1,23.84,89.54Z"/><path class="cls-7" d="M23.83,93.16v1.09a.5.5,0,0,1-1,0h0V93.16a.48.48,0,0,1,.46-.5h0a.49.49,0,0,1,.53.45Z"/><path class="cls-7" d="M24,96.78l.08,1.09a.48.48,0,1,1-1,.08h0L23,96.85a.49.49,0,0,1,1-.08Z"/><path class="cls-7" d="M24.38,100.38l.13,1.09a.48.48,0,0,1-.41.54h0a.5.5,0,0,1-.54-.42h0l-.13-1.09a.49.49,0,0,1,.41-.54h0A.5.5,0,0,1,24.38,100.38Z"/><path class="cls-7" d="M24.85,104,25,105a.49.49,0,0,1-.39.57.5.5,0,0,1-.57-.4h0l-.19-1.08a.5.5,0,0,1,.4-.56.48.48,0,0,1,.56.39Z"/><path class="cls-7" d="M25.55,107.52l.24,1.06a.48.48,0,0,1-.31.62.49.49,0,0,1-.62-.3.36.36,0,0,1,0-.1h0l-.25-1.06a.51.51,0,1,1,1-.22Z"/><path class="cls-7" d="M26.38,111l.3,1a.47.47,0,0,1-.3.59h0a.48.48,0,0,1-.6-.31v0h0l-.3-1a.5.5,0,0,1,.34-.61A.49.49,0,0,1,26.38,111Z"/><path class="cls-7" d="M27.48,114.49l.36,1a.49.49,0,1,1-.93.32h0l-.36-1a.49.49,0,1,1,.93-.32Z"/><path class="cls-7" d="M28.73,117.88l.42,1a.49.49,0,1,1-.91.37h0l-.42-1a.49.49,0,0,1,.91-.37Z"/><path class="cls-7" d="M30.18,121.19l.48,1a.5.5,0,0,1-.89.44h0l-.48-1a.5.5,0,0,1,.89-.44Z"/><path class="cls-7" d="M31.82,124.41l.53,1a.49.49,0,0,1-.19.67h0a.5.5,0,0,1-.68-.19h0l-.52-1a.48.48,0,0,1,.17-.66h0a.49.49,0,0,1,.67.19Z"/><path class="cls-7" d="M33.62,127.55l.58.93a.5.5,0,0,1-.16.68.49.49,0,0,1-.68-.14v0h0l-.57-.93a.5.5,0,0,1,.16-.68.51.51,0,0,1,.68.15Z"/><path class="cls-7" d="M35.58,130.6l.61.9a.51.51,0,0,1,0,.71.49.49,0,0,1-.7-.05.36.36,0,0,1-.07-.1h0l-.62-.9a.5.5,0,0,1,.14-.69A.49.49,0,0,1,35.58,130.6Z"/><path class="cls-7" d="M37.67,133.55l.66.87a.5.5,0,1,1-.8.61h0l-.66-.88a.5.5,0,0,1,.1-.7.51.51,0,0,1,.7.1Z"/><path class="cls-7" d="M39.9,136.4l.7.84a.51.51,0,0,1-.06.71.52.52,0,0,1-.71-.07h0l-.7-.84a.5.5,0,0,1,.07-.7.49.49,0,0,1,.69,0Z"/><path class="cls-7" d="M42.27,139.14,43,140a.5.5,0,0,1,0,.71h0a.5.5,0,0,1-.71,0h0l-.73-.81a.5.5,0,0,1,0-.71h0A.51.51,0,0,1,42.27,139.14Z"/><path class="cls-7" d="M44.75,141.77l.78.77a.52.52,0,0,1,.1.72.51.51,0,0,1-.71.1.47.47,0,0,1-.1-.1h0l-.78-.77a.51.51,0,0,1,0-.71.5.5,0,0,1,.71,0Z"/><path class="cls-7" d="M47.38,144.28l.81.74a.5.5,0,0,1,0,.71h0a.53.53,0,0,1-.72,0h0l-.81-.74a.52.52,0,0,1,.05-.72.53.53,0,0,1,.63,0Z"/><path class="cls-7" d="M50.09,146.69l.84.69a.51.51,0,0,1,.07.72h0a.53.53,0,0,1-.72.07h0l-.84-.7a.51.51,0,0,1,.58-.84l.07.06Z"/><path class="cls-7" d="M52.92,148.92l.87.66a.52.52,0,0,1,.11.71.51.51,0,0,1-.71.1h0l-.88-.65a.51.51,0,0,1-.11-.7h0A.52.52,0,0,1,52.92,148.92Z"/><path class="cls-7" d="M55.85,151l.91.61a.52.52,0,0,1,.14.71.51.51,0,0,1-.71.13h0l-.91-.61a.49.49,0,0,1-.13-.69h0a.5.5,0,0,1,.68-.16Z"/><path class="cls-7" d="M58.89,153l.93.57a.52.52,0,0,1,.21.69.52.52,0,0,1-.7.21l0,0h0l-.93-.57a.51.51,0,1,1,.49-.89Z"/><path class="cls-7" d="M62,154.83l1,.52a.51.51,0,0,1,.21.69h0a.52.52,0,0,1-.7.21h0l-1-.52a.51.51,0,0,1-.21-.69h0A.52.52,0,0,1,62,154.83Z"/><path class="cls-7" d="M65.23,156.49l1,.47a.52.52,0,0,1,.25.69.53.53,0,0,1-.69.24h0l-1-.47a.51.51,0,0,1-.25-.68h0A.52.52,0,0,1,65.23,156.49Z"/><path class="cls-7" d="M68.52,158l1,.42a.54.54,0,1,1-.39,1h0l-1-.41a.54.54,0,0,1,.39-1Z"/><path class="cls-7" d="M71.89,159.3l1,.37a.53.53,0,0,1,.32.66.51.51,0,0,1-.65.32h0l-1-.36a.53.53,0,0,1-.33-.67.53.53,0,0,1,.67-.33h0Z"/><path class="cls-7" d="M75.32,160.44l1.05.31a.52.52,0,0,1,.36.65.53.53,0,0,1-.65.35h0l-1-.31a.5.5,0,0,1-.35-.64.51.51,0,0,1,.64-.36Z"/><path class="cls-7" d="M78.81,161.39l1.06.25a.51.51,0,0,1,.39.61h0a.52.52,0,0,1-.62.39h0l-1.07-.25a.5.5,0,0,1-.39-.59v0a.51.51,0,0,1,.6-.39Z"/><path class="cls-7" d="M82.38,162.14l1.08.19a.52.52,0,0,1,.28.68.52.52,0,0,1-.46.32h0l-1.07-.19a.52.52,0,0,1-.55-.49.53.53,0,0,1,.49-.55A.59.59,0,0,1,82.38,162.14Z"/><path class="cls-7" d="M85.92,162.69l1.08.13a.52.52,0,0,1,.14,1,.57.57,0,0,1-.26,0h0l-1.08-.12a.52.52,0,0,1-.3-.67.53.53,0,0,1,.42-.33Z"/><path class="cls-7" d="M89.51,163l1.09.06a.53.53,0,0,1,.07,1.06h-.13l-1.09-.06a.53.53,0,0,1-.43-.62A.55.55,0,0,1,89.51,163Z"/><path class="cls-7" d="M93.12,163.16h1.1a.52.52,0,0,1,.53.51h0a.54.54,0,0,1-.53.53h-1.1a.53.53,0,0,1,0-1.05Z"/><path class="cls-7" d="M96.74,163.08l1.09-.06a.53.53,0,0,1,.49.57.51.51,0,0,1-.43.48h0l-1.09.06a.54.54,0,0,1-.62-.42.53.53,0,0,1,.43-.62Z"/><path class="cls-7" d="M100.38,162.82l1.09-.12a.53.53,0,0,1,.62.42.52.52,0,0,1-.42.62h-.09l-1.08.12a.53.53,0,0,1-.55-.51A.53.53,0,0,1,100.38,162.82Z"/><path class="cls-7" d="M103.94,162.38l1.08-.17a.53.53,0,1,1,.47.95.48.48,0,0,1-.31.05h0l-1.08.16a.53.53,0,0,1-.47-1,.55.55,0,0,1,.31,0Z"/><path class="cls-7" d="M107.5,161.77l1.07-.22a.53.53,0,0,1,.71.23.52.52,0,0,1-.22.71.46.46,0,0,1-.28.06h0l-1.07.22a.53.53,0,0,1-.62-.42A.52.52,0,0,1,107.5,161.77Z"/><path class="cls-7" d="M111,161l1.06-.27a.55.55,0,0,1,.74.18.53.53,0,0,1-.18.74.46.46,0,0,1-.3.08h0l-1.06.26a.53.53,0,0,1-.65-.39A.52.52,0,0,1,111,161Z"/><path class="cls-7" d="M114.54,160.08l1-.31a.55.55,0,0,1,.74.18.53.53,0,0,1-.18.74.5.5,0,0,1-.26.08h0l-1,.3a.53.53,0,0,1-.71-.23.54.54,0,0,1,.23-.72l.18-.05Z"/><path class="cls-7" d="M118,159l1-.34a.53.53,0,0,1,.45,1l-.12,0h0l-1,.35a.54.54,0,0,1-.55-.93A.65.65,0,0,1,118,159Z"/><path class="cls-7" d="M121.44,157.84l1-.39a.54.54,0,1,1,.53.94.44.44,0,0,1-.16.06h0l-1,.38a.53.53,0,1,1-.37-1Z"/><path class="cls-7" d="M124.82,156.53l1-.41a.55.55,0,0,1,.71.3.54.54,0,0,1-.3.7h0l-1,.42a.55.55,0,0,1-.71-.3.54.54,0,0,1,.29-.7Z"/><path class="cls-7" d="M128.16,155.12l1-.44a.55.55,0,0,1,.72.28.54.54,0,0,1-.28.72h0l-1,.45a.55.55,0,0,1-.44-1Z"/><path class="cls-7" d="M131.46,153.61l1-.47a.55.55,0,0,1,.73.27.54.54,0,0,1-.27.73h0l-1,.47a.55.55,0,1,1-.47-1Z"/><path class="cls-7" d="M134.72,152l1-.5a.55.55,0,0,1,.73.24h0a.55.55,0,0,1-.23.73h0l-1,.49a.55.55,0,0,1-.74-.25.55.55,0,0,1,.25-.75Z"/><path class="cls-7" d="M137.94,150.34l1-.52a.57.57,0,0,1,.76.24.56.56,0,0,1-.24.76h0l-1,.52a.55.55,0,0,1-.76-.24.57.57,0,0,1,.24-.76Z"/><path class="cls-7" d="M141.12,148.59l1-.54a.55.55,0,0,1,.74.2h0a.54.54,0,0,1-.2.74h0l-1,.54a.55.55,0,0,1-.54-.95Z"/><path class="cls-7" d="M144.27,146.78l.94-.56a.55.55,0,0,1,.75.19.53.53,0,0,1-.18.74h0l-.94.56a.55.55,0,0,1-.75-.2.54.54,0,0,1,.19-.74Z"/><path class="cls-7" d="M147.38,144.91l.93-.58a.55.55,0,0,1,.57.93h0l-.93.57a.55.55,0,0,1-.69-.85l.12-.08Z"/><path class="cls-7" d="M150.47,143l.93-.58a.55.55,0,0,1,.75.16h0a.55.55,0,0,1-.16.76h0l-.93.59a.55.55,0,0,1-.75-.16h0A.55.55,0,0,1,150.47,143Z"/><path class="cls-7" d="M153.53,141l.92-.6a.55.55,0,0,1,.6.92l-.91.6a.56.56,0,0,1-.76-.16.54.54,0,0,1,.14-.75Z"/><path class="cls-7" d="M156.57,139l.91-.61a.54.54,0,1,1,.61.9h0l-.91.61a.55.55,0,0,1-.76-.15.53.53,0,0,1,.13-.74Z"/><path class="cls-7" d="M159.59,137l.9-.61a.54.54,0,1,1,.65.87l0,0-.9.62a.53.53,0,0,1-.74-.12v0A.55.55,0,0,1,159.59,137Z"/><path class="cls-7" d="M162.59,134.92l.9-.62a.54.54,0,1,1,.65.87l0,0-.89.62a.55.55,0,0,1-.76-.13.55.55,0,0,1,.14-.76Z"/><path class="cls-7" d="M165.59,132.85l.89-.63a.55.55,0,0,1,.75.14.54.54,0,0,1-.13.75l-.9.62a.54.54,0,0,1-.74-.19.55.55,0,0,1,.12-.69Z"/><path class="cls-7" d="M168.58,130.77l.89-.63a.54.54,0,0,1,.75.14.53.53,0,0,1-.12.73h0l-.89.63a.53.53,0,0,1-.75-.14.51.51,0,0,1,.12-.72Z"/><path class="cls-7" d="M171.57,128.69l.89-.63a.53.53,0,0,1,.61.87l-.9.63a.53.53,0,0,1-.74-.13h0a.54.54,0,0,1,.14-.74Z"/><path class="cls-7" d="M174.56,126.61l.9-.62a.53.53,0,0,1,.74.13h0a.54.54,0,0,1-.14.74l-.89.62a.53.53,0,1,1-.61-.87Z"/><path class="cls-7" d="M177.57,124.55l.9-.62a.53.53,0,0,1,.61.87h0l-.91.62a.53.53,0,0,1-.75,0,.54.54,0,0,1,.05-.75Z"/><path class="cls-7" d="M180.59,122.5l.91-.61a.53.53,0,0,1,.73.15.52.52,0,0,1-.15.72h0l-.91.61a.52.52,0,0,1-.72-.14.53.53,0,0,1,.14-.73Z"/><path class="cls-7" d="M183.63,120.48l.92-.6a.52.52,0,0,1,.57.87h0l-.92.6a.52.52,0,1,1-.57-.87Z"/><path class="cls-7" d="M186.69,118.5l.93-.59a.51.51,0,1,1,.55.87h0l-.92.59a.52.52,0,0,1-.71-.16.5.5,0,0,1,.14-.7Z"/><path class="cls-7" d="M189.78,116.55l.93-.57a.51.51,0,0,1,.55.87l-.93.58a.52.52,0,0,1-.55-.88Z"/><path class="cls-7" d="M192.91,114.69l.94-.55a.52.52,0,0,1,.7.17.53.53,0,0,1-.18.71l-.94.55a.51.51,0,0,1-.7-.17.52.52,0,0,1,.17-.71Z"/><path class="cls-7" d="M196.06,112.81l.95-.54a.51.51,0,1,1,.5.89l-.95.54a.5.5,0,0,1-.69-.19A.51.51,0,0,1,196.06,112.81Z"/><path class="cls-7" d="M199.25,111l1-.52a.5.5,0,0,1,.68.21h0a.52.52,0,0,1-.2.69l-1,.52a.51.51,0,0,1-.7-.2.52.52,0,0,1,.21-.7Z"/><path class="cls-7" d="M202.49,109.33l1-.5a.52.52,0,0,1,.68.22.51.51,0,0,1-.21.68h0l-1,.5a.51.51,0,0,1-.67-.22.5.5,0,0,1,.21-.67h0Z"/><path class="cls-7" d="M205.76,107.69l1-.47a.51.51,0,0,1,.44.91h0l-1,.47a.48.48,0,0,1-.65-.23h0a.5.5,0,0,1,.23-.67Z"/><path class="cls-7" d="M209.09,106.17l1-.44a.51.51,0,0,1,.63.33.5.5,0,0,1-.23.58l-1,.44a.5.5,0,0,1-.5-.86Z"/><path class="cls-7" d="M212.45,104.74l1-.41a.49.49,0,0,1,.64.27h0a.5.5,0,0,1-.27.65l-1,.41a.5.5,0,0,1-.61-.36.49.49,0,0,1,.24-.56Z"/><path class="cls-7" d="M215.87,103.41l1-.37a.49.49,0,0,1,.59.39.48.48,0,0,1-.25.54l-1,.37a.5.5,0,0,1-.63-.29h0a.5.5,0,0,1,.29-.63Z"/><path class="cls-7" d="M219.32,102.21l1-.34a.5.5,0,0,1,.62.32h0a.48.48,0,0,1-.32.61l-1,.34a.48.48,0,0,1-.61-.32.47.47,0,0,1,.28-.6Z"/><path class="cls-7" d="M222.82,101.13l1.06-.3a.5.5,0,0,1,.57.4.49.49,0,0,1-.31.54h0l-1,.3h0a.5.5,0,0,1-.61-.34.49.49,0,0,1,.34-.6Z"/><path class="cls-7" d="M226.38,100.2l1.07-.25a.49.49,0,0,1,.21,1l-1.06.24a.48.48,0,1,1-.22-.94Z"/><path class="cls-7" d="M230,99.45l1.08-.18a.48.48,0,0,1,.55.4.47.47,0,0,1-.39.55l-1.07.18a.48.48,0,0,1-.56-.36v0a.48.48,0,0,1,.38-.56Z"/><path class="cls-7" d="M233.6,98.92l1.09-.11a.48.48,0,0,1,.1,1l-1.09.11a.5.5,0,0,1-.55-.45.5.5,0,0,1,.45-.55Z"/><path class="cls-7" d="M237.27,98.69h1.09a.49.49,0,0,1,.49.47.48.48,0,0,1-.46.49h-1.1a.5.5,0,0,1-.5-.5.5.5,0,0,1,.5-.5Z"/><path class="cls-7" d="M241,98.69l1.1.07a.47.47,0,0,1-.06.94l-1.09-.07a.46.46,0,0,1-.44-.49A.47.47,0,0,1,241,98.69Z"/><path class="cls-7" d="M244.63,99l1.08.18a.47.47,0,0,1-.16.92l-1.08-.17a.47.47,0,0,1-.38-.54.46.46,0,0,1,.52-.39Z"/><path class="cls-7" d="M248.25,99.77l1.05.3a.48.48,0,0,1,.37.56.47.47,0,0,1-.56.36l-.07,0-1-.3a.47.47,0,1,1,.19-.92Z"/><path class="cls-7" d="M251.75,101l1,.44a.47.47,0,0,1,.24.61.46.46,0,0,1-.61.24l-1-.43a.48.48,0,0,1-.24-.62.47.47,0,0,1,.61-.24Z"/><path class="cls-7" d="M255.08,102.59l.93.57a.47.47,0,0,1,.16.64.48.48,0,0,1-.64.15l-.94-.57a.46.46,0,0,1-.15-.64.47.47,0,0,1,.64-.15Z"/><path class="cls-7" d="M258.14,104.69l.84.7a.46.46,0,0,1-.58.71l-.85-.7a.46.46,0,0,1-.06-.65A.47.47,0,0,1,258.14,104.69Z"/><path class="cls-7" d="M260.88,107.17l.75.8a.45.45,0,0,1,0,.64h0a.47.47,0,0,1-.64,0l-.75-.8a.48.48,0,0,1,0-.65.46.46,0,0,1,.65,0Z"/><path class="cls-7" d="M263.28,110l.64.89a.45.45,0,0,1-.16.62.45.45,0,0,1-.57-.1l-.64-.88a.45.45,0,0,1,.1-.63h0A.46.46,0,0,1,263.28,110Z"/><path class="cls-7" d="M265.32,113.06l.53,1a.44.44,0,0,1-.16.59h0a.44.44,0,0,1-.6-.16l-.53-1a.44.44,0,0,1,.09-.61.44.44,0,0,1,.62.09.41.41,0,0,1,.05.09Z"/><path class="cls-7" d="M267,116.35l.43,1a.44.44,0,0,1-.24.57.43.43,0,0,1-.56-.23l-.42-1a.43.43,0,0,1,.23-.56.42.42,0,0,1,.56.22Z"/><path class="cls-7" d="M268.27,119.81l.31,1a.42.42,0,0,1-.28.53.43.43,0,0,1-.53-.29h0l-.31-1a.43.43,0,0,1,.28-.53A.44.44,0,0,1,268.27,119.81Z"/><path class="cls-7" d="M269.17,123.39l.19,1.08a.42.42,0,0,1-.8.26.5.5,0,0,1,0-.12l-.19-1.07a.41.41,0,0,1,.31-.49h0a.42.42,0,0,1,.49.34Z"/><path class="cls-7" d="M269.68,127l.08,1.09a.4.4,0,0,1-.37.43h0a.41.41,0,0,1-.44-.37l-.09-1.09a.43.43,0,0,1,.38-.44.41.41,0,0,1,.44.38Z"/><path class="cls-7" d="M269.83,130.69v1.09a.41.41,0,0,1-.41.39.4.4,0,0,1-.39-.41h0v-1.09a.4.4,0,0,1,.4-.4.41.41,0,0,1,.4.4Z"/><path class="cls-7" d="M269.64,134.39l-.12,1.09a.39.39,0,0,1-.47.29.39.39,0,0,1-.3-.38l.11-1.08a.39.39,0,1,1,.78.08Z"/><path class="cls-7" d="M269.14,138l-.21,1.07a.38.38,0,0,1-.44.31h0a.39.39,0,0,1-.31-.45l.2-1.07a.39.39,0,1,1,.78,0,.36.36,0,0,1,0,.1Z"/><path class="cls-7" d="M268.38,141.61l-.29,1.06a.36.36,0,0,1-.45.26h0a.38.38,0,0,1-.27-.46l.29-1.05a.38.38,0,0,1,.46-.27.38.38,0,0,1,.27.46Z"/><path class="cls-7" d="M267.28,145.13l-.36,1a.37.37,0,0,1-.47.22.38.38,0,0,1-.23-.47l.37-1a.37.37,0,0,1,.72.16A.32.32,0,0,1,267.28,145.13Z"/><circle class="cls-19" cx="253.98" cy="22.03" r="15.19"/><circle class="cls-9" cx="253.93" cy="22.05" r="14.68" transform="translate(-0.46 6.17) rotate(-1.39)"/><path class="cls-2" d="M240.38,21.45h0a.16.16,0,0,1-.15-.16,14.15,14.15,0,0,1,.2-1.72.17.17,0,0,1,.18-.13.17.17,0,0,1,.13.18,13.74,13.74,0,0,0-.2,1.68.15.15,0,0,1-.15.15Z"/><path class="cls-2" d="M241.83,16.07h-.07a.15.15,0,0,1-.06-.2,13.75,13.75,0,0,1,14.68-7.34.15.15,0,0,1,.12.18h0a.14.14,0,0,1-.17.12h0a14,14,0,0,0-2.42-.21,13.33,13.33,0,0,0-12,7.37A.14.14,0,0,1,241.83,16.07Z"/><circle class="cls-7" cx="254.26" cy="22.34" r="12.43"/><path class="cls-3" d="M257.91,17.42c0,2.18-1.77,4.53-4,4.53S250,19.6,250,17.42a4,4,0,0,1,7.89,0Z"/><path class="cls-28" d="M249.07,30.33h9.62a2.32,2.32,0,0,0,2.22-1.62l.52-1.62A2.33,2.33,0,0,0,260,24.2a18,18,0,0,0-12.12.13,2.33,2.33,0,0,0-1.49,2.81l.4,1.47A2.33,2.33,0,0,0,249.07,30.33Z"/><circle class="cls-19" cx="90.3" cy="23.86" r="15.19"/><circle class="cls-9" cx="90.32" cy="23.89" r="14.68"/><path class="cls-2" d="M76.77,23.3h0a.15.15,0,0,1-.15-.15h0a14.15,14.15,0,0,1,.2-1.72.15.15,0,0,1,.17-.13h0a.16.16,0,0,1,.12.18,13.65,13.65,0,0,0-.19,1.69.15.15,0,0,1-.16.14Z"/><path class="cls-2" d="M78.2,17.92h-.07a.16.16,0,0,1-.07-.2A13.75,13.75,0,0,1,92.78,10.4a.16.16,0,0,1,.13.17h0a.16.16,0,0,1-.18.12,14,14,0,0,0-2.42-.21,13.33,13.33,0,0,0-12,7.37A.14.14,0,0,1,78.2,17.92Z"/><circle class="cls-7" cx="90.64" cy="24.19" r="12.43"/><path class="cls-3" d="M94.27,19.27c0,2.18-1.76,4.53-3.94,4.53s-3.94-2.35-3.94-4.53a3.95,3.95,0,0,1,7.88,0Z"/><path class="cls-28" d="M85.44,32.18h9.62a2.32,2.32,0,0,0,2.22-1.62l.52-1.62a2.32,2.32,0,0,0-1.41-2.89,18,18,0,0,0-12.11.13A2.33,2.33,0,0,0,82.79,29l.4,1.47A2.33,2.33,0,0,0,85.44,32.18Z"/><path class="cls-31" d="M259.48,161.94s-4.14,14.05,9.75,21.18l3.46-1.76s-10.76-8-11.69-17.71a.91.91,0,0,1,.63-1l3.09-1.67c.5-.16.79-1.14,1-1.6l.62-3.5Z"/><circle class="cls-9" cx="253.85" cy="143.82" r="18.64" transform="translate(47.5 350.07) rotate(-74.52)"/><path class="cls-11" d="M238.48,136.29a.14.14,0,0,1-.09,0,.2.2,0,0,1-.09-.27h0a17.48,17.48,0,0,1,18.7-9.3.21.21,0,0,1,.16.24.2.2,0,0,1-.23.16h0a17.41,17.41,0,0,0-3.06-.27,16.92,16.92,0,0,0-15.19,9.35A.21.21,0,0,1,238.48,136.29Z"/><circle class="cls-7" cx="254.27" cy="144.24" r="15.78" transform="translate(-27.52 222.04) rotate(-45)"/><path class="cls-9" d="M252.71,156v-1.72a13.69,13.69,0,0,1-4.81-1,1,1,0,0,1-.55-1.18l.43-1.6a1,1,0,0,1,1.23-.69l.13,0a11.75,11.75,0,0,0,4.45.94c1.72,0,3-.59,3-1.79s-1-1.72-3.39-2.36c-3.42-.94-5.87-2.43-5.87-5.44,0-2.71,2-4.79,5.43-5.34v-1.72a1,1,0,0,1,1-1h1a1,1,0,0,1,1,1v1.54a13.07,13.07,0,0,1,3.82.69,1,1,0,0,1,.62,1.2l-.4,1.48a1,1,0,0,1-1.23.7l-.09,0a10.58,10.58,0,0,0-3.74-.68c-2.05,0-2.63.85-2.63,1.61,0,.93,1.23,1.58,3.88,2.39,3.8,1.14,5.38,2.72,5.38,5.55,0,2.6-1.93,4.94-5.67,5.53V156a1,1,0,0,1-1,1h-1a1,1,0,0,1-1-1Z"/><path class="cls-32" d="M271.43,214.14s7.31,15.92,11.14,22.51c0,0,.76,4.15,0,5.46l-.65.28,3-.09a55.11,55.11,0,0,0,.05-5.89.77.77,0,0,0-.63-.29s-1.29-10.28-5-12.48l-3.64-12.54Z"/><path class="cls-19" d="M280.63,243.17c0,.08,2.36,0,3.65,0a1,1,0,0,0,1-.81l1-5.1a.93.93,0,0,0-.7-1.07l-.54-.12a2.91,2.91,0,0,0-.53,2.06c.24,1,.46,3.59-.16,3.89a8.67,8.67,0,0,1-2.38.35S280.67,242.52,280.63,243.17Z"/><path class="cls-19" d="M264.51,243.27a.27.27,0,0,0-.09.37.28.28,0,0,0,.23.13,72.72,72.72,0,0,0,7.4-.27c.4-.18-.2-2.22-1-2.89L266.67,242Z"/><path class="cls-33" d="M263.15,213.13s4.72,22.83,6.05,27.28l-3.16,2s1.59-.27,2.76-.35a4,4,0,0,0,2.25-1.43l-.37-.61s-1.19-22.7-.9-25.28Z"/><path class="cls-34" d="M251.43,159.87s-.65,11.88,10.16,17.95l-2.6,5.93s-9.78-5.91-9.43-22a1.94,1.94,0,0,0-.46-1.3L247,158a3.71,3.71,0,0,1-.79-3.34l.27-1.1a.57.57,0,0,1,.69-.41.39.39,0,0,1,.15.06l.22.13a3.76,3.76,0,0,1,1.56,1.74l1,1.65c.29.64,1.79,1.18,2.52,1.41a.25.25,0,0,1,.16.29.36.36,0,0,1-.07.1Z"/><path class="cls-3" d="M261.22,176.93c1.81.5,7.94,2.11,11.76,2l-2.35,13.26.19,2.16h-7.66a60.33,60.33,0,0,0-3.86-7.5c-.49-.73-.12-1.59.16-2.41l-.39-.26a1,1,0,0,1-.41-1.19l1.87-5.7A.57.57,0,0,1,261.22,176.93Z"/><path class="cls-35" d="M262.55,193.23l.15,1.31s-2.17,6.48,1.08,21.62a15.07,15.07,0,0,0,12.81-2.78s-1.63-14.29-2.07-14.95c-2.22-3.32-3.7-4-3.7-4l-.07-1.43S264.57,194.08,262.55,193.23Z"/><path class="cls-36" d="M265.55,178l1.59-4.9,2.33.21.91,5.53S266.73,179.56,265.55,178Z"/><path class="cls-37" d="M268.92,165.4c-.16.1-5,2.09-4,7.1a1,1,0,0,0,.54.67,8.28,8.28,0,0,0,4.05.67c2.53-.26,4.18-4.67,4.11-6S270.45,164.44,268.92,165.4Z"/><path class="cls-6" d="M270.38,162.87c-.16,0-3.52,1.19-1.85,3.62s2.28,3.86,1.5,4.93-2.31.42-2.17,2.44a1.15,1.15,0,0,1-.48,1c-1.5,1-5.15,4.13-1.53,8.58a1.12,1.12,0,0,1,.12,1.26c-1.06,1.9-3.28,7.47,4.78,10.56s10.83-2.15,11.64-4.23a1.11,1.11,0,0,1,1.1-.71c.87,0,2.11-.1,2.05-1.27a2.89,2.89,0,0,0-1-1.86,1.11,1.11,0,0,1,0-1.57,1.84,1.84,0,0,1,.22-.17,2.18,2.18,0,0,0,1.08-1.35c.48-1.79-.48-7.14-5.61-8a1.22,1.22,0,0,1-.93-.91h0a1.12,1.12,0,0,1,.41-1.09,2.87,2.87,0,0,0,1-3.74,4.25,4.25,0,0,0-3.28-2.49,1.11,1.11,0,0,1-.93-1.26s0-.05,0-.07C276.9,164.8,276.58,162.06,270.38,162.87Z"/><path class="cls-38" d="M91.49,157.36s-1.89.92-2.24,2c-.28.84-2.37,1-2.57,2.62a1.9,1.9,0,0,1-1.6,1.68c-2.13.33-5.42,1.43-6,5.14-.4,2.83,1,3.9,2.55,4.27a2.16,2.16,0,0,1,1.63,2.47c-.22,1.08.1,2.32,2,3.31,4.18,2.2,8.35-5.22,8.35-5.22l.85-13Z"/><path class="cls-39" d="M111.15,150.52s-5.37,14.66-14.53,19.24c0,0,3,5,4.64,5.27,0,0,9.78-12.52,10.78-22.78Z"/><path class="cls-19" d="M74.32,238.69l-.27,2.23a.9.9,0,0,1-.81.8,13.68,13.68,0,0,1-3,0,.78.78,0,0,1-.69-.86l0-.14a8.05,8.05,0,0,1,1.49-2.91h2.47a.77.77,0,0,1,.79.73A.76.76,0,0,1,74.32,238.69Z"/><path class="cls-40" d="M93.63,212.63l.41,2.45s-1.39,14.11-1.64,19.76a4.34,4.34,0,0,0,.66,2.51l2.42,3.94-6.16-3.6-.12-.75,1-1.38-1.31-15.87a4.85,4.85,0,0,1,.55-2.69l1.27-2.39Z"/><path class="cls-19" d="M95.88,241.86h-2a1.19,1.19,0,0,1-.94-.46c-.61-.8-1.88-2.35-2.49-2.39-.81-.06-.71,2.85-.71,2.85h-.46l-.58-3.61A2.16,2.16,0,0,1,89.82,236h0a3,3,0,0,0,1.2,2c1,.61,4.12,2.79,4.12,2.79a2.68,2.68,0,0,1,.8,0,.53.53,0,0,1-.06,1.06Z"/><path class="cls-41" d="M85.19,213.79s-8.16,15.49-9.46,19A34.42,34.42,0,0,0,74,239.56c0,.43-.57.85-2.06.85a1.45,1.45,0,0,1-1.34-.61.89.89,0,0,1,0-.84c.47-1,2-4,2.53-5.4.66-1.65,2.08-9.14,2.86-11.75s1.67-5.43,5.07-8C81,213.79,83.38,211.51,85.19,213.79Z"/><path class="cls-3" d="M90.38,188.42c2.11-8.92-3.23-14-3.23-14,3.37-3.23,9.5-4.7,9.5-4.7s5.85,4.27,5.16,7.62c-.41,2-4.12,11.76-4.12,11.76A8.12,8.12,0,0,1,90.38,188.42Z"/><path class="cls-19" d="M85.68,192.84c.86-2.58,4.67-4.42,4.67-4.42a8.12,8.12,0,0,0,7.31.72,14.58,14.58,0,0,1,.24,5.66c-.53,2.73-3.86,20.28-3.86,20.28C88.8,216.14,80.73,214,80.73,214,84.07,208.08,84.82,195.42,85.68,192.84Z"/><path class="cls-42" d="M92.79,163.86l-1.71,7.69c-.16.68.46.56,1.14.44,1.12-.22,2.57-.65,3-1.52a1.4,1.4,0,0,0,.09-.29l.73-5.34a1,1,0,0,0-.56-1l-1.42-.63a1,1,0,0,0-1.26.63Z"/><path class="cls-43" d="M87.12,174.46S75.12,183,85.59,192a2.6,2.6,0,0,0,1.18.68,13.87,13.87,0,0,1,2.16,1.46.39.39,0,0,0,.56-.07l0,0h0a.55.55,0,0,0,0-.53L88,190.37a1.13,1.13,0,0,0-1.48-.07h0a.57.57,0,0,1-.79-.09l-.06-.1c-.81-1.64-2.33-6.47,3.89-11.92a.66.66,0,0,0,.15-.82C89.38,176.53,88.38,174.86,87.12,174.46Z"/><path class="cls-44" d="M94.8,156.54a7.61,7.61,0,0,1,3.41,3.78c1.38,2.93.35,4.29-1,4.47a6,6,0,0,1-5.27-1.73C90,161.16,92.17,155.52,94.8,156.54Z"/><path class="cls-45" d="M93.38,161.49s-1.53-4.28,2.27-4.33l.89.62s1.4-2.38-.89-3.51-5-.2-5.94,2.89-1.14,5.14.48,6.62,2.28-.2,2.28-.2-.88-1.38-.52-2.12,1.19.16,1.19.16Z"/><path class="cls-46" d="M92.94,162s-.77-2.21-1.8-1.33.83,2,1.57,2.42Z"/><path class="cls-47" d="M111.67,153.19c.08.26-.87.66-1.43-.41,0-.51-.33-2.7,0-3.12a41.08,41.08,0,0,1,4.78-5,.75.75,0,0,1,.09,1l-1.53,1.59a7.35,7.35,0,0,1,.89,1.77,2.12,2.12,0,0,1-.21,1.58,16.71,16.71,0,0,1-1,1.6A2.14,2.14,0,0,1,111.67,153.19Z"/><path class="cls-48" d="M112.48,152.11l-.36-.07a14.55,14.55,0,0,1,.75-2.9.63.63,0,0,0,.14-.44.45.45,0,0,0-.1-.14l-1.26,1.07-.42,1.13-.34-.13.45-1.22,1.53-1.29H113a.7.7,0,0,1,.38.43.91.91,0,0,1-.17.73A15.43,15.43,0,0,0,112.48,152.11Z"/><path class="cls-19" d="M29.58,174.92s10.17,7,12.36,3.61S33,165.13,33,165.13Z"/><path class="cls-19" d="M27.31,240.48a.43.43,0,0,0,0-.16c-.77-3-4.58-4.93-4.58-4.93l-1.51.11a10.64,10.64,0,0,0-.61,5.06v.06A34.88,34.88,0,0,0,27.31,240.48Z"/><path class="cls-49" d="M20.6,233.26l.64,3.07a.5.5,0,0,0,.43.42,4.18,4.18,0,0,0,1,0,.62.62,0,0,0,.5-.74h0l-.45-2.73Z"/><path class="cls-19" d="M40.68,240.34v-.06a11.72,11.72,0,0,0-6.94-4.36l-2-.06a9.43,9.43,0,0,0-.89,4.31,9,9,0,0,0,3,.42A64.87,64.87,0,0,0,40.68,240.34Z"/><path class="cls-50" d="M31.38,232.9c0,.15.29,2.36.4,3.21a.42.42,0,0,0,.36.39,4.3,4.3,0,0,0,1.34,0,.58.58,0,0,0,.43-.58v-3.47Z"/><path class="cls-3" d="M29.83,192.54A173.44,173.44,0,0,1,34.45,233a.87.87,0,0,1-.69.85,9.47,9.47,0,0,1-2.18.25.78.78,0,0,1-.77-.67c-.66-3.87-4.45-25.68-6.61-29.23,0,0-1.42,19.43-1,29.51a.48.48,0,0,1-.42.5,8.53,8.53,0,0,1-1.75,0,.64.64,0,0,1-.57-.54c-.47-3.28-3.18-22.78-3.06-36.83,0-.79,2.09-4.24,2.09-4.24Z"/><path class="cls-19" d="M33.07,165.11c-6.48-.93-13.6-.07-17,.36A4.63,4.63,0,0,0,13.14,167c-2.92,3.38-9.34,12.64-1.79,22a14,14,0,0,0,3.27-2.4c-.83-2.35-.9-5.36.85-9.05.06.29.14.58.23.87a53.52,53.52,0,0,1,2.53,15.47.48.48,0,0,0,.3.45c3.18,1.27,9.29.52,11.34.21a.69.69,0,0,0,.58-.78c-.72-5.23,1.73-12.88,3.68-17.9C34.9,173.89,33.47,165.69,33.07,165.11Z"/><path class="cls-51" d="M22.38,157.74l-.89,7.4a.7.7,0,0,0,.49.75,7.85,7.85,0,0,0,5-.07.8.8,0,0,0,.47-.92l-1.14-5.21Z"/><path class="cls-52" d="M25.63,152.09c.09.07,4,6.71,4,6.71l-3.83,2.14-4.61-5.75S24.14,150.84,25.63,152.09Z"/><path class="cls-53" d="M22.91,155.25a.63.63,0,0,0,.08.55L25.14,159a.37.37,0,0,0,.12.13,1,1,0,0,0,1.4.18,1,1,0,0,0,.25-.28,5.68,5.68,0,0,1,1.46-1.77.62.62,0,0,1,.86.22h0a24.35,24.35,0,0,1,1.53,3.12.63.63,0,0,1-.32.78,17,17,0,0,1-3.72,1.32.62.62,0,0,1-.61-.22c-.65-.79-2.48-3-3.1-3.54a2.08,2.08,0,0,0-2-.1.65.65,0,0,1-.51,0,1.39,1.39,0,0,1-.78-1.82,1.16,1.16,0,0,1,.14-.27.63.63,0,0,0-.24-.84,1.4,1.4,0,0,1-.7-1.85l.05-.1a2,2,0,0,1,2.07-1.16.65.65,0,0,0,.66-.42.41.41,0,0,1,.31-.27.62.62,0,0,0,.46-.74h0a1.6,1.6,0,0,1,.79-1.9c1.65-1,3.23.41,3.68,1.68s-1.4,2.28-2.59,2.5C23.5,153.75,23.07,154.74,22.91,155.25Z"/><path class="cls-54" d="M23.83,160.08s-.88-2.17-1.85-2-1.67,1.15-.41,2.17C23.15,161.47,23.83,160.08,23.83,160.08Z"/><path class="cls-55" d="M15.15,177a19.88,19.88,0,0,1-.81-7.78h.35a19.63,19.63,0,0,0,.79,7.62Z"/><path class="cls-19" d="M24,203.69a.19.19,0,0,1-.18-.13c-.39-1.51-3.31-3.17-3.34-3.18a.18.18,0,0,1-.07-.24.16.16,0,0,1,.23-.07h0c.13.07,3.09,1.74,3.52,3.4a.17.17,0,0,1-.12.21h0Z"/><path class="cls-56" d="M14.62,186.6a14,14,0,0,1-3.27,2.4,27.62,27.62,0,0,0,6,5.31l.32.7a1.74,1.74,0,0,0,1.51,1c3.61.17,4.61-.6,1.28-2.92A12.84,12.84,0,0,1,14.62,186.6Z"/><path class="cls-57" d="M44.84,169.34a70.34,70.34,0,0,0-6.37,5.71c-1.26,1.57-.49,4.83,2,4.4s6.25-8.23,6.25-8.23Z"/><path class="cls-58" d="M37,163.85s8.46,8.14,10.62,9.64c2.52,1.74,5.82-1.69,4.67-3.6s-9.78-8-9.78-8Z"/><polygon class="cls-9" points="38.63 154.22 58.17 135.04 68.31 157.09 42.03 163.05 38.63 154.22"/><ellipse class="cls-59" cx="63.4" cy="146.09" rx="2.54" ry="12.47" transform="translate(-56.42 41.19) rotate(-25.34)"/><path class="cls-9" d="M68.56,156.48c-.31-.11-1.15-.71-2.53-2.64A52.8,52.8,0,0,1,59,139c-.61-2.29-.55-3.32-.44-3.63.31.11,1.15.71,2.53,2.64a52.8,52.8,0,0,1,7,14.86C68.73,155.14,68.67,156.17,68.56,156.48Z"/><g class="cls-60"><path class="cls-61" d="M66.46,144.44c.91,1.91.61,3.95-1.43,4.92a3.84,3.84,0,1,1-3.62-6.77l.33-.16C63.79,141.46,65.55,142.52,66.46,144.44Z"/></g><path class="cls-62" d="M34.64,155.53a14.56,14.56,0,0,1,4.48-1.86,25.79,25.79,0,0,0,4.51,9.08L38.82,165a1.73,1.73,0,0,1-2.16-.59,23.79,23.79,0,0,1-3.12-6A2.55,2.55,0,0,1,34.64,155.53Z"/><path class="cls-63" d="M38.61,156.47l-3.74,1.77a.41.41,0,0,1-.45,0,.43.43,0,0,1-.18-.41.17.17,0,1,1,.34,0,.07.07,0,0,0,.1.1l3.75-1.78a.11.11,0,0,0,0-.13l-.13-.27a.11.11,0,0,0-.14-.05l-3.77,1.79a.16.16,0,0,1-.22-.08.17.17,0,0,1,.08-.23L38,155.4a.45.45,0,0,1,.59.21h0l.12.26A.43.43,0,0,1,38.61,156.47Z"/><path class="cls-64" d="M39.06,158.29l-3.74,1.77a.44.44,0,0,1-.59-.2.43.43,0,0,1,0-.25.17.17,0,0,1,.19-.15h0a.18.18,0,0,1,.15.19.07.07,0,0,0,.1.1L38.88,158a.11.11,0,0,0,0-.14l-.13-.26a.1.1,0,0,0-.11-.06h0l-3.78,1.79a.16.16,0,0,1-.22-.08.17.17,0,0,1,.08-.23l3.77-1.79a.45.45,0,0,1,.59.21l.12.27a.44.44,0,0,1-.17.6Z"/><path class="cls-65" d="M41.77,152.07a.17.17,0,0,1-.19,0,.15.15,0,0,1,0-.22h0l15-14a.17.17,0,0,1,.23,0h0a.16.16,0,0,1,0,.23h0l-15,14Z"/><path class="cls-65" d="M39.84,154.18a.17.17,0,0,1-.19,0,.18.18,0,0,1,0-.24l.74-.81a.18.18,0,0,1,.24,0,.16.16,0,0,1,0,.24l-.74.81Z"/><path class="cls-66" d="M40.32,160.07l-3.75,1.78a.42.42,0,0,1-.44,0,.43.43,0,0,1-.18-.41.16.16,0,0,1,.18-.14h0a.16.16,0,0,1,.14.18h0a.09.09,0,0,0,0,.1.11.11,0,0,0,.11,0l3.74-1.77a.09.09,0,0,0,0-.13h0l-.12-.27a.11.11,0,0,0-.14,0l-3.77,1.79a.17.17,0,0,1-.24,0,.16.16,0,0,1,0-.23l0,0L39.78,159a.44.44,0,0,1,.58.21l.13.27A.44.44,0,0,1,40.32,160.07Z"/><path class="cls-67" d="M41.69,162.06l-3.75,1.78a.41.41,0,0,1-.62-.41.16.16,0,0,1,.18-.14h0a.16.16,0,0,1,.14.18h0a.14.14,0,0,0,0,.09.07.07,0,0,0,.1,0l3.75-1.77a.11.11,0,0,0,0-.14l-.13-.27a.11.11,0,0,0-.14,0l-3.77,1.79a.17.17,0,0,1-.24,0,.16.16,0,0,1,0-.23l0,0L41.14,161a.44.44,0,0,1,.58.21l.13.27A.44.44,0,0,1,41.69,162.06Z"/><path class="cls-68" d="M50.59,172.2a2.35,2.35,0,0,1-.56.2,2.74,2.74,0,0,1-2.41-.59l-6.14-5.23a.16.16,0,0,1,0-.24.17.17,0,0,1,.23,0h0l6.14,5.23a2.42,2.42,0,0,0,3.4-.27,2.68,2.68,0,0,0,.36-.58v-.11a.17.17,0,1,1,.32.12l-.06.12A2.58,2.58,0,0,1,50.59,172.2Z"/><path class="cls-69" d="M40.75,165.83a.15.15,0,0,1-.18,0l-.68-.59a.15.15,0,0,1,0-.22h0a.18.18,0,0,1,.24,0l.68.58a.16.16,0,0,1,0,.24Z"/><path class="cls-70" d="M65.89,144.69a.16.16,0,0,1-.22-.07A3,3,0,0,0,63.76,143a3.72,3.72,0,0,0-2.61.64.17.17,0,1,1-.24-.24,4,4,0,0,1,2.88-.7,3.31,3.31,0,0,1,2.14,1.76.18.18,0,0,1-.07.23Z"/><path class="cls-71" d="M46.76,166.08s1.3-1.1,2.32,0,1.21,3,1,3.12S43.61,167.74,46.76,166.08Z"/><polygon class="cls-72" points="83.1 137.1 74.86 136.63 76.02 139.25 70.52 140.62 79.6 143 78.33 139.32 83.1 137.1"/><polygon class="cls-73" points="82.38 149.49 76.3 146.59 76.37 148.92 71.82 148.25 77.93 152.84 78.11 149.69 82.38 149.49"/><polygon class="cls-74" points="71.97 127.6 66.46 131.46 68.52 132.55 65.7 136.18 72.71 133.12 70.05 131.41 71.97 127.6"/></g></g></svg>