<svg xmlns="http://www.w3.org/2000/svg" xmlns:xlink="http://www.w3.org/1999/xlink" viewBox="0 0 600 650"><defs><style>.cls-1{fill:url(#linear-gradient);}.cls-2{fill:none;}.cls-3{isolation:isolate;}.cls-4{clip-path:url(#clip-path);}.cls-5{fill:url(#linear-gradient-3);}.cls-6{fill:url(#linear-gradient-4);}.cls-7{opacity:0.4;}.cls-10,.cls-7,.cls-9{mix-blend-mode:overlay;}.cls-10,.cls-18,.cls-73,.cls-8,.cls-9{fill:#fff;}.cls-9{opacity:0.15;}.cls-10,.cls-11{opacity:0.6;}.cls-11,.cls-12,.cls-13{fill:#ad9be6;}.cls-12{opacity:0.53;}.cls-14{fill:url(#linear-gradient-5);}.cls-15{fill:#28187b;}.cls-16{fill:#bdd0fb;}.cls-17{fill:url(#linear-gradient-6);}.cls-18{opacity:0.65;}.cls-19{fill:#7d97f4;}.cls-20{fill:url(#linear-gradient-7);}.cls-21{fill:url(#linear-gradient-8);}.cls-22{fill:url(#linear-gradient-9);}.cls-23{fill:url(#linear-gradient-10);}.cls-24{fill:url(#linear-gradient-11);}.cls-25{fill:url(#linear-gradient-12);}.cls-26{fill:#a9f;}.cls-27{fill:url(#linear-gradient-13);}.cls-28{fill:url(#linear-gradient-14);}.cls-29{fill:#ff8f65;}.cls-30{fill:url(#linear-gradient-15);}.cls-31{fill:url(#linear-gradient-16);}.cls-32{fill:url(#linear-gradient-17);}.cls-33{fill:url(#linear-gradient-18);}.cls-34{fill:url(#linear-gradient-19);}.cls-35{fill:url(#linear-gradient-20);}.cls-36{fill:#d2ccff;}.cls-37{fill:#ed7c58;}.cls-38,.cls-73{opacity:0.66;}.cls-39{fill:url(#linear-gradient-21);}.cls-40{fill:url(#linear-gradient-22);}.cls-41{fill:url(#linear-gradient-23);}.cls-42{fill:url(#linear-gradient-24);}.cls-43{fill:url(#linear-gradient-25);}.cls-44{fill:url(#linear-gradient-26);}.cls-45{fill:url(#linear-gradient-27);}.cls-46{fill:url(#linear-gradient-28);}.cls-47{fill:url(#linear-gradient-29);}.cls-48{fill:url(#linear-gradient-30);}.cls-49{fill:url(#linear-gradient-31);}.cls-50{fill:url(#linear-gradient-32);}.cls-51{fill:url(#linear-gradient-33);}.cls-52{fill:url(#linear-gradient-34);}.cls-53{fill:url(#linear-gradient-35);}.cls-54{fill:url(#linear-gradient-36);}.cls-55{fill:url(#linear-gradient-37);}.cls-56{fill:url(#linear-gradient-38);}.cls-57{fill:url(#linear-gradient-39);}.cls-58{fill:url(#linear-gradient-40);}.cls-59{fill:url(#linear-gradient-41);}.cls-60{fill:url(#linear-gradient-42);}.cls-61{fill:url(#linear-gradient-43);}.cls-62{fill:url(#linear-gradient-44);}.cls-63{fill:url(#linear-gradient-45);}.cls-64{fill:url(#linear-gradient-46);}.cls-65{fill:url(#linear-gradient-47);}.cls-66{fill:url(#linear-gradient-48);}.cls-67{fill:url(#linear-gradient-49);}.cls-68{clip-path:url(#clip-path-2);}.cls-69{fill:url(#linear-gradient-50);}.cls-70{fill:url(#linear-gradient-51);}.cls-71{fill:url(#linear-gradient-52);}.cls-72{fill:url(#linear-gradient-53);}.cls-74{fill:url(#linear-gradient-54);}.cls-75{fill:url(#linear-gradient-55);}.cls-76{fill:url(#linear-gradient-56);}.cls-77{fill:url(#linear-gradient-57);}.cls-78{fill:url(#linear-gradient-58);}.cls-79{fill:url(#linear-gradient-59);}.cls-80{fill:url(#linear-gradient-60);}.cls-81{fill:url(#linear-gradient-61);}.cls-82{fill:url(#linear-gradient-62);}</style><linearGradient id="linear-gradient" x1="300" y1="674.26" x2="300" gradientUnits="userSpaceOnUse"><stop offset="0" stop-color="#5c3bc8"/><stop offset="0.23" stop-color="#6140cb"/><stop offset="0.52" stop-color="#6f4fd5"/><stop offset="0.83" stop-color="#8668e4"/><stop offset="1" stop-color="#9679ef"/></linearGradient><clipPath id="clip-path"><rect class="cls-1" width="600" height="674.26"/></clipPath><linearGradient id="linear-gradient-3" x1="252.61" y1="522.05" x2="273.6" y2="761.95" gradientUnits="userSpaceOnUse"><stop offset="0" stop-color="#af9fe5"/><stop offset="0.31" stop-color="#ac9ae6"/><stop offset="0.69" stop-color="#a28bea"/><stop offset="1" stop-color="#9679ef"/></linearGradient><linearGradient id="linear-gradient-4" x1="279.5" y1="771.58" x2="279.5" y2="568.68" xlink:href="#linear-gradient"/><linearGradient id="linear-gradient-5" x1="313.44" y1="290.7" x2="294.33" y2="366.1" gradientUnits="userSpaceOnUse"><stop offset="0" stop-color="#09005d"/><stop offset="1" stop-color="#1a0f91"/></linearGradient><linearGradient id="linear-gradient-6" x1="304.63" y1="260.77" x2="304.63" y2="334.62" xlink:href="#linear-gradient-5"/><linearGradient id="linear-gradient-7" x1="173.1" y1="298.07" x2="172.04" y2="305.84" gradientTransform="matrix(-1, 0, 0, 1, 617.89, 0)" xlink:href="#linear-gradient-5"/><linearGradient id="linear-gradient-8" x1="172.7" y1="303.94" x2="170.26" y2="319.41" gradientTransform="matrix(-1, 0, 0, 1, 617.89, 0)" gradientUnits="userSpaceOnUse"><stop offset="0" stop-color="#020039"/><stop offset="1" stop-color="#090056"/></linearGradient><linearGradient id="linear-gradient-9" x1="168.46" y1="299.54" x2="171.59" y2="299.54" gradientTransform="matrix(-1, 0, 0, 1, 617.89, 0)" gradientUnits="userSpaceOnUse"><stop offset="0" stop-color="#ff928e"/><stop offset="1" stop-color="#feb3b1"/></linearGradient><linearGradient id="linear-gradient-10" x1="181.87" y1="288.53" x2="174.63" y2="294.58" xlink:href="#linear-gradient-8"/><linearGradient id="linear-gradient-11" x1="179.46" y1="287.01" x2="187.61" y2="287.01" gradientTransform="matrix(-1, 0, 0, 1, 617.89, 0)" xlink:href="#linear-gradient-5"/><linearGradient id="linear-gradient-12" x1="181.54" y1="282.13" x2="185.93" y2="282.13" xlink:href="#linear-gradient-9"/><linearGradient id="linear-gradient-13" x1="172.03" y1="277.4" x2="177.91" y2="264.85" gradientTransform="matrix(-1, 0, 0, 1, 617.89, 0)" xlink:href="#linear-gradient-5"/><linearGradient id="linear-gradient-14" x1="197.67" y1="258.42" x2="204.09" y2="258.42" xlink:href="#linear-gradient-9"/><linearGradient id="linear-gradient-15" x1="426.9" y1="219.7" x2="430.91" y2="235.07" gradientTransform="matrix(1, 0, 0, 1, 0, 0)" xlink:href="#linear-gradient-9"/><linearGradient id="linear-gradient-16" x1="429.92" y1="217.7" x2="423.38" y2="226.54" gradientTransform="matrix(1, 0, 0, 1, 0, 0)" xlink:href="#linear-gradient-9"/><linearGradient id="linear-gradient-17" x1="187.04" y1="215.56" x2="195.69" y2="226.69" gradientTransform="matrix(-1, 0, 0, 1, 617.89, 0)" xlink:href="#linear-gradient-5"/><linearGradient id="linear-gradient-18" x1="432.59" y1="219.67" x2="426.04" y2="228.51" gradientTransform="matrix(1, 0, 0, 1, 0, 0)" xlink:href="#linear-gradient-9"/><linearGradient id="linear-gradient-19" x1="191.39" y1="237.34" x2="190.73" y2="248.11" gradientTransform="matrix(-1, 0, 0, 1, 617.89, 0)" gradientUnits="userSpaceOnUse"><stop offset="0" stop-color="#cb236d"/><stop offset="1" stop-color="#4c246d"/></linearGradient><linearGradient id="linear-gradient-20" x1="-3121.72" y1="-836.88" x2="-3135.89" y2="-820.68" gradientTransform="translate(4079.53 288.28) rotate(-2.09)" xlink:href="#linear-gradient-9"/><linearGradient id="linear-gradient-21" x1="-2491.54" y1="-325.25" x2="-2498.68" y2="-303.38" gradientTransform="translate(2828.6 -356.44) rotate(-21.59)" xlink:href="#linear-gradient-9"/><linearGradient id="linear-gradient-22" x1="-339.11" y1="329.05" x2="-325.46" y2="329.05" gradientTransform="translate(738.16)" xlink:href="#linear-gradient-9"/><linearGradient id="linear-gradient-23" x1="-347.39" y1="330.07" x2="-339.49" y2="330.07" gradientTransform="translate(738.16)" xlink:href="#linear-gradient-9"/><linearGradient id="linear-gradient-24" x1="398.51" y1="295.08" x2="378.66" y2="267.42" gradientTransform="matrix(1, 0, 0, 1, 0, 0)" xlink:href="#linear-gradient-9"/><linearGradient id="linear-gradient-25" x1="396.87" y1="297.11" x2="396.98" y2="330.16" gradientTransform="matrix(1, 0, 0, 1, 0, 0)" xlink:href="#linear-gradient-8"/><linearGradient id="linear-gradient-26" x1="-345" y1="278.35" x2="-340.16" y2="278.35" gradientTransform="translate(738.16)" xlink:href="#linear-gradient-9"/><linearGradient id="linear-gradient-27" x1="-337.31" y1="272.1" x2="-302.09" y2="274.49" gradientTransform="translate(738.16)" xlink:href="#linear-gradient-9"/><linearGradient id="linear-gradient-28" x1="-4230.8" y1="252.11" x2="-4225.19" y2="266.17" gradientTransform="matrix(-1, 0, 0, 1, -4008.36, 0)" xlink:href="#linear-gradient-8"/><linearGradient id="linear-gradient-29" x1="-4242.36" y1="260.23" x2="-4232.01" y2="283.79" gradientTransform="matrix(-1, 0, 0, 1, -4008.36, 0)" xlink:href="#linear-gradient-9"/><linearGradient id="linear-gradient-30" x1="-4230.39" y1="360.85" x2="-4223.55" y2="280.92" gradientTransform="matrix(-1, 0, 0, 1, -4008.36, 0)" xlink:href="#linear-gradient-9"/><linearGradient id="linear-gradient-31" x1="-4216.63" y1="362.04" x2="-4209.79" y2="282.09" gradientTransform="matrix(-1, 0, 0, 1, -4008.36, 0)" xlink:href="#linear-gradient-9"/><linearGradient id="linear-gradient-32" x1="222.15" y1="265.96" x2="219.06" y2="282.95" gradientTransform="matrix(1, 0, 0, 1, 0, 0)" xlink:href="#linear-gradient-9"/><linearGradient id="linear-gradient-33" x1="-4225.85" y1="286.65" x2="-4217.31" y2="286.65" gradientTransform="matrix(-1, 0, 0, 1, -4008.36, 0)" xlink:href="#linear-gradient-9"/><linearGradient id="linear-gradient-34" x1="220.13" y1="258.44" x2="224.26" y2="267.62" gradientTransform="matrix(1, 0, 0, 1, 0, 0)" xlink:href="#linear-gradient-9"/><linearGradient id="linear-gradient-35" x1="-4231.97" y1="252.58" x2="-4226.37" y2="266.64" gradientTransform="matrix(-1, 0, 0, 1, -4008.36, 0)" xlink:href="#linear-gradient-8"/><linearGradient id="linear-gradient-36" x1="217.54" y1="259.6" x2="221.67" y2="268.78" gradientTransform="matrix(1, 0, 0, 1, 0, 0)" xlink:href="#linear-gradient-9"/><linearGradient id="linear-gradient-37" x1="-4244.41" y1="261.13" x2="-4234.05" y2="284.69" gradientTransform="matrix(-1, 0, 0, 1, -4008.36, 0)" xlink:href="#linear-gradient-9"/><linearGradient id="linear-gradient-38" x1="244.87" y1="281.66" x2="240.74" y2="257.67" gradientTransform="matrix(1, 0, 0, 1, 0, 0)" xlink:href="#linear-gradient-9"/><linearGradient id="linear-gradient-39" x1="150.01" y1="332.6" x2="148.71" y2="343.96" gradientTransform="matrix(1, 0, 0, 1, 0, 0)" xlink:href="#linear-gradient-9"/><linearGradient id="linear-gradient-40" x1="160.61" y1="333.82" x2="159.31" y2="345.18" gradientTransform="matrix(1, 0, 0, 1, 0, 0)" xlink:href="#linear-gradient-9"/><linearGradient id="linear-gradient-41" x1="152.11" y1="261.54" x2="152.11" y2="278.58" gradientTransform="matrix(1, 0, 0, 1, 0, 0)" xlink:href="#linear-gradient-9"/><linearGradient id="linear-gradient-42" x1="157.88" y1="253.5" x2="150.14" y2="262.62" gradientTransform="matrix(1, 0, 0, 1, 0, 0)" xlink:href="#linear-gradient-9"/><linearGradient id="linear-gradient-43" x1="-4816.56" y1="-1333.4" x2="-4806.03" y2="-1333.4" gradientTransform="matrix(0.64, -0.77, 0.77, 0.64, 4267.47, -2569.66)" xlink:href="#linear-gradient-5"/><linearGradient id="linear-gradient-44" x1="156.83" y1="252.81" x2="150.11" y2="261.58" gradientTransform="matrix(1, 0, 0, 1, 0, 0)" xlink:href="#linear-gradient-9"/><linearGradient id="linear-gradient-45" x1="148.7" y1="264.01" x2="138.41" y2="282.92" xlink:href="#linear-gradient-5"/><linearGradient id="linear-gradient-46" x1="138.97" y1="293.65" x2="150.09" y2="293.65" gradientTransform="matrix(1, 0, 0, 1, 0, 0)" xlink:href="#linear-gradient-9"/><linearGradient id="linear-gradient-47" x1="785.52" y1="2575.95" x2="792.58" y2="2575.95" gradientTransform="translate(2100.01 -1602.53) rotate(62.79)" xlink:href="#linear-gradient-9"/><linearGradient id="linear-gradient-48" x1="-1721.78" y1="664.75" x2="-1712.68" y2="652.55" gradientTransform="translate(1441.65 -1057.68) rotate(-25.35)" xlink:href="#linear-gradient-5"/><linearGradient id="linear-gradient-49" x1="-1675.23" y1="639.02" x2="-1692.09" y2="646.04" gradientTransform="translate(1880.35 -396.63)" gradientUnits="userSpaceOnUse"><stop offset="0" stop-color="#e1473d"/><stop offset="1" stop-color="#e9605a"/></linearGradient><clipPath id="clip-path-2"><path class="cls-2" d="M196.18,258.79c-.31-.11-1.15-.71-2.53-2.64a46.81,46.81,0,0,1-4.1-7.15,47.46,47.46,0,0,1-2.94-7.71c-.61-2.29-.55-3.32-.44-3.63.31.11,1.15.71,2.53,2.64s5.55,3.09,6.85,5.85-.4,6.8.19,9S196.29,258.48,196.18,258.79Z"/></clipPath><linearGradient id="linear-gradient-50" x1="-1683.77" y1="644.44" x2="-1701.81" y2="645.48" gradientTransform="translate(1441.65 -1057.68) rotate(-25.35)" xlink:href="#linear-gradient-5"/><linearGradient id="linear-gradient-51" x1="-1717.95" y1="650.85" x2="-1718.61" y2="634.1" gradientTransform="translate(1441.65 -1057.68) rotate(-25.35)" xlink:href="#linear-gradient-5"/><linearGradient id="linear-gradient-52" x1="161.86" y1="259.13" x2="166.48" y2="259.13" gradientUnits="userSpaceOnUse"><stop offset="0" stop-color="#dae3fe"/><stop offset="1" stop-color="#e9effd"/></linearGradient><linearGradient id="linear-gradient-53" x1="162.31" y1="260.95" x2="166.94" y2="260.95" xlink:href="#linear-gradient-52"/><linearGradient id="linear-gradient-54" x1="163.56" y1="262.74" x2="168.19" y2="262.74" xlink:href="#linear-gradient-52"/><linearGradient id="linear-gradient-55" x1="164.94" y1="264.73" x2="169.56" y2="264.73" xlink:href="#linear-gradient-52"/><linearGradient id="linear-gradient-56" x1="169.04" y1="271.69" x2="179.59" y2="271.69" xlink:href="#linear-gradient-52"/><linearGradient id="linear-gradient-57" x1="167.45" y1="267.7" x2="168.47" y2="267.7" xlink:href="#linear-gradient-52"/><linearGradient id="linear-gradient-58" x1="188.5" y1="245.94" x2="193.61" y2="245.94" xlink:href="#linear-gradient-52"/><linearGradient id="linear-gradient-59" x1="173.5" y1="269.71" x2="177.78" y2="269.71" gradientTransform="matrix(1, 0, 0, 1, 0, 0)" xlink:href="#linear-gradient-9"/><linearGradient id="linear-gradient-60" x1="198.14" y1="242.12" x2="210.72" y2="242.12" xlink:href="#linear-gradient-52"/><linearGradient id="linear-gradient-61" x1="199.44" y1="252.03" x2="209.99" y2="252.03" xlink:href="#linear-gradient-52"/><linearGradient id="linear-gradient-62" x1="193.32" y1="234.2" x2="200.33" y2="234.2" xlink:href="#linear-gradient-52"/></defs><g class="cls-3"><g id="Layer_1" data-name="Layer 1"><rect class="cls-1" width="600" height="674.26"/><g class="cls-4"><rect class="cls-2" width="550.92" height="674.26"/><path class="cls-5" d="M-96.65,600c25.4-24.68,67.13-40.36,106.09-32.89,26.82,5.14,50.71,17.36,75.23,27.72s51.5,19.19,78.86,16.68c59.9-5.51,97.61-61.64,156.94-70.43,63.11-9.35,128.82,38.24,187.7,17.23,42.52-15.17,63.61-61.75,109.27-68.15V731.86H-96.65Z"/><path class="cls-6" d="M-41,618c34.44,5.41,53.53-.16,82.14-14.92,19.22-9.91,35.43-24,58.34-28.31,28-5.23,56.87,6.05,78.43,19.85s39.85,30.72,65.19,40.7c52.6,20.72,120,5.18,167.34-21.21,20.51-11.42,39.05-24.8,61.38-34.3s50.1-14.78,74.42-8.25c20,5.37,34.71,17.82,53.77,24.72V771.58H-41Z"/><g class="cls-7"><path class="cls-8" d="M89.16,131.5a4.06,4.06,0,1,1-4.06-4.06A4.05,4.05,0,0,1,89.16,131.5Z"/><path class="cls-8" d="M387.15,523.5a4.06,4.06,0,1,1-4.06-4A4.06,4.06,0,0,1,387.15,523.5Z"/><path class="cls-8" d="M114.76,632.08a2.08,2.08,0,1,1-2.08-2.07A2.07,2.07,0,0,1,114.76,632.08Z"/><circle class="cls-8" cx="460.2" cy="518.51" r="4.44"/><path class="cls-8" d="M137.81,599.12a5.1,5.1,0,1,1-5.1-5.1A5.1,5.1,0,0,1,137.81,599.12Z"/><path class="cls-8" d="M94.18,103.8a2.44,2.44,0,1,1-2.43-2.43A2.43,2.43,0,0,1,94.18,103.8Z"/><path class="cls-8" d="M450.38,554.89a2.44,2.44,0,1,1-2.44-2.43A2.44,2.44,0,0,1,450.38,554.89Z"/><circle class="cls-8" cx="37.59" cy="118.79" r="1.46"/><path class="cls-8" d="M502.24,388.3a1.46,1.46,0,1,1-1.45-1.46A1.46,1.46,0,0,1,502.24,388.3Z"/><path class="cls-8" d="M183.68,558.49a1.42,1.42,0,1,1-1.42-1.42A1.42,1.42,0,0,1,183.68,558.49Z"/><path class="cls-8" d="M51,532.57a3,3,0,1,1-3-3A3,3,0,0,1,51,532.57Z"/><circle class="cls-8" cx="463.95" cy="428.76" r="1.46"/></g><path class="cls-9" d="M573.84,746.85h2.48V-64h-2.48v46.58H521.31V-64h-2.48v46.58H466.29V-64h-2.48v46.58H411.27V-64h-2.48v46.58H356.26V-64h-2.48v46.58H301.24V-64h-2.48v46.58H246.22V-64h-2.48v46.58H191.21V-64h-2.48v46.58H136.19V-64h-2.48v46.58H81.17V-64H78.69v46.58H26.16V-64H23.68v810.9h2.48V700.23H78.69v46.62h2.48V700.23h52.54v46.62h2.48V700.23h52.54v46.62h2.48V700.23h52.53v46.62h2.48V700.23h52.54v46.62h2.48V700.23h52.54v46.62h2.48V700.23h52.53v46.62h2.48V700.23h52.54v46.62h2.48V700.23h52.54v46.62h2.48V700.23h52.53ZM78.69,697.75H26.16V645.21H78.69Zm55,0H81.17V645.21h52.54Zm55,0H136.19V645.21h52.54Zm55,0H191.21V645.21h52.53Zm55,0H246.22V645.21h52.54Zm55,0H301.24V645.21h52.54Zm55,0H356.26V645.21h52.53Zm55,0H411.27V645.21h52.54Zm55,0H466.29V645.21h52.54Zm55,0H521.31V645.21h52.53Zm-495.15-55H26.16V590.19H78.69Zm55,0H81.17V590.19h52.54Zm55,0H136.19V590.19h52.54Zm55,0H191.21V590.19h52.53Zm55,0H246.22V590.19h52.54Zm55,0H301.24V590.19h52.54Zm55,0H356.26V590.19h52.53Zm55,0H411.27V590.19h52.54Zm55,0H466.29V590.19h52.54Zm55,0H521.31V590.19h52.53Zm-495.15-55H26.16V535.18H78.69Zm55,0H81.17V535.18h52.54Zm55,0H136.19V535.18h52.54Zm55,0H191.21V535.18h52.53Zm55,0H246.22V535.18h52.54Zm55,0H301.24V535.18h52.54Zm55,0H356.26V535.18h52.53Zm55,0H411.27V535.18h52.54Zm55,0H466.29V535.18h52.54Zm55,0H521.31V535.18h52.53Zm-495.15-55H26.16V480.16H78.69Zm55,0H81.17V480.16h52.54Zm55,0H136.19V480.16h52.54Zm55,0H191.21V480.16h52.53Zm55,0H246.22V480.16h52.54Zm55,0H301.24V480.16h52.54Zm55,0H356.26V480.16h52.53Zm55,0H411.27V480.16h52.54Zm55,0H466.29V480.16h52.54Zm55,0H521.31V480.16h52.53Zm-495.15-55H26.16V425.14H78.69Zm55,0H81.17V425.14h52.54Zm55,0H136.19V425.14h52.54Zm55,0H191.21V425.14h52.53Zm55,0H246.22V425.14h52.54Zm55,0H301.24V425.14h52.54Zm55,0H356.26V425.14h52.53Zm55,0H411.27V425.14h52.54Zm55,0H466.29V425.14h52.54Zm55,0H521.31V425.14h52.53Zm-495.15-55H26.16V370.12H78.69Zm55,0H81.17V370.12h52.54Zm55,0H136.19V370.12h52.54Zm55,0H191.21V370.12h52.53Zm55,0H246.22V370.12h52.54Zm55,0H301.24V370.12h52.54Zm55,0H356.26V370.12h52.53Zm55,0H411.27V370.12h52.54Zm55,0H466.29V370.12h52.54Zm55,0H521.31V370.12h52.53Zm-495.15-55H26.16V315.11H78.69Zm55,0H81.17V315.11h52.54Zm55,0H136.19V315.11h52.54Zm55,0H191.21V315.11h52.53Zm55,0H246.22V315.11h52.54Zm55,0H301.24V315.11h52.54Zm55,0H356.26V315.11h52.53Zm55,0H411.27V315.11h52.54Zm55,0H466.29V315.11h52.54Zm55,0H521.31V315.11h52.53Zm-495.15-55H26.16V260.09H78.69Zm55,0H81.17V260.09h52.54Zm55,0H136.19V260.09h52.54Zm55,0H191.21V260.09h52.53Zm55,0H246.22V260.09h52.54Zm55,0H301.24V260.09h52.54Zm55,0H356.26V260.09h52.53Zm55,0H411.27V260.09h52.54Zm55,0H466.29V260.09h52.54Zm55,0H521.31V260.09h52.53Zm-495.15-55H26.16V205.08H78.69Zm55,0H81.17V205.08h52.54Zm55,0H136.19V205.08h52.54Zm55,0H191.21V205.08h52.53Zm55,0H246.22V205.08h52.54Zm55,0H301.24V205.08h52.54Zm55,0H356.26V205.08h52.53Zm55,0H411.27V205.08h52.54Zm55,0H466.29V205.08h52.54Zm55,0H521.31V205.08h52.53Zm-495.15-55H26.16V150.06H78.69Zm55,0H81.17V150.06h52.54Zm55,0H136.19V150.06h52.54Zm55,0H191.21V150.06h52.53Zm55,0H246.22V150.06h52.54Zm55,0H301.24V150.06h52.54Zm55,0H356.26V150.06h52.53Zm55,0H411.27V150.06h52.54Zm55,0H466.29V150.06h52.54Zm55,0H521.31V150.06h52.53Zm-495.15-55H26.16V95H78.69Zm55,0H81.17V95h52.54Zm55,0H136.19V95h52.54Zm55,0H191.21V95h52.53Zm55,0H246.22V95h52.54Zm55,0H301.24V95h52.54Zm55,0H356.26V95h52.53Zm55,0H411.27V95h52.54Zm55,0H466.29V95h52.54Zm55,0H521.31V95h52.53Zm-495.15-55H26.16V40H78.69Zm55,0H81.17V40h52.54Zm55,0H136.19V40h52.54Zm55,0H191.21V40h52.53Zm55,0H246.22V40h52.54Zm55,0H301.24V40h52.54Zm55,0H356.26V40h52.53Zm55,0H411.27V40h52.54Zm55,0H466.29V40h52.54Zm55,0H521.31V40h52.53Zm-495.15-55H26.16V-15H78.69Zm55,0H81.17V-15h52.54Zm55,0H136.19V-15h52.54Zm55,0H191.21V-15h52.53Zm55,0H246.22V-15h52.54Zm55,0H301.24V-15h52.54Zm55,0H356.26V-15h52.53Zm55,0H411.27V-15h52.54Zm55,0H466.29V-15h52.54Zm55,0H521.31V-15h52.53Z"/><path class="cls-10" d="M424.51,556a12.38,12.38,0,1,1-12.38-12.37A12.38,12.38,0,0,1,424.51,556Z"/><circle class="cls-10" cx="55.2" cy="183.66" r="12.37"/></g><path class="cls-11" d="M434.48,180.35h19.46a2.42,2.42,0,0,0,2.42-2.42h0a2.42,2.42,0,0,0-2.42-2.42H434.48a2.42,2.42,0,0,0-2.42,2.42h0A2.42,2.42,0,0,0,434.48,180.35Z"/><path class="cls-11" d="M394.24,189.31h62.57a2.42,2.42,0,0,0,2.42-2.42h0a2.42,2.42,0,0,0-2.42-2.42H394.24a2.42,2.42,0,0,0-2.42,2.42h0A2.42,2.42,0,0,0,394.24,189.31Z"/><path class="cls-12" d="M386.72,198.8h62.57a2.42,2.42,0,0,0,2.42-2.42h0a2.42,2.42,0,0,0-2.42-2.43H386.72a2.42,2.42,0,0,0-2.42,2.43h0A2.42,2.42,0,0,0,386.72,198.8Z"/><path class="cls-12" d="M404.51,217.76h44.78a2.42,2.42,0,0,0,2.42-2.42h0a2.42,2.42,0,0,0-2.42-2.42H404.51a2.42,2.42,0,0,0-2.42,2.42h0A2.42,2.42,0,0,0,404.51,217.76Z"/><path class="cls-11" d="M379.7,208.28h62.57a2.42,2.42,0,0,0,2.42-2.42h0a2.42,2.42,0,0,0-2.42-2.42H379.7a2.42,2.42,0,0,0-2.42,2.42h0A2.42,2.42,0,0,0,379.7,208.28Z"/><path class="cls-13" d="M149.1,169.84H130a2.37,2.37,0,0,1-2.38-2.38h0a2.38,2.38,0,0,1,2.38-2.38H149.1a2.39,2.39,0,0,1,2.38,2.38h0A2.38,2.38,0,0,1,149.1,169.84Z"/><path class="cls-13" d="M196.38,182.39H134.85a2.39,2.39,0,0,1-2.38-2.38h0a2.38,2.38,0,0,1,2.38-2.38h61.53a2.38,2.38,0,0,1,2.38,2.38h0A2.39,2.39,0,0,1,196.38,182.39Z"/><path class="cls-13" d="M203.77,191.71H142.24a2.38,2.38,0,0,1-2.38-2.38h0a2.39,2.39,0,0,1,2.38-2.38h61.53a2.39,2.39,0,0,1,2.38,2.38h0A2.38,2.38,0,0,1,203.77,191.71Z"/><path class="cls-13" d="M186.27,210.36h-44a2.38,2.38,0,0,1-2.38-2.38h0a2.39,2.39,0,0,1,2.38-2.38h44a2.38,2.38,0,0,1,2.38,2.38h0A2.37,2.37,0,0,1,186.27,210.36Z"/><path class="cls-13" d="M210.67,201H149.14a2.39,2.39,0,0,1-2.38-2.38h0a2.38,2.38,0,0,1,2.38-2.38h61.53a2.38,2.38,0,0,1,2.38,2.38h0A2.39,2.39,0,0,1,210.67,201Z"/><path class="cls-13" d="M373.35,343.59s8.11-9.1,6.79-17.7-7.9-7.57-10.83-2.49-5.56,4.39-3.82-.39,3.92-7.9.32-12.66-4-6.78-2-11,4.57-10.27-3.49-12.41-16.09,4.45-14.21,13.08,3,9.58.42,12.78-1.51,4.51-1.14,6.59-3.59,2.57-3.5-.36,5.11-9.85,1.68-13.08-10.17-3.27-11.89,4.2,3.8,10.82,3.52,13.52-3.24-1.39-5.82,1.36.89,4.92,3.45,6.41,6.42,4.16,2.75,6.11-7.15.08-4.9,6.07Z"/><path class="cls-8" d="M356.68,293.13a5.28,5.28,0,0,0-.73.45,5.5,5.5,0,0,0-.62.56,6.33,6.33,0,0,0-1,1.32,7.49,7.49,0,0,0-.92,3.07,2.56,2.56,0,0,0,0,.39,2.71,2.71,0,0,0,0,.4v.4l0,.4v.2l0,.2.05.39c0,.26.07.53.13.79s.11.51.18.77l.1.39.1.37.41,1.49c.55,2,1.08,4,1.49,5.95a25.41,25.41,0,0,1,.62,6,12.3,12.3,0,0,1-.12,1.48,10.23,10.23,0,0,1-.3,1.44,8.43,8.43,0,0,1-.53,1.37,8.94,8.94,0,0,0-.57,1.54,22.34,22.34,0,0,0-.57,3.09c-.12,1-.21,2.05-.29,3.08-.16,2-.29,4.08-.62,6.09,0,.25-.09.5-.14.75s-.11.5-.16.75-.13.49-.2.74-.07.24-.11.36a3.82,3.82,0,0,1-.13.36l-.13.36c-.05.12-.11.24-.16.35a6.44,6.44,0,0,1-.34.7,6.66,6.66,0,0,1-.95,1.25l.09.08a7,7,0,0,0,1.09-1.22,10,10,0,0,0,.76-1.4,16.22,16.22,0,0,0,.95-3,61.41,61.41,0,0,0,.94-6.11c.12-1,.24-2,.39-3a22.09,22.09,0,0,1,.64-2.95,10.31,10.31,0,0,1,.55-1.37,9.46,9.46,0,0,0,.61-1.52,10.83,10.83,0,0,0,.37-1.57,12.26,12.26,0,0,0,.16-1.58,26,26,0,0,0-.59-6.23,59.27,59.27,0,0,0-1.56-6c-.15-.5-.31-1-.46-1.49l-.13-.36-.11-.36c-.07-.24-.13-.49-.2-.73s-.11-.48-.17-.73l-.06-.36c0-.13,0-.25,0-.37a10.42,10.42,0,0,1-.11-1.48,8.13,8.13,0,0,1,.14-1.47,7.25,7.25,0,0,1,.43-1.42,6.16,6.16,0,0,1,.34-.68,4.41,4.41,0,0,1,.42-.64,5.35,5.35,0,0,1,1.11-1.12Z"/><path class="cls-8" d="M373.94,324a43.63,43.63,0,0,1-1,4.78c-.21.79-.45,1.57-.71,2.34-.06.2-.13.39-.19.58l-.21.58c-.14.38-.3.76-.45,1.14s-.32.76-.49,1.13-.36.74-.54,1.11c-.38.73-.78,1.45-1.23,2.15s-.94,1.37-1.46,2a23.5,23.5,0,0,1-1.74,1.87l.09.08a15.38,15.38,0,0,0,2-1.71,20.62,20.62,0,0,0,1.64-2,23.27,23.27,0,0,0,1.32-2.17c.19-.38.39-.75.56-1.13s.33-.77.5-1.15.3-.78.44-1.17c.07-.2.13-.39.19-.59s.13-.4.19-.6c.25-.79.45-1.59.62-2.39a26.82,26.82,0,0,0,.62-4.88Z"/><path class="cls-13" d="M236.75,343.59s-9.66-10.84-8.09-21.09,9.41-9,12.9-3,6.63,5.23,4.56-.47-4.68-9.41-.38-15.08,4.74-8.08,2.33-13.14-5.45-12.23,4.16-14.79,19.16,5.3,16.92,15.59-3.58,11.41-.5,15.22,1.8,5.38,1.37,7.86,4.27,3.06,4.17-.44-6.09-11.74-2-15.58,12.11-3.89,14.16,5-4.53,12.9-4.2,16.11,3.86-1.66,6.94,1.62S288,327.3,285,329.08s-7.65,5-3.28,7.27,8.52.1,5.84,7.24Z"/><path class="cls-8" d="M256.62,283.48a4.78,4.78,0,0,1,.86.54,6.68,6.68,0,0,1,.75.66,7.46,7.46,0,0,1,1.17,1.57,8.84,8.84,0,0,1,1.1,3.65c0,.16,0,.32,0,.48s0,.31,0,.47v.48l0,.47V292l0,.23-.05.47c-.05.31-.09.63-.16.94s-.12.62-.21.92l-.12.46-.12.44-.49,1.77c-.66,2.37-1.28,4.73-1.78,7.1a31.41,31.41,0,0,0-.74,7.13,14.75,14.75,0,0,0,.15,1.76,10.94,10.94,0,0,0,.36,1.72,10.83,10.83,0,0,0,.62,1.64,11,11,0,0,1,.69,1.83,25.22,25.22,0,0,1,.67,3.68c.15,1.23.26,2.45.35,3.67.19,2.43.35,4.86.74,7.26.05.3.1.6.17.89s.12.6.19.89.16.59.23.88.1.29.14.44.09.29.15.43l.16.43c.05.14.12.28.18.42s.27.54.42.82a7.32,7.32,0,0,0,1.13,1.49l-.11.1a8.15,8.15,0,0,1-1.3-1.46,10.81,10.81,0,0,1-.91-1.67,19.79,19.79,0,0,1-1.13-3.55,70.15,70.15,0,0,1-1.11-7.29c-.16-1.21-.29-2.42-.48-3.62a24.07,24.07,0,0,0-.76-3.51,11.07,11.07,0,0,0-.65-1.63,11.34,11.34,0,0,1-.73-1.82,13.56,13.56,0,0,1-.44-1.86,17.28,17.28,0,0,1-.19-1.89,31.19,31.19,0,0,1,.7-7.42,71.57,71.57,0,0,1,1.86-7.19c.18-.59.37-1.17.56-1.76l.14-.44.13-.43c.1-.29.17-.57.24-.86s.13-.58.2-.87l.08-.44c0-.14.05-.29.06-.44a10.3,10.3,0,0,0,.12-1.75,8.83,8.83,0,0,0-.67-3.45,7.61,7.61,0,0,0-.4-.81,7.8,7.8,0,0,0-.5-.77,6.17,6.17,0,0,0-1.33-1.32Z"/><path class="cls-8" d="M236.05,320.2a53,53,0,0,0,1.2,5.7c.25.94.53,1.87.83,2.79l.24.69c.08.23.16.46.25.69.16.45.35.91.53,1.36s.38.9.59,1.34.42.88.64,1.32c.45.87.93,1.73,1.46,2.56a24.68,24.68,0,0,0,3.81,4.64l-.1.1a18.38,18.38,0,0,1-2.36-2,22,22,0,0,1-1.95-2.38,27.41,27.41,0,0,1-1.58-2.58c-.22-.45-.46-.89-.66-1.35s-.4-.91-.59-1.37-.37-.92-.53-1.39l-.24-.7c-.07-.24-.15-.47-.22-.71-.29-.94-.53-1.9-.74-2.86a32.42,32.42,0,0,1-.74-5.8Z"/><polygon class="cls-14" points="280.79 288.18 275.62 334.56 335.61 334.56 327.79 288.18 280.79 288.18"/><path class="cls-15" d="M180,173.93v106.2a16.11,16.11,0,0,0,15.7,16.11c38.79,1,174.47,3.43,211.4,2.88a11.85,11.85,0,0,0,11.67-11.52c.71-24.67,1.87-84-2.41-111.55a12.19,12.19,0,0,0-11.67-10.32c-32.5-1-176.33-4.34-213.24-3.52A11.73,11.73,0,0,0,180,173.93Z"/><path class="cls-8" d="M186.68,173.41v100.9a9.34,9.34,0,0,0,9.19,9.34l205.93,2.54a9.08,9.08,0,0,0,9.22-9.05l.34-100a6.64,6.64,0,0,0-6.48-6.67l-210.83-4.26A7.2,7.2,0,0,0,186.68,173.41Z"/><path class="cls-16" d="M412.57,290.36h0l-225.89-3.85a.32.32,0,1,1,0-.63h0l225.89,3.85a.3.3,0,0,1,.31.32A.31.31,0,0,1,412.57,290.36Z"/><path class="cls-17" d="M348.53,344h-87.8c-2.39,0-4.18-1.7-3.72-3.52l1.13-4.45a3.62,3.62,0,0,1,3.56-2.38l84.65-2.64a3.72,3.72,0,0,1,3.84,2.3l2,7.1C352.75,342.29,351,344,348.53,344Z"/><path class="cls-16" d="M308,334.92a.32.32,0,0,1,0-.63l3.63-.05a.33.33,0,0,1,.32.31.31.31,0,0,1-.31.32l-3.63.05Z"/><path class="cls-16" d="M260.26,341.62h-.05a.31.31,0,0,1-.26-.36l.52-3.24a3.64,3.64,0,0,1,3.55-3.08l38.47-.56a.33.33,0,0,1,.32.31.3.3,0,0,1-.31.32l-38.47.57a3,3,0,0,0-2.94,2.54l-.51,3.24A.32.32,0,0,1,260.26,341.62Z"/><path class="cls-13" d="M261.31,209.44a4.24,4.24,0,0,0,3.34-7.09,4.17,4.17,0,0,0-2.93-1.38,4.24,4.24,0,0,0-4.44,4,4.14,4.14,0,0,0,1.1,3.05A4.22,4.22,0,0,0,261.31,209.44Z"/><path class="cls-13" d="M284.67,203.21l-1-5.16a.36.36,0,0,0-.3-.29l-4.35-.58a19,19,0,0,0-3.45-5.13l1.1-4.25a.36.36,0,0,0-.15-.39l-4.38-2.91a.36.36,0,0,0-.42,0l-3.49,2.66a19.31,19.31,0,0,0-6.07-1.19l-2.22-3.78a.36.36,0,0,0-.38-.17l-5.16,1a.39.39,0,0,0-.29.31l-.57,4.34a19.18,19.18,0,0,0-5.14,3.46l-4.25-1.1a.36.36,0,0,0-.39.15l-2.91,4.38a.38.38,0,0,0,0,.42l2.66,3.48a19.38,19.38,0,0,0-1.19,6.08l-3.78,2.22a.36.36,0,0,0-.17.38l1,5.16a.36.36,0,0,0,.31.28l4.34.58a19.34,19.34,0,0,0,3.46,5.14l-1.1,4.24a.35.35,0,0,0,.15.39l4.38,2.91a.36.36,0,0,0,.42,0l3.48-2.67a19.11,19.11,0,0,0,6.08,1.2l2.22,3.77a.35.35,0,0,0,.38.17l5.16-1a.35.35,0,0,0,.28-.3l.58-4.35a19.31,19.31,0,0,0,5.14-3.45l4.24,1.1a.35.35,0,0,0,.39-.15l2.91-4.38a.36.36,0,0,0,0-.42l-2.67-3.49a19,19,0,0,0,1.2-6.07l3.77-2.22A.34.34,0,0,0,284.67,203.21Zm-12.15,9.16a13.13,13.13,0,0,1-15.31,5.12l.29-.81a12.26,12.26,0,1,0-7.94-9.14c.05.25.11.49.17.73.12.43.25.86.41,1.27v0a1.11,1.11,0,0,1,.07.16c0,.1.08.2.13.3l-.79.35a13,13,0,0,1-.84-2.67,13.15,13.15,0,0,1,6.53-14.09,10.89,10.89,0,0,1,1.19-.58,12.91,12.91,0,0,1,2.54-.79,13.12,13.12,0,0,1,13.54,20.12ZM256.42,205a5.09,5.09,0,0,1,2.64-4.23,5.1,5.1,0,0,1,7.55,4.72,5.1,5.1,0,0,1-8.87,3.18A5,5,0,0,1,256.42,205Z"/><path class="cls-13" d="M225.92,232.74a2.7,2.7,0,0,0,1.4.15,2.61,2.61,0,0,0,2-1.59,2.59,2.59,0,0,0,0-2,2.51,2.51,0,0,0-1.41-1.38,2.58,2.58,0,0,0-1.92,4.79Z"/><path class="cls-13" d="M242.36,230.4l-2.63-1.32a12.79,12.79,0,0,0-1.07-4l1.63-2.45a.24.24,0,0,0,0-.28l-2.14-2.81a.24.24,0,0,0-.27-.08l-2.8.92a12.82,12.82,0,0,0-3.59-2.08l-.59-2.89a.23.23,0,0,0-.2-.19l-3.51-.47a.23.23,0,0,0-.24.13l-1.32,2.63a13,13,0,0,0-4,1.07l-2.46-1.63a.26.26,0,0,0-.28,0l-2.8,2.15a.24.24,0,0,0-.09.27l.93,2.79a13,13,0,0,0-2.08,3.6l-2.89.58a.24.24,0,0,0-.19.21l-.47,3.5a.26.26,0,0,0,.13.25l2.63,1.32a13.06,13.06,0,0,0,1.07,4l-1.63,2.45a.26.26,0,0,0,0,.28l2.15,2.81a.25.25,0,0,0,.27.08l2.79-.93a12.66,12.66,0,0,0,3.6,2.09l.58,2.89a.25.25,0,0,0,.21.19l3.5.47a.25.25,0,0,0,.25-.14l1.32-2.63a12.4,12.4,0,0,0,4-1.07l2.46,1.63a.23.23,0,0,0,.28,0l2.81-2.14a.25.25,0,0,0,.08-.27l-.93-2.8a12.85,12.85,0,0,0,2.09-3.59l2.88-.59a.24.24,0,0,0,.2-.2l.46-3.5A.23.23,0,0,0,242.36,230.4ZM236,231.51a9.09,9.09,0,0,1-10.21,7.8,9.1,9.1,0,0,1-4.45-1.9l.69-.87a8,8,0,0,0,12.86-5.18,8.09,8.09,0,0,0,0-2.41,8,8,0,0,0-15.75.3,8.64,8.64,0,0,0-.06,1.61v.08l-1.11.09a8.9,8.9,0,0,1,.05-1.93s0-.1,0-.15a9.11,9.11,0,0,1,7.44-7.6c.3,0,.61-.09.91-.11h0a9.39,9.39,0,0,1,1.83.06,9.11,9.11,0,0,1,7.75,7.46A9.35,9.35,0,0,1,236,231.51ZM223.45,229a3.71,3.71,0,0,1,2-2,3.53,3.53,0,0,1,.84-.25,3.58,3.58,0,0,1,2,.21,3.68,3.68,0,0,1,2,2,3.63,3.63,0,0,1,0,2.82,3.7,3.7,0,0,1-4.8,2.07,3.72,3.72,0,0,1-2.06-4.81Z"/><path class="cls-13" d="M388.43,211l-.73-3.61a.26.26,0,0,0-.21-.2l-3.05-.41a13,13,0,0,0-2.42-3.59l.78-3a.26.26,0,0,0-.11-.27l-3.07-2a.24.24,0,0,0-.29,0l-2.44,1.87a13.55,13.55,0,0,0-4.26-.84l-1.56-2.65a.23.23,0,0,0-.26-.11l-3.62.73a.26.26,0,0,0-.2.21l-.4,3a13.38,13.38,0,0,0-3.6,2.42l-3-.77a.27.27,0,0,0-.28.11l-2,3.07a.26.26,0,0,0,0,.29l1.87,2.44a13.55,13.55,0,0,0-.84,4.26l-2.64,1.55a.25.25,0,0,0-.12.27l.73,3.61a.23.23,0,0,0,.21.2L360,218a13.23,13.23,0,0,0,2.42,3.6l-.78,3a.27.27,0,0,0,.11.28l3.07,2a.24.24,0,0,0,.29,0l2.44-1.86a13.27,13.27,0,0,0,4.26.83l1.56,2.65a.25.25,0,0,0,.26.12l3.62-.73a.27.27,0,0,0,.2-.21l.4-3a13.16,13.16,0,0,0,3.6-2.42l3,.77a.25.25,0,0,0,.28-.1l2-3.07a.27.27,0,0,0,0-.3L384.83,217a13.49,13.49,0,0,0,.84-4.25l2.64-1.56A.24.24,0,0,0,388.43,211Zm-8.28,6.58a9.49,9.49,0,0,1-11.06,3.7l.39-1.1a8.31,8.31,0,0,0,10.92-9.48,8.48,8.48,0,0,0-.86-2.37,8.31,8.31,0,0,0-15.43,5.66,8,8,0,0,0,.49,1.6l0,.09-1.07.46a9.11,9.11,0,0,1-.6-1.92l0-.16a9.49,9.49,0,0,1,4.74-10,7,7,0,0,1,.87-.42h0a9.27,9.27,0,0,1,1.83-.57,9.5,9.5,0,0,1,10.18,4.72,9.51,9.51,0,0,1-.41,9.81Zm-11.8-5.36a3.84,3.84,0,0,1,1.26-2.67,4.18,4.18,0,0,1,.74-.53,3.89,3.89,0,0,1,2-.47,3.84,3.84,0,0,1,2.67,1.26,3.85,3.85,0,0,1-3,6.44,3.8,3.8,0,0,1-2.67-1.26A3.86,3.86,0,0,1,368.35,212.17Z"/><path class="cls-13" d="M372.08,215a2.73,2.73,0,0,0,1.42-.33,2.7,2.7,0,0,0,.7-4.17,2.73,2.73,0,0,0-1.87-.88,2.7,2.7,0,0,0-1.93.7,2.63,2.63,0,0,0-.88,1.86,2.66,2.66,0,0,0,.69,1.94A2.69,2.69,0,0,0,372.08,215Z"/><path class="cls-13" d="M328.47,244.54a5.53,5.53,0,0,0,2.64.66h0a5.53,5.53,0,0,0,4.87-2.87,5.52,5.52,0,0,0-2.21-7.5,5.53,5.53,0,0,0-7.52,2.22,5.45,5.45,0,0,0-.45,4.2A5.5,5.5,0,0,0,328.47,244.54Z"/><path class="cls-13" d="M360.36,243.3l-4.67-3.09a24.73,24.73,0,0,0-1.12-7.83l3.64-4.27a.48.48,0,0,0,0-.54l-3.42-5.79a.46.46,0,0,0-.49-.21l-5.49,1.12a24.47,24.47,0,0,0-6.33-4.76l-.45-5.58a.45.45,0,0,0-.34-.41l-6.51-1.68a.46.46,0,0,0-.5.2l-3.09,4.67a24.14,24.14,0,0,0-7.83,1.12l-4.27-3.64a.47.47,0,0,0-.54,0L313.2,216a.45.45,0,0,0-.21.49l1.12,5.49a24.59,24.59,0,0,0-4.76,6.32l-5.58.45a.47.47,0,0,0-.41.35l-1.68,6.51a.47.47,0,0,0,.19.5l4.68,3.09a24.45,24.45,0,0,0,1.11,7.83L304,251.29a.45.45,0,0,0,0,.53l3.42,5.79a.46.46,0,0,0,.49.22l5.5-1.12a24.42,24.42,0,0,0,6.32,4.76l.45,5.58a.46.46,0,0,0,.34.41l6.52,1.67a.45.45,0,0,0,.5-.19l3.09-4.67a24.18,24.18,0,0,0,7.83-1.12l4.27,3.64a.47.47,0,0,0,.53,0l5.79-3.42a.46.46,0,0,0,.22-.49l-1.12-5.49a24.55,24.55,0,0,0,4.75-6.32l5.59-.45a.48.48,0,0,0,.41-.35l1.67-6.51A.47.47,0,0,0,360.36,243.3Zm-34.86-6.66a6.4,6.4,0,0,1,11.76,1.25,6,6,0,0,1-.52,4.7,6.24,6.24,0,0,1-5.63,3.16h0a5.94,5.94,0,0,1-6.13-4.33A6.1,6.1,0,0,1,325.5,236.64Zm21.81,7.08h0l.13.14.13.12h-.2l0-.14,0-.15h0v.35h0s0,0,0,.07h0l0,0s0,0,0,0h.37c-1.85,7.24-8.87,12-16.38,12h0a10.79,10.79,0,0,1-4.16-.55h0a16.29,16.29,0,0,1-12.51-16,15.85,15.85,0,0,1,.53-4.1,16.57,16.57,0,0,1,4.41-7.66.43.43,0,0,1,.61,0,.43.43,0,0,1,0,.62,15.74,15.74,0,0,0-4.19,7.3,15.39,15.39,0,0,0-.5,3.87A15.57,15.57,0,0,0,327.24,255h0l.17.09a16.44,16.44,0,0,0,4.11.6h0a15.42,15.42,0,0,0,15.1-11.78l-.08,0h0l0,0,0-.05h0l.09,0h0s0,0,0,0h0a14.55,14.55,0,0,0,.41-3.94,15.83,15.83,0,0,0-11.9-15.29,15.12,15.12,0,0,0-3.27-.49.39.39,0,0,1-.36-.43v0c.19-.24.13-.42.37-.41a16.63,16.63,0,0,1,16,16.51A15.37,15.37,0,0,1,347.31,243.72Z"/><circle class="cls-15" cx="313.43" cy="293.65" r="15.24" transform="translate(-44.37 531.23) rotate(-76.72)"/><path class="cls-18" d="M300.87,287.48a.11.11,0,0,1-.08,0,.16.16,0,0,1-.07-.22,14.16,14.16,0,0,1,12.71-7.83,14.62,14.62,0,0,1,2.57.23.18.18,0,0,1,.14.2.17.17,0,0,1-.2.13A13.88,13.88,0,0,0,301,287.39.16.16,0,0,1,300.87,287.48Z"/><circle class="cls-8" cx="313.77" cy="293.98" r="12.9" transform="translate(-88.62 142.45) rotate(-22.5)"/><path class="cls-15" d="M312.5,303.57v-1.41a11.29,11.29,0,0,1-3.94-.85.81.81,0,0,1-.45-1l.36-1.31a.82.82,0,0,1,1.11-.53,9.47,9.47,0,0,0,3.64.76c1.41,0,2.46-.47,2.46-1.45s-.82-1.41-2.77-1.94c-2.8-.76-4.81-2-4.81-4.44,0-2.22,1.63-3.92,4.45-4.37v-1.4a.81.81,0,0,1,.82-.82h.82a.82.82,0,0,1,.82.82v1.26a10.15,10.15,0,0,1,3.12.56.81.81,0,0,1,.51,1l-.33,1.21a.83.83,0,0,1-1.08.55,8.56,8.56,0,0,0-3.06-.56c-1.67,0-2.15.7-2.15,1.32s1,1.29,3.18,2c3.1.93,4.39,2.22,4.39,4.53,0,2.13-1.57,4-4.63,4.52v1.57a.82.82,0,0,1-.82.82h-.82A.82.82,0,0,1,312.5,303.57Z"/><circle class="cls-15" cx="350.84" cy="270.75" r="12.92" transform="translate(-33.56 491.27) rotate(-67.5)"/><path class="cls-18" d="M340.19,265.53l-.07,0a.14.14,0,0,1-.06-.19,12,12,0,0,1,10.78-6.63,12.27,12.27,0,0,1,2.18.19.15.15,0,0,1,.11.17.14.14,0,0,1-.16.11,11.83,11.83,0,0,0-12.66,6.29A.13.13,0,0,1,340.19,265.53Z"/><circle class="cls-8" cx="351.12" cy="271.04" r="10.93" transform="translate(-44.92 71.29) rotate(-10.9)"/><path class="cls-15" d="M350.05,279.16V278a9.75,9.75,0,0,1-3.34-.72.69.69,0,0,1-.38-.81l.3-1.11a.69.69,0,0,1,.94-.45,8.17,8.17,0,0,0,3.09.64c1.19,0,2.08-.4,2.08-1.23s-.69-1.19-2.35-1.64c-2.37-.65-4.07-1.68-4.07-3.77,0-1.88,1.38-3.32,3.77-3.7V264a.69.69,0,0,1,.69-.69h.7a.69.69,0,0,1,.69.69v1.07a8.77,8.77,0,0,1,2.65.47.7.7,0,0,1,.43.84l-.28,1a.69.69,0,0,1-.91.47,7.21,7.21,0,0,0-2.59-.47c-1.42,0-1.83.58-1.83,1.11s.85,1.09,2.7,1.66c2.63.79,3.72,1.88,3.72,3.85,0,1.8-1.34,3.42-3.93,3.82v1.33a.69.69,0,0,1-.69.7h-.7A.69.69,0,0,1,350.05,279.16Z"/><circle class="cls-15" cx="288.56" cy="278.4" r="9.16" transform="translate(-32.47 518.65) rotate(-80.78)"/><path class="cls-18" d="M281,274.7h0a.11.11,0,0,1-.05-.14,8.53,8.53,0,0,1,7.64-4.7,8.93,8.93,0,0,1,1.55.14.1.1,0,1,1,0,.2,8.34,8.34,0,0,0-9,4.45A.1.1,0,0,1,281,274.7Z"/><circle class="cls-8" cx="288.76" cy="278.6" r="7.75"/><path class="cls-15" d="M288,284.37v-.85a6.69,6.69,0,0,1-2.36-.51.49.49,0,0,1-.27-.58l.21-.78a.49.49,0,0,1,.67-.32,5.83,5.83,0,0,0,2.18.46c.85,0,1.48-.29,1.48-.88s-.49-.85-1.66-1.16c-1.68-.46-2.89-1.19-2.89-2.67s1-2.36,2.67-2.63v-.84a.49.49,0,0,1,.49-.49h.5a.49.49,0,0,1,.49.49v.76a6.3,6.3,0,0,1,1.87.33.49.49,0,0,1,.31.59l-.2.73a.48.48,0,0,1-.64.33A5.27,5.27,0,0,0,289,276c-1,0-1.29.41-1.29.79s.6.77,1.9,1.17c1.87.56,2.64,1.34,2.64,2.73s-.94,2.42-2.78,2.71v.95a.49.49,0,0,1-.49.49h-.5A.49.49,0,0,1,288,284.37Z"/><circle class="cls-15" cx="346.08" cy="302.49" r="8.32" transform="translate(3.57 609.02) rotate(-82.98)"/><path class="cls-18" d="M339.22,299.13h0a.1.1,0,0,1,0-.12,7.74,7.74,0,0,1,6.94-4.28,8.19,8.19,0,0,1,1.4.13.11.11,0,0,1,.08.11.09.09,0,0,1-.11.07,7.84,7.84,0,0,0-1.37-.12,7.57,7.57,0,0,0-6.78,4.17A.08.08,0,0,1,339.22,299.13Z"/><circle class="cls-18" cx="346.26" cy="302.67" r="7.04" transform="translate(-27.87 570.13) rotate(-76.72)"/><path class="cls-15" d="M345.57,307.91v-.77a6.33,6.33,0,0,1-2.15-.46.45.45,0,0,1-.24-.53l.19-.71a.45.45,0,0,1,.61-.29,5.2,5.2,0,0,0,2,.41c.77,0,1.34-.26,1.34-.79s-.44-.77-1.51-1.06c-1.52-.41-2.62-1.08-2.62-2.42s.89-2.14,2.43-2.39v-.76a.45.45,0,0,1,.44-.45h.45a.45.45,0,0,1,.45.45v.69a5.66,5.66,0,0,1,1.7.3.45.45,0,0,1,.28.54l-.18.66a.45.45,0,0,1-.59.3,4.55,4.55,0,0,0-1.67-.31c-.91,0-1.17.38-1.17.72s.55.71,1.73,1.07c1.7.51,2.4,1.21,2.4,2.48s-.86,2.2-2.53,2.46v.86a.44.44,0,0,1-.44.44H346A.45.45,0,0,1,345.57,307.91Z"/><path class="cls-19" d="M470.43,344.39,422.8,252.52a1.05,1.05,0,1,1,1.87-1l47.64,91.87a1.07,1.07,0,0,1-.45,1.42,1,1,0,0,1-.49.12A1.08,1.08,0,0,1,470.43,344.39Z"/><path class="cls-19" d="M447.81,345.09l-40.72-93.54a1.06,1.06,0,1,1,1.94-.84l40.71,93.54a1.06,1.06,0,0,1-.55,1.39,1,1,0,0,1-.42.09A1,1,0,0,1,447.81,345.09Z"/><path class="cls-19" d="M415.75,269.35h16.52a.66.66,0,1,0,0-1.31H415.75a.66.66,0,1,0,0,1.31Z"/><path class="cls-19" d="M420.17,279.59h16.51a.66.66,0,1,0,0-1.32H420.17a.66.66,0,1,0,0,1.32Z"/><path class="cls-19" d="M426,291.84h17.56a.66.66,0,1,0,0-1.32H426a.66.66,0,1,0,0,1.32Z"/><path class="cls-19" d="M411.36,259.43h15.76a.66.66,0,0,0,0-1.32H411.36a.66.66,0,0,0,0,1.32Z"/><path class="cls-19" d="M431.78,305.93h19.09a.66.66,0,0,0,0-1.32H431.78a.66.66,0,0,0,0,1.32Z"/><path class="cls-19" d="M436.27,316.86h20.47a.66.66,0,0,0,0-1.32H436.27a.66.66,0,0,0,0,1.32Z"/><path class="cls-20" d="M440.29,303.57c2.11-1.83,6.64-3.3,6.64-3.3l2.72.05a6.73,6.73,0,0,1,1.14,3.24,7.49,7.49,0,0,1-3.24.66A26.49,26.49,0,0,1,440.29,303.57Z"/><path class="cls-21" d="M440.29,303.57a26.49,26.49,0,0,0,7.26.65,7.49,7.49,0,0,0,3.24-.66l0,.21a.8.8,0,0,1-.56.87c-2.49.76-8,.52-10.1.39a.57.57,0,0,1-.41-.92A6.87,6.87,0,0,1,440.29,303.57Z"/><path class="cls-22" d="M449.43,298v2.17a.87.87,0,0,1-.7.86,3.36,3.36,0,0,1-1.52,0,.86.86,0,0,1-.63-.73L446.3,298Z"/><path class="cls-23" d="M435.65,286.87c.85-1.88.6-2.73,2.28-2.54a2.16,2.16,0,0,1,.51.11,1.56,1.56,0,0,1,0,1,18.71,18.71,0,0,1-2.93,5.34,1.83,1.83,0,0,1-1.42.69l-1.84,0A11.69,11.69,0,0,0,435.65,286.87Z"/><path class="cls-24" d="M432.13,288.69c1.42-1,1.95-5.07,1.95-5.07l2.18-1.11,1.65,1.2a1.54,1.54,0,0,1,.53.73,2.16,2.16,0,0,0-.51-.11c-1.68-.19-1.43.66-2.28,2.54a11.69,11.69,0,0,1-3.4,4.61l-1.27,0a.68.68,0,0,1-.55-1.1A8.12,8.12,0,0,1,432.13,288.69Z"/><path class="cls-25" d="M434.94,280.46l1.32,2.05a.6.6,0,0,1-.13.8,2,2,0,0,1-2.05.31L432,282.17Z"/><path class="cls-26" d="M444.83,258.83s.7,1.95,1.7,8.81,1.67,11.86,2.22,14.58A119.09,119.09,0,0,1,450,297.59a.93.93,0,0,1-1,.93l-2.6-.08a.83.83,0,0,1-.8-.7c-.69-4-5.43-24.86-8.29-30.85,0,0-7.61,2.15-9.51,3,0,0,2.45,1,7.48,10.4a12.79,12.79,0,0,1-3.71,2.09s-11-9.13-12.16-10.08-2.22-2.6.74-5.6S432.25,259,432.25,259Z"/><path class="cls-27" d="M437.76,267.1h.06l2.71-1a3.4,3.4,0,0,0,1.93-3,.13.13,0,0,0-.13-.13.12.12,0,0,0-.13.13,3.15,3.15,0,0,1-1.78,2.8l-2.72,1.05a.14.14,0,0,0-.06.18A.14.14,0,0,0,437.76,267.1Z"/><path class="cls-28" d="M420.22,258.25s-2.86-2.17-4.16-1.76a5.44,5.44,0,0,0-2.26,1.62h2.88s.68,1.32,0,1.32h-1S418.35,262.24,420.22,258.25Z"/><path class="cls-29" d="M425.06,237.84s-3.35,13.26-7.9,18.6a6.39,6.39,0,0,0,3.06,1.81s7-6.12,9.1-10.37S425.06,237.84,425.06,237.84Z"/><path class="cls-30" d="M429.55,225.21l3.33,6.1h-5.26a10.64,10.64,0,0,0-1.81-4.46Z"/><path class="cls-31" d="M424.5,218a24.94,24.94,0,0,0-1.79,5.85c-.11,2-.54,3.32,1.79,3.73a5,5,0,0,0,5.35-2.76s1.66-3.09,1.29-4.36S424.5,218,424.5,218Z"/><path class="cls-32" d="M429.05,223.33h-.29s1.21-2.49.14-2.93-5.28-1.3-6.19-2.79a2.78,2.78,0,0,1,1.07-3.83.15.15,0,0,1,.2.07l.1.18a.16.16,0,0,0,.29,0h0a.16.16,0,0,1,.29,0c.28.45,1,1.18,3,1.55,2.88.53,4.77,1.69,4.82,3.68a.17.17,0,0,0,.25.13c.21-.13.55-.19,1,.19.79.66.47,2.38-1.26,3.8a.15.15,0,0,0,0,.25c.31.21.78.69-.43,1.34a3.26,3.26,0,0,1-2.25.52.15.15,0,0,1-.12-.17l.11-1.76a.16.16,0,0,0-.16-.16Z"/><path class="cls-33" d="M429,223.69s.64-2.45,1.73-1.76-.57,2.75-1.45,2.84Z"/><path class="cls-29" d="M433.62,230.83s-1.49-2.44-11.21-1.84c-5.05.31-16.41-4.09-18.94-6.31a4.74,4.74,0,0,0-3.17,1.58s10.49,11.08,22.73,12.49c0,0,9.29,19.14,9.22,22.25a15.27,15.27,0,0,0,13,1.05,33.86,33.86,0,0,0-2.69-12.67A82.67,82.67,0,0,0,433.62,230.83Z"/><path class="cls-34" d="M429.21,237.43a.12.12,0,0,0,.13-.12.13.13,0,0,0-.12-.14s-4.71-.38-5.44-.46a.12.12,0,0,0-.14.11.13.13,0,0,0,.11.15c.74.08,5.4.46,5.45.46Z"/><path class="cls-35" d="M400.49,223.72c-.08.31,1.05.74,1.66-.54,0-.6.27-3.19-.1-3.66a47.82,47.82,0,0,0-5.84-5.67.89.89,0,0,0-.06,1.23l1.87,1.81a8.5,8.5,0,0,0-1,2.11,2.51,2.51,0,0,0,.32,1.85c.34.55.79,1.28,1.22,1.84A2.46,2.46,0,0,0,400.49,223.72Z"/><circle class="cls-26" cx="299.75" cy="132.89" r="20.07" transform="matrix(0.08, -1, 1, 0.08, 143.03, 420.9)"/><circle class="cls-15" cx="299.75" cy="132.89" r="19.4" transform="translate(33.3 323.98) rotate(-59.56)"/><path class="cls-16" d="M281.86,132.15h0a.21.21,0,0,1-.19-.22,17.49,17.49,0,0,1,.26-2.28.2.2,0,0,1,.4.08,16.57,16.57,0,0,0-.25,2.22A.22.22,0,0,1,281.86,132.15Z"/><path class="cls-16" d="M283.75,125a.14.14,0,0,1-.09,0,.2.2,0,0,1-.1-.27,18,18,0,0,1,16.19-10,17.8,17.8,0,0,1,3.26.29.2.2,0,1,1-.07.4,17.93,17.93,0,0,0-3.19-.28,17.63,17.63,0,0,0-15.82,9.73A.2.2,0,0,1,283.75,125Z"/><circle class="cls-8" cx="300.17" cy="133.31" r="16.42" transform="translate(-23.19 75.77) rotate(-13.86)"/><path class="cls-29" d="M305,126.82c0,2.88-2.33,6-5.21,6s-5.2-3.1-5.2-6a5.21,5.21,0,0,1,10.41,0Z"/><path class="cls-36" d="M293.31,143.88H306a3.09,3.09,0,0,0,2.93-2.14l.68-2.14a3.06,3.06,0,0,0-1.86-3.82c-5.17-1.9-10.52-1.65-16,.17a3.06,3.06,0,0,0-2,3.71l.53,2A3.07,3.07,0,0,0,293.31,143.88Z"/><circle class="cls-26" cx="348.47" cy="147.4" r="12.8" transform="translate(133.67 458.89) rotate(-78.34)"/><circle class="cls-36" cx="348.47" cy="147.4" r="12.38" transform="translate(43.05 370.73) rotate(-59.1)"/><path class="cls-16" d="M337.06,146.93h0a.14.14,0,0,1-.12-.14,11.71,11.71,0,0,1,.17-1.45.13.13,0,0,1,.15-.11.14.14,0,0,1,.11.16,11.08,11.08,0,0,0-.17,1.41A.13.13,0,0,1,337.06,146.93Z"/><path class="cls-16" d="M338.26,142.39h-.05a.13.13,0,0,1-.06-.18,11.5,11.5,0,0,1,10.32-6.35,12.2,12.2,0,0,1,2.09.18.13.13,0,0,1,.1.16.13.13,0,0,1-.15.1,11.55,11.55,0,0,0-2-.18,11.26,11.26,0,0,0-10.09,6.21A.12.12,0,0,1,338.26,142.39Z"/><circle class="cls-8" cx="348.74" cy="147.67" r="10.48"/><path class="cls-29" d="M351.81,143.53c0,1.84-1.48,3.82-3.32,3.82s-3.32-2-3.32-3.82a3.33,3.33,0,0,1,6.64,0Z"/><path class="cls-36" d="M344.37,154.41h8.11a2,2,0,0,0,1.87-1.36l.44-1.37a2,2,0,0,0-1.19-2.44,15.18,15.18,0,0,0-10.21.11,2,2,0,0,0-1.26,2.38l.34,1.23A2,2,0,0,0,344.37,154.41Z"/><circle class="cls-26" cx="251.02" cy="145.78" r="12.81"/><circle class="cls-15" cx="251.02" cy="145.78" r="12.38"/><path class="cls-16" d="M239.61,145.31h0a.13.13,0,0,1-.12-.14,9.9,9.9,0,0,1,.17-1.45.13.13,0,0,1,.15-.11.12.12,0,0,1,.1.15,11.43,11.43,0,0,0-.16,1.42A.13.13,0,0,1,239.61,145.31Z"/><path class="cls-16" d="M240.81,140.77h-.06a.13.13,0,0,1-.05-.18A11.51,11.51,0,0,1,251,134.22a12.21,12.21,0,0,1,2.09.19.13.13,0,0,1,.1.15.13.13,0,0,1-.15.11,11.63,11.63,0,0,0-2-.18,11.24,11.24,0,0,0-10.09,6.21A.14.14,0,0,1,240.81,140.77Z"/><circle class="cls-8" cx="251.29" cy="146.05" r="10.48"/><path class="cls-29" d="M254.36,141.91c0,1.84-1.49,3.82-3.32,3.82s-3.33-2-3.33-3.82a3.33,3.33,0,0,1,6.65,0Z"/><path class="cls-36" d="M246.91,152.79H255a2,2,0,0,0,1.87-1.36l.43-1.37a2,2,0,0,0-1.18-2.44,15.18,15.18,0,0,0-10.21.11,2,2,0,0,0-1.26,2.37l.34,1.24A2,2,0,0,0,246.91,152.79Z"/><circle class="cls-26" cx="260.41" cy="115.11" r="12.81" transform="translate(105.96 354.29) rotate(-80.99)"/><circle class="cls-15" cx="260.41" cy="115.11" r="12.38"/><path class="cls-16" d="M249,114.63h0a.13.13,0,0,1-.13-.14A11.93,11.93,0,0,1,249,113a.12.12,0,0,1,.15-.1.13.13,0,0,1,.11.15,11,11,0,0,0-.17,1.42A.12.12,0,0,1,249,114.63Z"/><path class="cls-16" d="M250.21,110.1l-.06,0a.12.12,0,0,1-.06-.17,11.49,11.49,0,0,1,10.32-6.36,11.21,11.21,0,0,1,2.09.19.13.13,0,1,1-.05.25,11.55,11.55,0,0,0-2-.18A11.26,11.26,0,0,0,250.32,110,.13.13,0,0,1,250.21,110.1Z"/><circle class="cls-8" cx="260.68" cy="115.38" r="10.48" transform="matrix(0.16, -0.99, 0.99, 0.16, 105.76, 354.68)"/><path class="cls-29" d="M263.75,111.23c0,1.84-1.48,3.82-3.32,3.82s-3.32-2-3.32-3.82a3.33,3.33,0,0,1,6.64,0Z"/><path class="cls-36" d="M256.31,122.12h8.11a2,2,0,0,0,1.87-1.37l.44-1.36a2,2,0,0,0-1.19-2.44,15.06,15.06,0,0,0-10.21.11,2,2,0,0,0-1.25,2.37l.33,1.24A2,2,0,0,0,256.31,122.12Z"/><circle class="cls-26" cx="339.08" cy="116.43" r="12.81" transform="translate(171 433.1) rotate(-80.99)"/><circle class="cls-15" cx="339.08" cy="116.43" r="12.38"/><path class="cls-16" d="M327.67,116h0a.13.13,0,0,1-.12-.14,9.9,9.9,0,0,1,.17-1.45.13.13,0,0,1,.15-.11.12.12,0,0,1,.1.15,11.43,11.43,0,0,0-.16,1.42A.14.14,0,0,1,327.67,116Z"/><path class="cls-16" d="M328.87,111.42h-.06a.13.13,0,0,1-.05-.18,11.5,11.5,0,0,1,10.32-6.36,12,12,0,0,1,2.08.19.13.13,0,0,1,.11.15.13.13,0,0,1-.15.11,11.64,11.64,0,0,0-2-.19A11.25,11.25,0,0,0,329,111.35.14.14,0,0,1,328.87,111.42Z"/><circle class="cls-8" cx="339.35" cy="116.7" r="10.48"/><path class="cls-29" d="M342.42,112.56c0,1.83-1.49,3.81-3.32,3.81s-3.33-2-3.33-3.81a3.33,3.33,0,0,1,6.65,0Z"/><path class="cls-36" d="M335,123.44h8.12a2,2,0,0,0,1.87-1.36l.43-1.37a2,2,0,0,0-1.18-2.44,15.15,15.15,0,0,0-10.22.11,2,2,0,0,0-1.25,2.37l.34,1.24A2,2,0,0,0,335,123.44Z"/><path class="cls-29" d="M333.92,239.3H265.64c-13.37-27.27-26.74-54.91-40.1-82.19H374C360.65,184.39,347.28,212,333.92,239.3Z"/><rect class="cls-37" x="220.78" y="153.79" width="157.93" height="6.27" rx="1.72"/><path class="cls-29" d="M329,271.55H270.54c-1.7-10.5-3.39-21.38-5.09-32.25H334.1C332.4,250.17,330.71,261.05,329,271.55Z"/><path class="cls-37" d="M330.8,271.78c0,1.18-.77,2.16-1.63,2.16H269.94c-.86,0-1.43-1-1.43-2.16v-1.32c0-1.19.57-2.23,1.43-2.23h59.23c.86,0,1.63,1,1.63,2.23Z"/><g class="cls-38"><path class="cls-8" d="M261.89,225.63a.49.49,0,0,1-.45-.29l-26-59.62a.5.5,0,0,1,.25-.64.48.48,0,0,1,.64.25l26,59.62a.48.48,0,0,1-.25.64A.43.43,0,0,1,261.89,225.63Z"/></g><path class="cls-8" d="M271.55,264.33a.49.49,0,0,1-.48-.42l-2.46-19.81a.49.49,0,0,1,.42-.55.49.49,0,0,1,.54.43L272,263.79a.48.48,0,0,1-.42.54Z"/><path class="cls-8" d="M253.34,129.89l-1.09,0a.37.37,0,1,1,0-.73h0l1.1,0a.36.36,0,0,1,.34.38A.37.37,0,0,1,253.34,129.89Z"/><path class="cls-8" d="M249.7,129.72l-1.09-.05a.37.37,0,0,1,0-.73h0l1.1.05a.37.37,0,1,1,0,.73Z"/><path class="cls-8" d="M246.06,129.56l-1.09,0a.38.38,0,1,1,0-.75h0l1.1,0a.37.37,0,0,1,0,.74Z"/><path class="cls-8" d="M242.42,129.41l-1.09,0A.37.37,0,0,1,241,129a.37.37,0,0,1,.39-.36h0l1.09,0a.39.39,0,0,1,.37.39A.38.38,0,0,1,242.42,129.41Z"/><path class="cls-8" d="M238.79,129.29l-1.1,0a.39.39,0,1,1,0-.77h0l1.09,0a.37.37,0,0,1,.37.39A.38.38,0,0,1,238.79,129.29Z"/><path class="cls-8" d="M235.15,129.19l-1.09,0a.38.38,0,0,1-.38-.39.39.39,0,0,1,.39-.38h0l1.09,0a.39.39,0,0,1,.38.4A.37.37,0,0,1,235.15,129.19Z"/><path class="cls-8" d="M231.51,129.14h-1.09a.38.38,0,0,1-.39-.39.4.4,0,0,1,.39-.39h1.1a.39.39,0,0,1,0,.78Z"/><path class="cls-8" d="M227.87,129.14h-1.09a.4.4,0,0,1-.4-.4.39.39,0,0,1,.39-.39h1.1a.39.39,0,0,1,.39.39A.4.4,0,0,1,227.87,129.14Z"/><path class="cls-8" d="M224.24,129.19l-1.1,0a.41.41,0,0,1-.41-.39.4.4,0,0,1,.39-.41h0l1.1,0a.39.39,0,0,1,.4.39A.4.4,0,0,1,224.24,129.19Z"/><path class="cls-8" d="M220.6,129.31l-1.09,0a.4.4,0,1,1,0-.8h0l1.1-.05a.39.39,0,0,1,.41.39A.4.4,0,0,1,220.6,129.31Z"/><path class="cls-8" d="M217,129.5l-1.09.07a.41.41,0,0,1,0-.81h0l1.09-.07a.4.4,0,0,1,.43.38A.41.41,0,0,1,217,129.5Z"/><path class="cls-8" d="M213.35,129.77l-1.09.1a.4.4,0,0,1-.45-.37.43.43,0,0,1,.37-.45h0l1.08-.09a.41.41,0,1,1,.08.81Z"/><path class="cls-8" d="M209.74,130.14l-1.09.14a.42.42,0,0,1-.46-.37.41.41,0,0,1,.36-.46h0l1.09-.13a.42.42,0,0,1,.46.36A.42.42,0,0,1,209.74,130.14Z"/><path class="cls-8" d="M206.14,130.62l-1.08.16a.41.41,0,0,1-.48-.35.42.42,0,0,1,.35-.48h0l1.08-.16a.43.43,0,0,1,.48.35A.43.43,0,0,1,206.14,130.62Z"/><path class="cls-8" d="M202.56,131.21l-1.08.2a.41.41,0,0,1-.49-.33.42.42,0,0,1,.33-.5h0l1.08-.2a.42.42,0,0,1,.16.83Z"/><path class="cls-8" d="M199,131.93l-1.07.24a.42.42,0,0,1-.51-.32.43.43,0,0,1,.32-.51h0l1.07-.24a.43.43,0,1,1,.19.83Z"/><path class="cls-8" d="M195.48,132.79l-1.06.29a.43.43,0,1,1-.22-.83h0l1.05-.29a.43.43,0,1,1,.23.83Z"/><path class="cls-8" d="M192,133.81l-1,.34a.44.44,0,0,1-.27-.83h0l1-.34a.44.44,0,1,1,.27.83Z"/><path class="cls-8" d="M188.58,135l-1,.39a.44.44,0,1,1-.32-.82h0l1-.39a.44.44,0,0,1,.57.25A.43.43,0,0,1,188.58,135Z"/><path class="cls-8" d="M185.23,136.36l-1,.44a.43.43,0,0,1-.59-.22.45.45,0,0,1,.22-.59h0l1-.44a.45.45,0,0,1,.37.81Z"/><path class="cls-8" d="M182,137.91l-1,.51a.45.45,0,0,1-.61-.19.44.44,0,0,1,.19-.6h0l1-.51a.45.45,0,1,1,.41.79Z"/><path class="cls-8" d="M178.8,139.67l-.93.57a.45.45,0,1,1-.47-.77h0l.93-.57a.45.45,0,1,1,.47.77Z"/><path class="cls-8" d="M175.77,141.63l-.89.63a.45.45,0,0,1-.63-.1.46.46,0,0,1,.1-.64h0l.89-.63a.46.46,0,0,1,.64.1A.45.45,0,0,1,175.77,141.63Z"/><path class="cls-8" d="M172.89,143.8l-.84.69a.45.45,0,0,1-.65-.06.46.46,0,0,1,.06-.64h0l.84-.7a.46.46,0,0,1,.59.71Z"/><path class="cls-8" d="M170.16,146.17l-.78.76a.47.47,0,0,1-.65,0,.46.46,0,0,1,0-.65h0l.79-.76a.46.46,0,1,1,.64.66Z"/><path class="cls-8" d="M167.63,148.74l-.73.81a.46.46,0,0,1-.69-.62h0l.73-.81a.46.46,0,0,1,.69.62Z"/><path class="cls-8" d="M165.27,151.48l-.67.85a.45.45,0,0,1-.65.08.46.46,0,0,1-.08-.65h0l.68-.86a.46.46,0,0,1,.72.58Z"/><path class="cls-8" d="M163.11,154.37l-.62.9a.47.47,0,0,1-.77-.53h0l.62-.9a.47.47,0,1,1,.77.53Z"/><path class="cls-8" d="M161.13,157.39l-.56.94a.47.47,0,0,1-.8-.48h0l.56-.93a.46.46,0,0,1,.64-.17A.47.47,0,0,1,161.13,157.39Z"/><path class="cls-8" d="M159.35,160.54l-.51,1a.46.46,0,0,1-.63.2.47.47,0,0,1-.2-.63h0l.51-1a.47.47,0,1,1,.83.43Z"/><path class="cls-8" d="M157.75,163.78l-.45,1a.48.48,0,0,1-.62.24.47.47,0,0,1-.23-.62h0l.44-1a.48.48,0,0,1,.62-.24A.46.46,0,0,1,157.75,163.78Z"/><path class="cls-8" d="M156.34,167.11l-.39,1a.46.46,0,0,1-.61.27.47.47,0,0,1-.27-.6h0l.39-1a.47.47,0,0,1,.61-.28A.48.48,0,0,1,156.34,167.11Z"/><path class="cls-8" d="M155.11,170.52l-.33,1a.48.48,0,0,1-.6.3.47.47,0,0,1-.3-.59h0l.33-1a.48.48,0,0,1,.6-.31A.47.47,0,0,1,155.11,170.52Z"/><path class="cls-8" d="M154.06,174l-.28,1.06a.47.47,0,0,1-.91-.25h0l.28-1a.47.47,0,1,1,.91.24Z"/><path class="cls-8" d="M153.2,177.49l-.23,1.07a.49.49,0,0,1-.57.37.48.48,0,0,1-.36-.57h0l.23-1.06a.47.47,0,0,1,.56-.37A.48.48,0,0,1,153.2,177.49Z"/><path class="cls-8" d="M152.5,181.05l-.17,1.08a.48.48,0,0,1-.55.39.47.47,0,0,1-.39-.55h0l.17-1.08a.48.48,0,0,1,.55-.39A.48.48,0,0,1,152.5,181.05Z"/><path class="cls-8" d="M152,184.63l-.12,1.09a.48.48,0,1,1-1-.11h0l.12-1.09a.48.48,0,1,1,.95.11Z"/><path class="cls-8" d="M151.63,188.23l-.07,1.09a.48.48,0,1,1-.95-.06h0l.07-1.09a.47.47,0,0,1,.51-.44A.46.46,0,0,1,151.63,188.23Z"/><path class="cls-8" d="M151.46,191.85l0,1.09a.5.5,0,0,1-.49.48.48.48,0,0,1-.47-.49h0l0-1.1a.48.48,0,0,1,.49-.47A.49.49,0,0,1,151.46,191.85Z"/><path class="cls-8" d="M151.45,195.47l0,1.09a.48.48,0,1,1-1,0h0l0-1.09a.48.48,0,0,1,.47-.5A.49.49,0,0,1,151.45,195.47Z"/><path class="cls-8" d="M151.62,199.09l.08,1.09a.49.49,0,0,1-.44.52.48.48,0,0,1-.52-.45h0l-.09-1.09a.49.49,0,0,1,.45-.52A.48.48,0,0,1,151.62,199.09Z"/><path class="cls-8" d="M152,202.69l.13,1.09a.48.48,0,0,1-.42.54.5.5,0,0,1-.54-.42h0l-.13-1.09a.48.48,0,0,1,.42-.54A.5.5,0,0,1,152,202.69Z"/><path class="cls-8" d="M152.47,206.28l.19,1.07a.49.49,0,0,1-.39.57.5.5,0,0,1-.57-.4h0l-.19-1.08a.49.49,0,0,1,.4-.56A.48.48,0,0,1,152.47,206.28Z"/><path class="cls-8" d="M153.17,209.83l.24,1.06a.49.49,0,1,1-.95.22h0l-.25-1.06a.49.49,0,1,1,1-.22Z"/><path class="cls-8" d="M154,213.34l.3,1a.47.47,0,0,1-.33.6.48.48,0,0,1-.61-.33h0l-.3-1a.5.5,0,0,1,.34-.61A.49.49,0,0,1,154,213.34Z"/><path class="cls-8" d="M155.1,216.8l.36,1a.49.49,0,0,1-.93.32h0l-.36-1a.5.5,0,0,1,.31-.63A.49.49,0,0,1,155.1,216.8Z"/><path class="cls-8" d="M156.35,220.19l.42,1a.49.49,0,1,1-.91.37h0l-.42-1a.49.49,0,0,1,.91-.37Z"/><path class="cls-8" d="M157.8,223.5l.48,1a.5.5,0,0,1-.23.66.49.49,0,0,1-.66-.23h0l-.48-1a.5.5,0,0,1,.23-.66A.49.49,0,0,1,157.8,223.5Z"/><path class="cls-8" d="M159.44,226.72l.53,1a.49.49,0,0,1-.19.67.5.5,0,0,1-.68-.19h0l-.52-1a.48.48,0,0,1,.19-.67A.49.49,0,0,1,159.44,226.72Z"/><path class="cls-8" d="M161.24,229.86l.58.93a.5.5,0,0,1-.16.68.49.49,0,0,1-.69-.16h0l-.57-.93a.5.5,0,0,1,.16-.68A.49.49,0,0,1,161.24,229.86Z"/><path class="cls-8" d="M163.2,232.91l.61.9a.5.5,0,1,1-.82.56h0l-.62-.9a.5.5,0,0,1,.83-.56Z"/><path class="cls-8" d="M165.29,235.86l.66.87a.5.5,0,0,1-.8.61h0l-.66-.88a.5.5,0,1,1,.8-.6Z"/><path class="cls-8" d="M167.52,238.71l.7.84a.5.5,0,1,1-.77.64h0l-.7-.84a.5.5,0,0,1,.07-.7A.49.49,0,0,1,167.52,238.71Z"/><path class="cls-8" d="M169.89,241.45l.73.81a.5.5,0,0,1,0,.71.5.5,0,0,1-.71,0h0l-.73-.81a.5.5,0,0,1,0-.71A.51.51,0,0,1,169.89,241.45Z"/><path class="cls-8" d="M172.37,244.08l.78.77a.51.51,0,1,1-.71.72h0l-.78-.77a.51.51,0,0,1,0-.71A.5.5,0,0,1,172.37,244.08Z"/><path class="cls-8" d="M175,246.59l.81.74a.5.5,0,0,1,0,.71.52.52,0,0,1-.72,0h0l-.81-.74a.51.51,0,0,1,.68-.75Z"/><path class="cls-8" d="M177.71,249l.84.69a.51.51,0,0,1,.07.72.53.53,0,0,1-.72.07h0l-.84-.7a.51.51,0,1,1,.65-.78Z"/><path class="cls-8" d="M180.54,251.23l.87.66a.5.5,0,1,1-.6.81h0l-.88-.65a.5.5,0,0,1-.1-.71A.51.51,0,0,1,180.54,251.23Z"/><path class="cls-8" d="M183.47,253.35l.91.61a.52.52,0,0,1,.14.71.51.51,0,0,1-.71.13h0l-.91-.61a.5.5,0,0,1-.13-.7A.49.49,0,0,1,183.47,253.35Z"/><path class="cls-8" d="M186.51,255.32l.93.57a.51.51,0,1,1-.53.87h0l-.93-.57a.51.51,0,1,1,.53-.87Z"/><path class="cls-8" d="M189.64,257.14l1,.52a.51.51,0,0,1,.21.69.52.52,0,0,1-.7.21h0l-1-.52a.51.51,0,0,1-.21-.69A.52.52,0,0,1,189.64,257.14Z"/><path class="cls-8" d="M192.85,258.8l1,.47a.51.51,0,0,1-.44.93h0l-1-.47a.51.51,0,0,1-.24-.69A.51.51,0,0,1,192.85,258.8Z"/><path class="cls-8" d="M196.14,260.29l1,.42a.51.51,0,1,1-.39,1h0l-1-.41a.52.52,0,0,1,.39-1Z"/><path class="cls-8" d="M199.51,261.61l1,.37a.52.52,0,0,1,.32.66.51.51,0,0,1-.66.31h0l-1-.36a.52.52,0,0,1,.34-1Z"/><path class="cls-8" d="M202.94,262.75l1.05.31a.52.52,0,1,1-.29,1h0l-1-.31a.52.52,0,0,1,.29-1Z"/><path class="cls-8" d="M206.43,263.7l1.06.25a.51.51,0,0,1,.39.62.52.52,0,0,1-.62.39h0l-1.07-.25a.5.5,0,0,1-.38-.62A.51.51,0,0,1,206.43,263.7Z"/><path class="cls-8" d="M210,264.45l1.08.19a.52.52,0,0,1-.18,1h0l-1.07-.19a.52.52,0,1,1,.17-1Z"/><path class="cls-8" d="M213.54,265l1.08.13a.52.52,0,1,1-.12,1h0l-1.08-.12a.52.52,0,0,1,.12-1Z"/><path class="cls-8" d="M217.13,265.34l1.09.06a.53.53,0,1,1-.06,1.05h0l-1.09-.06a.53.53,0,0,1,.06-1.05Z"/><path class="cls-8" d="M220.74,265.47h1.1a.52.52,0,0,1,.53.52.54.54,0,0,1-.53.53h-1.1a.52.52,0,0,1-.52-.52.52.52,0,0,1,.52-.53Z"/><path class="cls-8" d="M224.36,265.39l1.09-.06a.53.53,0,0,1,.06,1.05h0l-1.09.06a.53.53,0,1,1-.06-1.05Z"/><path class="cls-8" d="M228,265.13l1.09-.12a.53.53,0,1,1,.11,1.05h0l-1.08.12a.53.53,0,0,1-.12-1.05Z"/><path class="cls-8" d="M231.56,264.69l1.08-.17a.53.53,0,1,1,.16,1h0l-1.08.16a.53.53,0,1,1-.16-1Z"/><path class="cls-8" d="M235.12,264.08l1.07-.22a.53.53,0,1,1,.21,1h0l-1.07.22a.54.54,0,0,1-.62-.42A.52.52,0,0,1,235.12,264.08Z"/><path class="cls-8" d="M238.66,263.31l1.06-.27a.54.54,0,1,1,.26,1h0l-1.06.26a.54.54,0,0,1-.65-.39A.53.53,0,0,1,238.66,263.31Z"/><path class="cls-8" d="M242.16,262.39l1.05-.31a.54.54,0,1,1,.3,1h0l-1,.3a.53.53,0,1,1-.3-1Z"/><path class="cls-8" d="M245.63,261.33l1-.34a.53.53,0,1,1,.33,1h0l-1,.35a.54.54,0,1,1-.34-1Z"/><path class="cls-8" d="M249.06,260.15l1-.39a.54.54,0,1,1,.37,1h0l-1,.38a.54.54,0,0,1-.69-.32A.53.53,0,0,1,249.06,260.15Z"/><path class="cls-8" d="M252.44,258.84l1-.41a.54.54,0,1,1,.41,1h0l-1,.42a.55.55,0,0,1-.71-.3A.54.54,0,0,1,252.44,258.84Z"/><path class="cls-8" d="M255.78,257.43l1-.44a.54.54,0,1,1,.44,1h0l-1,.45a.54.54,0,0,1-.44-1Z"/><path class="cls-8" d="M259.08,255.92l1-.47a.54.54,0,0,1,.46,1h0l-1,.47a.54.54,0,0,1-.47-1Z"/><path class="cls-8" d="M262.34,254.33l1-.5a.54.54,0,0,1,.73.24.55.55,0,0,1-.23.73h0l-1,.49a.54.54,0,1,1-.49-1Z"/><path class="cls-8" d="M265.56,252.65l1-.52a.55.55,0,0,1,.52,1h0l-1,.52a.55.55,0,1,1-.52-1Z"/><path class="cls-8" d="M268.74,250.9l1-.54a.54.54,0,0,1,.74.21.54.54,0,0,1-.21.74h0l-1,.54a.55.55,0,0,1-.54-.95Z"/><path class="cls-8" d="M271.89,249.09l.94-.56a.55.55,0,0,1,.75.19.54.54,0,0,1-.19.75h0l-.94.56a.55.55,0,0,1-.75-.2A.54.54,0,0,1,271.89,249.09Z"/><path class="cls-8" d="M275,247.22l.93-.58a.55.55,0,0,1,.57.93h0l-.93.57a.55.55,0,1,1-.57-.93Z"/><path class="cls-8" d="M278.09,245.29l.93-.58a.54.54,0,0,1,.75.16.55.55,0,0,1-.16.76h0l-.93.59a.54.54,0,0,1-.75-.17A.55.55,0,0,1,278.09,245.29Z"/><path class="cls-8" d="M281.15,243.33l.92-.6a.55.55,0,0,1,.76.16.56.56,0,0,1-.16.76l-.91.6a.56.56,0,0,1-.76-.16.54.54,0,0,1,.15-.76Z"/><path class="cls-8" d="M284.19,241.33l.91-.61a.54.54,0,1,1,.61.9l-.91.61a.55.55,0,0,1-.76-.15.53.53,0,0,1,.15-.75Z"/><path class="cls-8" d="M287.21,239.29l.9-.61a.54.54,0,1,1,.61.89l-.9.62a.53.53,0,0,1-.75-.14.55.55,0,0,1,.14-.76Z"/><path class="cls-8" d="M290.21,237.23l.9-.62a.54.54,0,1,1,.61.89l-.89.62a.54.54,0,1,1-.62-.89Z"/><path class="cls-8" d="M293.21,235.16l.89-.63a.55.55,0,0,1,.75.14.54.54,0,0,1-.13.75l-.9.62a.54.54,0,0,1-.62-.88Z"/><path class="cls-8" d="M296.2,233.08l.89-.63a.54.54,0,0,1,.75.14.52.52,0,0,1-.14.74l-.89.63a.54.54,0,0,1-.75-.14.52.52,0,0,1,.14-.74Z"/><path class="cls-8" d="M299.19,231l.89-.63a.53.53,0,0,1,.61.87l-.9.63a.53.53,0,0,1-.74-.13.54.54,0,0,1,.14-.74Z"/><path class="cls-8" d="M302.18,228.92l.9-.62a.53.53,0,0,1,.74.13.54.54,0,0,1-.14.74l-.89.62a.53.53,0,0,1-.61-.87Z"/><path class="cls-8" d="M305.19,226.86l.9-.62a.53.53,0,0,1,.73.14.52.52,0,0,1-.13.73l-.91.62a.53.53,0,1,1-.59-.87Z"/><path class="cls-8" d="M308.21,224.81l.91-.61a.53.53,0,0,1,.73.15.52.52,0,0,1-.15.72l-.91.61a.52.52,0,0,1-.72-.14.53.53,0,0,1,.14-.73Z"/><path class="cls-8" d="M311.25,222.79l.92-.6a.52.52,0,0,1,.57.87l-.92.6a.52.52,0,1,1-.57-.87Z"/><path class="cls-8" d="M314.31,220.81l.93-.59a.51.51,0,0,1,.55.87l-.92.59a.52.52,0,0,1-.71-.16.51.51,0,0,1,.15-.71Z"/><path class="cls-8" d="M317.4,218.86l.93-.57a.51.51,0,0,1,.55.87l-.93.58a.52.52,0,0,1-.55-.88Z"/><path class="cls-8" d="M320.53,217l.94-.55a.51.51,0,0,1,.7.17.53.53,0,0,1-.18.71l-.94.55a.51.51,0,0,1-.7-.17.52.52,0,0,1,.17-.71Z"/><path class="cls-8" d="M323.68,215.12l.95-.54a.51.51,0,1,1,.5.89l-.95.54a.51.51,0,0,1-.5-.89Z"/><path class="cls-8" d="M326.87,213.34l1-.52a.5.5,0,0,1,.68.21.52.52,0,0,1-.2.69l-1,.52a.51.51,0,0,1-.49-.9Z"/><path class="cls-8" d="M330.11,211.64l1-.5a.52.52,0,0,1,.68.22.5.5,0,0,1-.22.68l-1,.5a.51.51,0,0,1-.67-.22.5.5,0,0,1,.22-.68Z"/><path class="cls-8" d="M333.38,210l1-.47a.51.51,0,0,1,.67.24.5.5,0,0,1-.24.67l-1,.47a.49.49,0,0,1-.66-.24.5.5,0,0,1,.23-.67Z"/><path class="cls-8" d="M336.71,208.48l1-.44a.5.5,0,0,1,.4.91l-1,.44a.5.5,0,1,1-.4-.91Z"/><path class="cls-8" d="M340.07,207.05l1-.41a.49.49,0,0,1,.64.27.5.5,0,0,1-.27.65l-1,.41a.5.5,0,0,1-.37-.92Z"/><path class="cls-8" d="M343.49,205.72l1-.37a.5.5,0,0,1,.34.93l-1,.37a.49.49,0,0,1-.63-.3.5.5,0,0,1,.29-.63Z"/><path class="cls-8" d="M346.94,204.52l1-.34a.49.49,0,0,1,.62.32.49.49,0,0,1-.32.61l-1,.34a.49.49,0,0,1-.61-.32.47.47,0,0,1,.31-.61Z"/><path class="cls-8" d="M350.44,203.44l1.06-.3a.49.49,0,0,1,.26.94h0l-1.05.3h0a.5.5,0,0,1-.61-.34.49.49,0,0,1,.34-.6Z"/><path class="cls-8" d="M354,202.51l1.07-.25a.49.49,0,0,1,.58.37.5.5,0,0,1-.37.58l-1.06.24a.48.48,0,1,1-.22-.94Z"/><path class="cls-8" d="M357.58,201.76l1.08-.18a.48.48,0,1,1,.16.95l-1.07.18a.47.47,0,0,1-.56-.39.48.48,0,0,1,.39-.56Z"/><path class="cls-8" d="M361.22,201.23l1.09-.11a.48.48,0,0,1,.1.95l-1.09.11a.48.48,0,1,1-.1-1Z"/><path class="cls-8" d="M364.89,201l1.09,0a.49.49,0,0,1,.49.47.48.48,0,0,1-.46.49l-1.1,0a.48.48,0,0,1,0-1Z"/><path class="cls-8" d="M368.57,201l1.1.07a.47.47,0,0,1-.06.94l-1.09-.07a.47.47,0,1,1,.05-.94Z"/><path class="cls-8" d="M372.25,201.33l1.08.18a.47.47,0,0,1-.16.92l-1.08-.17a.47.47,0,0,1-.38-.54.46.46,0,0,1,.54-.39Z"/><path class="cls-8" d="M375.87,202.08l1.05.3a.47.47,0,1,1-.26.9l-1.05-.3a.47.47,0,1,1,.26-.9Z"/><path class="cls-8" d="M379.37,203.26l1,.44a.46.46,0,0,1-.37.85l-1-.43a.48.48,0,0,1-.24-.62.47.47,0,0,1,.61-.24Z"/><path class="cls-8" d="M382.7,204.9l.93.57a.46.46,0,0,1-.48.79l-.94-.57a.46.46,0,0,1,.49-.79Z"/><path class="cls-8" d="M385.76,207l.84.7a.46.46,0,0,1-.58.71l-.85-.7a.46.46,0,0,1,.59-.71Z"/><path class="cls-8" d="M388.5,209.48l.75.8a.45.45,0,0,1,0,.64.46.46,0,0,1-.64,0l-.75-.8a.47.47,0,0,1,0-.65.46.46,0,0,1,.65,0Z"/><path class="cls-8" d="M390.9,212.29l.64.89a.45.45,0,0,1-.73.52l-.64-.88a.45.45,0,0,1,.1-.63.46.46,0,0,1,.63.1Z"/><path class="cls-8" d="M392.94,215.37l.53,1a.43.43,0,0,1-.17.59.44.44,0,0,1-.6-.16l-.53-1a.44.44,0,1,1,.76-.43Z"/><path class="cls-8" d="M394.6,218.66l.43,1a.44.44,0,0,1-.24.57.43.43,0,0,1-.56-.23l-.42-1a.43.43,0,1,1,.79-.34Z"/><path class="cls-8" d="M395.89,222.12l.31,1a.42.42,0,1,1-.81.24l-.31-1a.43.43,0,0,1,.28-.53.44.44,0,0,1,.53.29Z"/><path class="cls-8" d="M396.79,225.7l.19,1.08a.42.42,0,1,1-.82.14l-.19-1.07a.41.41,0,0,1,.33-.49.42.42,0,0,1,.49.34Z"/><path class="cls-8" d="M397.3,229.35l.08,1.09a.4.4,0,0,1-.37.43.41.41,0,0,1-.44-.37l-.09-1.09a.42.42,0,0,1,.38-.44.41.41,0,0,1,.44.38Z"/><path class="cls-8" d="M397.45,233l0,1.09a.41.41,0,0,1-.41.39.4.4,0,0,1-.39-.41l0-1.09a.4.4,0,0,1,.8,0Z"/><path class="cls-8" d="M397.26,236.7l-.12,1.09a.39.39,0,0,1-.77-.09l.11-1.08a.39.39,0,0,1,.78.08Z"/><path class="cls-8" d="M396.76,240.34l-.21,1.07a.38.38,0,0,1-.44.31.39.39,0,0,1-.31-.45l.2-1.07a.39.39,0,1,1,.76.14Z"/><path class="cls-8" d="M396,243.92l-.29,1.06a.37.37,0,0,1-.46.26.38.38,0,0,1-.27-.46l.29-1.05a.38.38,0,0,1,.46-.27.38.38,0,0,1,.27.46Z"/><path class="cls-8" d="M394.9,247.44l-.36,1a.37.37,0,0,1-.47.22.38.38,0,0,1-.23-.47l.37-1a.37.37,0,1,1,.69.25Z"/><circle class="cls-26" cx="381.56" cy="124.33" r="15.19" transform="translate(212.2 488.14) rotate(-83.08)"/><circle class="cls-15" cx="381.56" cy="124.33" r="14.68" transform="translate(-2.91 9.32) rotate(-1.39)"/><path class="cls-16" d="M368,123.76h0a.16.16,0,0,1-.15-.16,13.93,13.93,0,0,1,.2-1.72.16.16,0,0,1,.18-.13.17.17,0,0,1,.13.18,13.51,13.51,0,0,0-.2,1.68A.15.15,0,0,1,368,123.76Z"/><path class="cls-16" d="M369.45,118.38a.11.11,0,0,1-.07,0,.15.15,0,0,1-.06-.2A13.75,13.75,0,0,1,384,110.84a.15.15,0,0,1,.12.18.15.15,0,0,1-.18.12,14,14,0,0,0-2.42-.21,13.34,13.34,0,0,0-12,7.37A.15.15,0,0,1,369.45,118.38Z"/><circle class="cls-8" cx="381.88" cy="124.65" r="12.43"/><path class="cls-29" d="M385.53,119.73c0,2.18-1.77,4.53-3.95,4.53s-3.94-2.35-3.94-4.53a4,4,0,0,1,7.89,0Z"/><path class="cls-36" d="M376.69,132.64h9.62a2.32,2.32,0,0,0,2.22-1.62l.52-1.62a2.33,2.33,0,0,0-1.4-2.89,18,18,0,0,0-12.12.13,2.32,2.32,0,0,0-1.49,2.81l.4,1.47A2.33,2.33,0,0,0,376.69,132.64Z"/><circle class="cls-26" cx="217.93" cy="126.18" r="15.19" transform="translate(74.45 333.13) rotate(-85.34)"/><circle class="cls-15" cx="217.93" cy="126.18" r="14.68" transform="translate(-1.93 248.97) rotate(-59.25)"/><path class="cls-16" d="M204.39,125.61h0a.15.15,0,0,1-.15-.16,13.93,13.93,0,0,1,.2-1.72.15.15,0,0,1,.18-.13.16.16,0,0,1,.12.18,13.44,13.44,0,0,0-.19,1.69A.15.15,0,0,1,204.39,125.61Z"/><path class="cls-16" d="M205.82,120.23a.1.1,0,0,1-.07,0,.16.16,0,0,1-.07-.2,13.75,13.75,0,0,1,14.72-7.32.15.15,0,0,1,.13.18.16.16,0,0,1-.18.12,14,14,0,0,0-2.42-.21,13.34,13.34,0,0,0-12,7.37A.16.16,0,0,1,205.82,120.23Z"/><circle class="cls-8" cx="218.25" cy="126.5" r="12.43" transform="translate(-25.52 191.38) rotate(-45)"/><path class="cls-29" d="M221.89,121.58c0,2.18-1.76,4.53-3.94,4.53s-3.94-2.35-3.94-4.53a3.95,3.95,0,0,1,7.88,0Z"/><path class="cls-36" d="M213.06,134.49h9.62a2.32,2.32,0,0,0,2.22-1.62l.52-1.62a2.32,2.32,0,0,0-1.41-2.89,17.94,17.94,0,0,0-12.11.13,2.32,2.32,0,0,0-1.49,2.81l.4,1.47A2.33,2.33,0,0,0,213.06,134.49Z"/><path class="cls-39" d="M387.1,264.25s-4.14,14.05,9.75,21.18l3.46-1.76s-10.76-8-11.69-17.71a.91.91,0,0,1,.63-1l3.09-1.67c.5-.16.79-1.14,1.05-1.6l.62-3.5Z"/><circle class="cls-15" cx="381.48" cy="246.14" r="18.64" transform="translate(42.44 548.07) rotate(-74.52)"/><path class="cls-18" d="M366.1,238.6a.15.15,0,0,1-.09,0,.2.2,0,0,1-.09-.27,17.47,17.47,0,0,1,18.7-9.3.21.21,0,0,1,.16.24.2.2,0,0,1-.24.16,17.32,17.32,0,0,0-3.06-.27,16.92,16.92,0,0,0-15.19,9.35A.21.21,0,0,1,366.1,238.6Z"/><circle class="cls-8" cx="381.88" cy="246.55" r="15.78" transform="translate(-62.48 342.24) rotate(-45)"/><path class="cls-15" d="M380.33,258.28v-1.72a13.89,13.89,0,0,1-4.81-1,1,1,0,0,1-.55-1.18l.43-1.6a1,1,0,0,1,1.36-.65,11.7,11.7,0,0,0,4.45.94c1.72,0,3-.59,3-1.79s-1-1.72-3.39-2.36c-3.42-.94-5.87-2.43-5.87-5.44,0-2.71,2-4.79,5.43-5.34v-1.72a1,1,0,0,1,1-1h1a1,1,0,0,1,1,1v1.54a12.75,12.75,0,0,1,3.82.69,1,1,0,0,1,.62,1.2l-.4,1.48a1,1,0,0,1-1.32.67,10.44,10.44,0,0,0-3.74-.68c-2.05,0-2.63.85-2.63,1.61,0,.93,1.23,1.58,3.88,2.39,3.8,1.14,5.38,2.72,5.38,5.55,0,2.6-1.93,4.94-5.67,5.53v1.92a1,1,0,0,1-1,1h-1A1,1,0,0,1,380.33,258.28Z"/><path class="cls-40" d="M399.05,316.45s7.31,15.92,11.14,22.51c0,0,.76,4.15,0,5.46l-.65.28,3-.09a54.35,54.35,0,0,0,.05-5.89.76.76,0,0,0-.63-.29s-1.29-10.28-5.05-12.48l-3.64-12.54Z"/><path class="cls-26" d="M408.25,345.48c0,.08,2.36,0,3.65,0a1,1,0,0,0,1-.81l1-5.1a.93.93,0,0,0-.7-1.07l-.54-.12a2.92,2.92,0,0,0-.53,2.06c.24,1,.46,3.59-.16,3.89a8.94,8.94,0,0,1-2.38.35S408.29,344.83,408.25,345.48Z"/><path class="cls-26" d="M392.13,345.58a.27.27,0,0,0,.14.5c2.15,0,7-.09,7.4-.27s-.2-2.22-1-2.89l-4.38,1.43Z"/><path class="cls-41" d="M390.77,315.44s4.72,22.83,6.05,27.28l-3.16,2s1.59-.27,2.76-.35a4.05,4.05,0,0,0,2.25-1.43l-.37-.61s-1.19-22.7-.9-25.28Z"/><path class="cls-42" d="M379.05,262.18s-.65,11.88,10.16,17.95l-2.6,5.93s-9.78-5.91-9.43-22a1.92,1.92,0,0,0-.46-1.3l-2.08-2.42a3.71,3.71,0,0,1-.79-3.34l.27-1.1a.57.57,0,0,1,.84-.35l.22.13a3.76,3.76,0,0,1,1.56,1.74l1.05,1.65c.29.64,1.79,1.18,2.52,1.41a.23.23,0,0,1,.09.39Z"/><path class="cls-29" d="M388.84,279.24c1.81.5,7.94,2.11,11.76,2l-2.35,13.26.19,2.16-7.66,0a59.31,59.31,0,0,0-3.86-7.5c-.49-.73-.12-1.59.16-2.41l-.39-.26a1,1,0,0,1-.41-1.19l1.87-5.7A.56.56,0,0,1,388.84,279.24Z"/><path class="cls-43" d="M390.17,295.54l.15,1.31s-2.17,6.48,1.08,21.62c0,0,7,2,12.81-2.78,0,0-1.63-14.29-2.07-14.95-2.22-3.32-3.7-4-3.7-4l-.07-1.43S392.19,296.39,390.17,295.54Z"/><path class="cls-44" d="M393.17,280.3s1.59-4.9,1.59-4.9l2.33.21.91,5.53S394.35,281.87,393.17,280.3Z"/><path class="cls-45" d="M396.54,267.71c-.16.1-5,2.09-4,7.1a1,1,0,0,0,.54.67,8.29,8.29,0,0,0,4.05.67c2.53-.26,4.18-4.67,4.11-5.95S398.07,266.75,396.54,267.71Z"/><path class="cls-13" d="M398,265.18c-.16,0-3.52,1.19-1.85,3.62s2.28,3.86,1.5,4.93-2.31.42-2.17,2.44a1.15,1.15,0,0,1-.48,1c-1.5,1-5.15,4.13-1.53,8.58a1.12,1.12,0,0,1,.12,1.26c-1.06,1.9-3.28,7.47,4.78,10.56s10.83-2.15,11.64-4.23a1.11,1.11,0,0,1,1.1-.71c.87,0,2.11-.1,2.05-1.27a2.88,2.88,0,0,0-1-1.86,1.11,1.11,0,0,1,.21-1.74,2.17,2.17,0,0,0,1.08-1.35c.48-1.79-.48-7.14-5.61-8a1.22,1.22,0,0,1-.93-.91v0a1.11,1.11,0,0,1,.41-1.09,2.87,2.87,0,0,0,1-3.74,4.23,4.23,0,0,0-3.28-2.49,1.11,1.11,0,0,1-.92-1.33C404.52,267.11,404.2,264.37,398,265.18Z"/><path class="cls-46" d="M219.11,259.67s-1.89.92-2.24,2c-.28.84-2.37,1-2.57,2.62a1.91,1.91,0,0,1-1.6,1.68c-2.13.33-5.42,1.43-5.95,5.14-.4,2.83,1,3.9,2.55,4.27a2.15,2.15,0,0,1,1.63,2.47c-.22,1.08.1,2.32,2,3.31,4.18,2.2,8.35-5.22,8.35-5.22l.85-13Z"/><path class="cls-47" d="M238.77,252.83s-5.37,14.66-14.53,19.24c0,0,3,5,4.64,5.27,0,0,9.78-12.52,10.78-22.78Z"/><path class="cls-26" d="M201.94,341l-.27,2.23a.91.91,0,0,1-.81.8,14.2,14.2,0,0,1-3,0,.78.78,0,0,1-.66-1,8.06,8.06,0,0,1,1.49-2.91h2.47A.76.76,0,0,1,201.94,341Z"/><path class="cls-48" d="M221.25,314.94l.41,2.45s-1.39,14.11-1.64,19.76a4.36,4.36,0,0,0,.66,2.51l2.42,3.94L216.94,340l-.12-.75,1-1.38L216.51,322a4.83,4.83,0,0,1,.55-2.69l1.27-2.39Z"/><path class="cls-26" d="M223.5,344.17h-2a1.19,1.19,0,0,1-.94-.46c-.61-.8-1.88-2.35-2.49-2.39-.81-.06-.71,2.85-.71,2.85h-.46l-.58-3.61a2.16,2.16,0,0,1,1.12-2.24h0a3,3,0,0,0,1.2,2c1,.61,4.12,2.79,4.12,2.79a2.82,2.82,0,0,1,.8,0A.52.52,0,0,1,223.5,344.17Z"/><path class="cls-49" d="M212.81,316.1s-8.16,15.49-9.46,19a34.89,34.89,0,0,0-1.77,6.77c0,.43-.57.85-2.06.85a1.45,1.45,0,0,1-1.34-.61.87.87,0,0,1,0-.84c.47-1,2-4,2.53-5.4.66-1.65,2.08-9.14,2.86-11.75s1.67-5.43,5.07-8C208.61,316.1,211,313.82,212.81,316.1Z"/><path class="cls-29" d="M218,290.73c2.11-8.92-3.23-14-3.23-14,3.37-3.23,9.5-4.7,9.5-4.7s5.85,4.27,5.16,7.62c-.41,2-4.12,11.76-4.12,11.76A8.13,8.13,0,0,1,218,290.73Z"/><path class="cls-26" d="M213.3,295.15c.86-2.58,4.67-4.42,4.67-4.42a8.13,8.13,0,0,0,7.31.72,14.61,14.61,0,0,1,.24,5.66c-.53,2.73-3.86,20.28-3.86,20.28-5.24,1.06-13.31-1.07-13.31-1.07C211.69,310.39,212.44,297.73,213.3,295.15Z"/><path class="cls-50" d="M220.41,266.17l-1.71,7.69c-.16.68.46.56,1.14.44,1.12-.22,2.57-.65,3-1.52a1,1,0,0,0,.09-.29l.73-5.34a1,1,0,0,0-.56-1l-1.42-.63A1,1,0,0,0,220.41,266.17Z"/><path class="cls-51" d="M214.74,276.77s-12,8.54-1.53,17.53a2.69,2.69,0,0,0,1.18.68,13.24,13.24,0,0,1,2.16,1.46.4.4,0,0,0,.59-.11h0a.55.55,0,0,0,0-.53l-1.48-3.12a1.13,1.13,0,0,0-1.48-.07h0a.56.56,0,0,1-.85-.19c-.81-1.64-2.33-6.47,3.89-11.92a.66.66,0,0,0,.15-.82C217,278.84,216,277.17,214.74,276.77Z"/><path class="cls-52" d="M222.42,258.85a7.56,7.56,0,0,1,3.41,3.78c1.38,2.93.35,4.29-1,4.47a6,6,0,0,1-5.27-1.73C217.57,263.47,219.79,257.83,222.42,258.85Z"/><path class="cls-53" d="M221,263.8s-1.53-4.28,2.27-4.33l.89.62s1.4-2.38-.89-3.51-5-.2-5.94,2.89-1.14,5.14.48,6.62,2.28-.2,2.28-.2-.88-1.38-.52-2.12,1.19.16,1.19.16Z"/><path class="cls-54" d="M220.56,264.28s-.77-2.21-1.8-1.33.83,2,1.57,2.42Z"/><path class="cls-55" d="M239.29,255.5c.08.26-.87.66-1.43-.41,0-.51-.33-2.7,0-3.12a40.57,40.57,0,0,1,4.78-5,.75.75,0,0,1,.09,1l-1.53,1.59a7.34,7.34,0,0,1,.89,1.77,2.13,2.13,0,0,1-.21,1.58c-.27.48-.64,1.11-1,1.6A2.13,2.13,0,0,1,239.29,255.5Z"/><path class="cls-56" d="M240.1,254.42l-.36-.07a14.81,14.81,0,0,1,.75-2.9.61.61,0,0,0,.14-.44.41.41,0,0,0-.1-.14l-1.26,1.07-.42,1.13-.34-.13.45-1.22,1.53-1.29.11,0a.69.69,0,0,1,.38.43.93.93,0,0,1-.17.73A15.39,15.39,0,0,0,240.1,254.42Z"/><path class="cls-26" d="M157.2,277.23s10.17,6.95,12.36,3.61-8.92-13.4-8.92-13.4Z"/><path class="cls-26" d="M154.93,342.79a.47.47,0,0,0,0-.16c-.77-3-4.58-4.93-4.58-4.93l-1.51.11a10.54,10.54,0,0,0-.61,5.06s0,0,0,.06A35,35,0,0,0,154.93,342.79Z"/><path class="cls-57" d="M148.22,335.57l.64,3.07a.5.5,0,0,0,.43.42,4.19,4.19,0,0,0,1,0,.63.63,0,0,0,.5-.74l-.45-2.73Z"/><path class="cls-26" d="M168.3,342.65l0-.06a11.7,11.7,0,0,0-6.94-4.36l-2-.06a9.38,9.38,0,0,0-.89,4.31,9,9,0,0,0,3,.42A66.23,66.23,0,0,0,168.3,342.65Z"/><path class="cls-58" d="M159,335.21c0,.15.29,2.36.4,3.21a.42.42,0,0,0,.36.39,4.68,4.68,0,0,0,1.34,0,.58.58,0,0,0,.43-.58v-3.47Z"/><path class="cls-29" d="M157.45,294.85a173.57,173.57,0,0,1,4.62,40.41.87.87,0,0,1-.69.85,9.81,9.81,0,0,1-2.18.25.79.79,0,0,1-.77-.67c-.66-3.87-4.45-25.68-6.61-29.23,0,0-1.42,19.43-1,29.51a.48.48,0,0,1-.42.5,8.45,8.45,0,0,1-1.75,0,.64.64,0,0,1-.57-.54c-.47-3.28-3.18-22.78-3.06-36.83,0-.79,2.09-4.24,2.09-4.24Z"/><path class="cls-26" d="M160.69,267.42c-6.48-.93-13.6-.07-17.05.36a4.58,4.58,0,0,0-2.88,1.55c-2.92,3.38-9.34,12.64-1.79,22a14,14,0,0,0,3.27-2.4c-.83-2.35-.9-5.36.85-9.05.06.29.14.58.23.87a53.49,53.49,0,0,1,2.53,15.47.48.48,0,0,0,.3.45c3.18,1.27,9.29.52,11.34.21a.69.69,0,0,0,.58-.78c-.72-5.23,1.73-12.88,3.68-17.9C162.52,276.2,161.09,268,160.69,267.42Z"/><path class="cls-59" d="M150,260.05l-.89,7.4a.7.7,0,0,0,.49.75,7.85,7.85,0,0,0,5-.07.8.8,0,0,0,.47-.92L153.93,262Z"/><path class="cls-60" d="M153.25,254.4c.09.07,4,6.71,4,6.71l-3.83,2.14-4.61-5.75S151.76,253.15,153.25,254.4Z"/><path class="cls-61" d="M150.53,257.56a.63.63,0,0,0,.08.55l2.15,3.17a.49.49,0,0,0,.12.13,1,1,0,0,0,1.65-.1,5.57,5.57,0,0,1,1.46-1.77.63.63,0,0,1,.87.23,24,24,0,0,1,1.53,3.12.63.63,0,0,1-.32.78,17.29,17.29,0,0,1-3.72,1.32.62.62,0,0,1-.61-.22c-.65-.79-2.48-3-3.1-3.54s-1.55-.25-2-.1a.65.65,0,0,1-.51,0,1.4,1.4,0,0,1-.64-2.09.63.63,0,0,0-.24-.84,1.4,1.4,0,0,1-.65-1.95,2,2,0,0,1,2.07-1.16.65.65,0,0,0,.66-.42.4.4,0,0,1,.31-.27.62.62,0,0,0,.46-.75,1.61,1.61,0,0,1,.79-1.9c1.65-1,3.23.41,3.68,1.68s-1.4,2.28-2.59,2.5C151.12,256.06,150.69,257.05,150.53,257.56Z"/><path class="cls-62" d="M151.45,262.39s-.88-2.17-1.85-2-1.67,1.15-.41,2.17C150.77,263.78,151.45,262.39,151.45,262.39Z"/><path class="cls-63" d="M142.77,279.29a19.88,19.88,0,0,1-.81-7.78l.35,0a19.52,19.52,0,0,0,.79,7.62Z"/><path class="cls-26" d="M151.65,306a.19.19,0,0,1-.18-.13c-.39-1.51-3.31-3.17-3.34-3.18a.18.18,0,0,1-.07-.24.17.17,0,0,1,.24-.07c.13.07,3.09,1.74,3.52,3.4a.17.17,0,0,1-.13.21Z"/><path class="cls-64" d="M142.24,288.91a14,14,0,0,1-3.27,2.4,27.57,27.57,0,0,0,6,5.31l.32.7a1.74,1.74,0,0,0,1.51,1c3.61.17,4.61-.6,1.28-2.92A12.85,12.85,0,0,1,142.24,288.91Z"/><path class="cls-65" d="M172.46,271.65a70.75,70.75,0,0,0-6.37,5.71c-1.26,1.57-.49,4.83,2,4.4s6.25-8.23,6.25-8.23Z"/><path class="cls-66" d="M164.59,266.16s8.46,8.14,10.62,9.64c2.52,1.74,5.82-1.69,4.67-3.6s-9.78-8-9.78-8Z"/><polygon class="cls-15" points="166.25 256.53 185.79 237.35 195.93 259.4 169.65 265.36 166.25 256.53"/><ellipse class="cls-67" cx="191.03" cy="248.37" rx="2.54" ry="12.47" transform="translate(-87.93 105.68) rotate(-25.34)"/><path class="cls-15" d="M196.18,258.79c-.31-.11-1.15-.71-2.53-2.64a46.81,46.81,0,0,1-4.1-7.15,47.46,47.46,0,0,1-2.94-7.71c-.61-2.29-.55-3.32-.44-3.63.31.11,1.15.71,2.53,2.64a46.81,46.81,0,0,1,4.1,7.15,47.46,47.46,0,0,1,2.94,7.71C196.35,257.45,196.29,258.48,196.18,258.79Z"/><g class="cls-68"><path class="cls-69" d="M194.08,246.75c.91,1.91.61,3.95-1.43,4.92a3.84,3.84,0,1,1-3.29-6.93C191.41,243.77,193.17,244.83,194.08,246.75Z"/></g><path class="cls-70" d="M162.26,257.84a14.5,14.5,0,0,1,4.48-1.86,25.93,25.93,0,0,0,4.51,9.08l-4.81,2.28a1.73,1.73,0,0,1-2.16-.59,24.1,24.1,0,0,1-3.12-6A2.55,2.55,0,0,1,162.26,257.84Z"/><path class="cls-71" d="M166.23,258.78l-3.74,1.77a.43.43,0,0,1-.45,0,.43.43,0,0,1-.18-.41.17.17,0,0,1,.34,0,.09.09,0,0,0,0,.1.1.1,0,0,0,.1,0l3.75-1.78a.1.1,0,0,0,0-.13l-.13-.27a.11.11,0,0,0-.14-.05l-3.77,1.79a.17.17,0,0,1-.14-.31l3.77-1.78a.44.44,0,0,1,.59.21l.12.26A.44.44,0,0,1,166.23,258.78Z"/><path class="cls-72" d="M166.68,260.6l-3.74,1.77a.44.44,0,0,1-.63-.45.17.17,0,0,1,.19-.15.18.18,0,0,1,.15.19.1.1,0,0,0,0,.1.1.1,0,0,0,.1,0l3.75-1.78a.11.11,0,0,0,.05-.14l-.13-.26a.09.09,0,0,0-.13-.05l-3.78,1.79a.17.17,0,0,1-.14-.31l3.77-1.79a.45.45,0,0,1,.59.21l.12.27A.44.44,0,0,1,166.68,260.6Z"/><path class="cls-73" d="M169.39,254.38a.16.16,0,0,1-.19,0,.16.16,0,0,1,0-.23l15-14a.16.16,0,0,1,.24,0,.16.16,0,0,1,0,.23l-15,14Z"/><path class="cls-73" d="M167.46,256.49a.19.19,0,0,1-.19,0,.18.18,0,0,1,0-.24l.74-.81a.18.18,0,0,1,.24,0,.17.17,0,0,1,0,.24l-.74.81A.09.09,0,0,1,167.46,256.49Z"/><path class="cls-74" d="M167.94,262.38l-3.75,1.78a.44.44,0,0,1-.44-.05.42.42,0,0,1-.18-.41.16.16,0,0,1,.19-.14.16.16,0,0,1,.14.18.1.1,0,0,0,0,.1.13.13,0,0,0,.11,0l3.74-1.77a.1.1,0,0,0,.05-.14l-.12-.27a.11.11,0,0,0-.14-.05l-3.77,1.79a.17.17,0,1,1-.15-.3l3.78-1.79a.44.44,0,0,1,.58.21l.13.27A.44.44,0,0,1,167.94,262.38Z"/><path class="cls-75" d="M169.31,264.37l-3.75,1.78a.42.42,0,0,1-.44,0,.43.43,0,0,1-.18-.41.16.16,0,0,1,.19-.14.16.16,0,0,1,.14.19.1.1,0,0,0,0,.09.08.08,0,0,0,.1,0l3.75-1.77a.11.11,0,0,0,.05-.14l-.13-.27a.11.11,0,0,0-.14-.05l-3.77,1.79a.17.17,0,1,1-.15-.3l3.78-1.79a.44.44,0,0,1,.58.21l.13.27A.44.44,0,0,1,169.31,264.37Z"/><path class="cls-76" d="M178.21,274.51a2.48,2.48,0,0,1-.56.2,2.74,2.74,0,0,1-2.41-.59l-6.14-5.23a.17.17,0,0,1,0-.24.16.16,0,0,1,.24,0l6.14,5.23a2.41,2.41,0,0,0,3.76-.85s0-.08,0-.11a.17.17,0,0,1,.32.12l-.06.12A2.6,2.6,0,0,1,178.21,274.51Z"/><path class="cls-77" d="M168.37,268.14a.17.17,0,0,1-.18,0l-.68-.59a.16.16,0,0,1,0-.23.17.17,0,0,1,.24,0l.68.58a.17.17,0,0,1,0,.24Z"/><path class="cls-78" d="M193.51,247a.17.17,0,0,1-.22-.07,3,3,0,0,0-1.91-1.59,3.68,3.68,0,0,0-2.61.64.17.17,0,0,1-.24,0,.17.17,0,0,1,0-.24,4,4,0,0,1,2.88-.7,3.31,3.31,0,0,1,2.14,1.76.18.18,0,0,1-.07.23Z"/><path class="cls-79" d="M174.38,268.39s1.3-1.1,2.32,0,1.21,3,1,3.12S171.23,270.05,174.38,268.39Z"/><polygon class="cls-80" points="210.72 239.41 202.48 238.94 203.64 241.56 198.14 242.93 207.22 245.31 205.95 241.63 210.72 239.41"/><polygon class="cls-81" points="210 251.8 203.92 248.9 203.99 251.23 199.44 250.56 205.55 255.15 205.73 252 210 251.8"/><polygon class="cls-82" points="199.59 229.91 194.08 233.77 196.14 234.86 193.32 238.49 200.33 235.43 197.67 233.72 199.59 229.91"/></g></g></svg>