<?xml version="1.0" encoding="utf-8"?>
<!-- Generator: Adobe Illustrator 25.4.1, SVG Export Plug-In . SVG Version: 6.00 Build 0)  -->
<svg version="1.1" id="Layer_1" xmlns="http://www.w3.org/2000/svg" xmlns:xlink="http://www.w3.org/1999/xlink" x="0px" y="0px"
	 viewBox="0 0 400.2 310.9" style="enable-background:new 0 0 400.2 310.9;" xml:space="preserve">
<style type="text/css">
	.st0{opacity:0.75;fill:#DDE8FF;enable-background:new    ;}
	.st1{fill:#FFFFFF;}
	.st2{fill:#36CEE5;}
	.st3{fill:#F5C932;}
	.st4{fill:#0A0051;}
	.st5{fill:url(#SVGID_1_);}
	.st6{fill:url(#SVGID_00000034074212871766237060000007737164194914319801_);}
	.st7{fill:url(#SVGID_00000164477234967018510730000008044748536535598751_);}
	.st8{fill:url(#SVGID_00000029723838278164758470000016872074148848032406_);}
	.st9{fill:#FC9262;}
	.st10{fill:url(#SVGID_00000121244182243111293190000001716357023650111626_);}
	.st11{fill:url(#SVGID_00000128477333950205582540000010183540382382039981_);}
	.st12{fill:url(#SVGID_00000155146132860166677800000003133956070179906713_);}
	.st13{fill:url(#SVGID_00000074426677213853288060000007256689053456233874_);}
	.st14{fill:url(#SVGID_00000019656445525856523010000001885094254354445986_);}
	.st15{fill:url(#SVGID_00000110432248904312698160000008622752132042012351_);}
	.st16{fill:url(#SVGID_00000144331712952585277620000018253559229715154822_);}
	.st17{fill:url(#SVGID_00000034075227413493436450000008199815417262293680_);}
	.st18{fill:url(#SVGID_00000130619992038678170480000007287604214516774024_);}
	.st19{fill:url(#SVGID_00000124153395451576940130000013553520925645639601_);}
	.st20{fill:url(#SVGID_00000101803253897259746150000013493136033438691988_);}
	.st21{fill:url(#SVGID_00000039123391829964436000000007637316098237250698_);}
	.st22{fill:#91B3FA;}
	.st23{fill:#7D97F4;}
	.st24{fill:#5C3BC8;}
	.st25{fill:url(#SVGID_00000028313177029331979330000002081811693513039519_);}
	.st26{fill:url(#SVGID_00000019653628637464862030000016182110923100942759_);}
	.st27{fill:url(#SVGID_00000108268435278535597280000001471793111117415310_);}
	.st28{fill:url(#SVGID_00000109723807158904485150000013001862398765662891_);}
	.st29{fill:url(#SVGID_00000161628646678975245130000007590142834304135305_);}
	.st30{fill:url(#SVGID_00000097500590166146142160000015088471128793773228_);}
	.st31{fill:url(#SVGID_00000142895740867093935800000013034236589045473675_);}
	.st32{fill:url(#SVGID_00000160896800217227578400000003627070673055123079_);}
	.st33{fill:url(#SVGID_00000044179432036096022530000014914810525847290278_);}
	.st34{fill:url(#SVGID_00000146459152690388138810000004045094814428383925_);}
	.st35{fill:url(#SVGID_00000066502577657699210750000010111749179852692134_);}
	.st36{fill:url(#SVGID_00000003093343829554549390000018066787480063310736_);}
	.st37{fill:url(#SVGID_00000067236860052226674380000014186266094447564987_);}
	.st38{fill:url(#SVGID_00000137847770128298904650000005138208017409855136_);}
	.st39{fill:url(#SVGID_00000096770154523318567070000001791838842684774537_);}
	.st40{fill:url(#SVGID_00000110434537118537860460000011307904409958361016_);}
	.st41{fill:url(#SVGID_00000108289160388976555330000006285487723226086075_);}
	.st42{fill:url(#SVGID_00000043426985520892152820000000084678045938065031_);}
	.st43{fill:url(#SVGID_00000078749888767148352210000007484044806800273557_);}
	.st44{opacity:0.75;}
	.st45{fill:#D6CEF1;}
	.st46{opacity:0.45;}
</style>
<g>
	<path class="st0" d="M299.3,268.8c-6,6.3-11.7,10.4-16.2,13.6c-52.7,37.8-115.1,26.8-128.4,24.1c-19.6-4-57.4-11.7-84.8-43.8
		c-41.4-48.7-35-125.4-2.8-176c5.9-9.3,36.9-60.7,100-69c38.2-5,82.7,5.1,114.9,32.1C349.6,106.4,344.8,220.9,299.3,268.8z"/>
	<g>
		<g>
			<path class="st1" d="M46.1,116.1c-0.3-0.1-0.5-0.4-0.5-0.8c0-1.1,0-2.2,0.1-3.3c0-0.5,0.4-0.8,0.9-0.8c1.1,0.1,0.7,1.1,0.7,4.1
				c0,0.5-0.4,0.8-0.8,0.8C46.4,116.2,46.2,116.2,46.1,116.1z"/>
			<path class="st1" d="M46.8,101.8c0.4-2.1,0.8-4.2,1.3-6.2c0.1-0.4,0.6-0.7,1-0.6c1.2,0.3,0.4,1-0.7,7.1c-0.1,0.4-0.5,0.7-1,0.7
				C47,102.7,46.7,102.3,46.8,101.8z M51.2,85.9c0.8-2,1.6-3.9,2.5-5.8c0.5-1,2-0.2,1.5,0.7c-0.9,1.8-1.7,3.7-2.5,5.7
				c-0.2,0.4-0.6,0.6-1.1,0.5C51.3,86.8,51.1,86.3,51.2,85.9z M58.9,71.2c1.2-1.7,2.4-3.5,3.7-5.1c0.7-0.9,2,0.2,1.3,1
				c-1.3,1.6-2.5,3.3-3.6,5C59.7,73,58.3,72.1,58.9,71.2z M69.4,59.5c-0.3-0.3-0.3-0.8,0-1.2c1.5-1.5,3.1-2.9,4.7-4.3
				c0.8-0.7,1.9,0.6,1.1,1.3c-1.6,1.3-3.1,2.7-4.6,4.2C70.3,59.9,69.8,59.9,69.4,59.5z M82.2,49.2c-0.3-0.4-0.2-0.9,0.2-1.1
				c1.8-1.1,3.6-2.2,5.5-3.2c1-0.5,1.8,0.9,0.8,1.4c-1.8,1-3.6,2-5.4,3.1C83,49.6,82.5,49.5,82.2,49.2z M97.4,42
				c-0.2-0.1-0.3-0.2-0.4-0.4c-0.2-0.4,0-0.9,0.5-1.1c2-0.8,4-1.4,6.1-2c0.4-0.1,0.9,0.1,1,0.6c0.1,0.4-0.1,0.9-0.5,1
				c-2,0.6-4,1.3-5.9,2C97.8,42.1,97.6,42.1,97.4,42z M113.4,37.8c-0.2-0.1-0.4-0.3-0.5-0.6c-0.1-0.4,0.2-0.9,0.7-0.9
				c2.1-0.3,4.2-0.6,6.4-0.8c0.5,0,0.9,0.3,0.9,0.7c0,0.5-0.3,0.8-0.7,0.9c-2.1,0.2-4.2,0.4-6.2,0.8
				C113.7,37.9,113.6,37.8,113.4,37.8z M129.6,36c0-0.5,0.4-0.8,0.9-0.8c2.1,0.1,4.3,0.3,6.4,0.5c1.1,0.1,0.9,1.8-0.2,1.6
				c-2.1-0.3-4.2-0.4-6.3-0.5C129.9,36.9,129.6,36.5,129.6,36z M181.5,57.5c-4.7-4.1-5.8-4.2-5.1-5.1c0.3-0.4,0.8-0.4,1.2-0.1
				c1.7,1.3,3.4,2.7,5,4.1C183.4,57,182.3,58.2,181.5,57.5z M146.2,38.3c0.1-0.4,0.6-0.7,1-0.6c2.1,0.5,4.2,1.1,6.2,1.8
				c1,0.4,0.5,1.9-0.5,1.6c-2-0.7-4-1.3-6.1-1.8C146.3,39.2,146.1,38.7,146.2,38.3z M168,47.9c-5.4-3.1-6.5-2.9-6-4
				c0.3-0.7,1.2-0.4,1.1-0.4c1.9,0.9,3.9,1.9,5.7,3c0.4,0.2,0.5,0.7,0.3,1.1C168.9,47.9,168.5,48.1,168,47.9z"/>
			<path class="st1" d="M190.9,67.3c-1.8-2.2-2.9-2.9-2-3.7c0.3-0.3,0.9-0.3,1.2,0.1c1.9,2.2,2.9,3.1,2,3.7
				C191.8,67.7,191.2,67.7,190.9,67.3z"/>
		</g>
		<g>
			<path class="st1" d="M208.9,128.4c-0.3-0.1-0.5-0.5-0.5-0.9c0.1-1.1,0.2-2.2,0.3-3.2c0-0.5,0.4-0.8,0.9-0.7
				c0.5,0,0.8,0.4,0.8,0.9c-0.1,1.1-0.2,2.2-0.3,3.3c-0.1,0.4-0.5,0.8-0.9,0.7C209.1,128.4,209,128.4,208.9,128.4z"/>
			<path class="st1" d="M92.1,189c-2.1-1-4.1-2.1-6.1-3.3c-0.4-0.2-0.5-0.7-0.3-1.1c0.7-1.1,1.1,0,7.1,3c0.4,0.2,0.6,0.7,0.4,1.1
				C92.9,189.3,92,189,92.1,189z M102,192.3c0.4-1.2,1.1-0.2,7.6,1.4c0.4,0.1,0.7,0.6,0.6,1s-0.6,0.7-1,0.6c-2.2-0.6-4.5-1.2-6.7-2
				C102.1,193.2,101.9,192.7,102,192.3z M76.7,179.2c-1.8-1.4-3.6-3-5.2-4.6c-0.3-0.3-0.3-0.8,0-1.2c0.9-0.9,1,0.2,6.3,4.5
				c0.4,0.3,0.4,0.8,0.1,1.2C77.6,179.4,77.1,179.5,76.7,179.2z M120.1,197.2c-0.3-0.1-0.5-0.5-0.5-0.8c0-0.4,0.4-0.8,0.9-0.7
				c2.2,0.3,4.5,0.4,6.8,0.5c0.5,0,0.8,0.4,0.8,0.8c0,0.5-0.4,0.8-0.8,0.8c-2.3-0.1-4.6-0.2-6.9-0.5
				C120.3,197.3,120.2,197.2,120.1,197.2z M138.1,197.2c-0.3-0.1-0.4-0.4-0.5-0.7c-0.1-0.4,0.3-0.9,0.7-0.9c2.2-0.2,4.5-0.6,6.7-1
				c0.4-0.1,0.9,0.2,1,0.6c0.1,0.4-0.2,0.9-0.6,1c-2.3,0.4-4.6,0.8-6.8,1C138.3,197.3,138.2,197.3,138.1,197.2z M155.5,193.4
				c-0.2-0.1-0.4-0.3-0.4-0.5c-0.2-0.4,0.1-0.9,0.5-1c2.1-0.7,4.2-1.5,6.3-2.4c0.4-0.2,0.9,0,1.1,0.4c0.2,0.4,0,0.9-0.4,1.1
				c-2.1,0.9-4.3,1.7-6.4,2.5C155.9,193.5,155.7,193.5,155.5,193.4z M171.7,185.9c-0.1-0.1-0.3-0.2-0.4-0.3
				c-0.2-0.4-0.1-0.9,0.3-1.1c1.9-1.2,3.8-2.4,5.6-3.7c0.4-0.3,0.9-0.2,1.2,0.2s0.2,0.9-0.2,1.1c-1.8,1.3-3.7,2.6-5.7,3.8
				C172.2,186,171.9,186,171.7,185.9z M185.5,174.8c-0.9-0.9,0.2-1,4.6-6c0.7-0.8,2,0.3,1.3,1.1c-1.5,1.7-3.1,3.4-4.7,5
				C186.3,175.2,185.8,175.2,185.5,174.8z M196.8,161.3c-1.1-0.7,0-1,3.1-6.9c0.5-0.9,2-0.2,1.5,0.8c-1.1,2-2.2,4-3.4,5.9
				C197.7,161.4,197.2,161.5,196.8,161.3z M204.8,145.5c-0.4-0.2-0.6-0.6-0.4-1c0.8-2.1,1.4-4.2,2-6.4c0.1-0.4,0.6-0.7,1-0.6
				c0.4,0.1,0.7,0.6,0.6,1c-0.6,2.2-1.3,4.4-2.1,6.5C205.7,145.5,205.3,145.7,204.8,145.5C204.8,145.6,204.8,145.5,204.8,145.5z"/>
			<path class="st1" d="M63.8,166.3c-1.8-2.3-2.7-3.2-1.9-3.8c0.9-0.6,1.3,0.5,3.2,2.8c0.3,0.4,0.2,0.9-0.1,1.1
				C64.6,166.7,64.1,166.6,63.8,166.3z"/>
		</g>
		<g>
			<path class="st2" d="M74.4,146.3l11.9-0.6c3.3,4.5,7.3,8.5,12,11.8c-0.3,11.4-1.2,12.2,0,12.7l13.3,5.5c0.4,0.2,0.8,0.1,1.1-0.2
				l7.8-8.7c5.7,1,11.3,1,16.8,0.1l8,8.9c0.3,0.3,0.7,0.4,1.1,0.3l13.2-5.3c0.4-0.2,0.6-0.5,0.6-0.9l-0.8-11.7
				c4.5-3.2,8.5-7.1,11.8-11.6l11.9,0.8c0.4,0,0.8-0.2,1-0.6l5.3-13c0.2-0.4,0-0.8-0.3-1.1l-9-7.9c0.9-5.6,0.8-11.2-0.2-16.6
				c8.5-7.7,9.6-7.7,9.1-8.8c-5.7-12.7-5.3-13.7-6.6-13.7l-11.9,0.6c-3.3-4.5-7.3-8.5-12-11.8c0.3-11.4,1.2-12.2,0-12.7
				c-13.3-5.2-13.5-6.2-14.4-5.2l-7.8,8.7c-5.7-1-11.3-1-16.8-0.1c-7.9-8.4-7.9-9.6-9.1-9.1c-12.9,5.5-13.9,5-13.8,6.2L97.4,74
				C93,77,89,80.9,85.7,85.5c-11.4-0.5-12.4-1.4-12.9-0.2c-5.1,12.9-6.1,13.2-5.1,14.1l9,7.9c-0.9,5.6-0.8,11.2,0.2,16.6
				c-8.5,7.7-9.6,7.7-9.1,8.8C73.5,145.3,73.1,146.4,74.4,146.3z"/>
			<g>
				<path class="st1" d="M114.6,113.8c1-7.5,8.1-12.6,15.7-11.5c7.6,1.2,13,8.2,11.9,15.7c-1,7.5-8.1,12.6-15.7,11.5l0,0
					C118.9,128.3,113.5,121.3,114.6,113.8z M126.7,128.3L126.7,128.3L126.7,128.3z M130,104.7c-6.2-0.9-12,3.2-12.9,9.4
					c-0.9,6.2,3.5,11.9,9.8,12.9c6.3,0.9,12-3.3,12.9-9.4C140.6,111.4,136.2,105.7,130,104.7z"/>
			</g>
			<path class="st1" d="M114,147.6L114,147.6c-1.9-0.9-3.7-1.9-5.4-3c-0.5-0.3-0.7-1-0.4-1.5c0-0.1,0.1-0.1,0.1-0.2
				c0.4-0.6,1.2-0.7,1.7-0.3c1.9,1.3,4.1,2.5,6.3,3.4l0,0c16.6,6.9,35.5-0.4,42.8-16.2c0.2-0.4,0.4-0.8,0.5-1.2
				c6.9-16.8-1.5-35.9-18.4-43c-17-7-36.4,0.7-43.3,17.4c-4.1,9.9-1.6,17-2.1,18c-0.5,1.1-2.2,0.9-2.4-0.4
				c-1.1-6.6-0.2-13.5,2.7-19.9c12.8-27.7,53.4-26.6,65.5,1.8c3.7,8.7,3.8,18.3,0.3,27c-0.2,0.4-0.4,0.9-0.6,1.3
				c-3.7,8-10.3,14.2-18.6,17.6c-8.8,3.5-18.5,3.5-27.4-0.2C114.9,148,114.4,147.8,114,147.6z"/>
		</g>
	</g>
	<path class="st3" d="M217.6,95.6c2,2.4,4.4,4.4,7.2,6.1l0.1,6.7c0,0.7,0.6,0.5,8,3c0.7,0.2,0.6-0.4,4.6-5.5c3.2,0.3,6.3,0,9.4-0.8
		l4.8,4.6c0.5,0.5,0.8-0.1,7.7-3.5c0.2-0.1,0.3-0.3,0.3-0.6l-0.9-6.6c2.4-2,4.4-4.4,6.1-7.2c6.4-0.3,6.9,0.2,7.2-0.5
		c2.3-7.6,2.8-7.8,2.3-8.2l-5.3-4c0.3-3.2,0-6.3-0.8-9.4l4.6-4.8c0.5-0.5-0.1-0.8-3.5-7.7c-0.3-0.6-0.7-0.1-7.2,0.6
		c-2-2.4-4.4-4.4-7.2-6.1l-0.1-6.7c0-0.7-0.6-0.5-8-3c-0.7-0.2-0.6,0.4-4.6,5.5c-3.2-0.3-6.3,0-9.4,0.8l-4.8-4.6
		c-0.2-0.2-0.4-0.2-0.6-0.1l-7.1,3.6c-0.2,0.1-0.3,0.3-0.3,0.6l0.9,6.6c-2.4,2-4.4,4.4-6.1,7.2c-6.4,0.3-6.9-0.2-7.2,0.5
		c-2.3,7.6-2.8,7.8-2.3,8.2l5.3,4c-0.3,3.2,0,6.3,0.8,9.4c-4.3,4.7-5,4.8-4.7,5.4l3.6,7.1C210.8,96.9,211.2,96.4,217.6,95.6z"/>
	<g>
		<g>
			<path class="st1" d="M231.5,76.2c0.3-4.6,4.3-8.1,8.9-7.8c4.6,0.3,8.1,4.3,7.8,8.9s-4.3,8.1-8.9,7.8l0,0
				C234.7,84.7,231.2,80.8,231.5,76.2z M239.4,83.8L239.4,83.8L239.4,83.8z M234,76.3c-0.2,3.2,2.2,6,5.5,6.2l0,0
				c5.2,0.3,8.2-5.8,4.8-9.7C240.8,69,234.3,71.1,234,76.3z"/>
		</g>
		<g>
			<path class="st1" d="M198,89.2c-0.3-1.1-0.6-2.2-0.8-3.3c-0.1-0.4,0.2-0.9,0.6-1c1.1-0.2,1,1,1.8,3.8c0.1,0.4-0.1,0.9-0.6,1
				C198.6,89.9,198.1,89.6,198,89.2z"/>
			<path class="st1" d="M196.2,74.9c0.1-2.2,0.4-4.5,0.8-6.8c0.2-1.1,1.8-0.7,1.6,0.3c-1.2,5.9-0.3,7.4-1.6,7.3
				C196.6,75.7,196.2,75.3,196.2,74.9z M201,58.7c-0.4-0.2-0.6-0.7-0.4-1.1c1-2,2.2-4,3.5-5.9c0.6-0.9,2,0.1,1.4,0.9
				c-1.3,1.8-2.4,3.7-3.3,5.7C201.7,59.1,200.9,58.7,201,58.7z M211.7,44.9c-0.1,0-0.2-0.1-0.3-0.2c-0.3-0.3-0.3-0.9,0.1-1.2
				c1.7-1.5,3.6-2.8,5.5-4c0.4-0.2,0.9-0.1,1.1,0.3c0.2,0.4,0.1,0.9-0.3,1.1c-1.9,1.1-3.6,2.4-5.3,3.9C212.3,45,211.9,45,211.7,44.9
				z M227,36.5c-0.2-0.1-0.4-0.3-0.4-0.5c-0.1-0.4,0.1-0.9,0.5-1c2.2-0.7,4.4-1.2,6.7-1.5c0.5-0.1,0.9,0.3,0.9,0.7
				c0.1,0.5-0.3,0.9-0.7,0.9c-2.2,0.3-4.3,0.8-6.4,1.4C227.3,36.6,227.1,36.6,227,36.5z M243.9,34.1c0.1-0.5,0.5-0.8,0.9-0.7
				c2.3,0.3,4.5,0.7,6.7,1.3c1.1,0.3,0.6,1.9-0.4,1.6c-2.1-0.6-4.3-1-6.4-1.2C244.1,34.9,243.8,34.5,243.9,34.1z"/>
			<path class="st1" d="M263.6,42.1c-2.5-1.7-3.6-1.9-3-2.9c0.2-0.4,0.7-0.5,1.1-0.3c1,0.6,1.9,1.2,2.9,1.8c0.4,0.3,0.5,0.8,0.2,1.2
				C264.5,42.3,264,42.4,263.6,42.1z"/>
		</g>
		<g>
			<path class="st1" d="M281.5,71.3c-0.4-3-1-4,0.1-4.2c0.4-0.1,0.9,0.2,1,0.6c0.2,1.1,0.4,2.2,0.6,3.3c0.1,0.5-0.3,0.9-0.7,0.9
				C282,72.1,281.6,71.8,281.5,71.3z"/>
			<path class="st1" d="M225.6,117.1c0.4-1.3,1.4,0,7.3,1c1.1,0.2,0.8,1.8-0.3,1.6c-2.2-0.4-4.4-0.9-6.5-1.6
				C225.7,118,225.4,117.5,225.6,117.1z M242.6,119.4c0-0.5,0.3-0.9,0.8-0.9c6-0.5,7-1.8,7.4-0.4c0.1,0.4-0.2,0.9-0.6,1
				c-2.2,0.5-4.4,0.9-6.6,1.1C243,120.2,242.6,119.9,242.6,119.4z M259.1,114.9c-0.6-1.2,1-1,5.8-4.6c0.9-0.7,1.9,0.7,1,1.3
				c-1.8,1.3-3.7,2.5-5.7,3.6C259.9,115.5,259.4,115.3,259.1,114.9z M272.6,104.3c-1.1-0.9,0.5-1.3,3.5-6.5c0.5-0.9,2-0.1,1.4,0.8
				c-1.1,1.9-2.4,3.8-3.8,5.5C273.5,104.5,273,104.5,272.6,104.3z M280.2,88.1c1.6-5.8,0.8-7.2,2.2-7c0.5,0.1,0.8,0.5,0.7,0.9
				c-0.3,2.2-0.7,4.4-1.3,6.6c-0.1,0.4-0.6,0.7-1,0.6C280.4,89,280.1,88.6,280.2,88.1z"/>
			<path class="st1" d="M216.2,113.4c-0.9-0.6-1.9-1.3-2.8-1.9c-0.4-0.3-0.4-0.8-0.2-1.2c0.7-0.9,1.4,0.1,3.8,1.7
				c0.4,0.2,0.5,0.8,0.2,1.1C217.1,113.6,216.6,113.7,216.2,113.4z"/>
		</g>
		<path class="st1" d="M229.7,94.4c-0.7-0.4-0.8-1.2-0.5-1.7c0.3-0.6,1.1-0.8,1.7-0.5c1.1,0.6,2.3,1.2,3.5,1.6
			c0.3,0,6.6,2.6,13.8-1.1c14.2-7.3,12.5-28.3-2.7-33.2c-8.8-2.8-18.1,1.4-21.9,9.6c-3.8,8.2,0.5,12.5-2.1,13.1
			c-0.7,0.2-1.3-0.3-1.5-0.9c-0.8-3.6-0.7-7.4,0.5-10.9c3.5-10.7,15-16.7,25.8-13.2c11.6,3.7,17.5,16.9,12.3,28.1
			c-4.2,9.1-14.7,14.2-24.9,10.9l0,0C232.3,95.7,231,95.1,229.7,94.4z"/>
	</g>
	<g>
		<path class="st4" d="M226.3,124.1c0-0.4-0.4-0.7-1.1-1c0.7-0.4,1.1-0.8,1.1-1.3c-0.1-1.3-4.2-2-9-1.6c-4.9,0.4-8.8,1.8-8.7,3
			c0,0.4,0.4,0.7,1.1,1c-0.7,0.4-1.1,0.8-1.1,1.3c0,0.4,0.4,0.7,1.1,1c-0.7,0.4-1.1,0.8-1.1,1.3c0,0.4,0.4,0.7,1.1,1
			c-0.7,0.4-1.1,0.8-1.1,1.3c0,0.6,0.9,1,2.2,1.3c0,0.4,0,0.9,0,1.4c0.2,2.4,2.8,4.2,6.3,4.2s6.5-2.5,6.6-4.9c0-0.6,0-1.1-0.1-1.5
			c1.7-0.6,2.7-1.2,2.6-1.9c0-0.4-0.4-0.7-1.1-1c0.7-0.4,1.1-0.8,1.1-1.3c0-0.4-0.4-0.7-1.1-1C226,124.9,226.4,124.5,226.3,124.1z"
			/>
		<g>
			
				<linearGradient id="SVGID_1_" gradientUnits="userSpaceOnUse" x1="218.7422" y1="199.5957" x2="212.5248" y2="131.0258" gradientTransform="matrix(1 0 0 -1 0 312)">
				<stop  offset="0" style="stop-color:#53D8FF"/>
				<stop  offset="1" style="stop-color:#3840F7"/>
			</linearGradient>
			<path class="st5" d="M215,131.8c-1.5,0-2.8-0.1-3.9-0.3c-0.1,0-0.1-0.1-0.1-0.1c0-0.1,0.1-0.1,0.1-0.1c1.7,0.3,4,0.4,6.5,0.2
				c2-0.2,3.9-0.5,5.4-0.9c0.1,0,0.1,0,0.1,0.1s0,0.1-0.1,0.1c-1.6,0.5-3.4,0.8-5.5,0.9C216.8,131.8,215.9,131.8,215,131.8z"/>
			
				<linearGradient id="SVGID_00000168082568807360540890000003050014775169794734_" gradientUnits="userSpaceOnUse" x1="218.9052" y1="199.5811" x2="212.6878" y2="131.0109" gradientTransform="matrix(1 0 0 -1 0 312)">
				<stop  offset="0" style="stop-color:#53D8FF"/>
				<stop  offset="1" style="stop-color:#3840F7"/>
			</linearGradient>
			<path style="fill:url(#SVGID_00000168082568807360540890000003050014775169794734_);" d="M215,129.6c-1.9,0-3.6-0.2-4.8-0.5
				c-0.1,0-0.1-0.1-0.1-0.1c0-0.1,0.1-0.1,0.1-0.1c1.7,0.5,4.4,0.6,7.3,0.4c2.8-0.2,5.5-0.8,7.1-1.5c0.1,0,0.1,0,0.2,0.1
				c0,0.1,0,0.1-0.1,0.2c-1.6,0.7-4.3,1.3-7.2,1.6C216.8,129.6,215.9,129.6,215,129.6z"/>
			
				<linearGradient id="SVGID_00000024003564869098475030000007059420854510189189_" gradientUnits="userSpaceOnUse" x1="218.6443" y1="199.6047" x2="212.4268" y2="131.0347" gradientTransform="matrix(1 0 0 -1 0 312)">
				<stop  offset="0" style="stop-color:#53D8FF"/>
				<stop  offset="1" style="stop-color:#3840F7"/>
			</linearGradient>
			<path style="fill:url(#SVGID_00000024003564869098475030000007059420854510189189_);" d="M215,127.3c-2,0-3.8-0.2-5-0.6
				c-0.1,0-0.1-0.1-0.1-0.1c0-0.1,0.1-0.1,0.1-0.1c1.7,0.6,4.5,0.7,7.6,0.5c2.8-0.2,5.5-0.8,7.1-1.5c0.1,0,0.1,0,0.2,0.1
				c0,0.1,0,0.1-0.1,0.2c-1.6,0.7-4.3,1.3-7.2,1.6C216.8,127.3,215.9,127.3,215,127.3z"/>
			
				<linearGradient id="SVGID_00000018925000733920527080000006316807072886908334_" gradientUnits="userSpaceOnUse" x1="218.8521" y1="199.5859" x2="212.6348" y2="131.0157" gradientTransform="matrix(1 0 0 -1 0 312)">
				<stop  offset="0" style="stop-color:#53D8FF"/>
				<stop  offset="1" style="stop-color:#3840F7"/>
			</linearGradient>
			<path style="fill:url(#SVGID_00000018925000733920527080000006316807072886908334_);" d="M215,125.1c-1.6,0-3.1-0.1-4.2-0.4
				c-0.1,0-0.1-0.1-0.1-0.1c0-0.1,0.1-0.1,0.1-0.1c1.7,0.4,4.2,0.5,6.8,0.3c2.8-0.2,5.5-0.8,7.1-1.5c0.1,0,0.1,0,0.2,0.1
				c0,0.1,0,0.1-0.1,0.2c-1.6,0.7-4.3,1.3-7.1,1.5C216.8,125.1,215.9,125.1,215,125.1z"/>
		</g>
		<path class="st9" d="M205.3,112.7c-0.6-2.1-1.6-4.1-3-5.8c-2.9-3.7-7.7-11.1-8.3-21.3c-0.9-14.8,12.3-22.2,24.3-21.2
			c12,1,23.8,9.9,22.5,23.7c-0.8,8.5-5.5,14.9-9.1,18.6c-2.2,2.3-3.8,5.2-4.7,8.4c-1.1,3.8-3.6,8.6-9.6,8.9
			C209.8,124.4,206.6,117.1,205.3,112.7z"/>
		
			<linearGradient id="SVGID_00000133528939714714885330000014919620357895903637_" gradientUnits="userSpaceOnUse" x1="309.1266" y1="326.5262" x2="265.9614" y2="266.308" gradientTransform="matrix(1 0 0 -1 0 312)">
			<stop  offset="0" style="stop-color:#E1473D"/>
			<stop  offset="1" style="stop-color:#E9605A"/>
		</linearGradient>
		<path style="fill:url(#SVGID_00000133528939714714885330000014919620357895903637_);" d="M219.5,121l4.2-27.3
			c0.1-0.6,0.4-0.9,0.6-0.8c0.3,0.1,0.4,0.6,0.3,1.2l0,0l-4.8,27.1c0,0.2-0.1,0.3-0.2,0.3C219.6,121.4,219.5,121.2,219.5,121z"/>
		
			<linearGradient id="SVGID_00000172404571936133152250000007815683599899817099_" gradientUnits="userSpaceOnUse" x1="303.1694" y1="330.7963" x2="260.0043" y2="270.5783" gradientTransform="matrix(1 0 0 -1 0 312)">
			<stop  offset="0" style="stop-color:#E1473D"/>
			<stop  offset="1" style="stop-color:#E9605A"/>
		</linearGradient>
		<path style="fill:url(#SVGID_00000172404571936133152250000007815683599899817099_);" d="M215.2,121.2L211,93.9
			c-0.1-0.6-0.4-0.9-0.6-0.8c-0.3,0.1-0.4,0.6-0.3,1.2l0,0l4.8,27.1c0,0.2,0.1,0.3,0.2,0.3C215.2,121.6,215.2,121.4,215.2,121.2z"/>
		<path class="st1" d="M223.7,91.4c-0.1-0.2-0.4-0.2-0.6-0.1l-2.3,1.1L220,90c0-0.1-0.1-0.2-0.3-0.3c-0.3-0.1-0.6,0-0.7,0.2l0,0
			l-1.9,3.5l-1.8-5l0,0c0-0.1-0.1-0.2-0.3-0.3c-0.3-0.2-0.7-0.1-0.9,0.2l-2.7,3.7c-0.1,0.2-0.1,0.4,0.1,0.5c0.2,0.1,0.4,0.1,0.6-0.1
			l2.4-2.6l2.1,4.7l0,0c0,0.1,0.1,0.1,0.2,0.2c0.2,0.1,0.4,0,0.6-0.1l2.1-3.3l0.8,1.7l0,0l0,0c0.1,0.2,0.4,0.2,0.6,0.1l2.8-1.3
			C223.7,91.8,223.8,91.5,223.7,91.4z"/>
		<path class="st1" d="M232,103.2c-0.1,0-0.2,0-0.3-0.1c-0.2-0.2-0.3-0.5-0.1-0.7c0.7-1,1.4-2,1.9-3c0.1-0.3,0.5-0.3,0.7-0.2
			c0.3,0.1,0.3,0.5,0.2,0.7c-0.6,1-1.3,2.1-2,3.1C232.3,103.1,232.1,103.2,232,103.2z"/>
		<path class="st1" d="M235.4,97.3c-0.1,0-0.1,0-0.2,0c-0.3-0.1-0.4-0.4-0.3-0.7c4.4-10.2,0.6-18.8,0.6-18.9c-0.1-0.3,0-0.6,0.3-0.7
			s0.6,0,0.7,0.3c0.2,0.4,4.1,9.1-0.6,19.7C235.8,97.2,235.6,97.3,235.4,97.3z"/>
	</g>
	<g>
		<g>
			<path class="st4" d="M146.7,291.5c0,0-0.7,3.7-1,7.4c-0.1,1.4,1,2.7,2.4,2.8c4.9,0.3,15.4,0.7,19.2,0.6c0.6,0,0.9-0.6,0.7-1.1
				l0,0c-0.2-0.4-0.5-0.8-0.9-1l-17.2-8.1L146.7,291.5z"/>
			
				<linearGradient id="SVGID_00000016046903434269079790000002437062083617523890_" gradientUnits="userSpaceOnUse" x1="5139.3188" y1="21.5582" x2="5144.9541" y2="21.5582" gradientTransform="matrix(1 9.500000e-03 9.500000e-03 -1 -4993.3984 264.2455)">
				<stop  offset="0" style="stop-color:#FEBBBA"/>
				<stop  offset="1" style="stop-color:#FF928E"/>
			</linearGradient>
			<path style="fill:url(#SVGID_00000016046903434269079790000002437062083617523890_);" d="M146.1,289.3l0.5,4.5c0,0,3,1.4,5.1-0.1
				l-1.2-5L146.1,289.3z"/>
			<path class="st4" d="M147.3,205.7c-0.2,1.2-1.8,58,4.1,83.5c0.1,0.4-0.1,0.8-0.5,1c-0.9,0.4-2.8,0.9-5,1c-0.7,0-1.3-0.4-1.5-1.1
				c-1.7-5.9-9.7-35.6-10.5-63.9c-0.9-31.6,0-1.1,0-1.1l0.9-19.5L147.3,205.7z"/>
			<path class="st4" d="M126.7,293.3c0,0-1.1,1.9-2.1,6.8c-0.2,0.9,0.4,1.8,1.3,1.9c1.6,0.2,4.1,0.4,6.1,0.4c0.9,0,1.6-0.8,1.5-1.7
				c-0.2-1.8-0.9-4.8-3-7.2L126.7,293.3z"/>
			
				<linearGradient id="SVGID_00000098208000213226555360000000328477510274351500_" gradientUnits="userSpaceOnUse" x1="5119.0093" y1="21.9094" x2="5123.8755" y2="21.9094" gradientTransform="matrix(1 9.500000e-03 9.500000e-03 -1 -4993.3984 264.2455)">
				<stop  offset="0" style="stop-color:#FEBBBA"/>
				<stop  offset="1" style="stop-color:#FF928E"/>
			</linearGradient>
			<path style="fill:url(#SVGID_00000098208000213226555360000000328477510274351500_);" d="M125.9,287.5l1.2,6.7
				c0,0,1.2,0.9,3.6,0.3l-0.5-7.2L125.9,287.5z"/>
			<path class="st4" d="M123.3,207.2c-5.3,29.9,0.4,74.1,2.3,82.8c0.1,0.5,0.5,0.9,1.1,1c0.9,0.2,2.4,0.3,3.9-0.1
				c0.5-0.1,0.9-0.6,0.9-1.1c0.3-7,0.3-49.8,5-66.7c0.2-0.9,0.8-1.6,1.5-2.1l9-6.3l0.8-10.3L123.3,207.2z"/>
			<g>
				<path class="st9" d="M155.5,150.7c-14.9-0.4-31.3,3.6-31.3,3.6c-4.7,25.8-1.3,55.7-1.3,55.7c11.5,3.1,24.5-1.6,24.5-1.6
					c2-10.8,11.2-41.2,11.2-41.2c7.3-0.8,13.3-2.9,18.3-5.6c-3.7-4.4-5.4-10-6.2-13.3C165.4,150,160.1,150.8,155.5,150.7z"/>
				
					<linearGradient id="SVGID_00000176043724084305676080000011143691241305846415_" gradientUnits="userSpaceOnUse" x1="5162.5322" y1="168.5842" x2="5191.3472" y2="168.5842" gradientTransform="matrix(1 9.500000e-03 9.500000e-03 -1 -4993.3984 264.2455)">
					<stop  offset="0" style="stop-color:#FEBBBA"/>
					<stop  offset="1" style="stop-color:#FF928E"/>
				</linearGradient>
				<path style="fill:url(#SVGID_00000176043724084305676080000011143691241305846415_);" d="M199.7,129.2c-1.4-1.8-3.3-1-3.3-1
					c-2.3,9.2-13.8,16.6-25.7,20.2c0.7,3.3,2.5,8.9,6.2,13.3C196.6,150.8,199.7,129.2,199.7,129.2z"/>
			</g>
			<g>
				
					<linearGradient id="SVGID_00000040565756295546517510000011136110099309884803_" gradientUnits="userSpaceOnUse" x1="1952.3929" y1="174.3822" x2="1971.7118" y2="130.4274" gradientTransform="matrix(-1 -9.500000e-03 9.500000e-03 -1 2143.8027 332.9815)">
					<stop  offset="0" style="stop-color:#FEBBBA"/>
					<stop  offset="1" style="stop-color:#FF928E"/>
				</linearGradient>
				<path style="fill:url(#SVGID_00000040565756295546517510000011136110099309884803_);" d="M199.3,129.6c0.1,0.5-1.6,1.2-2.7-0.8
					c0-1-0.6-5,0-5.8c3.1-4.1,9-9.2,9-9.2c1,1,0.2,1.9,0.2,1.9l-2.9,2.9c0.6,1.1,1.3,2,1.6,3.3c0.2,1,0.1,2-0.4,2.9s-1.2,2.1-1.9,3
					C201,129.6,199.3,129.6,199.3,129.6z"/>
				
					<linearGradient id="SVGID_00000124847790691691829140000018388168435868413337_" gradientUnits="userSpaceOnUse" x1="5191.231" y1="188.0138" x2="5199.292" y2="200.4078" gradientTransform="matrix(1 9.500000e-03 9.500000e-03 -1 -4993.3984 264.2455)">
					<stop  offset="0" style="stop-color:#FEBBBA"/>
					<stop  offset="1" style="stop-color:#FF928E"/>
				</linearGradient>
				<path style="fill:url(#SVGID_00000124847790691691829140000018388168435868413337_);" d="M201.7,120.6l-2.6,2.2l-0.8,2.2
					l2.3,2.6c0,0,0.8-4.3,1.4-5.3C202.5,121.3,202.2,120.9,201.7,120.6z"/>
			</g>
			<path class="st9" d="M129.7,168.8l-5.6-14.5c0,0-14,9.3-16.4,21.3c2.6,0.2,7.4,0.9,12.1,3.4C120.9,173.3,129.7,168.8,129.7,168.8
				z"/>
			
				<linearGradient id="SVGID_00000053507103415259664550000003475817016469818001_" gradientUnits="userSpaceOnUse" x1="5099.4893" y1="127.7603" x2="5135.8955" y2="127.7603" gradientTransform="matrix(1 9.500000e-03 9.500000e-03 -1 -4993.3984 264.2455)">
				<stop  offset="0" style="stop-color:#FEBBBA"/>
				<stop  offset="1" style="stop-color:#FF928E"/>
			</linearGradient>
			<path style="fill:url(#SVGID_00000053507103415259664550000003475817016469818001_);" d="M141.7,182.5c0,0-15.7,8.7-20.9,1.1
				c-1.1-1.6-1.3-3.1-1-4.6c-4.7-2.4-9.4-3.1-12.1-3.4c-0.7,3.6-0.4,7.4,1.7,11.4c9.1,17,34.3-0.6,34.3-0.6L141.7,182.5z"/>
			
				<linearGradient id="SVGID_00000071551590418285306010000007578541001146395286_" gradientUnits="userSpaceOnUse" x1="5127.4917" y1="166.7214" x2="5141.8999" y2="166.7214" gradientTransform="matrix(1 9.500000e-03 9.500000e-03 -1 -4993.3984 264.2455)">
				<stop  offset="0" style="stop-color:#FEBBBA"/>
				<stop  offset="1" style="stop-color:#FF928E"/>
			</linearGradient>
			<path style="fill:url(#SVGID_00000071551590418285306010000007578541001146395286_);" d="M140.5,138.5l-4.9,13.7
				c-0.1,0.2,0,0.5,0.2,0.6c1.3,0.7,5.9,2.8,11.6-0.7c0.6-0.4,1-1,1.1-1.6l1.6-11.8L140.5,138.5z"/>
			<g>
				
					<linearGradient id="SVGID_00000065068267211010434400000006773212874828934294_" gradientUnits="userSpaceOnUse" x1="-2186.7981" y1="-1063.3165" x2="-2192.1814" y2="-1045.5619" gradientTransform="matrix(0.7523 -0.6588 -0.6588 -0.7523 1098.2039 -2103.385)">
					<stop  offset="0" style="stop-color:#FEBBBA"/>
					<stop  offset="1" style="stop-color:#FF928E"/>
				</linearGradient>
				<path style="fill:url(#SVGID_00000065068267211010434400000006773212874828934294_);" d="M150.9,125.9c0,0,5.1,9.8,4.4,13.8
					c-0.7,3.9-7.1,3.6-12.7,0.3l-3.8-10.6L150.9,125.9z"/>
				<path class="st4" d="M142.9,134.8c0.2-0.1,0.3-0.4,0.2-0.6c-0.4-0.6-1.2-1.9-1.4-3.1c0,0-0.9-0.6,2.4-1.4
					c3.3-0.8,8.3-1.9,9.3-4.8c1-2.7-1.6-9.7-5.9-4.2c-0.2,0.2-0.5,0.2-0.6,0c-0.7-0.9-2.5-2.8-5.1-1.7c-2.4,1-2.7,2.8-2.6,3.7
					c0,0.3-0.2,0.5-0.5,0.4c-1.2-0.2-4.1-0.5-5.5,2.5c-1.1,2.4-0.4,3.8,0.2,4.5c0.2,0.2,0.1,0.6-0.2,0.7c-0.8,0.2-1.8,0.9-1.7,2.7
					c0.1,2.6,3,2.4,3.8,2.3c0.1,0,0.3,0,0.4,0.1c0.7,0.8,3.8,4.1,7.2,4.5c0.3,0,0.5-0.3,0.4-0.5l-1.4-4.3c-0.1-0.2,0-0.4,0.2-0.5
					L142.9,134.8z"/>
				
					<linearGradient id="SVGID_00000171693445504445554890000003327534917107864754_" gradientUnits="userSpaceOnUse" x1="-2192.2678" y1="-1063.2236" x2="-2197.1108" y2="-1047.2494" gradientTransform="matrix(0.7523 -0.6588 -0.6588 -0.7523 1098.2039 -2103.385)">
					<stop  offset="0" style="stop-color:#FEBBBA"/>
					<stop  offset="1" style="stop-color:#FF928E"/>
				</linearGradient>
				<path style="fill:url(#SVGID_00000171693445504445554890000003327534917107864754_);" d="M143.5,135.4c0,0-3.7-2.6-4-0.4
					c-0.3,2.1,3.3,3.1,5.1,2.4L143.5,135.4z"/>
			</g>
			<g>
				<g>
					<path class="st4" d="M138.5,196.2l8.5-29.9c0.1-0.3,0.4-0.6,0.7-0.6c1.5-0.2,6-0.7,11.2-1.1c6.2-0.5,13.5-1,17.8-0.6
						c0.6,0.1,1,0.7,0.7,1.3c-2.5,5-12.6,25.3-17.7,31.9c-0.2,0.2-0.4,0.3-0.7,0.3l-19.8-0.2C138.8,197.3,138.4,196.7,138.5,196.2z"
						/>
					
						<linearGradient id="SVGID_00000145758008868130978100000005431559411748361604_" gradientUnits="userSpaceOnUse" x1="4845.4194" y1="128.156" x2="4856.8101" y2="128.156" gradientTransform="matrix(1 0 0 -1 -4705.6621 312)">
						<stop  offset="0" style="stop-color:#FEBBBA"/>
						<stop  offset="1" style="stop-color:#FF928E"/>
					</linearGradient>
					<path style="fill:url(#SVGID_00000145758008868130978100000005431559411748361604_);" d="M140.6,188.9c0,0-1.2-4.9-0.7-6.6
						c0.5-1.7,1.4-4,4.5-3.5s6.8,1.8,6.8,1.8s-0.2,2.3-2.5,1.5l1.5,1.1c0,0-0.2,1.8-2.2,0.8l1.4,1.5c0,0-0.9,1.5-2.3,0.5
						C145.4,185.2,144.7,189.5,140.6,188.9z"/>
				</g>
				<path class="st22" d="M158.5,173.5c0,1.4,1.1,2.5,2.5,2.5s2.5-1.1,2.5-2.5s-1.1-2.5-2.5-2.5S158.5,172.1,158.5,173.5z"/>
				<path class="st22" d="M148,175.1l-0.6-0.2l1.7-5.9c0.3-1,1.1-1.7,2-1.9c5.5-1.2,20-1.4,20.7-1.4v0.7c-0.2,0-15.1,0.2-20.5,1.4
					c-0.7,0.2-1.3,0.7-1.5,1.4L148,175.1z"/>
			</g>
		</g>
		<g>
			<path class="st23" d="M46.8,258.7c-0.9,1.3-4.5,31.9-5.1,43.2c0,0.8,0.6,1.4,1.3,1.4l0,0c0.7,0,1.2-0.5,1.3-1.1l6.6-42.5
				L46.8,258.7z"/>
			<path class="st23" d="M76,258.7c0.9,1.3,4.5,31.9,5.1,43.2c0,0.8-0.6,1.4-1.3,1.4l0,0c-0.7,0-1.2-0.5-1.3-1.1l-6.6-42.5L76,258.7
				z"/>
			<path class="st23" d="M41.4,256.3v0.3c0,2.4,2,4.4,4.6,4.4l30.6,0.5c2.5,0,4.7-1.8,4.8-4.2V257c0.1-2.5-2-4.5-4.6-4.6L46.2,252
				C43.6,251.9,41.4,253.9,41.4,256.3z"/>
		</g>
		<g>
			<g>
				<path class="st22" d="M105.9,300.7c-5.4,0-7.9-0.5-8.9-0.9c0.2,0.9,1,1.6,2,1.6h19.3c0.6,0,1.1-0.6,0.9-1.2
					C116.9,300.4,112.3,300.7,105.9,300.7z"/>
				<path class="st24" d="M119.1,300.3c0-0.1-0.1-0.2-0.2-0.3c-1.5-1.9-4.4-4.8-8.4-4.8c-5.9,0.1-7.9,0.7-12.5,0l-1.1,3.6
					c-0.1,0.4-0.1,0.7,0,1.1c1.1,0.4,3.5,0.9,8.9,0.9C112.3,300.7,116.9,300.4,119.1,300.3z"/>
			</g>
			
				<linearGradient id="SVGID_00000116956246349654643860000016374726163676513973_" gradientUnits="userSpaceOnUse" x1="98.0589" y1="18.011" x2="104.0671" y2="18.011" gradientTransform="matrix(1 0 0 -1 0 312)">
				<stop  offset="0" style="stop-color:#FEBBBA"/>
				<stop  offset="1" style="stop-color:#FF928E"/>
			</linearGradient>
			<path style="fill:url(#SVGID_00000116956246349654643860000016374726163676513973_);" d="M99.4,291.4l-1.3,4.5
				c0,0,2.9,1.3,5.5,0.3l0.5-3.9L99.4,291.4z"/>
			<g>
				<path class="st22" d="M139.3,297.9c-4.2,3.4-6.4,4.6-7.5,4.9c0.7,0.6,1.8,0.6,2.6,0l15-12.1c0.5-0.4,0.4-1.1,0-1.5
					C147.7,290.7,144.3,293.9,139.3,297.9z"/>
				<path class="st24" d="M149.3,289.2c-0.1-0.1-0.2-0.1-0.3-0.2c-2.3-0.5-6.4-1-9.5,1.6c-4.5,3.7-5.7,5.5-9.7,7.8l1.4,3.4
					c0.1,0.4,0.4,0.6,0.6,0.8c1.1-0.3,3.3-1.5,7.5-4.9C144.3,293.9,147.7,290.7,149.3,289.2z"/>
			</g>
			<path class="st4" d="M71.1,240.2c0,0,32.6,2.7,39.3,5.8s-5.5,47.3-5.5,47.3s-1.8,0.9-5.9-0.4c0,0,4.2-32.6,1.1-39.6l-35.3-5.8
				L71.1,240.2z"/>
			
				<linearGradient id="SVGID_00000130610530114577547910000006723325092381887618_" gradientUnits="userSpaceOnUse" x1="126.5167" y1="17.55" x2="133.6897" y2="17.55" gradientTransform="matrix(1 0 0 -1 0 312)">
				<stop  offset="0" style="stop-color:#FEBBBA"/>
				<stop  offset="1" style="stop-color:#FF928E"/>
			</linearGradient>
			<path style="fill:url(#SVGID_00000130610530114577547910000006723325092381887618_);" d="M126.5,292.3c0.3,0.3,3.2,6.2,3.2,6.2
				s3.3-0.7,3.9-2.8l-2.9-5.3L126.5,292.3z"/>
			<path class="st4" d="M51.5,239.9c0,0-1.1,2.6-1,6c0.1,4.7,3.8,8.5,8.5,8.7l38.5,1.8c0.8,0,1.5,0.6,1.7,1.4
				c0.9,3.5,5.3,14.3,27,35.7c0.6,0.6,1.5,0.7,2.2,0.2l3.1-1.9c0.3-0.2,0.4-0.6,0.2-1l-22.4-38.3c-1.2-1.9-3.1-3.3-5.3-3.9
				l-32.8-8.4L51.5,239.9z"/>
			
				<linearGradient id="SVGID_00000005255577598747113760000010941645061220211844_" gradientUnits="userSpaceOnUse" x1="86.7129" y1="118.6129" x2="90.2492" y2="127.5307" gradientTransform="matrix(1 0 0 -1 0 312)">
				<stop  offset="0" style="stop-color:#FEBBBA"/>
				<stop  offset="1" style="stop-color:#FF928E"/>
			</linearGradient>
			<path style="fill:url(#SVGID_00000005255577598747113760000010941645061220211844_);" d="M89.5,180c0,0-4.1,7.3-8.3,10.8l8.7,4.9
				c0,0,2-7.7,6.4-10L89.5,180z"/>
			<path class="st24" d="M50.8,240.2c0,0,10.4,2.5,20.3,0c0,0,13.9-18.7,19.3-23.8c0,0,8.6,13.5,27.7,15.4l1.1-2.4
				c0,0-15.2-7-19.9-17.8c-4.7-10.8-6.6-15.3-10.8-18.2c-2.6-1.7-4.2-2.9-5.1-3.6c-0.4-0.4-1.1-0.4-1.6-0.1
				C77.3,192.6,56,207.1,50.8,240.2z"/>
			<path class="st4" d="M89.8,216.1c-0.2,0-0.4-0.1-0.5-0.3c-3.3-4.3-5.2-9.1-5.2-9.3c-0.1-0.3,0-0.7,0.4-0.9c0.3-0.1,0.7,0,0.9,0.4
				c0,0,1.9,4.8,5,8.9c0.2,0.3,0.2,0.7-0.1,0.9C90.1,216.1,90,216.1,89.8,216.1z"/>
			
				<linearGradient id="SVGID_00000063630094715322695460000003193783948146956435_" gradientUnits="userSpaceOnUse" x1="116.9" y1="83.9892" x2="133.4687" y2="83.9892" gradientTransform="matrix(1 0 0 -1 0 312)">
				<stop  offset="0" style="stop-color:#FEBBBA"/>
				<stop  offset="1" style="stop-color:#FF928E"/>
			</linearGradient>
			<path style="fill:url(#SVGID_00000063630094715322695460000003193783948146956435_);" d="M116.9,228.2l2.1-0.6l6.5-1.5
				c0.8-0.2,1.6,0,2.3,0.4l5.6,3.5h-15.5L116.9,228.2z"/>
			<g>
				
					<linearGradient id="SVGID_00000175310650100801527920000001347804366796708227_" gradientUnits="userSpaceOnUse" x1="2005.2554" y1="-423.8892" x2="1987.4996" y2="-437.475" gradientTransform="matrix(0.9914 -0.1306 -0.1306 -0.9914 -1945.877 16.9006)">
					<stop  offset="0" style="stop-color:#FEBBBA"/>
					<stop  offset="1" style="stop-color:#FF928E"/>
				</linearGradient>
				<path style="fill:url(#SVGID_00000175310650100801527920000001347804366796708227_);" d="M96,169.1c0,0,4,6.7,4.7,10.4
					s1.8,6-2.4,7.3c-4.2,1.3-8.1-0.3-10.5-3.8c0,0-3.8-5.3-3.4-7.7C84.7,172.8,96,169.1,96,169.1z"/>
				<path class="st4" d="M88.9,180.1l0.5-0.1c0,0-2.8-4.3-1-5.4c1.9-1.1,9.4-3.7,10.7-6.7c1.3-2.9-0.6-6.1-2.9-6.8
					c-0.1,0-0.3,0-0.3,0.2l-0.1,0.4c-0.1,0.2-0.4,0.3-0.5,0l0,0c-0.1-0.2-0.4-0.2-0.5,0c-0.4,0.9-1.6,2.4-5.3,3.6
					c-5.2,1.7-8.4,4.3-8,8c0,0.2-0.2,0.4-0.4,0.3c-0.4-0.2-1.1-0.2-1.8,0.6c-1.3,1.4-0.3,4.5,3.3,6.7c0.2,0.1,0.2,0.3,0,0.5
					c-0.5,0.5-1.3,1.5,1.1,2.4s3.8,0.6,4.3,0.4c0.1-0.1,0.2-0.2,0.2-0.3l-0.6-3.2c0-0.2,0.1-0.3,0.3-0.3L88.9,180.1z"/>
				
					<linearGradient id="SVGID_00000146482243008352350750000007699060615976786601_" gradientUnits="userSpaceOnUse" x1="2003.0685" y1="-421.0313" x2="1985.3129" y2="-434.6169" gradientTransform="matrix(0.9914 -0.1306 -0.1306 -0.9914 -1945.877 16.9006)">
					<stop  offset="0" style="stop-color:#FEBBBA"/>
					<stop  offset="1" style="stop-color:#FF928E"/>
				</linearGradient>
				<path style="fill:url(#SVGID_00000146482243008352350750000007699060615976786601_);" d="M89.1,180.8c0,0-1.8-4.4-3.6-2.8
					c-1.9,1.5,1.7,4.9,3.4,4.9L89.1,180.8z"/>
			</g>
		</g>
		<g>
			<g>
				<path class="st4" d="M110.9,233.1C110.9,233.1,111,233.1,110.9,233.1h33.2c0.8,0,1.5-0.7,1.5-1.5s-0.7-1.5-1.5-1.5H111
					c-0.8,0-1.5,0.7-1.5,1.5C109.5,232.4,110.1,233,110.9,233.1z"/>
			</g>
			<g>
				<path class="st4" d="M156.9,200.7C156.9,200.7,156.8,200.7,156.9,200.7l-14,30.1c-0.3,0.7,0,1.6,0.7,2c0.7,0.3,1.6,0,2-0.7
					l13.9-30c0.3-0.7,0-1.6-0.7-2C158.1,199.7,157.2,200,156.9,200.7z"/>
			</g>
		</g>
		<g>
			<g>
				<rect x="240" y="263.2" class="st23" width="3.5" height="37.8"/>
				<path class="st23" d="M257,301.7h-30.6l0,0c0-1.3,1-2.3,2.3-2.3h26C256,299.5,257,300.5,257,301.7L257,301.7z"/>
				<path class="st23" d="M261.6,261.9c0,2.1-1.7,3.8-3.8,3.8h-30.9c-2.1,0-3.8-1.7-3.8-3.8v-3.4c0-2.1,1.7-3.8,3.8-3.8h30.9
					c2.1,0,3.8,1.7,3.8,3.8V261.9z"/>
			</g>
			<g>
				
					<linearGradient id="SVGID_00000072257529037509474180000009493963636637799092_" gradientUnits="userSpaceOnUse" x1="177.6106" y1="-101.3516" x2="221.8954" y2="75.7881" gradientTransform="matrix(1 0 0 -1 0 312)">
					<stop  offset="0" style="stop-color:#FEBBBA"/>
					<stop  offset="1" style="stop-color:#FF928E"/>
				</linearGradient>
				<path style="fill:url(#SVGID_00000072257529037509474180000009493963636637799092_);" d="M216,238.1c0,0-5.2,0.8-11,4.7
					c-0.9,0.6-1.4,1.7-1.3,2.8c0.7,5.5,3.6,23.4,13,40.9c0.5,0.9,0.6,2,0.4,3l-1.6,7.7l-3.1,2.9h7.9l5.2-14.2l-2.2-0.7
					c-1.7-0.5-2.9-2.1-3-4L220,266c0.2-6.8-4.1-11.4-4.1-11.4l12.6-0.6L216,238.1z"/>
				<path class="st4" d="M209.4,301.4c-0.7,0.9,7.7,2.2,12,0.1c0,0,5.9-10.3,5.9-15.5c0,0-0.5-1.1-3.9-0.8c0,0-2,12.1-4.1,13.5
					s-5.8,0.1-5.8,0.1S210.4,300,209.4,301.4z"/>
				
					<linearGradient id="SVGID_00000031910646086793452590000006808804549060544679_" gradientUnits="userSpaceOnUse" x1="199.167" y1="10.6862" x2="208.0239" y2="142.8027" gradientTransform="matrix(1 0 0 -1 0 312)">
					<stop  offset="0" style="stop-color:#FEBBBA"/>
					<stop  offset="1" style="stop-color:#FF928E"/>
				</linearGradient>
				<path style="fill:url(#SVGID_00000031910646086793452590000006808804549060544679_);" d="M226.9,254.8
					c-0.1-0.1-13.5-1.6-13.5-1.6s0.4,4.1-0.9,9.7c-1.4,5.6-21.1,30-21.1,30l2.1,6.6c-6.4,2.2-12.7,2.6-18.9,1.1l12.8-7.7
					c0,0,12-40.9,19.4-48.2l13.5-4.7L226.9,254.8z"/>
				<path class="st4" d="M257,231c0,0,7.7,11.5,8.4,16.8c0.6,5.3-2.1,7.4-10.3,7.7c-8.1,0.4-29.8,0.3-29.8,0.3L206.8,240
					c0,0,13.5-4.8,17-6.2C227.3,232.5,257,231,257,231z"/>
				<path class="st4" d="M192.6,297.3c0,0,2.2,2.2,0.7,4.6c0,0-17.7,3.1-22.4,1.7c0,0,1-2.3,6.4-4.9l-0.4,0.3
					c-0.5,0.4-0.2,1.2,0.4,1.2C180.9,299.9,188.2,299.3,192.6,297.3z"/>
			</g>
			<g>
				<path class="st4" d="M223.5,157.9c15.8-2.7,23.3,10.2,22.7,12.9c-0.1,0.4,0.3,0.7,0.6,0.6c1.8-0.5,5.8-1.1,8.3,2
					c2.2,2.8,0.6,5.4-0.8,6.8c-0.3,0.3-0.1,0.9,0.4,0.8c3.3-0.4,10.6-0.5,11.8,6.3c1.1,6.3-3.3,8.1-5.9,8.6
					c-0.4,0.1-0.5,0.7-0.2,0.9c1.3,0.8,2.8,2.5,2.2,5.9c-1,5.3-11.3,4.9-12.6,4.8c-0.1,0-0.1,0-0.2-0.1l-16.6-9.5
					c-0.1-0.1-0.2-0.2-0.2-0.3l-3.4-19.4c0-0.2,0-0.3,0.1-0.4L219,162.6C215,162,223.3,157.9,223.5,157.9z"/>
				<path class="st24" d="M236.1,229.5c0,0-9-8.6-13.5-14.3c-2.4-3.1-3.2-7.1-2-10.9c2-6.8,5.6-13.9,6-15c0.5-1.7,10.6-1.6,10.6-1.6
					s19.9,12.9,27.7,34.8l-8.8,2.7c0,0-5.2-8.7-10.3-14.3c0,0,8.9,11.7,9.2,16.5L236.1,229.5z"/>
				
					<linearGradient id="SVGID_00000139292766714089500390000007939298108746535317_" gradientUnits="userSpaceOnUse" x1="233.8509" y1="109.8071" x2="230.3146" y2="132.4983" gradientTransform="matrix(1 0 0 -1 0 312)">
					<stop  offset="0" style="stop-color:#FEBBBA"/>
					<stop  offset="1" style="stop-color:#FF928E"/>
				</linearGradient>
				<path style="fill:url(#SVGID_00000139292766714089500390000007939298108746535317_);" d="M225.3,179.9c0.1,0.4,2.7,9.1,3,9.3
					c0.2,0.2,5.8,0.5,8.4-1.3l-6.5-12.8L225.3,179.9z"/>
				<g>
					
						<linearGradient id="SVGID_00000151501702480155542640000010562433136473814968_" gradientUnits="userSpaceOnUse" x1="-1966.1716" y1="-3644.3496" x2="-1943.0249" y2="-3660.0718" gradientTransform="matrix(0.6042 -0.7968 -0.7968 -0.6042 -1501.2242 -3590.4346)">
						<stop  offset="0" style="stop-color:#FEBBBA"/>
						<stop  offset="1" style="stop-color:#FF928E"/>
					</linearGradient>
					<path style="fill:url(#SVGID_00000151501702480155542640000010562433136473814968_);" d="M214.7,168.6c0,0-1.3,5,2.3,11.8
						c3.5,6.7,7.5,6.7,9.7,4.6c2.2-2.2,4.9-5.8,4.2-12.3C230.3,166.1,216.6,162.2,214.7,168.6z"/>
					<path class="st4" d="M226.1,173c0,0-5.9-9-11.3-1.9l-0.1,2.6c0,0-6.4-0.8-5.3-6.7c1.1-5.9,6.7-9.6,13.8-7
						c7.2,2.6,11.3,5.2,11.7,10.3c0.5,5.1-3.6,4-3.6,4s-1.3-3.6-3.2-4s-1.4,2.4-1.4,2.4L226.1,173z"/>
					
						<linearGradient id="SVGID_00000021808004343016305340000009831446150716769410_" gradientUnits="userSpaceOnUse" x1="-1964.8201" y1="-3642.3596" x2="-1941.6735" y2="-3658.0818" gradientTransform="matrix(0.6042 -0.7968 -0.7968 -0.6042 -1501.2242 -3590.4346)">
						<stop  offset="0" style="stop-color:#FEBBBA"/>
						<stop  offset="1" style="stop-color:#FF928E"/>
					</linearGradient>
					<path style="fill:url(#SVGID_00000021808004343016305340000009831446150716769410_);" d="M227.6,172.9c0,0-3-4.6,0.1-5.3
						s2.6,4.5,2.3,6.4L227.6,172.9z"/>
				</g>
				
					<linearGradient id="SVGID_00000129188315484170952430000017123896508472384410_" gradientUnits="userSpaceOnUse" x1="248.384" y1="84.0404" x2="297.5959" y2="84.0404" gradientTransform="matrix(1 0 0 -1 0 312)">
					<stop  offset="0" style="stop-color:#FEBBBA"/>
					<stop  offset="1" style="stop-color:#FF928E"/>
				</linearGradient>
				<path style="fill:url(#SVGID_00000129188315484170952430000017123896508472384410_);" d="M217.7,230.1l6.6-6.4l9.2,3.9
					c0,0,9.1,1.4,14.4,0c5.2-1.4,5.2-1.4,5.2-1.4l11.8-3.7l1.9,5.2c0.5,1.3,0,2.8-1.2,3.6c-1,0.7-2.2,1.5-3,1.9
					c-1.6,0.7-38.3-0.5-38.3-0.5L217.7,230.1z"/>
			</g>
			<g>
				<path class="st4" d="M242.8,233.1C242.8,233.1,242.7,233.1,242.8,233.1h-38.5c-1,0-1.7-0.8-1.7-1.7c0-1,0.8-1.7,1.7-1.7h38.4
					c1,0,1.7,0.8,1.7,1.7C244.4,232.3,243.7,233.1,242.8,233.1z"/>
				<path class="st4" d="M169.7,198.2h32c2.4,0,4.5,1.4,5.5,3.5l14.8,31.4h-39.8c-1.5,0-2.9-0.9-3.4-2.3l-11.5-29
					C166.7,200,167.9,198.2,169.7,198.2z"/>
				<path class="st23" d="M192.3,214.3c0.7,2.2,0.2,4.2-1.1,4.7c-1.3,0.4-3-1-3.7-3.1c-0.7-2.2-0.2-4.2,1.1-4.7
					C189.9,210.7,191.6,212.1,192.3,214.3z"/>
			</g>
		</g>
		<g>
			<g>
				<path class="st4" d="M286.6,297c0,0,0.4,2.2,0.6,4.9c0.1,1.1-0.8,2.1-1.9,2.2c-3.9,0.4-12.9,1.1-18.6,0.3
					c-0.8-0.1-1.1-1.1-0.5-1.7c2.4-2.2,8.1-6.5,17.4-7.4L286.6,297z"/>
				
					<linearGradient id="SVGID_00000123403187460147313860000013500129724924759713_" gradientUnits="userSpaceOnUse" x1="-10313.2939" y1="12.8708" x2="-10315.0791" y2="26.8276" gradientTransform="matrix(-1 0 0 -1 -10028.8047 312)">
					<stop  offset="0" style="stop-color:#FEBBBA"/>
					<stop  offset="1" style="stop-color:#FF928E"/>
				</linearGradient>
				<path style="fill:url(#SVGID_00000123403187460147313860000013500129724924759713_);" d="M288.6,291.9l-2,4.9
					c-0.3,0.7-1,1.1-1.7,1c-0.5-0.1-1.1-0.1-1.6-0.3c-1.1-0.3-1.8-1.5-1.4-2.7l1.5-5L288.6,291.9z"/>
				<path class="st4" d="M322.6,300.9c0,0-4,3.3-5.5,7.6c-0.4,1.2,0.5,2.4,1.7,2.4h8.2c1.2,0,2.1-1.1,1.9-2.3
					C328.4,305.7,326.9,300.9,322.6,300.9z"/>
				
					<linearGradient id="SVGID_00000106850454111960306570000004042268579620789412_" gradientUnits="userSpaceOnUse" x1="-10352.2686" y1="8.0928" x2="-10354.0088" y2="21.6934" gradientTransform="matrix(-1 0 0 -1 -10028.8047 312)">
					<stop  offset="0" style="stop-color:#FEBBBA"/>
					<stop  offset="1" style="stop-color:#FF928E"/>
				</linearGradient>
				<path style="fill:url(#SVGID_00000106850454111960306570000004042268579620789412_);" d="M327.5,296.5c0,0-0.8,3.6-1.4,5.9
					c-0.1,0.4-0.6,0.7-1,0.5c-1.2-0.4-2.3-0.6-3-0.5c-0.3,0-0.6-0.2-0.6-0.6l-0.1-5.9L327.5,296.5z"/>
				<path class="st4" d="M306.4,216.4l-24.2,73.9c0,0,4.6,3,6.9,2.9l28.8-59.4c0,0,5,36.6,2.6,62.9l8.2,0.6c0,0,13.4-67.2,3.3-90.2
					L306.4,216.4z"/>
				<path class="st24" d="M317.6,233.2L317.6,233.2c0.2,0,0.2-0.1,0.2-0.3l-0.9-7.5c0-0.1-0.1-0.2-0.3-0.2c-0.1,0-0.2,0.1-0.2,0.3
					l0.9,7.5C317.4,233.1,317.5,233.2,317.6,233.2z"/>
			</g>
			<path class="st24" d="M301.8,151.3c0,0,19.6,1.7,16.9,15.7c0,0,10.9,20.4,15.9,44.5c0.2,0.8-0.4,1.5-1.1,1.7l-32.7,5.6
				c-0.9,0.2-1.8-0.4-2-1.3l-7.8-30.2l-3,14l-9.7-2.5l8.1-41.3C286.4,157.6,287.5,151.6,301.8,151.3z"/>
			<path class="st22" d="M290.8,186L290.8,186c0.2,0,0.3-0.2,0.2-0.3l-2.7-12.5c0-0.1-0.2-0.2-0.3-0.2c-0.1,0-0.2,0.2-0.2,0.3
				l2.7,12.5C290.6,185.9,290.7,186,290.8,186z"/>
			
				<linearGradient id="SVGID_00000165201272809053308210000017945013385786401155_" gradientUnits="userSpaceOnUse" x1="-10339.1602" y1="97.4" x2="-10314.7598" y2="97.4" gradientTransform="matrix(-1 0 0 -1 -10028.8047 312)">
				<stop  offset="0" style="stop-color:#FEBBBA"/>
				<stop  offset="1" style="stop-color:#FF928E"/>
			</linearGradient>
			<path style="fill:url(#SVGID_00000165201272809053308210000017945013385786401155_);" d="M292.7,223.2c1-0.6,2.2-0.7,3.4-0.4
				l2.3,0.6c0.5,0.1,1-0.2,1-0.7l2.4-21c2.9,1.4,7.2,1.2,8.6,1.1l-5.4,24.7h-19L292.7,223.2z"/>
			
				<linearGradient id="SVGID_00000080885880832658807410000000008618818318719144_" gradientUnits="userSpaceOnUse" x1="-10316.6914" y1="127.8958" x2="-10271.1602" y2="127.8958" gradientTransform="matrix(-1 0 0 -1 -10028.8047 312)">
				<stop  offset="0" style="stop-color:#FEBBBA"/>
				<stop  offset="1" style="stop-color:#FF928E"/>
			</linearGradient>
			<path style="fill:url(#SVGID_00000080885880832658807410000000008618818318719144_);" d="M242.4,177.8l0.6-1.9
				c0.3-1.1,1.1-2,2.2-2.4l10.4-4.2c0,0,0.2-1.3-2.2-2.2c-2.3-0.9-1.8-3.5-1.8-3.5s3.2,1.5,7.9,3.8c2.7,1.3,4.2,3.7,5,5.4l23.5,28.6
				l-2.8,1.9c-3.6,2.5-8.6,1.3-10.7-2.6l-12.7-24.4C255.3,178.1,248.9,178.5,242.4,177.8z"/>
			<g>
				
					<linearGradient id="SVGID_00000096036347261733148290000000545672458466542235_" gradientUnits="userSpaceOnUse" x1="-10333.0508" y1="153.4822" x2="-10317.2041" y2="169.7397" gradientTransform="matrix(-1 0 0 -1 -10028.8047 312)">
					<stop  offset="0" style="stop-color:#FEBBBA"/>
					<stop  offset="1" style="stop-color:#FF928E"/>
				</linearGradient>
				<path style="fill:url(#SVGID_00000096036347261733148290000000545672458466542235_);" d="M295.4,137.9l6,16.9
					c0,0-5.3,4.2-9.3,2.8l-3-9.7C289.2,147.9,291.5,136.1,295.4,137.9z"/>
				<g>
					
						<linearGradient id="SVGID_00000017517629568568028560000005601766240194858395_" gradientUnits="userSpaceOnUse" x1="-10310.0645" y1="179.9859" x2="-10329.8203" y2="153.8505" gradientTransform="matrix(-1 0 0 -1 -10028.8047 312)">
						<stop  offset="0" style="stop-color:#FEBBBA"/>
						<stop  offset="1" style="stop-color:#FF928E"/>
					</linearGradient>
					<path style="fill:url(#SVGID_00000017517629568568028560000005601766240194858395_);" d="M277.4,131.9c0,0.3,5.8,16.5,5.8,16.5
						l9.2-3.5l-3.2-16.2C289.2,128.6,277.4,127.5,277.4,131.9z"/>
					<path class="st4" d="M287.6,132.6l2.4,8.4c0,0.1,0,0.2,0,0.3c0,0.7-0.2,3-2.6,2.7c-2.2-0.3-4.2-0.5-5.4,0.1
						c-0.6,0.3-0.8,0.9-0.6,1.5c0.5,1.5,1.8,4.8,3.3,7.5c0.3,0.5,1,0.8,1.6,0.5c1.7-0.8,5.3-2.5,7.9-4.6c0.3-0.3,0.5-0.7,0.4-1.2
						c-0.4-2.1-1.6-8.7-1.7-10.5c0-1.8,1.9-3.1,2.8-3.6c0.3-0.2,0.5-0.4,0.6-0.8c0.3-1.1,0.5-3.7-2.8-4.2c-0.7-0.1-1.1-0.8-1-1.4
						c0.3-1.4,0.2-3.3-2.4-4.1c-2.6-0.7-4.2,0.8-5.1,2c-0.3,0.5-1,0.6-1.5,0.4c-0.3-0.1-0.7-0.1-1.1,0.2c-0.5,0.5-1.4,0.3-1.8-0.3
						c-0.8-1.1-2.1-2.2-4.5-1.5c-4.1,1.3-4,6.1-2.4,8.7c1.5,2.6,5.9,0.9,8-0.8c1.6-1.3,4-0.5,5.1-0.1
						C287.2,131.9,287.5,132.2,287.6,132.6z"/>
					
						<linearGradient id="SVGID_00000111910844547391242580000006074168760611923876_" gradientUnits="userSpaceOnUse" x1="-10339.0264" y1="159.3073" x2="-10323.1807" y2="175.5647" gradientTransform="matrix(-1 0 0 -1 -10028.8047 312)">
						<stop  offset="0" style="stop-color:#FEBBBA"/>
						<stop  offset="1" style="stop-color:#FF928E"/>
					</linearGradient>
					<path style="fill:url(#SVGID_00000111910844547391242580000006074168760611923876_);" d="M293.7,140.3c0,0-2.5-4.6-0.8-6.1
						c1.6-1.5,4.4-1.2,4.3,2.4C297.1,141.1,293.7,140.3,293.7,140.3z"/>
				</g>
			</g>
			<path class="st22" d="M308.4,203.1c1.3,0,2.3-0.1,2.4-0.1h0.2l7.1-33.3c0-0.1-0.1-0.3-0.2-0.3s-0.3,0.1-0.3,0.2l-7.1,33
				c-1.1,0.1-6.7,0.5-9.7-1.7l6.2-29l-1.3-2.4c-0.1-0.1-0.2-0.2-0.3-0.1c-0.1,0.1-0.2,0.2-0.1,0.3l1.2,2.3l-6.2,29.1l0.1,0.1
				C302.6,202.8,306.1,203.1,308.4,203.1z"/>
		</g>
		<g>
			<path class="st24" d="M94.1,304.7c-0.2,0-0.3,0-0.5-0.1c-0.6-0.3-0.9-1.1-0.7-1.8l26.1-66.3c0.3-0.7,1-1,1.6-0.7s0.9,1.1,0.7,1.8
				l-26.1,66.3C95,304.4,94.6,304.7,94.1,304.7z"/>
			<path class="st24" d="M123.5,304.7c-0.5,0-0.9-0.3-1.1-0.8l-26.1-66.3c-0.3-0.7,0-1.5,0.7-1.8c0.6-0.3,1.4,0,1.6,0.7l26.1,66.3
				c0.3,0.7,0,1.5-0.7,1.8C123.9,304.7,123.7,304.7,123.5,304.7z"/>
			<path class="st24" d="M271.4,304.7c-0.2,0-0.3,0-0.5-0.1c-0.6-0.3-0.9-1.1-0.7-1.8l26.1-66.3c0.3-0.7,1-1,1.6-0.7
				s0.9,1.1,0.7,1.8l-26.1,66.3C272.4,304.4,271.9,304.7,271.4,304.7z"/>
			<path class="st24" d="M300.9,304.7c-0.5,0-0.9-0.3-1.1-0.8l-26.1-66.3c-0.3-0.7,0-1.5,0.7-1.8c0.6-0.3,1.4,0,1.6,0.7l26.1,66.3
				c0.3,0.7,0,1.5-0.7,1.8C301.2,304.7,301,304.7,300.9,304.7z"/>
		</g>
		<g>
			<path class="st22" d="M267.6,231.9h37.8V228h-37.8C268.4,228,268.4,231.9,267.6,231.9z"/>
			<path class="st4" d="M305.1,231.9c0.2,0,0.4-0.2,0.4-0.4v-3.2c0-0.2-0.2-0.4-0.4-0.4h-38.3c-0.2,0-0.4-0.2-0.4-0.4v-0.2
				c0-0.2,0.2-0.4,0.4-0.4h40.8c0.9,0,1.6,0.7,1.6,1.6v2.5c0,0.9-0.7,1.5-1.5,1.5h-40.9c-0.2,0-0.4-0.2-0.4-0.4v-0.2
				c0-0.2,0.2-0.4,0.4-0.4h38.3V231.9z"/>
		</g>
		<path class="st24" d="M311,234.5c0.1-0.4,0-0.9-0.5-1.2c-0.4-0.3-1.1-0.5-1.7-0.5H82c-0.9,0-1.7,0.3-2.2,0.8s-0.5,1.1-0.2,1.6
			l2.5,3.5c0.6,0.8,1.8,1.3,3.1,1.3h221.9c1.2,0,2.3-0.6,2.6-1.4L311,234.5z"/>
	</g>
	<g class="st44">
		<circle class="st45" cx="30.8" cy="90.9" r="2.9"/>
		<circle class="st45" cx="9.7" cy="162.1" r="1.8"/>
		<path class="st45" d="M27.9,245c0,0.8-0.6,1.4-1.4,1.4s-1.4-0.6-1.4-1.4c0-0.8,0.6-1.4,1.4-1.4C27.3,243.7,27.9,244.3,27.9,245z"
			/>
		<ellipse class="st45" cx="33.5" cy="68.9" rx="1.1" ry="1.1"/>
		<circle class="st45" cx="105.4" cy="4.6" r="2"/>
		<path class="st45" d="M176.7,4.9c0,1.3-1,2.3-2.3,2.3s-2.3-1-2.3-2.3s1-2.3,2.3-2.3S176.7,3.7,176.7,4.9z"/>
		<path class="st45" d="M191.2,27c0,1.4-1.2,2.6-2.6,2.6c-1.4,0-2.6-1.2-2.6-2.6s1.2-2.6,2.6-2.6S191.2,25.6,191.2,27z"/>
		<circle class="st45" cx="260.5" cy="21.5" r="2.9"/>
		<path class="st45" d="M228.7,9.8c0,0.6-0.5,1.2-1.2,1.2c-0.6,0-1.2-0.5-1.2-1.2c0-0.6,0.5-1.2,1.2-1.2S228.7,9.1,228.7,9.8z"/>
		<path class="st45" d="M292.3,28.9c0,1-0.8,1.9-1.9,1.9c-1,0-1.9-0.8-1.9-1.9c0-1,0.8-1.9,1.9-1.9S292.3,27.9,292.3,28.9z"/>
		<path class="st45" d="M341.9,63.7c0,1.1-0.9,2-2,2s-2-0.9-2-2s0.9-2,2-2C341,61.7,341.9,62.6,341.9,63.7z"/>
		<path class="st45" d="M340.2,113.8c0,1.7-1.4,3.2-3.2,3.2c-1.7,0-3.2-1.4-3.2-3.2c0-1.7,1.4-3.2,3.2-3.2
			C338.8,110.6,340.2,112,340.2,113.8z"/>
		<circle class="st45" cx="360.7" cy="139" r="1.6"/>
		<circle class="st45" cx="331.5" cy="141.4" r="2.4"/>
		<circle class="st45" cx="347.5" cy="237.4" r="2.2"/>
		<circle class="st45" cx="330" cy="253.1" r="3"/>
	</g>
	<g class="st46">
		<path class="st24" d="M53.5,21L53.5,21c0.6,4.3,4,7.6,8.2,8.2l0,0l0,0c-4.3,0.6-7.6,4-8.2,8.2l0,0l0,0c-0.6-4.3-4-7.6-8.2-8.2l0,0
			l0,0C49.5,28.6,52.9,25.3,53.5,21L53.5,21z"/>
		<path class="st24" d="M390.4,103.4L390.4,103.4c0.5,3.3,3.1,5.9,6.4,6.4l0,0l0,0c-3.3,0.5-5.9,3.1-6.4,6.4l0,0l0,0
			c-0.5-3.3-3.1-5.9-6.4-6.4l0,0l0,0C387.3,109.3,389.9,106.7,390.4,103.4L390.4,103.4z"/>
		<path class="st24" d="M6.4,247.4L6.4,247.4c0.5,3.3,3.1,5.9,6.4,6.4l0,0l0,0c-3.3,0.5-5.9,3.1-6.4,6.4l0,0l0,0
			c-0.5-3.3-3.1-5.9-6.4-6.4l0,0l0,0C3.3,253.3,5.9,250.7,6.4,247.4L6.4,247.4z"/>
		<path class="st24" d="M393.9,237L393.9,237c0.5,3.3,3.1,5.9,6.4,6.4l0,0l0,0c-3.3,0.5-5.9,3.1-6.4,6.4l0,0l0,0
			c-0.5-3.3-3.1-5.9-6.4-6.4l0,0l0,0C390.8,242.9,393.4,240.3,393.9,237L393.9,237z"/>
		<path class="st24" d="M6.4,121.1L6.4,121.1c0.4,2.7,2.5,4.8,5.2,5.2l0,0l0,0c-2.7,0.4-4.8,2.5-5.2,5.2l0,0l0,0
			c-0.4-2.7-2.5-4.8-5.2-5.2l0,0l0,0C3.9,125.8,6,123.7,6.4,121.1L6.4,121.1z"/>
		<path class="st24" d="M218.8,0L218.8,0c0.4,2.7,2.5,4.8,5.2,5.2l0,0l0,0c-2.7,0.4-4.8,2.5-5.2,5.2l0,0l0,0
			c-0.4-2.7-2.5-4.8-5.2-5.2l0,0l0,0C216.3,4.8,218.4,2.7,218.8,0L218.8,0z"/>
		<path class="st24" d="M360.3,22.9L360.3,22.9c0.6,4.3,4,7.6,8.2,8.2l0,0l0,0c-4.3,0.6-7.6,4-8.2,8.2l0,0l0,0
			c-0.6-4.3-4-7.6-8.2-8.2l0,0l0,0C356.4,30.5,359.7,27.1,360.3,22.9L360.3,22.9z"/>
	</g>
</g>
</svg>
