<svg xmlns="http://www.w3.org/2000/svg" viewBox="0 0 957.71 488.82"><defs><style>.cls-1{fill:#d6cef1;}.cls-2{fill:#fcf1cc;}.cls-3{fill:#fee4d8;}.cls-4{fill:#cdf3f8;}</style></defs><g id="Layer_2" data-name="Layer 2"><g id="Layer_1-2" data-name="Layer 1"><polygon class="cls-1" points="1.15 189.87 0 190.54 0 189.21 1.15 189.87"/><polygon class="cls-1" points="927.69 455.57 923.49 462.85 919.29 455.57 927.69 455.57"/><polygon class="cls-2" points="923.49 407.16 934.15 425.62 912.84 425.62 923.49 407.16"/><polygon class="cls-1" points="892.45 398.86 890.12 402.89 887.79 398.86 892.45 398.86"/><polygon class="cls-2" points="215.77 106.93 186.44 90 215.77 73.07 215.77 106.93"/><polygon class="cls-1" points="191.35 56.63 184.42 60.63 184.42 52.63 191.35 56.63"/><polygon class="cls-1" points="264.94 125.36 261.5 123.37 264.94 121.38 264.94 125.36"/><polygon class="cls-1" points="263.75 90 234.92 106.64 234.92 73.36 263.75 90"/><polygon class="cls-1" points="312.89 123.37 297.04 132.52 297.04 114.22 312.89 123.37"/><polygon class="cls-3" points="272.42 71.57 246.54 56.63 272.42 41.69 272.42 71.57"/><polygon class="cls-4" points="334.88 113.02 295 90 334.88 66.97 334.88 113.02"/><polygon class="cls-2" points="319.58 56.63 293.7 71.57 293.7 41.69 319.58 56.63"/><polygon class="cls-4" points="384.68 133.03 368.4 123.63 384.68 114.24 384.68 133.03"/><polygon class="cls-3" points="386.58 90.26 346.69 113.29 346.69 67.24 386.58 90.26"/><polygon class="cls-1" points="308.64 123.14 308.63 123.13 308.64 123.13 308.64 123.14"/><polygon class="cls-2" points="430.69 123.63 411.34 134.81 411.34 112.46 430.69 123.63"/><polygon class="cls-4" points="390.21 75.88 357.33 56.9 390.21 37.91 390.21 75.88"/><polygon class="cls-2" points="450.35 113.29 410.47 90.26 450.35 67.24 450.35 113.29"/><polygon class="cls-1" points="444.37 56.9 404.49 79.92 404.49 33.87 444.37 56.9"/><polygon class="cls-1" points="495.42 148.31 487.08 143.5 495.42 138.68 495.42 148.31"/><polygon class="cls-1" points="499.96 110.13 460.08 133.15 460.08 87.1 499.96 110.13"/><polygon class="cls-1" points="439.83 28.34 431.49 23.52 439.83 18.71 439.83 28.34"/><polygon class="cls-1" points="599.07 359.22 594.74 356.72 599.07 354.22 599.07 359.22"/><polygon class="cls-1" points="579.59 323.35 577.75 324.42 577.75 322.29 579.59 323.35"/><polygon class="cls-1" points="537.71 143.5 527.9 149.16 527.9 137.83 537.71 143.5"/><polygon class="cls-4" points="505.93 99.78 466.05 76.76 505.93 53.73 505.93 99.78"/><polygon class="cls-2" points="480.68 43.39 469.72 49.72 469.72 37.06 480.68 43.39"/><polygon class="cls-2" points="908.52 488.82 902.19 477.86 914.84 477.86 908.52 488.82"/><polygon class="cls-3" points="563.73 133.15 523.85 110.13 563.73 87.1 563.73 133.15"/><polygon class="cls-1" points="557.76 76.76 517.88 99.78 517.88 53.73 557.76 76.76"/><polygon class="cls-4" points="604.08 234.41 584.73 223.24 604.08 212.07 604.08 234.41"/><polygon class="cls-1" points="604.95 189.87 565.07 212.9 565.07 166.85 604.95 189.87"/><polygon class="cls-2" points="557.96 56.41 535.4 43.39 557.96 30.37 557.96 56.41"/><polygon class="cls-1" points="644.52 223.24 631.98 230.48 631.98 216 644.52 223.24"/><polygon class="cls-1" points="863.41 319.31 850.87 326.55 850.87 312.07 863.41 319.31"/><polygon class="cls-4" points="610.92 179.53 571.04 156.5 610.92 133.48 610.92 179.53"/><polygon class="cls-1" points="593.4 123.13 570.85 136.16 570.85 110.11 593.4 123.13"/><polygon class="cls-3" points="611.6 119.72 580.33 101.66 611.6 83.61 611.6 119.72"/><polygon class="cls-1" points="606.91 75.5 575.64 93.55 575.64 57.45 606.91 75.5"/><polygon class="cls-1" points="652.23 101.66 620.96 119.72 620.96 83.61 652.23 101.66"/><polygon class="cls-2" points="607.07 59.54 589.38 49.33 607.07 39.12 607.07 59.54"/><polygon class="cls-4" points="656.92 93.55 625.65 75.5 656.92 57.45 656.92 93.55"/><polygon class="cls-1" points="643.18 49.33 625.49 59.54 625.49 39.12 643.18 49.33"/><polygon class="cls-1" points="694.22 256.61 693.83 256.83 693.83 256.39 694.22 256.61"/><polygon class="cls-4" points="718.51 232.39 702.66 223.24 718.51 214.09 718.51 232.39"/><polygon class="cls-1" points="828.9 356.86 828.67 356.72 828.9 356.59 828.9 356.86"/><polygon class="cls-1" points="759.85 223.24 747.71 230.25 747.71 216.24 759.85 223.24"/><polygon class="cls-2" points="668.72 212.9 628.84 189.87 668.72 166.85 668.72 212.9"/><polygon class="cls-1" points="662.75 156.5 622.87 179.53 622.87 133.48 662.75 156.5"/><polygon class="cls-1" points="720.55 189.87 680.67 212.9 680.67 166.85 720.55 189.87"/><polygon class="cls-3" points="665.88 141.23 634.53 123.13 665.88 105.04 665.88 141.23"/><polygon class="cls-3" points="726.52 179.53 686.64 156.5 726.52 133.48 726.52 179.53"/><polygon class="cls-4" points="717.96 123.13 681.96 143.92 681.96 102.35 717.96 123.13"/><polygon class="cls-2" points="902.55 314.29 872.64 297.02 902.55 279.75 902.55 314.29"/><polygon class="cls-1" points="898.07 271.99 868.16 289.26 868.16 254.73 898.07 271.99"/><polygon class="cls-1" points="941.41 297.02 911.5 314.29 911.5 279.75 941.41 297.02"/><polygon class="cls-3" points="900.41 260.54 876.9 246.97 900.41 233.4 900.41 260.54"/><polygon class="cls-3" points="945.89 289.26 915.98 271.99 945.89 254.73 945.89 289.26"/><polygon class="cls-4" points="939.48 246.97 912.47 262.56 912.47 231.38 939.48 246.97"/><polygon class="cls-2" points="903.88 387.05 880.2 373.37 903.88 359.7 903.88 387.05"/><polygon class="cls-1" points="900.33 353.56 876.65 367.23 876.65 339.89 900.33 353.56"/><polygon class="cls-1" points="934.65 373.37 910.97 387.05 910.97 359.7 934.65 373.37"/><polygon class="cls-3" points="902.19 344.49 883.58 333.74 902.19 323 902.19 344.49"/><polygon class="cls-3" points="938.2 367.23 914.52 353.56 938.2 339.89 938.2 367.23"/><polygon class="cls-4" points="933.12 333.74 911.74 346.09 911.74 321.4 933.12 333.74"/><polygon class="cls-3" points="784.32 212.9 744.44 189.87 784.32 166.85 784.32 212.9"/><polygon class="cls-1" points="778.35 156.5 738.47 179.53 738.47 133.48 778.35 156.5"/><polygon class="cls-2" points="835.88 235.46 814.71 223.24 835.88 211.02 835.88 235.46"/><polygon class="cls-1" points="836.14 189.87 796.26 212.9 796.26 166.85 836.14 189.87"/><polygon class="cls-2" points="784.32 146.16 744.44 123.13 784.32 100.11 784.32 146.16"/><polygon class="cls-1" points="882.39 223.24 859.84 236.26 859.84 210.22 882.39 223.24"/><polygon class="cls-4" points="842.12 179.53 802.24 156.5 842.12 133.48 842.12 179.53"/><polygon class="cls-1" points="836.14 123.13 796.26 146.16 796.26 100.11 836.14 123.13"/><polygon class="cls-3" points="726.52 112.79 686.64 89.76 726.52 66.74 726.52 112.79"/><polygon class="cls-1" points="720.55 56.4 680.67 79.42 680.67 33.37 720.55 56.4"/><polygon class="cls-1" points="778.35 89.76 738.47 112.79 738.47 66.74 778.35 89.76"/><polygon class="cls-2" points="726.52 46.05 686.64 23.02 726.52 0 726.52 46.05"/><polygon class="cls-4" points="784.32 79.42 744.44 56.4 784.32 33.37 784.32 79.42"/><polygon class="cls-4" points="794.77 79.42 822.73 63.28 794.77 47.13 794.77 79.42"/><polygon class="cls-1" points="778.35 23.02 738.47 46.05 738.47 0 778.35 23.02"/><polygon class="cls-2" points="899.91 212.9 860.03 189.87 899.91 166.85 899.91 212.9"/><polygon class="cls-1" points="893.94 156.5 854.06 179.53 854.06 133.48 893.94 156.5"/><polygon class="cls-1" points="841 110.86 804.47 89.76 841 68.67 841 110.86"/><polygon class="cls-1" points="956.07 243.43 921.11 223.24 956.07 203.06 956.07 243.43"/><polygon class="cls-4" points="951.74 189.87 911.86 212.9 911.86 166.85 951.74 189.87"/><polygon class="cls-3" points="899.91 146.16 860.03 123.13 899.91 100.11 899.91 146.16"/><polygon class="cls-1" points="892.42 89.76 854.82 111.47 854.82 68.06 892.42 89.76"/><polygon class="cls-1" points="957.71 179.53 917.83 156.5 957.71 133.48 957.71 179.53"/><polygon class="cls-1" points="951.74 123.13 911.86 146.16 911.86 100.11 951.74 123.13"/><polygon class="cls-4" points="896.56 73.62 866.73 56.4 896.56 39.17 896.56 73.62"/><polygon class="cls-1" points="882.7 23.02 859.68 36.32 859.68 9.73 882.7 23.02"/><polygon class="cls-4" points="953.53 105.55 926.19 89.76 953.53 73.98 953.53 105.55"/><polygon class="cls-1" points="942.09 56.4 916.68 71.06 916.68 41.73 942.09 56.4"/><polygon class="cls-1" points="956.77 44.42 919.71 23.02 956.77 1.63 956.77 44.42"/></g></g></svg>