<svg xmlns="http://www.w3.org/2000/svg" viewBox="0 0 153.02 153.02"><defs><style>.cls-1{fill:#5c3bc8;}.cls-2{fill:#333;}.cls-3{fill:#ffdebb;}.cls-4{fill:#f0b97d;}.cls-5{fill:#f5c932;}.cls-6{fill:#fff;}</style></defs><g id="Layer_2" data-name="Layer 2"><g id="Layer_1-2" data-name="Layer 1"><path class="cls-1" d="M76.51,153A76.51,76.51,0,1,0,0,76.51,76.66,76.66,0,0,0,76.51,153Z"/><path class="cls-2" d="M51,90.26c-6.38-16.1-19.78-30.67-2.92-60C55,18.17,65.6,10.19,76.56,12.89c11-2.7,21.57,5.28,28.51,17.36,16.87,29.34,3.47,43.91-2.91,60l-25.6.06Z"/><path class="cls-3" d="M33.45,115.42c-.8,1.29-2.8,12.28-5,20.61a76.5,76.5,0,0,0,96.14,0c-2.21-8.33-4.21-19.32-5-20.61C107.28,95.57,88.34,104.24,87,81.53c0,0-6.09,4.55-10.74,4.59S66,81.81,66,81.81c-1.29,22.7-20.24,13.78-32.52,33.61Z"/><path class="cls-4" d="M87.37,84.73c-.15-1-.26-2-.33-3.2,0,0-6.09,4.55-10.74,4.59S66,81.81,66,81.81c-.07,1.17-.18,2.25-.34,3.26l.36.28v0c.36.31,5.8,5,10.31,4.95s9.94-4.64,10.3-4.95v0l.77-.61Z"/><path class="cls-3" d="M66,81.83c.36.27,5.8,4.33,10.31,4.29s9.94-4,10.3-4.29c6.8-4,12.38-15.66,11.12-28.33-1-10.38-12.26,4.84-20.07-16.57C66.58,60.11,56.07,46.4,54.87,55.18,53.55,64.87,59,77.05,66,81.83Z"/><path class="cls-5" d="M57.06,98.06c-6.7,3.58-19,3.69-23.61,11.18-.82,1.31-2.85,17.3-5.1,26.72a76.49,76.49,0,0,0,96.31,0c-2.24-9.42-4.52-25.29-5.09-26.72-3.09-7.8-17.42-8.13-24.13-11.73-10.42,37.82-26,40.4-38.38.56Z"/><path class="cls-6" d="M61.53,94.3c-.44,11.77,1.56,28.44,14.76,32.7-12.43.52-20.49-17.39-29.68-22.08L61.53,94.3Z"/><path class="cls-6" d="M91.8,94.3c.46,11.77-1.64,28.44-15.51,32.7,13.06.52,21.53-17.39,31.17-22.08L91.8,94.3Z"/></g></g></svg>