<?xml version="1.0" standalone="no"?>
<!DOCTYPE svg PUBLIC "-//W3C//DTD SVG 1.1//EN" "http://www.w3.org/Graphics/SVG/1.1/DTD/svg11.dtd" >
<svg xmlns="http://www.w3.org/2000/svg">
<metadata>Generated by IcoMoon</metadata>
<defs>
<font id="icomoon" horiz-adv-x="1024">
<font-face units-per-em="1024" ascent="960" descent="-64" />
<missing-glyph horiz-adv-x="1024" />
<glyph unicode="&#x20;" horiz-adv-x="512" d="" />
<glyph unicode="&#xe900;" glyph-name="Activity" horiz-adv-x="853" d="M319.82 768.026c-22.703 0-41.108 18.405-41.108 41.108v0 109.758c0 22.703 18.405 41.108 41.108 41.108v0h214.584c22.703 0 41.108-18.405 41.108-41.108v0-108.114c0-22.703-18.405-41.108-41.108-41.108v0zM767.897 874.495h-127.846v-85.094c-0.232-47.129-38.375-85.272-85.482-85.505h-255.714c-47.223 0-85.505 38.282-85.505 85.505v0 85.094h-127.846c0 0-0.001 0-0.001 0-47.078 0-85.27-38.048-85.504-85.071v-767.919c0-47.223 38.282-85.505 85.505-85.505v0h682.393c47.129 0.232 85.272 38.375 85.505 85.482v767.919c-0.233 47.046-38.425 85.094-85.504 85.094 0 0-0.001 0-0.001 0v0zM170.598 533.299h256.103v-85.094h-256.103zM597.299 106.598h-426.701v85.505h426.701zM682.804 277.196h-512.206v85.505h512.206z" />
<glyph unicode="&#xe901;" glyph-name="mobile" d="M1001.814 178.565c-32.046 27.116-219.393 145.441-250.454 140.017-14.791-2.465-25.637-14.791-55.711-49.302-14.414-17.988-29.257-34.080-45.133-49.091l-0.224-0.21c-33.153 8.101-62.221 19.261-89.382 33.555l2.118-1.016c-107.531 53.838-192.672 138.979-245.089 243.387l-1.42 3.123c-13.041 24.886-24.033 53.793-31.489 84.092l-0.558 2.68c15.065 16.583 31.179 31.604 48.459 45.211l0.843 0.64c35.497 29.581 49.302 40.921 49.302 55.711 5.423 31.060-113.394 218.407-140.017 250.454-11.339 13.312-21.693 22.186-34.511 22.186-37.962 0-208.547-211.012-208.547-238.621 0 0 3.451-221.858 281.021-504.358s502.386-281.021 504.851-281.021c27.116 0 238.128 170.584 238.128 208.547-2.28 14.367-10.489 26.464-21.993 33.901l-0.193 0.117zM768.123 484.73h72.967c0 161.466-130.894 292.36-292.36 292.36v0-72.967c121.055-0.28 219.114-98.338 219.393-219.367v-0.027zM951.033 484.73h72.967c-0.28 262.371-212.898 474.989-475.243 475.27h-0.027v-72.967c221.961-0.559 401.744-180.343 402.303-402.25v-0.054z" />
<glyph unicode="&#xe902;" glyph-name="Dashboard" horiz-adv-x="1097" d="M754.181 0.034h-42.689l-12.588 77.169h-302.11l-13.683-77.169h-40.5c-15.937-2.148-28.096-15.663-28.096-32.017s12.158-29.869 27.929-31.999l0.166-0.018h411.57c1.26-0.174 2.716-0.274 4.195-0.274 17.834 0 32.291 14.457 32.291 32.291s-14.457 32.291-32.291 32.291c-1.479 0-2.935-0.099-4.361-0.292l0.166 0.018zM518.294 617.39c-52.29-14.561-90.021-61.76-90.021-117.771 0-22.316 5.989-43.234 16.449-61.232l-0.313 0.583 73.886 73.886zM492.571 393.544c16.763-9.166 36.723-14.556 57.942-14.556 55.538 0 102.451 36.931 117.52 87.575l0.222 0.868h-104.534zM1000.466 960h-419.78v-100.703c0-17.834-14.457-32.291-32.291-32.291v0c-17.711 0.302-31.989 14.58-32.29 32.262v100.732h-419.78c-53.199 0-96.325-43.126-96.325-96.325v0-625.565c-0.025-0.815-0.039-1.774-0.039-2.737 0-53.199 43.126-96.325 96.325-96.325 0.014 0 0.027 0 0.041 0h904.139c52.266 1.203 94.175 43.858 94.175 96.301 0 0.971-0.014 1.938-0.043 2.902l0.003-0.141v625.565c0 0.007 0 0.016 0 0.025 0 52.429-41.887 95.075-94.022 96.298l-0.114 0.002zM550.037 293.387c-113.954 0-206.332 92.378-206.332 206.332s92.378 206.332 206.332 206.332c113.954 0 206.332-92.378 206.332-206.332v0c0-113.954-92.378-206.332-206.332-206.332v0zM582.328 617.39v-85.379h85.926c-12.079 41.55-44.27 73.56-85.054 85.167l-0.872 0.212z" />
<glyph unicode="&#xe903;" glyph-name="Delete" horiz-adv-x="875" d="M47.741 752.432h-16.605c-1.328-0.22-2.857-0.346-4.417-0.346-15.667 0-28.368 12.701-28.368 28.368s12.701 28.368 28.368 28.368c1.559 0 3.089-0.126 4.58-0.368l-0.163 0.022h192.346v42.205c-0.158 2.131-0.248 4.617-0.248 7.124 0 56.554 45.846 102.4 102.4 102.4 2.278 0 4.539-0.074 6.78-0.221l-0.305 0.016h211.027c1.701 0.1 3.69 0.157 5.692 0.157 56.936 0 103.092-46.156 103.092-103.092 0-2.002-0.057-3.992-0.17-5.966l0.012 0.273v-40.13h191.654c0.868 0.094 1.876 0.148 2.896 0.148 13.263 0 24.4-9.102 27.506-21.401l0.042-0.196c0.451-1.893 0.709-4.067 0.709-6.302 0-14.942-11.553-27.187-26.214-28.287l-0.095-0.006h-17.989c0-11.070 0-21.449 0-32.519l-32.519-330.032c-9.686-121.773-19.373-243.546-29.751-365.319-5.44-51.528-48.66-91.331-101.177-91.331-0.187 0-0.373 0.001-0.559 0.002h-451.085c-2.111-0.155-4.573-0.243-7.056-0.243-54.693 0-99.371 42.878-102.252 96.852l-0.011 0.256c-6.227 62.27-10.378 124.541-15.222 186.811-6.919 83.027-13.146 166.054-21.449 249.081s-11.762 162.595-17.989 244.238c-1.384 13.838-2.768 27.676-3.459 39.438zM102.4 752.432v-6.227c6.919-76.8 13.146-153.6 19.373-230.4s13.146-161.211 20.065-242.162 12.454-156.368 19.373-235.243c-0.010-0.357-0.015-0.777-0.015-1.198 0-26.366 21.374-47.741 47.741-47.741 2.447 0 4.85 0.184 7.198 0.539l-0.264-0.033h449.73c0.442-0.016 0.961-0.024 1.482-0.024 19.901 0 36.784 12.927 42.708 30.842l0.091 0.318c2.263 8.185 3.753 17.665 4.144 27.429l0.008 0.247c4.151 51.2 8.303 103.092 13.146 154.292 6.227 80.259 13.146 160.519 19.373 240.778s11.762 138.378 17.989 212.411c0 31.827 4.843 63.654 7.611 96.173zM595.027 811.243c0 17.989 0 35.286 0 51.892-1.739 22.047-19.391 39.461-41.388 40.815l-0.125 0.006c-76.108 0-152.216 0-228.324 0-0.082 0.001-0.18 0.001-0.277 0.001-20.123 0-36.956-14.083-41.183-32.93l-0.053-0.282c-3.037-16.69-5.498-37.118-6.834-57.853l-0.085-1.65zM385.384 373.968v-184.043c0.035-0.534 0.055-1.158 0.055-1.786 0-10.722-5.807-20.087-14.446-25.123l-0.138-0.074c-3.96-2.774-8.878-4.433-14.184-4.433s-10.224 1.659-14.264 4.486l0.080-0.053c-7.591 4.7-12.571 12.983-12.571 22.428 0 0.873 0.043 1.737 0.126 2.588l-0.009-0.108v361.859c-0.166 1.556-0.26 3.362-0.26 5.189s0.094 3.633 0.279 5.412l-0.019-0.223c0.357 14.9 12.149 26.933 26.917 27.673l0.067 0.003c0.209 0.006 0.454 0.009 0.701 0.009 15.285 0 27.676-12.391 27.676-27.676 0-0.246-0.003-0.492-0.010-0.737l0.001 0.036c0-22.832 0-46.357 0-69.189zM478.789 373.276v189.578c1.783 14.108 13.708 24.909 28.156 24.909 0.074 0 0.149 0 0.223-0.001h-0.011c13.751-0.541 24.953-10.792 26.964-24.059l0.020-0.157c0.166-1.865 0.26-4.035 0.26-6.227s-0.094-4.362-0.279-6.506l0.019 0.279v-352.173c0.164-1.659 0.258-3.586 0.258-5.535s-0.094-3.876-0.277-5.777l0.019 0.242c-1.093-14.157-12.69-25.273-26.952-25.599l-0.032-0.001c-0.040 0-0.088 0-0.135 0-14.692 0-26.776 11.17-28.222 25.481l-0.010 0.119v185.427z" />
<glyph unicode="&#xe904;" glyph-name="Cluster-Head" horiz-adv-x="917" d="M458.462 960c-0.082 0-0.179 0-0.277 0-146.848 0-265.891-119.044-265.891-265.891s119.044-265.891 265.891-265.891c146.848 0 265.891 119.044 265.891 265.891v0c-0.314 146.624-119.012 265.42-265.569 265.891h-0.045zM914.434 216.002c-8.070 18.608-17.328 34.618-28.162 49.402l0.493-0.706c-51.789 76.527-132.985 129.798-227.009 143.656l-1.807 0.219c-1.839 0.246-3.964 0.386-6.122 0.386-10.213 0-19.692-3.144-27.522-8.518l0.166 0.107c-46.208-34.216-104.331-54.768-167.254-54.768s-121.046 20.553-168.022 55.311l0.768-0.543c-7.164 5.411-16.219 8.666-26.035 8.666-2.63 0-5.206-0.234-7.707-0.682l0.263 0.039c-95.999-13.575-177.366-66.995-228.068-142.688l-0.748-1.186c-10.022-14.045-19.261-30.032-26.93-46.884l-0.738-1.812c-1.698-3.214-2.695-7.024-2.695-11.067s0.997-7.854 2.758-11.199l-0.063 0.132c10.354-17.8 20.683-32.98 31.95-47.393l-0.685 0.91c16.54-22.355 34.062-42.071 53.182-60.113l0.218-0.204c16.324-16.324 34.862-31.265 53.4-46.483 87.026-65.293 196.844-104.557 315.832-104.557s228.807 39.264 317.205 105.542l-1.372-0.985c19.661 14.893 37.085 30.123 53.389 46.471l0.011 0.011c18.964 18.437 36.46 38.127 52.453 59.028l0.946 1.288c10.517 13.478 20.844 28.656 30.179 44.49l1.087 1.993c4.729 3.625 7.748 9.276 7.748 15.632 0 2.33-0.406 4.565-1.15 6.639l0.043-0.137z" />
<glyph unicode="&#xe905;" glyph-name="Export-List" d="M1024 155.298v-146.351c0-40.288-32.66-72.947-72.947-72.947v0h-878.105c-40.288 0-72.947 32.66-72.947 72.947v0 146.351c0 20.144 16.33 36.474 36.474 36.474s36.474-16.33 36.474-36.474v0-146.351h878.105v146.351c0 20.144 16.33 36.474 36.474 36.474s36.474-16.33 36.474-36.474v0zM230.24 422.012c-6.608 6.67-10.691 15.852-10.691 25.988s4.083 19.317 10.694 25.99l-0.003-0.003c6.597 6.582 15.703 10.652 25.76 10.652s19.162-4.070 25.76-10.652l193.766-193.766v643.305c3.407 16.898 18.133 29.444 35.79 29.444s32.383-12.546 35.75-29.21l0.039-0.234v-643.305l193.767 193.767c6.321 5.218 14.505 8.383 23.429 8.383 20.396 0 36.93-16.534 36.93-36.93 0-8.923-3.165-17.108-8.434-23.491l0.050 0.063-254.86-256.228c-6.718-6.502-15.885-10.509-25.988-10.509s-19.27 4.007-25.998 10.519l0.010-0.010z" />
<glyph unicode="&#xe906;" glyph-name="Manage-Campaign" horiz-adv-x="1203" d="M1133.982 594.954c40.198-7.568 70.201-42.401 70.201-84.241s-30.003-76.674-69.669-84.158l-0.532-0.084zM1065.653 941.28v-865.814c-0.004-0.139-0.006-0.303-0.006-0.468 0-10.080 8.172-18.252 18.252-18.252 0.002 0 0.004 0 0.006 0v0c10.339 0 18.72 8.381 18.72 18.72v0 0 865.814c0 10.339-8.381 18.72-18.72 18.72s-18.72-8.381-18.72-18.72v0zM757.704 772.797c0.002-0.14 0.003-0.304 0.003-0.469 0-8.931-3.574-17.027-9.369-22.936l0.005 0.005-64.585-65.053c15.649-28.875 29.943-62.66 40.998-97.879l1.122-4.147h93.601c0.004 0 0.009 0 0.013 0 18.022 0 32.694-14.348 33.214-32.245l0.001-0.048v-77.221c0-0.001 0-0.002 0-0.003 0-18.093-14.667-32.761-32.761-32.761-0.165 0-0.329 0.001-0.493 0.004h-93.576c-10.732-37.759-25.095-70.698-43.189-101.161l1.069 1.943cv-3.276l65.053-64.117c6.076-5.879 9.848-14.108 9.848-23.217 0-0.394-0.007-0.786-0.021-1.176l0.002 0.056 277.060-117.938v757.704zM818.077 552.366h-93.601c-15.663 0.040-28.775 10.909-32.247 25.515l-0.045 0.226c-7.502 33.133-19.949 62.39-36.702 88.631l0.665-1.114c-3.044 4.879-4.848 10.804-4.848 17.151 0 9.013 3.64 17.176 9.53 23.099l-0.002-0.002 64.117 65.521s0 2.808 0 4.212l-52.885 52.417h-2.808l-65.053-64.585c-5.699-5.832-13.644-9.448-22.433-9.448-6.463 0-12.47 1.955-17.46 5.307l0.113-0.071c-25.151 15.91-54.383 28.336-85.582 35.654l-1.935 0.383c-14.788 3.448-25.717 16.293-26.207 31.772l-0.001 0.053v91.261s0 2.34 0 2.34h-80.029cv-2.34-91.261c-0.491-15.531-11.42-28.376-25.981-31.78l-0.228-0.045c-33.156-7.542-62.418-20.153-88.57-37.146l1.053 0.641c-4.879-3.044-10.804-4.848-17.151-4.848-9.013 0-17.176 3.64-23.099 9.53l0.002-0.002-66.925 64.585h-3.276l-52.885-55.225s0 0 0-2.808v0l63.181-64.117c5.647-5.944 9.12-14 9.12-22.868 0-6.431-1.827-12.435-4.99-17.522l0.082 0.141c-16.088-25.128-28.535-54.384-35.68-85.661l-0.357-1.857c-3.438-14.531-16.079-25.256-31.304-25.739l-0.052-0.001h-93.601v-77.221ch2.34 91.261c15.662-0.443 28.654-11.36 32.244-25.974l0.049-0.234c7.327-33.448 19.627-63.033 36.257-89.634l-0.688 1.18c3.121-4.881 4.975-10.835 4.975-17.221 0-8.782-3.505-16.745-9.193-22.566l0.006 0.006-63.649-69.733c-0.237-0.403-0.376-0.887-0.376-1.404s0.14-1.001 0.383-1.417l-0.007 0.013 54.289-54.289ch3.276v0l63.181 64.117c5.815 5.682 13.778 9.187 22.56 9.187 6.386 0 12.339-1.854 17.351-5.053l-0.13 0.078c25.151-15.91 54.383-28.336 85.582-35.654l1.935-0.383c15.029-3.332 26.117-16.505 26.208-32.282v-91.271h79.093v93.601c0.216 15.601 11.001 28.623 25.508 32.243l0.232 0.049c33.54 6.628 63.349 18.494 90.12 34.845l-1.198-0.68c4.817 3.087 10.695 4.921 17.001 4.921 8.927 0 16.995-3.675 22.774-9.595l0.006-0.006 65.053-64.117ch2.808l53.821 53.353-62.713 64.585c-5.752 6.033-9.291 14.22-9.291 23.234 0 6.271 1.713 12.142 4.697 17.17l-0.086-0.156c16.35 24.957 28.96 54.061 36.153 85.237l0.352 1.812c3.143 15.228 16.377 26.536 32.277 26.676h93.616c0.347-0.137 0.749-0.216 1.17-0.216s0.823 0.079 1.192 0.224l-0.022-0.008v84.241c-0.336 0.197-0.739 0.314-1.17 0.314s-0.834-0.116-1.181-0.319l0.011 0.006zM197.031 509.777c0 0.139-0.001 0.303-0.001 0.468 0 117.347 95.128 212.475 212.475 212.475s212.475-95.128 212.475-212.475c0-117.347-95.128-212.475-212.475-212.475v0c0 0 0 0-0.001 0-117.182 0-212.208 94.862-212.475 211.982v0.026zM482.984 196.212c-0.336 0.197-0.739 0.314-1.17 0.314s-0.834-0.116-1.181-0.319l0.011 0.006v-91.261c0-0.064 0.001-0.139 0.001-0.215 0-16.774-12.607-30.604-28.862-32.531l-0.155-0.015v-85.177c-0.063-0.91-0.099-1.972-0.099-3.042 0-25.902 20.998-46.899 46.899-46.899 24.832 0 45.156 19.298 46.793 43.715l0.008 0.143c0.227 0.914 0.358 1.963 0.358 3.042s-0.131 2.128-0.377 3.132l0.019-0.090v229.792c-17.234-8.28-37.379-15.358-58.378-20.205l-1.995-0.388zM275.188 509.777c0-74.182 60.136-134.318 134.318-134.318s134.318 60.136 134.318 134.318c0 74.182-60.136 134.318-134.318 134.318v0c-74.182 0-134.318-60.136-134.318-134.318v0z" />
<glyph unicode="&#xe907;" glyph-name="Info" d="M511.8 960c-282.88 0-512.199-229.32-512.199-512.2s229.32-512.2 512.2-512.2c282.88 0 512.2 229.32 512.2 512.2 0 0.14 0 0.28 0 0.421v-0.021c0 282.66-229.141 511.801-511.8 511.801-0.14 0-0.281 0-0.421 0h0.022zM618.791 166.35c-26.748-10.38-47.507-18.364-63.077-23.554-15.473-5.33-33.303-8.408-51.851-8.408-0.999 0-1.997 0.009-2.992 0.027l0.15-0.002c-2.165-0.156-4.691-0.244-7.237-0.244-25.626 0-49.155 8.976-67.616 23.955l0.199-0.157c-16.641 13.793-27.162 34.468-27.162 57.6 0 0.522 0.005 1.043 0.016 1.563l-0.001-0.078c0.090 10.225 0.813 20.189 2.131 29.965l-0.135-1.221c1.65 12.647 3.887 23.74 6.805 34.552l-0.417-1.816 32.736 116.572c3.194 11.178 5.589 21.957 7.585 31.538 1.738 8.264 2.753 17.774 2.794 27.515v0.032c0.135 1.281 0.212 2.768 0.212 4.272 0 10.198-3.541 19.57-9.46 26.952l0.066-0.085c-8.136 5.715-18.246 9.134-29.155 9.134-2.106 0-4.182-0.127-6.221-0.375l0.245 0.024c-9.469-0.23-18.508-1.673-27.093-4.178l0.745 0.186-20.759-9.182 8.783 35.531c21.558 9.182 42.317 16.368 61.879 22.756 16.632 5.838 35.812 9.326 55.772 9.58l0.119 0.001c2.249 0.174 4.87 0.273 7.514 0.273 24.96 0 47.855-8.844 65.721-23.57l-0.177 0.142c15.961-13.978 25.985-34.396 25.985-57.156 0-0.819-0.013-1.634-0.039-2.447l0.003 0.119c0-5.19 0-13.973 0-26.748-1.237-13.032-3.634-24.968-7.126-36.427l0.339 1.295-32.736-116.173c-2.795-9.182-4.791-19.961-7.186-31.938-1.82-8.067-2.972-17.409-3.191-26.981l-0.003-0.166c-0.156-1.326-0.245-2.862-0.245-4.419 0-10.483 4.040-20.022 10.648-27.145l-0.023 0.025c8.651-5.426 19.166-8.645 30.433-8.645 1.936 0 3.849 0.095 5.736 0.281l-0.239-0.019c9.786 0.302 19.086 1.886 27.896 4.589l-0.749-0.198c8.524 2.051 15.846 4.515 22.871 7.535l-0.914-0.349zM612.803 637.829c-14.58-13.166-33.995-21.223-55.292-21.223s-40.712 8.056-55.364 21.287l0.072-0.064c-14.205 12.839-23.093 31.331-23.093 51.899s8.888 39.060 23.033 51.845l0.061 0.054c14.58 13.166 33.995 21.223 55.292 21.223s40.712-8.056 55.364-21.287l-0.072 0.064c14.205-12.839 23.093-31.331 23.093-51.899s-8.888-39.060-23.033-51.845l-0.061-0.054z" />
<glyph unicode="&#xe908;" glyph-name="Lead-Box" horiz-adv-x="900" d="M209.983 838.031c-49.349 0-89.354-40.005-89.354-89.354s40.005-89.354 89.354-89.354c49.349 0 89.354 40.005 89.354 89.354v0c0 49.349-40.005 89.354-89.354 89.354v0zM720.195 778.164c-1.554 0.142-3.36 0.223-5.186 0.223-33.311 0-60.314-27.004-60.314-60.314s27.004-60.314 60.314-60.314c1.826 0 3.632 0.081 5.417 0.24l-0.231-0.017c31.003 2.756 55.128 28.606 55.128 60.091s-24.125 57.335-54.897 60.074l-0.231 0.017zM479.832 960c-66.374 0-120.182-53.807-120.182-120.182s53.807-120.182 120.182-120.182c66.374 0 120.182 53.807 120.182 120.182v0c0.001 0.133 0.001 0.29 0.001 0.448 0 66.128-53.607 119.735-119.735 119.735-0.157 0-0.315 0-0.472-0.001h0.024zM137.606 418.066l180.049-180.049h264.935l180.049 180.049h-625.033zM898.010 579.351c-4.728 10.924-15.298 18.485-27.665 18.764l-0.035 0.001h-840.377c-12.44-0.158-23.064-7.768-27.625-18.565l-0.075-0.199c-1.452-3.368-2.296-7.29-2.296-11.409 0-8.321 3.446-15.837 8.99-21.198l68.811-68.811h744.768l71.037 68.803c4.546 5.28 7.315 12.203 7.315 19.773 0 4.662-1.050 9.078-2.926 13.026l0.079-0.184zM360.098 177.703v-151.902c0.092-11.631 6.707-21.696 16.362-26.727l0.168-0.080 120.182-59.867c3.645-1.977 7.981-3.14 12.589-3.14 0.286 0 0.572 0.004 0.856 0.013l-0.042-0.001c0.085-0.001 0.186-0.001 0.288-0.001 5.697 0 11.004 1.666 15.462 4.537l-0.113-0.068c8.617 5.343 14.275 14.741 14.297 25.463v211.773z" />
<glyph unicode="&#xe909;" glyph-name="Lead-Score" d="M670.45 960c17.241-3.936 32.162-8.85 46.444-14.968l-1.747 0.666c56.465-24.444 95.254-79.681 95.254-143.977 0-1.396-0.018-2.787-0.055-4.174l0.004 0.205c0-42.015 0-84.030 0-126.045 0-58.553 0-117.105 0-175.658 0.102-1.072 0.16-2.317 0.16-3.576 0-22.058-17.882-39.94-39.94-39.94-20.8 0-37.886 15.899-39.768 36.207l-0.012 0.158c-0.107 1.803-0.168 3.911-0.168 6.034s0.061 4.231 0.181 6.324l-0.013-0.29v292.763c0.075 1.31 0.117 2.843 0.117 4.386 0 26.55-12.581 50.161-32.106 65.198l-0.193 0.143c-13.285 10.317-30.197 16.54-48.562 16.54-0.212 0-0.425-0.001-0.637-0.002h0.033c-163.143 0-325.838 0-488.981 0-0.053 0-0.116 0-0.179 0-44.433 0-80.454-36.020-80.454-80.454 0-1.887 0.065-3.759 0.193-5.614l-0.014 0.25v-695.033c-0.041-0.958-0.065-2.082-0.065-3.212 0-43.94 35.62-79.56 79.56-79.56 1.28 0 2.554 0.030 3.819 0.090l-0.179-0.007c83.583 0 166.718 0 249.854 0 0.727 0.042 1.576 0.066 2.432 0.066 12.532 0 23.86-5.158 31.976-13.467l0.008-0.009c6.514-6.872 10.52-16.179 10.52-26.421 0-5.303-1.074-10.356-3.016-14.952l0.095 0.252c-5.269-13.929-17.835-23.953-32.911-25.464l-0.165-0.013c-1.67-0.107-3.622-0.168-5.587-0.168s-3.917 0.061-5.852 0.181l0.265-0.013c-81.348 0-163.143 0-244.491 0-1.963-0.086-4.266-0.134-6.58-0.134-80.961 0-147.995 59.627-159.583 137.363l-0.108 0.884v743.305c0.121 0.873 0.19 1.881 0.19 2.905s-0.069 2.033-0.202 3.020l0.013-0.115c7.535 53.863 41.648 98.347 88.437 120.278l0.956 0.403c14.546 5.786 32.184 11.171 50.333 15.195l2.409 0.448zM907.342 416.042c64.533-2.072 116.059-54.883 116.059-119.729 0-30.831-11.648-58.942-30.784-80.172l0.095 0.107c-2.682-3.576-6.258-6.704-9.386-10.28-69.727-69.28-139.007-139.007-209.18-207.839-7.777-7.695-17.388-13.551-28.118-16.855l-0.488-0.129c-49.613-14.75-99.674-28.159-149.734-42.015-4.533-1.922-9.805-3.039-15.338-3.039-18.366 0-33.857 12.308-38.676 29.126l-0.070 0.284c-0.948 3.962-1.492 8.51-1.492 13.186s0.544 9.224 1.572 13.585l-0.079-0.4c14.303 50.060 29.5 100.12 44.697 149.734 3.192 9.219 8.075 17.125 14.33 23.718l-0.027-0.029c71.068 71.515 143.029 143.029 214.991 214.544 22.067 22.417 52.741 36.306 86.658 36.306 1.748 0 3.487-0.037 5.217-0.11l-0.247 0.008zM809.456 259.604l-101.014-101.461c-16.816-13.195-31.502-27.881-44.275-44.14l-0.421-0.556c-8.652-17.649-15.613-38.151-19.85-59.632l-0.263-1.602c0-4.917-2.682-9.833-4.47-15.644l75.984 18.773c4.386 1.778 8.113 4.356 11.16 7.583l0.014 0.015 134.090 134.090 5.364 5.811zM925.22 259.604c10.903 7.506 17.959 19.918 17.959 33.978 0 3.813-0.519 7.504-1.49 11.008l0.068-0.289c-3.336 15.501-15.896 27.307-31.538 29.477l-0.197 0.022c-1.921 0.311-4.136 0.489-6.392 0.489-14.373 0-27.061-7.218-34.636-18.226l-0.092-0.142zM263.71 525.102l83.136 100.12c7.191 11.044 19.478 18.244 33.446 18.244 8.187 0 15.796-2.473 22.121-6.713l-0.144 0.091c11.792-7.262 19.534-20.101 19.534-34.749 0-10.56-4.025-20.181-10.624-27.411l0.029 0.032c-20.113-24.136-39.78-48.272-59.893-71.962-11.93-15.507-23.637-29.198-35.994-42.267l0.237 0.253c-12.505-13.284-30.205-21.557-49.837-21.557s-37.332 8.273-49.804 21.522l-0.033 0.035c-13.856 13.856-27.712 27.712-41.121 42.015-12.075 7.093-20.052 20.016-20.052 34.802 0 22.217 18.010 40.227 40.227 40.227 14.786 0 27.709-7.978 34.7-19.864l0.103-0.189zM552.45 454.928h-55.871c-21.97 0-39.78 17.81-39.78 39.78s17.81 39.78 39.78 39.78h112.636c21.97 0 39.78-17.81 39.78-39.78s-17.81-39.78-39.78-39.78v0z" />
<glyph unicode="&#xe90a;" glyph-name="Email" horiz-adv-x="1437" d="M718.374 245.258l-179.745 151.905-513.21-429.087c17.952-18.844 42.866-30.914 70.601-32.069l0.208-0.007h1244.293c27.956 1.094 52.891 13.18 70.765 32.030l0.043 0.046-513.21 429.087-181.56-151.905zM1411.329 928.53c-18.096 18.519-42.97 30.346-70.604 31.464l-0.205 0.007h-1244.293c-27.813-1.253-52.649-13.050-70.796-31.458l-0.012-0.012 692.955-582.809 692.955 582.809zM0 883.139v-870.279l487.792 431.508-487.792 438.771zM949.56 444.369l487.187-431.508v870.279l-487.187-438.771z" />
<glyph unicode="&#xe90b;" glyph-name="Manage-User" horiz-adv-x="1015" d="M623.181 737.638c0-122.807-99.555-222.362-222.362-222.362s-222.362 99.555-222.362 222.362c0 122.807 99.555 222.362 222.362 222.362s222.362-99.555 222.362-222.362zM513.18 34.198c-9.257 15.894-14.721 34.984-14.721 55.35 0 26.29 9.106 50.454 24.335 69.509l-0.172-0.223c-15.058 18.832-24.163 42.996-24.163 69.286 0 20.366 5.464 39.456 15.007 55.883l-0.286-0.533 36.352 62.79c19.276 32.961 54.198 54.934 94.312 55.707l0.109 0.002c2.404 0.218 5.201 0.342 8.026 0.342s5.621-0.124 8.384-0.367l-0.358 0.025c1.832 4.411 3.572 7.981 5.488 11.44l-0.295-0.581c-22.913 9.425-49.502 14.96-77.367 15.107h-377.745c-116.258-1.066-210.092-95.559-210.092-211.968 0-0.501 0.002-1.001 0.005-1.501v0.077-155.795c0-18.512 15.007-33.52 33.52-33.52v0h485.798zM965.931 138.062c1.188 6.045 2.033 13.186 2.35 20.465l0.011 0.308c-0.357 7.621-1.201 14.761-2.511 21.736l0.15-0.964 40.129 30.215c5.455 4.273 8.927 10.86 8.927 18.257 0 4.036-1.033 7.83-2.85 11.133l0.060-0.12-36.352 59.958c-3.816 6.575-10.823 10.926-18.846 10.926-3.266 0-6.363-0.721-9.142-2.012l0.134 0.056-47.211-19.356c-10.513 8.349-22.476 15.619-35.301 21.301l-1.052 0.416-6.137 47.211c-1.453 10.976-10.751 19.357-22.008 19.357-0.064 0-0.128 0-0.191-0.001h-70.806c-0.054 0-0.118 0.001-0.181 0.001-11.256 0-20.555-8.382-21.995-19.244l-0.012-0.113-6.137-47.211c-13.871-6.236-25.822-13.496-36.746-22.012l0.394 0.295-47.211 19.356c-2.645 1.235-5.742 1.956-9.008 1.956-8.023 0-15.031-4.351-18.791-10.822l-0.056-0.104-35.88-62.318c-1.931-3.265-3.072-7.195-3.072-11.392 0-7.243 3.398-13.693 8.688-17.841l0.049-0.037 40.129-30.215c-0.223-3.107-0.35-6.732-0.35-10.386s0.127-7.279 0.377-10.871l-0.027 0.484c-0.233-3.108-0.365-6.732-0.365-10.386s0.133-7.279 0.393-10.867l-0.028 0.481-40.129-30.687c-5.307-4.096-8.692-10.459-8.692-17.612 0-4.122 1.124-7.982 3.083-11.29l-0.056 0.103 36.824-60.43c3.897-6.723 11.060-11.173 19.262-11.173 3.102 0 6.056 0.637 8.737 1.786l-0.144-0.055 47.211 19.356c10.489-8.281 22.468-15.41 35.331-20.86l1.021-0.384 6.137-47.211c1.442-11.138 10.796-19.676 22.173-19.828h71.776c11.393 0.153 20.747 8.69 22.177 19.715l0.012 0.114 6.137 47.211c13.896 5.706 25.888 12.846 36.641 21.469l-0.289-0.224 47.211-19.356c2.537-1.095 5.49-1.731 8.593-1.731 8.202 0 15.364 4.45 19.205 11.067l0.057 0.106 35.88 62.318c1.902 3.205 3.026 7.064 3.026 11.187 0 7.153-3.385 13.516-8.64 17.574l-0.051 0.038zM802.582 69.606c-0.418-0.007-0.911-0.011-1.405-0.011-49.279 0-89.228 39.949-89.228 89.228s39.949 89.228 89.228 89.228c49.279 0 89.228-39.949 89.228-89.228 0-0.494-0.004-0.987-0.012-1.479l0.001 0.074c-0.783-48.179-39.633-87.029-87.738-87.811l-0.074-0.001z" />
<glyph unicode="&#xe90c;" glyph-name="Meeting" horiz-adv-x="1208" d="M1032.933 406.991h-93.386c9.512-24.628 15.023-53.127 15.023-82.913 0-0.114 0-0.227 0-0.341v0.018-353.243c-0.15-12.409-2.369-24.252-6.327-35.266l0.236 0.753h154.29c0 0 0.001 0 0.001 0 57.712 0 104.524 46.669 104.754 104.327v192.479c-0.231 96.249-78.31 174.186-174.591 174.186 0 0 0 0 0 0v0zM252.955-29.488v353.243c0.030 29.868 5.385 58.475 15.168 84.937l-0.551-1.701h-93.386c-96.107-0.23-173.955-78.078-174.186-174.163v-192.479c0.231-57.68 47.042-104.349 104.754-104.349 0 0 0.001 0 0.001 0h154.29c-3.858 10.101-6.092 21.783-6.092 33.987 0 0.185 0.001 0.37 0.002 0.554v-0.028zM357.71-64h492.105c0.001 0 0.002 0 0.002 0 19.142 0 34.687 15.403 34.916 34.491v353.265c-0.23 96.107-78.078 173.955-174.163 174.186h-213.592c-95.235-1.371-171.936-78.785-172.155-174.165v-353.264c0-0.011 0-0.025 0-0.038 0-18.489 14.539-33.583 32.809-34.471l0.080-0.003zM706.081 567.778c64.317 36.593 106.988 104.669 106.988 182.712 0 115.709-93.801 209.51-209.51 209.51s-209.51-93.801-209.51-209.51c0-115.709 93.801-209.51 209.51-209.51 0.071 0 0.143 0 0.214 0h-0.011c37.597 0.038 72.866 9.973 103.351 27.339l-1.032-0.542zM373.951 534.078c12.205 21.788 19.393 47.813 19.393 75.517 0 86.558-70.169 156.726-156.726 156.726s-156.726-70.169-156.726-156.726c0-86.163 69.531-156.086 155.544-156.722h0.060c0.151-0.001 0.33-0.001 0.509-0.001 22.122 0 43.162 4.631 62.204 12.977l-0.997-0.39c32.911 14.029 59.383 37.881 76.331 67.835l0.408 0.784zM909.906 463.835c18.435-8.188 39.942-12.955 62.562-12.955 87.006 0 157.538 70.532 157.538 157.538s-70.532 157.538-157.538 157.538c-87.006 0-157.538-70.532-157.538-157.538 0-27.22 6.904-52.828 19.055-75.168l-0.412 0.828c16.953-31.369 43.345-55.796 75.327-69.849l1.006-0.394z" />
<glyph unicode="&#xe90d;" glyph-name="ID" horiz-adv-x="1480" d="M0 913.651v-931.302c0-25.598 20.751-46.349 46.349-46.349h1387.329c25.598 0 46.349 20.751 46.349 46.349v0 931.302c0 25.598-20.751 46.349-46.349 46.349v0h-1387.329c-25.598 0-46.349-20.751-46.349-46.349v0zM699.557 422.665c107.013-63.993 178.995-176.945 184.973-307.12l0.030-0.826c-111.029-27.466-238.493-43.222-369.638-43.222-2.478 0-4.954 0.006-7.429 0.017l0.382-0.001c-1.464-0.005-3.196-0.007-4.928-0.007-131.883 0-260.086 15.753-382.832 45.48l11.076-2.266c6.009 131.002 77.991 243.954 183.288 306.994l1.715 0.952c51.631-42.915 118.614-68.96 191.681-68.96s140.050 26.045 192.173 69.358l-0.492-0.397zM667.741 654.803c0-89.159-72.277-161.436-161.436-161.436s-161.436 72.277-161.436 161.436c0 89.159 72.277 161.436 161.436 161.436v0c89.159 0 161.436-72.277 161.436-161.436v0zM1335.481 531.075c0-29.069-23.565-52.634-52.634-52.634v0h-279.273c-27.257 2.423-48.467 25.149-48.467 52.83s21.21 50.407 48.264 52.816l0.203 0.015h277.309c0.586 0.023 1.274 0.037 1.966 0.037 29.069 0 52.634-23.565 52.634-52.634 0-0.151-0.001-0.302-0.002-0.453v0.023zM1335.481 761.249c0.001-0.117 0.001-0.255 0.001-0.393 0-29.069-23.565-52.634-52.634-52.634-0.001 0-0.001 0-0.002 0h-279.273c-1.366-0.125-2.954-0.196-4.56-0.196-29.286 0-53.026 23.741-53.026 53.026s23.741 53.026 53.026 53.026c1.605 0 3.194-0.071 4.762-0.211l-0.203 0.015h277.309c0.586 0.023 1.273 0.037 1.964 0.037 29.069 0 52.634-23.565 52.634-52.634 0-0.013 0-0.026 0-0.039v0.002z" />
<glyph unicode="&#xe90e;" glyph-name="Notification" d="M426.667-64c-88.336 0.198-159.869 71.854-159.869 160.217 0 0 0 0 0 0.001v0c-0.111 1.001-0.174 2.161-0.174 3.336 0 17.697 14.346 32.044 32.044 32.044s32.044-14.346 32.044-32.044c0-1.175-0.063-2.335-0.187-3.478l0.012 0.142c-0.111-1.729-0.174-3.749-0.174-5.784 0-53.091 43.039-96.131 96.131-96.131s96.131 43.039 96.131 96.131c0 2.035-0.063 4.055-0.188 6.058l0.014-0.274c0 17.697 14.346 32.044 32.044 32.044s32.044-14.346 32.044-32.044v0c0 0 0 0 0 0 0-88.363-71.534-160.019-159.851-160.217h-0.019zM778.449 64.174h-703.913c-40.369 1.024-72.703 33.993-72.703 74.514 0 21.778 9.34 41.375 24.233 55.003l0.057 0.051 3.483 2.438c60.331 52.825 98.221 129.995 98.221 216.015 0 0.098 0 0.196 0 0.293v-0.015 120.86c-0.001 0.35-0.002 0.763-0.002 1.177 0 139.924 96.843 257.23 227.16 288.546l2.023 0.41c1.835 0.373 3.944 0.587 6.103 0.587 17.697 0 32.044-14.346 32.044-32.044 0-14.663-9.849-27.026-23.293-30.834l-0.226-0.055c-103.798-24.998-179.724-117.051-179.724-226.837 0-0.334 0.001-0.668 0.002-1.002v0.051-119.118c0.001-0.317 0.002-0.693 0.002-1.068 0-106.315-47.208-201.603-121.806-266.047l-0.449-0.379h-2.090c-1.307-1.765-2.092-3.985-2.092-6.388 0-0.081 0.001-0.161 0.003-0.242v0.012c0-5.771 4.678-10.449 10.449-10.449v0h702.52c0.104-0.004 0.226-0.006 0.348-0.006 5.771 0 10.449 4.678 10.449 10.449 0 0.002 0 0.004 0 0.006v0c0.006 0.127 0.010 0.276 0.010 0.425 0 2.397-0.932 4.577-2.453 6.197l0.004-0.005h-1.741c-36.844 31.814-66.665 70.661-87.565 114.573l-0.903 2.107c-2.005 4.041-3.179 8.801-3.179 13.835 0 12.586 7.336 23.459 17.966 28.575l0.19 0.082c4.039 1.946 8.783 3.083 13.792 3.083 12.67 0 23.64-7.274 28.964-17.873l0.085-0.186c17.127-36.756 40.617-67.825 69.347-93.075l0.312-0.269 3.483-2.438c16.101-13.757 26.242-34.081 26.242-56.774 0-41.165-33.371-74.536-74.536-74.536-0.165 0-0.329 0.001-0.493 0.002h0.025zM746.405 405.507c-153.888 0-278.639 124.751-278.639 278.639s124.751 278.639 278.639 278.639c153.888 0 278.639-124.751 278.639-278.639v0c0-153.888-124.751-278.639-278.639-278.639v0zM746.405 895.913c-117.916-0.001-213.505-95.591-213.505-213.507s95.591-213.507 213.507-213.507c117.55 0 212.912 94.996 213.505 212.406v0.057c-0.198 117.767-95.713 213.159-213.507 213.159 0 0 0 0 0 0v0zM757.203 554.58c-17.697 0-32.044 14.346-32.044 32.044v0 139.32h-21.246c-17.697 0-32.044 14.346-32.044 32.044s14.346 32.044 32.044 32.044h53.29c17.697 0 32.044-14.346 32.044-32.044v0-170.667c0-17.697-14.346-32.044-32.044-32.044v0z" />
<glyph unicode="&#xe90f;" glyph-name="Resource" horiz-adv-x="977" d="M616.132 625.958c9.57-15.95-33.267 57.876 91.144-156.312h182.287l91.144 156.312-91.144 156.312h-182.287l-91.144-156.312zM826.674 700.24c-1.79 3.15-2.846 6.921-2.846 10.937 0 12.394 10.047 22.442 22.442 22.442 8.377 0 15.683-4.59 19.538-11.393l0.058-0.111 49.218-85.219c1.722-3.166 2.734-6.933 2.734-10.937s-1.012-7.771-2.795-11.060l0.061 0.123-49.218-84.764c-3.677-7.238-11.067-12.111-19.596-12.111-12.1 0-21.909 9.809-21.909 21.909 0 3.572 0.855 6.943 2.37 9.922l-0.057-0.124 42.838 74.282zM270.241 469.647l91.144 156.312-85.219 145.83-5.924 10.482h-179.097l-91.144-156.312 91.144-156.312zM210.542 700.24c-1.522 2.904-2.415 6.343-2.415 9.991 0 12.081 9.794 21.874 21.874 21.874 7.664 0 14.408-3.941 18.314-9.908l0.051-0.083 48.762-85.219c1.933-3.114 3.079-6.892 3.079-10.937s-1.146-7.824-3.131-11.027l0.052 0.090-48.762-84.764c-3.953-6.632-11.089-11.006-19.246-11.006-3.976 0-7.71 1.039-10.944 2.861l0.112-0.058c-6.004 3.965-9.911 10.683-9.911 18.313 0 3.45 0.799 6.713 2.221 9.615l-0.057-0.129 42.838 74.282zM578.307 647.833c123.955 214.188 81.118 139.906 91.144 156.312l-91.144 155.856h-180.009l-91.144-156.312 91.144-155.856zM518.608 875.692c-1.764 3.122-2.803 6.856-2.803 10.832 0 8.157 4.374 15.292 10.904 19.189l0.102 0.056c3.070 1.744 6.743 2.771 10.657 2.771 8.069 0 15.118-4.369 18.909-10.87l0.056-0.104 49.218-85.219c1.722-3.092 2.736-6.782 2.736-10.709s-1.014-7.617-2.794-10.824l0.058 0.114-49.218-82.941c-3.848-6.605-10.896-10.974-18.965-10.974-3.914 0-7.587 1.028-10.765 2.828l0.109-0.057c-6.632 3.953-11.006 11.089-11.006 19.246 0 3.976 1.039 7.71 2.861 10.944l-0.058-0.112 42.838 73.826zM578.307 604.084h-180.009l-91.144-155.856 91.144-156.312h180.009l91.144 156.312-91.144 155.856zM605.65 437.291l-49.218-85.219c-3.76-6.498-10.678-10.8-18.601-10.8-4.070 0-7.875 1.135-11.115 3.106l0.095-0.054c-6.605 3.848-10.974 10.896-10.974 18.965 0 3.914 1.028 7.587 2.828 10.765l-0.057-0.109 42.838 74.282-42.838 74.282c-2.613 3.56-4.182 8.028-4.182 12.863 0 12.081 9.794 21.874 21.874 21.874 8.99 0 16.714-5.424 20.077-13.177l0.055-0.141 49.218-85.219c1.647-3.109 2.614-6.796 2.614-10.709s-0.967-7.601-2.675-10.836l0.061 0.127zM578.307 248.623h-180.009l-90.232-154.489 91.144-156.312h180.009l91.144 156.312-91.144 156.312zM605.65 81.374l-49.218-85.219c-3.891-6.413-10.835-10.632-18.764-10.632-3.995 0-7.739 1.071-10.962 2.941l0.105-0.056c-6.605 3.848-10.974 10.896-10.974 18.965 0 3.914 1.028 7.587 2.828 10.765l-0.057-0.109 42.838 76.105-42.838 74.282c-1.744 3.070-2.771 6.743-2.771 10.657 0 8.069 4.369 15.118 10.87 18.909l0.104 0.056c3.118 1.814 6.863 2.885 10.857 2.885 7.929 0 14.873-4.219 18.71-10.535l0.055-0.097 49.218-85.219c1.722-3.166 2.734-6.933 2.734-10.937s-1.012-7.771-2.795-11.060l0.061 0.123zM706.364 426.353l-91.144-156.312c9.57-15.95-33.267 57.876 91.144-155.856h182.287l91.144 155.856-91.144 156.312zM913.716 259.105l-47.85-84.764c-3.848-6.605-10.896-10.974-18.965-10.974-3.914 0-7.587 1.028-10.765 2.828l0.109-0.057c-6.632 3.953-11.006 11.089-11.006 19.246 0 3.976 1.039 7.71 2.861 10.944l-0.058-0.112 42.838 73.826-42.838 74.282c-1.744 3.070-2.771 6.743-2.771 10.657 0 8.069 4.369 15.118 10.87 18.909l0.104 0.056c3.296 2.26 7.37 3.609 11.76 3.609 7.517 0 14.11-3.957 17.81-9.901l0.052-0.089 49.218-85.219c1.722-3.166 2.734-6.933 2.734-10.937s-1.012-7.771-2.795-11.060l0.061 0.123zM270.241 426.353h-179.097l-91.144-156.312 91.144-155.856h182.287l91.144 155.856zM248.367 174.341c-3.953-6.632-11.089-11.006-19.246-11.006-3.976 0-7.71 1.039-10.944 2.861l0.112-0.058c-6.44 3.994-10.665 11.024-10.665 19.041 0 4.059 1.083 7.864 2.975 11.144l-0.057-0.108 42.838 73.826-42.838 74.282c-1.814 3.118-2.885 6.863-2.885 10.857 0 7.929 4.219 14.873 10.535 18.71l0.097 0.055c3.199 1.937 7.064 3.082 11.196 3.082 8.010 0 15.015-4.306 18.826-10.729l0.056-0.101 48.762-85.219c1.933-3.114 3.079-6.892 3.079-10.937s-1.146-7.824-3.131-11.027l0.052 0.090z" />
<glyph unicode="&#xe910;" glyph-name="Search" horiz-adv-x="1015" d="M1015.141 16.473c-9.967-33.592-16.611-67.922-93.762-80.473-69.399 66.815-136.952 135.106-204.874 203.028-13.968 14.466-22.738 34.031-23.254 55.641l-0.002 0.1c-23.994 24.733-48.727 48.727-73.828 71.983l73.828 76.412c21.041-20.672 43.19-42.82 64.6-64.6 8.859-9.229 17.719-11.074 40.236-6.275l191.216-190.846c12.164-11.808 21.174-26.799 25.688-43.631l0.152-0.666zM681.436 800.9c208.565-360.283-168.698-734.224-527.504-518.645-40.578 24.794-73.403 58.564-96.377 98.696l-0.707 1.341c-201.182 358.437 168.698 725.364 525.658 517.537 41.156-24.361 74.569-57.775 98.229-97.654l0.701-1.276zM129.938 755.495c-162.053-280.179 124.77-567.74 406.056-406.056 32.575 18.945 58.857 45.464 76.984 77.238l0.536 1.020c156.516 279.441-125.877 561.834-406.056 406.056-32.597-18.915-58.887-45.442-76.986-77.238l-0.534-1.020z" />
<glyph unicode="&#xe911;" glyph-name="Setting" horiz-adv-x="992" d="M963.207 367.864l-42.634 35.133c-13.427 11.015-21.926 27.608-21.926 46.187s8.499 35.171 21.822 46.103l0.104 0.083 42.634 35.133c18.097 14.59 29.578 36.758 29.578 61.608 0 14.846-4.097 28.734-11.223 40.596l0.199-0.357-84.083 144.481c-13.766 24.328-39.469 40.48-68.944 40.48-10.275 0-20.091-1.963-29.095-5.534l0.534 0.187-50.134-19.738c-5.811-2.048-12.512-3.231-19.489-3.231-29.616 0-54.253 21.315-59.407 49.442l-0.056 0.37-11.843 54.476c-6.129 38.026-38.713 66.72-77.998 66.72-0.335 0-0.67-0.002-1.004-0.006h-168.116c-0.283 0.004-0.618 0.006-0.953 0.006-39.286 0-71.87-28.694-77.938-66.267l-0.060-0.453-9.079-54.476c-4.985-28.531-29.569-49.942-59.153-49.942-7.094 0-13.9 1.231-20.217 3.491l0.419-0.131-51.713 19.738c-8.469 3.384-18.286 5.347-28.561 5.347-29.475 0-55.178-16.152-68.74-40.088l-0.204-0.392-85.268-145.665c-6.927-11.505-11.024-25.394-11.024-40.239 0-24.85 11.48-47.018 29.426-61.49l0.151-0.118 42.634-35.133c13.427-11.015 21.926-27.608 21.926-46.187s-8.499-35.171-21.822-46.103l-42.738-34.032c-18.097-14.59-29.578-36.758-29.578-61.608 0-14.846 4.097-28.734 11.223-40.596l-0.199 0.357 84.083-146.85c13.812-24.147 39.418-40.156 68.762-40.156 10.343 0 20.222 1.989 29.275 5.606l-0.533-0.188 51.713 19.343c5.898 2.129 12.704 3.36 19.798 3.36 29.584 0 54.168-21.411 59.101-49.582l0.052-0.36 9.079-54.082c5.957-38.215 38.633-67.114 78.059-67.114 0.314 0 0.627 0.002 0.94 0.005h169.303c0.265-0.003 0.579-0.005 0.892-0.005 39.426 0 72.102 28.899 78.002 66.669l0.057 0.445 9.079 54.082c4.985 28.531 29.569 49.942 59.153 49.942 7.094 0 13.9-1.231 20.217-3.491l-0.419 0.131 51.713-19.343c8.52-3.429 18.399-5.418 28.743-5.418 29.345 0 54.95 16.009 68.559 39.77l0.204 0.386 84.083 145.665c7.466 11.838 11.896 26.239 11.896 41.675 0 24.708-11.35 46.766-29.121 61.243l-0.144 0.113zM828.99 159.433l-51.713 19.343c-14.531 5.579-31.34 8.81-48.904 8.81-69.214 0-126.709-50.177-138.092-116.14l-0.119-0.833-9.079-54.476h-168.956l-9.079 54.476c-11.502 66.796-68.997 116.973-138.211 116.973-17.564 0-34.374-3.231-49.866-9.132l0.962 0.322-51.713-19.343-85.268 145.665 42.634 34.739c31.266 25.893 51.035 64.719 51.035 108.163s-19.769 82.271-50.801 107.976l-0.233 0.188-42.634 35.133 85.268 145.665 51.713-19.343c14.616-5.669 31.532-8.953 49.215-8.953 69.188 0 126.631 50.28 137.785 116.294l0.115 0.822 9.079 55.266h168.167l9.079-54.082c11.268-66.836 68.712-117.117 137.9-117.117 17.683 0 34.599 3.284 50.171 9.276l-0.956-0.323 52.503 18.159 84.083-145.665-44.608-35.133c-31.266-25.893-51.035-64.719-51.035-108.163s19.769-82.271 50.801-107.976l0.233-0.188 42.634-34.739zM496.21 644.194c-109.009 0-197.379-88.369-197.379-197.379s88.369-197.379 197.379-197.379c109.009 0 197.379 88.369 197.379 197.379v0c0 109.009-88.369 197.379-197.379 197.379v0zM496.21 328.389c-65.406 0-118.427 53.022-118.427 118.427s53.022 118.427 118.427 118.427c65.406 0 118.427-53.022 118.427-118.427v0c0-65.406-53.022-118.427-118.427-118.427v0z" />
<glyph unicode="&#xe912;" glyph-name="Support-Box" horiz-adv-x="1165" d="M1062.658 686.819h-71.732c-68.073 161.79-225.281 273.318-408.538 273.318-136.938 0-259.331-62.275-340.403-160.049l-0.59-0.732c-27.654-32.306-51.012-69.435-68.49-109.707l-1.094-2.83h-69.584c-56.511-0.244-102.228-46.112-102.228-102.657 0 0 0-0.001 0-0.001v0-136.591c0.243-56.361 45.867-101.985 102.205-102.228h140.479l-14.604 42.953c-13.693 37.408-21.613 80.598-21.613 125.638 0 207.645 168.33 375.975 375.975 375.975 162.606 0 301.102-103.226 353.533-247.722l0.83-2.616c7.094-17.984 12.653-38.987 15.721-60.79l0.172-1.492c3.25-18.447 5.108-39.686 5.108-61.359 0-45.008-8.012-88.144-22.687-128.060l0.828 2.574c-52.793-146.788-190.611-249.951-352.588-250.416h-0.056c-55.715-0.967-100.509-46.359-100.509-102.214 0-56.459 45.769-102.228 102.228-102.228s102.228 45.769 102.228 102.228c0 0.146 0 0.292-0.001 0.438v-0.023 45.96c139.256 34.377 250.594 131.165 304.305 258.247l1.091 2.908h72.161c56.361 0.243 101.985 45.867 102.228 102.205v136.614c0 0.004 0 0.009 0 0.014 0 56.696-45.961 102.658-102.658 102.658-0.604 0-1.207-0.005-1.809-0.016l0.091 0.001zM275.329 277.047v-68.295h307.114c0.226-0.001 0.494-0.001 0.762-0.001 170.089 0 307.973 137.884 307.973 307.973s-137.884 307.973-307.973 307.973c-170.089 0-307.973-137.884-307.973-307.973 0-72.116 24.787-138.443 66.307-190.926l-0.492 0.645c-8.476-28.761-34.643-49.396-65.628-49.396-0.032 0-0.063 0-0.095 0h0.005zM687.248 550.228h67.866v-68.295h-67.866zM550.658 550.228h68.295v-68.295h-70.443zM414.067 550.228h68.295v-68.295h-70.443z" />
<glyph unicode="&#xe913;" glyph-name="Task" d="M1023.528 649.826v-691.165c-6.187-13.64-19.686-22.956-35.361-22.956-1.681 0-3.336 0.107-4.961 0.315l0.193-0.020h-831.38c-0.751-0.067-1.624-0.106-2.506-0.106-16.426 0-29.743 13.316-29.743 29.743 0 1.035 0.053 2.057 0.156 3.065l-0.010-0.126v82.147h327.642c1.047-0.021 2.281-0.034 3.519-0.034 11.438 0 22.632 1.043 33.492 3.039l-1.131-0.173c77.749 13.972 135.979 81.103 135.979 161.835 0 0.698-0.004 1.396-0.013 2.092l0.001-0.106c0 114.722 0 228.972 0 343.694 0 0 0 0 0 0.001 0 92.301-74.825 167.126-167.126 167.126-0.166 0-0.332 0-0.498-0.001h-330.449v11.803c0 60.43 0 120.387 0 180.817-0.256 1.65-0.401 3.554-0.401 5.492 0 14.633 8.322 27.322 20.49 33.594l0.212 0.099h566.528c0.112-1.834 0.175-3.978 0.175-6.137s-0.064-4.303-0.189-6.431l0.014 0.294c0-66.567 0-133.606 0-200.173-0.455-4.036-0.715-8.715-0.715-13.455s0.26-9.419 0.765-14.024l-0.051 0.568c9.090-40.663 44.87-70.6 87.643-70.6 2.385 0 4.749 0.093 7.088 0.276l-0.309-0.019zM0 389.223v169.959c-0.056 1.289-0.087 2.8-0.087 4.319 0 58.927 47.77 106.696 106.696 106.696 1.359 0 2.712-0.025 4.059-0.076l-0.194 0.006h340.861c1.142 0.044 2.483 0.069 3.83 0.069 58.666 0 106.224-47.558 106.224-106.224 0-1.186-0.019-2.368-0.058-3.545l0.004 0.171q0-171.375 0-341.805c0.017-0.718 0.027-1.564 0.027-2.413 0-58.666-47.558-106.224-106.224-106.224-1.172 0-2.339 0.019-3.502 0.057l0.17-0.004h-342.75c-0.706-0.017-1.537-0.026-2.37-0.026-58.927 0-106.696 47.77-106.696 106.696 0 0.507 0.004 1.014 0.011 1.519l-0.001-0.077zM160.516 483.644c-4.721 5.193-8.498 10.386-12.747 14.635-5.267 5.608-12.73 9.101-21.009 9.101s-15.741-3.493-20.995-9.086l-0.014-0.015c-5.781-5.363-9.387-13.001-9.387-21.481s3.606-16.118 9.369-21.464l0.019-0.017c11.331-11.803 22.661-23.133 34.464-34.464 5.326-5.485 12.77-8.889 21.009-8.889s15.683 3.404 21.002 8.882l0.007 0.007 76.953 78.842c5.326 5.083 8.637 12.236 8.637 20.163 0 2.055-0.223 4.058-0.645 5.987l0.034-0.184c-1.872 11.191-9.982 20.089-20.57 23.084l-0.203 0.049c-2.753 0.963-5.928 1.52-9.232 1.52-8.265 0-15.717-3.482-20.969-9.059l-0.014-0.015zM160.516 301.883c-4.054 5.19-8.228 9.813-12.705 14.123l-0.042 0.040c-5.459 5.974-13.285 9.707-21.982 9.707-16.426 0-29.743-13.316-29.743-29.743 0-8.697 3.733-16.523 9.684-21.961l0.023-0.021c11.331-11.803 22.661-23.605 34.464-34.464 5.249-5.46 12.615-8.852 20.773-8.852s15.524 3.392 20.764 8.843l0.009 0.010 77.426 78.37c5.326 5.083 8.637 12.236 8.637 20.163 0 2.055-0.223 4.058-0.645 5.987l0.034-0.184c-1.872 11.191-9.982 20.089-20.57 23.084l-0.203 0.049c-2.657 0.894-5.717 1.409-8.898 1.409-8.438 0-16.029-3.629-21.296-9.412l-0.021-0.023zM390.432 448.236h41.073c1.132-0.15 2.441-0.236 3.769-0.236 16.687 0 30.215 13.528 30.215 30.215s-13.528 30.215-30.215 30.215c-1.329 0-2.638-0.086-3.921-0.252l0.152 0.016h-81.675c-1.132 0.15-2.441 0.236-3.769 0.236-16.687 0-30.215-13.528-30.215-30.215s13.528-30.215 30.215-30.215c1.329 0 2.638 0.086 3.921 0.252l-0.152-0.016zM390.432 266.475h41.073c16.426 0 29.743 13.316 29.743 29.743s-13.316 29.743-29.743 29.743h-81.675c-16.426 0-29.743-13.316-29.743-29.743s13.316-29.743 29.743-29.743v0zM1020.223 710.255h-212.448c-26.438 0-37.296 10.858-37.296 37.769v211.976l251.161-247.384z" />
<glyph unicode="&#xe914;" glyph-name="All-Task" d="M513.12 959.136c80 0 159.68 1.12 239.456-0.384 54.338-0.545 104.927-16.12 147.948-42.756l-1.228 0.708c69.312-42.624 105.6-107.136 118.4-185.6 3.488-21.396 5.48-46.057 5.48-71.183 0-0.985-0.003-1.969-0.009-2.952l0.001 0.151c0.512-139.584 0-279.136 0.32-418.688 0-49.664-5.952-98.176-25.792-144-38.656-89.28-109.376-136.608-202.912-152.48-18.96-3.32-40.802-5.228-63.086-5.248h-0.018q-223.296-0.576-446.592 0c-58.016 0.256-113.248 13.408-162.784 44.8-67.2 42.56-102.112 106.112-114.688 182.88-3.529 21.696-5.546 46.703-5.546 72.18 0 1.062 0.004 2.123 0.010 3.183l-0.001-0.163c-0.48 139.168-0.224 278.304-0.48 417.472 0 49.664 5.792 98.144 25.6 144.128 36.288 84.608 102.080 132.992 190.848 150.432 25.693 4.903 55.277 7.741 85.511 7.808h0.057c69.824 1.056 139.584 0.352 209.504 0.352zM660.8 570.048q65.248 0 130.464 0c0.709-0.030 1.541-0.048 2.377-0.048 5.029 0 9.913 0.624 14.577 1.799l-0.411-0.088c15.654 4.831 26.832 19.17 26.832 36.12 0 1.933-0.145 3.833-0.426 5.688l0.026-0.208c-3.2 20.352-18.88 33.28-41.6 33.312q-129.856 0.192-259.712 0c-25.344 0-42.72-16-42.752-38.4s17.056-38.4 42.592-38.4q64.032 0.16 128.032 0.224zM662.112 211.424c43.872 0 87.776-0.192 131.648 0 23.744 0 40.64 16 41.056 37.76s-16.224 38.816-39.616 38.816q-132.224 0.48-264.448 0c-7.925-0.13-15.345-2.176-21.852-5.693l0.252 0.125c-11.539-6.462-19.211-18.611-19.211-32.552 0-3.411 0.459-6.715 1.32-9.853l-0.061 0.261c4.128-16.896 19.616-28.8 39.392-28.8 43.808-0.288 87.776-0.064 131.648-0.064zM267.008 624c-4.704 4.512-8.096 7.872-11.584 11.104-16.672 15.2-39.744 14.88-54.784-0.704s-14.624-37.408 1.024-53.696c11.072-11.52 22.4-22.656 33.824-33.952 20.864-20.928 41.6-21.056 62.4 0q53.408 53.28 106.656 106.816c1.984 1.984 3.968 3.936 5.76 6.080 5.9 6.636 9.504 15.427 9.504 25.060 0 5.132-1.023 10.025-2.876 14.486l0.092-0.25c-5.312 14.56-16.64 22.144-31.616 23.936-13.216 1.6-23.968-3.712-33.216-13.056-28.032-28.384-56.192-56.608-85.184-85.824zM267.008 265.6c-4.928 4.672-9.056 9.024-13.632 12.8-6.716 5.792-15.526 9.319-25.16 9.319-10.976 0-20.882-4.578-27.914-11.929l-0.014-0.014c-14.496-15.2-14.432-37.024 0.64-52.8 12.8-13.312 25.6-26.272 38.912-39.040 14.4-13.952 36.864-15.712 50.976-1.92 40.608 39.552 81.024 79.392 120.032 120.544 18.912 19.936 7.36 53.696-18.944 60.448-3.226 0.979-6.933 1.542-10.772 1.542-11.237 0-21.347-4.827-28.369-12.52l-0.027-0.030c-28.256-28.8-56.736-57.312-85.536-86.4z" />
<glyph unicode="&#xe915;" glyph-name="Calendar" d="M826.182 881.131h-38.141v38.788c1.026 3.374 1.616 7.251 1.616 11.267 0 22.136-17.945 40.081-40.081 40.081s-40.081-17.945-40.081-40.081c0-4.015 0.59-7.893 1.689-11.551l-0.073 0.284v-38.788h-394.99v38.788c0 22.136-17.945 40.081-40.081 40.081s-40.081-17.945-40.081-40.081v0-38.788h-38.141c-109.252 0-197.818-88.566-197.818-197.818v0-549.495c0.366-109.104 88.714-197.452 197.783-197.818h628.399c109.104 0.366 197.452 88.714 197.818 197.783v549.53c0 109.252-88.566 197.818-197.818 197.818v0zM197.818 801.616h38.141v-78.222c0-22.136 17.945-40.081 40.081-40.081s40.081 17.945 40.081 40.081v78.222h394.99v-78.222c-0.206-1.526-0.323-3.289-0.323-5.080 0-22.136 17.945-40.081 40.081-40.081s40.081 17.945 40.081 40.081c0 1.791-0.117 3.554-0.345 5.283l0.022-0.203v78.222h38.141c65.337 0 118.303-52.966 118.303-118.303v0-38.141h-866.909v38.141c-0.001 0.192-0.002 0.419-0.002 0.646 0 64.98 52.677 117.657 117.657 117.657 0.001 0 0.001 0 0.002 0v0zM826.182 16.162h-628.364c-64.98 0-117.657 52.677-117.657 117.657v0 431.838h864.323v-431.838c-0.367-65.058-53.192-117.657-118.301-117.657-0.001 0-0.001 0-0.002 0v0zM355.556 407.919c0-22.136-17.945-40.081-40.081-40.081v0h-78.869c-0.773-0.053-1.676-0.084-2.586-0.084-22.136 0-40.081 17.945-40.081 40.081 0 0.029 0 0.059 0 0.088v-0.005c0 22.136 17.945 40.081 40.081 40.081v0h81.455c22.136 0 40.081-17.945 40.081-40.081v0zM827.475 407.919c0-22.136-17.945-40.081-40.081-40.081v0h-76.283c-22.136 0-40.081 17.945-40.081 40.081v0c-0.003 0.194-0.005 0.423-0.005 0.652 0 21.779 17.655 39.434 39.434 39.434 0.229 0 0.458-0.002 0.686-0.006h78.188c22.136 0 40.081-17.945 40.081-40.081v0zM590.869 407.919c0.003-0.192 0.005-0.419 0.005-0.646 0-21.779-17.655-39.434-39.434-39.434-0.002 0-0.004 0-0.006 0h-78.868c-22.136 0-40.081 17.945-40.081 40.081v0c0 22.136 17.945 40.081 40.081 40.081v0h78.869c0.002 0 0.003 0 0.005 0 21.779 0 39.434-17.655 39.434-39.434 0-0.227-0.002-0.454-0.006-0.681v0.034zM355.556 171.96c0-0.002 0-0.003 0-0.005 0-21.779-17.655-39.434-39.434-39.434-0.227 0-0.454 0.002-0.681 0.006h-78.835c-1.526-0.206-3.289-0.323-5.080-0.323-22.136 0-40.081 17.945-40.081 40.081s17.945 40.081 40.081 40.081c1.791 0 3.554-0.117 5.283-0.345l-0.203 0.022h78.869c22.136 0 40.081-17.945 40.081-40.081v0zM827.475 171.96c0-0.002 0-0.003 0-0.005 0-21.779-17.655-39.434-39.434-39.434-0.227 0-0.454 0.002-0.681 0.006h-76.249c-1.526-0.206-3.289-0.323-5.080-0.323-22.136 0-40.081 17.945-40.081 40.081s17.945 40.081 40.081 40.081c1.791 0 3.554-0.117 5.283-0.345l-0.203 0.022h78.222c22.136 0 40.081-17.945 40.081-40.081v0zM590.869 171.96c0-21.779-17.655-39.434-39.434-39.434v0h-78.869c-1.526-0.206-3.289-0.323-5.080-0.323-22.136 0-40.081 17.945-40.081 40.081s17.945 40.081 40.081 40.081c1.791 0 3.554-0.117 5.283-0.345l-0.203 0.022h78.869c0.002 0 0.003 0 0.005 0 21.779 0 39.434-17.655 39.434-39.434 0-0.227-0.002-0.454-0.006-0.681v0.034z" />
<glyph unicode="&#xe916;" glyph-name="Comments" d="M512.208 960c-281.918-1.275-509.963-230.108-509.963-512.203 0-282.885 229.323-512.208 512.208-512.208 92.88 0 179.985 24.721 255.096 67.943l-2.486-1.319 204.883-66.212c3.733-1.215 8.028-1.916 12.486-1.916 11.356 0 21.651 4.546 29.163 11.917l-0.007-0.006c7.365 7.506 11.91 17.8 11.91 29.157 0 4.459-0.701 8.754-1.998 12.781l0.082-0.295-65.796 205.3c42.697 73.166 67.905 161.068 67.905 254.856 0 282.885-229.323 512.208-512.208 512.208-0.449 0-0.897-0.001-1.345-0.002h0.069zM512.208 15.954c-238.124 0.19-431.088 193.271-431.088 431.421 0 238.267 193.154 431.421 431.421 431.421s431.421-193.154 431.421-431.421c0-84.545-24.319-163.411-66.345-229.982l1.048 1.779c-3.849-5.955-6.137-13.232-6.137-21.043 0-4.388 0.722-8.608 2.054-12.547l-0.081 0.276 47.473-147.832-147.832 47.473c-3.663 1.251-7.883 1.973-12.271 1.973-7.811 0-15.088-2.288-21.197-6.231l0.154 0.093c-64.823-41.028-143.736-65.38-228.337-65.38-0.1 0-0.199 0-0.299 0h0.016zM462.237 447.792c0 27.599 22.373 49.972 49.972 49.972s49.972-22.373 49.972-49.972v0c0-27.599-22.373-49.972-49.972-49.972s-49.972 22.373-49.972 49.972v0zM261.934 447.792c0 27.599 22.373 49.972 49.972 49.972s49.972-22.373 49.972-49.972c0-27.599-22.373-49.972-49.972-49.972v0c-27.599 0-49.972 22.373-49.972 49.972v0zM662.123 447.792c0 27.599 22.373 49.972 49.972 49.972s49.972-22.373 49.972-49.972c0-27.599-22.373-49.972-49.972-49.972v0c-27.599 0-49.972 22.373-49.972 49.972v0z" />
<glyph unicode="&#xe917;" glyph-name="Date-Calendar" horiz-adv-x="1025" d="M183.131 850.217c-0.633 4.232-0.995 9.115-0.995 14.084 0 28.109 11.575 53.514 30.218 71.709l0.020 0.020c16.23 14.893 37.96 24.020 61.821 24.020 28.287 0 53.578-12.827 70.374-32.981l0.119-0.147c13.681-16.986 21.96-38.824 21.96-62.597 0-4.636-0.315-9.199-0.925-13.668l0.058 0.52h146.697c-0.688 4.315-1.081 9.29-1.081 14.357 0 29.377 13.212 55.669 34.018 73.256l0.142 0.117c15.197 13.174 35.167 21.202 57.011 21.202 1.531 0 3.052-0.039 4.564-0.117l-0.212 0.009c27.652-0.842 52.050-14.082 67.928-34.322l0.147-0.195c12.944-16.3 14.861-23.011 21.094-75.266 24.449 0 47.94 0 73.828 0 37.036-0.184 69.637-19.005 88.925-47.558l0.243-0.382c12.030-17.701 19.206-39.544 19.206-63.064 0-0.919-0.011-1.836-0.033-2.75l0.003 0.136c0-100.674 0-201.348 0-302.022 0.171-7.433 4.345-13.853 10.443-17.206l0.104-0.053c87.45-41.829 146.78-129.6 146.78-231.228 0-141.12-114.4-255.521-255.521-255.521-48.345 0-93.553 13.426-132.101 36.753l1.141-0.641c-6.13 3.209-13.372 5.144-21.053 5.273l-0.041 0.001h-514.397c-1.387-0.063-3.013-0.098-4.647-0.098-55.935 0-102.099 41.832-108.916 95.917l-0.056 0.541c-0.234 2.728-0.367 5.903-0.367 9.109s0.133 6.381 0.395 9.519l-0.028-0.411v649.109c0 0 0 0.001 0 0.001 0 63.11 51.025 114.303 114.071 114.576h0.026zM806.352 556.824h-733.004v-466.936c0-0.001 0-0.002 0-0.003 0-24.455 19.689-44.311 44.079-44.581h439.636c-27.993 40.643-44.71 90.936-44.71 145.134 0 142.444 115.474 257.918 257.918 257.918 12.047 0 23.901-0.826 35.509-2.424l-1.346 0.152zM591.581 240.899c-4.074-14.409-6.417-30.957-6.417-48.052 0-101.141 81.991-183.131 183.131-183.131s183.131 81.991 183.131 183.131c0 101.141-81.991 183.131-183.131 183.131-18.564 0-36.483-2.762-53.368-7.898l1.297 0.339c-60.857-18.455-107.555-66.104-124.337-126.232l-0.307-1.288zM183.131 777.348h-69.993c-21.867-0.267-39.523-17.923-39.79-39.765v-0.025c0-34.996 0-70.472 0-105.468h731.566v104.509c0.12 1.364 0.188 2.951 0.188 4.554s-0.068 3.19-0.203 4.759l0.014-0.204c-1.986 16.245-14.856 28.951-31.008 30.668l-0.153 0.013c-25.408 0-51.296 0-78.142 0 0.489-3.771 0.768-8.133 0.768-12.561 0-23.489-7.857-45.142-21.086-62.476l0.183 0.25c-16.32-20.793-41.32-34.132-69.45-34.516l-0.063-0.001c-1.057-0.046-2.297-0.072-3.544-0.072-22.024 0-42.132 8.205-57.433 21.726l0.093-0.081c-20.411 17.682-33.247 43.64-33.247 72.595 0 5.173 0.41 10.251 1.198 15.202l-0.072-0.546h-143.82c-4.315-47.94-7.191-58.487-22.052-75.745-16.567-20.254-41.559-33.080-69.547-33.080-0.157 0-0.313 0-0.47 0.001h0.024c-0.531-0.012-1.157-0.018-1.784-0.018-23.059 0-44.028 8.945-59.628 23.554l0.048-0.045c-20.623 17.692-33.607 43.782-33.607 72.905 0 4.893 0.366 9.7 1.073 14.395l-0.065-0.529zM256 813.783v-51.296c0-13.423 7.191-22.052 18.217-22.052s18.217 8.629 18.217 22.052c0 34.037 0 68.554 0 102.592 0 13.423-7.191 21.573-18.217 21.573s-17.738-8.15-18.217-21.573zM621.783 813.783c0 17.258 0 34.037 0 51.296s-7.191 21.573-18.217 21.573-18.217-8.15-18.217-21.573v-102.592c0-13.423 7.191-22.052 18.217-22.052s19.655 8.629 19.655 22.052 0 34.037 0 51.296zM804.914 228.434h34.996c1.26 0.153 2.72 0.24 4.2 0.24 20.387 0 36.914-16.527 36.914-36.914s-16.527-36.914-36.914-36.914c-1.48 0-2.939 0.087-4.374 0.256l0.174-0.017h-72.869c-20.603 0.53-37.134 17.229-37.393 37.848v107.411c-0.153 1.26-0.24 2.72-0.24 4.2 0 20.387 16.527 36.914 36.914 36.914s36.914-16.527 36.914-36.914c0-1.48-0.087-2.939-0.256-4.374l0.017 0.174z" />
<glyph unicode="&#xe918;" glyph-name="Link" d="M1024 732.647c0.032-1.493 0.051-3.254 0.051-5.018 0-69.32-28.567-131.968-74.571-176.814l-0.052-0.051c-70.934-70.025-141.414-139.595-210.529-210.984-43.44-44.273-103.899-71.714-170.768-71.714-64.369 0-122.798 25.428-165.792 66.786l0.077-0.074c-9.1 7.31-14.875 18.438-14.875 30.914 0 21.848 17.711 39.56 39.56 39.56 11.908 0 22.588-5.262 29.84-13.587l0.041-0.048c28.491-27.818 67.495-44.98 110.507-44.98 37.453 0 71.867 13.012 98.968 34.762l-0.31-0.241c8.89 7.356 16.898 14.788 24.468 22.645l0.086 0.090c70.025 70.48 141.414 140.050 210.529 211.439 27.607 27.366 44.698 65.3 44.698 107.227 0 20.004-3.891 39.1-10.957 56.571l0.362-1.013c-18.824 56.142-69.243 96.601-129.618 100.468l-0.429 0.022c-6.011 0.838-12.956 1.316-20.013 1.316-43.194 0-82.201-17.924-109.989-46.741l-0.044-0.046c-40.014-40.469-80.028-80.483-120.497-120.497-7.39-7.782-17.812-12.622-29.365-12.622-7.069 0-13.715 1.812-19.498 4.998l0.209-0.106c-11.913 6.504-19.86 18.942-19.86 33.236 0 3.379 0.444 6.654 1.277 9.77l-0.060-0.264c2.381 8.297 6.808 15.372 12.706 20.893l0.025 0.024c40.924 41.378 80.938 83.666 122.771 123.226 42.045 42.031 100.123 68.027 164.272 68.027 25.972 0 50.949-4.261 74.269-12.123l-1.638 0.479c82.242-23.58 144.104-91.215 158.951-175.086l0.197-1.34c3.183-15.46 3.638-31.829 5.002-39.105zM240.085-64c-1.867-0.053-4.064-0.084-6.267-0.084-97.817 0-181.653 59.858-216.878 144.943l-0.571 1.557c-10.307 26.010-16.283 56.143-16.283 87.673 0 68.445 28.161 130.312 73.529 174.648l0.047 0.045c71.389 69.57 141.869 139.595 210.984 210.984 43.462 44.419 104.019 71.959 171.008 71.959 64.031 0 122.185-25.162 165.114-66.136l-0.093 0.089c10.309-7.241 16.964-19.079 16.964-32.471 0-21.848-17.711-39.56-39.56-39.56-12.82 0-24.215 6.098-31.444 15.552l-0.070 0.095c-28.348 27.768-67.202 44.904-110.059 44.904-44.656 0-84.967-18.605-113.603-48.486l-0.053-0.056c-74.572-74.117-149.599-147.78-222.352-223.716-25.806-26.642-41.713-63.006-41.713-103.085 0-21.255 4.473-41.465 12.53-59.74l-0.373 0.949c18.571-55.37 67.952-95.418 127.273-100.005l0.499-0.031c6.667-1.034 14.357-1.624 22.185-1.624 43.283 0 82.35 18.052 110.081 47.039l0.053 0.056c40.014 40.014 80.028 79.574 119.588 119.588 7.368 8.333 18.085 13.561 30.022 13.561 5.576 0 10.886-1.141 15.709-3.202l-0.261 0.099c14.972-5.555 25.449-19.717 25.449-36.326 0-10.23-3.974-19.531-10.463-26.445l0.019 0.021c-12.277-13.641-25.464-25.918-38.195-38.65-31.375-31.375-61.84-63.659-94.579-93.67-40.421-37.5-94.744-60.508-154.441-60.508-1.335 0-2.667 0.012-3.997 0.034l0.2-0.003z" />
<glyph unicode="&#xe919;" glyph-name="Logout" d="M661.34 192h-42.68c-11.777-0.011-21.32-9.561-21.32-21.34v0-149.32h-512v853.32h512v-149.32c0-11.779 9.543-21.329 21.319-21.34h42.681c11.775 0 21.32 9.545 21.32 21.32 0 0.007 0 0.014 0 0.021v-0.001 149.32c0 0.006 0 0.013 0 0.020 0 47.121-38.199 85.32-85.32 85.32h-512c-0.006 0-0.013 0-0.020 0-47.121 0-85.32-38.199-85.32-85.32 0-0.007 0-0.014 0-0.021v0.001-853.32c0-0.006 0-0.013 0-0.020 0-47.121 38.199-85.32 85.32-85.32 0.007 0 0.014 0 0.021 0h511.999c47.121 0 85.32 38.199 85.32 85.32 0 0.007 0 0.014 0 0.021v-0.001 149.32c0 11.779-9.543 21.329-21.319 21.34h-0.001zM1017.080 463.74l-256 234.66c-3.781 3.467-8.843 5.591-14.4 5.591-11.783 0-21.335-9.549-21.34-21.33v-42.661c0-0.003 0-0.007 0-0.011 0-6.283 2.718-11.931 7.041-15.832l0.019-0.017 148.3-133.48h-603.36c-0.006 0-0.013 0-0.020 0-11.775 0-21.32-9.545-21.32-21.32 0 0 0 0 0 0v0-42.68c0-11.775 9.545-21.32 21.32-21.32 0.007 0 0.014 0 0.021 0h603.359l-148.3-133.48c-4.342-3.919-7.060-9.567-7.060-15.849 0-0.004 0-0.008 0-0.011v0.001-42.66c0-0.005 0-0.010 0-0.016 0-8.666 5.176-16.124 12.605-19.45l0.135-0.054c2.511-1.15 5.446-1.82 8.539-1.82 0.014 0 0.029 0 0.043 0h-0.002c5.564 0.006 10.631 2.132 14.436 5.615l-0.016-0.015 256 234.68c4.259 3.914 6.919 9.512 6.919 15.73s-2.66 11.816-6.904 15.716l-0.015 0.014z" />
<glyph unicode="&#xe91a;" glyph-name="Report" horiz-adv-x="844" d="M60 900h663.76v60h-723.76v-904h60zM723.76 839.9v0h-603.76v-903.9h503.72v220.12h220.14v683.78zM360.26 719.8h243.42v-60h-243.42zM723.78 299.52h-483.6v60h483.6zM723.78 419.62h-483.6v60h483.6zM723.78 539.72h-483.6v60h483.6zM683.72 96.12v-122.52l122.54 122.52z" />
<glyph unicode="&#xe91b;" glyph-name="Time" d="M512 960c-282.77 0-512-229.23-512-512s229.23-512 512-512c282.77 0 512 229.23 512 512v0c-0.368 282.622-229.378 511.632-511.965 512h-0.035zM512 29.091c-231.357 0-418.909 187.552-418.909 418.909s187.552 418.909 418.909 418.909c231.357 0 418.909-187.552 418.909-418.909v0c-0.367-231.209-187.7-418.542-418.874-418.909h-0.035zM558.545 467.394v258.586c0 25.706-20.839 46.545-46.545 46.545s-46.545-20.839-46.545-46.545v0-277.98c-0.001-0.113-0.002-0.247-0.002-0.381 0-12.741 5.191-24.27 13.574-32.586l139.639-139.639c7.32-5.023 16.371-8.022 26.123-8.022 25.706 0 46.545 20.839 46.545 46.545 0 9.751-2.999 18.803-8.124 26.281l0.103-0.159z" />
<glyph unicode="&#xe91c;" glyph-name="Lead-Score1" horiz-adv-x="746" d="M278.119 539.825l-19.387-42.299h38.775zM182.24 770.005v172.37l-172.37-172.37zM715.214 960h-464.942v-220.31c0-16.548-13.415-29.962-29.962-29.962v0h-220.31v-743.766c0-0.001 0-0.001 0-0.002 0-16.548 13.415-29.962 29.962-29.962 0.124 0 0.248 0.001 0.371 0.002h684.88c0.001 0 0.001 0 0.002 0 16.618 0 30.113 13.372 30.312 29.943v963.742c0 16.742-13.572 30.315-30.315 30.315v0zM460.712 529.25c-16.742 0-30.315 13.572-30.315 30.315s13.572 30.315 30.315 30.315v0h21.502v21.15c0 16.548 13.415 29.962 29.962 29.962v0c0.001 0 0.001 0 0.002 0 16.618 0 30.113-13.372 30.312-29.943v-21.169h21.502c16.742 0 30.315-13.572 30.315-30.315s-13.572-30.315-30.315-30.315v0h-21.15v-21.15c-0.199-16.59-13.694-29.962-30.313-29.962-0.001 0-0.001 0-0.002 0v0c-16.548 0-29.962 13.415-29.962 29.962v0 21.15zM154.393 396.007l105.749 227.36c3.179 6.495 8.309 11.625 14.618 14.722l0.187 0.083c3.676 1.683 7.975 2.664 12.503 2.664 12.14 0 22.632-7.054 27.602-17.287l0.080-0.182 102.224-227.36c1.815-3.725 2.877-8.104 2.877-12.731 0-12.036-7.182-22.396-17.494-27.026l-0.187-0.075c-3.382-1.783-7.392-2.829-11.645-2.829-0.243 0-0.486 0.003-0.728 0.010l0.036-0.001c-0.124-0.002-0.271-0.003-0.418-0.003-12.016 0-22.36 7.157-27.002 17.441l-0.075 0.187-29.962 64.859h-93.764l-29.962-64.859c-4.717-10.47-15.061-17.628-27.077-17.628-0.147 0-0.293 0.001-0.44 0.003h0.022c-0.206-0.006-0.449-0.009-0.692-0.009-4.254 0-8.263 1.046-11.784 2.896l0.139-0.067c-10.5 4.705-17.682 15.064-17.682 27.101 0 4.627 1.061 9.006 2.954 12.907l-0.077-0.176zM181.535 293.431h382.458c0.979 0.112 2.114 0.176 3.264 0.176 16.742 0 30.315-13.572 30.315-30.315s-13.572-30.315-30.315-30.315c-1.15 0-2.285 0.064-3.401 0.189l0.137-0.012h-382.458c-15.278 1.703-27.050 14.546-27.050 30.138s11.772 28.435 26.913 30.126l0.137 0.012zM181.535 201.429h252.034c0.979 0.112 2.114 0.176 3.264 0.176 16.742 0 30.315-13.572 30.315-30.315s-13.572-30.315-30.315-30.315c-1.15 0-2.285 0.064-3.401 0.189l0.137-0.012h-252.034c-15.278 1.703-27.050 14.546-27.050 30.138s11.772 28.435 26.913 30.126l0.137 0.012z" />
<glyph unicode="&#xe91d;" glyph-name="select_check" d="M928 640c-17.673 0-32-14.327-32-32v0-512c0-17.673-14.327-32-32-32v0h-704c-17.673 0-32 14.327-32 32v0 704c0 17.673 14.327 32 32 32v0h512c17.673 0 32 14.327 32 32s-14.327 32-32 32v0h-512c-53.019 0-96-42.981-96-96v0-704c0-53.019 42.981-96 96-96v0h704c53.019 0 96 42.981 96 96v0 512c0 17.673-14.327 32-32 32v0zM278.72 598.72c-5.815 5.815-13.847 9.411-22.72 9.411-17.745 0-32.131-14.386-32.131-32.131 0-8.873 3.596-16.905 9.411-22.72l256-256c5.782-5.736 13.744-9.281 22.535-9.281 0.065 0 0.13 0 0.195 0.001h2.23c9.417 0.724 17.609 5.424 22.984 12.405l0.056 0.075 416 544c3.453 5.032 5.514 11.255 5.514 17.959 0 17.673-14.327 32-32 32-9.581 0-18.179-4.211-24.044-10.883l-0.031-0.036-393.92-515.2z" />
<glyph unicode="&#xe91e;" glyph-name="user_profile_pic" d="M512 771.086c-98.477 0-178.602-80.117-178.602-178.602 0-98.477 80.125-178.594 178.602-178.594s178.602 80.117 178.602 178.594c0 98.484-80.125 178.602-178.602 178.602zM512 960c-282.32 0-512-229.68-512-512 0-130.625 49.195-249.953 129.992-340.508 17.305 75.984 57.016 145.313 115 199.32 40.695 37.906 88.313 66.273 139.781 83.914-66.875 42.32-111.375 116.938-111.375 201.758 0 131.57 107.039 238.602 238.602 238.602s238.594-107.031 238.594-238.602c0-84.781-44.461-159.375-111.289-201.703 55.75-19.094 106.852-50.797 149.75-93.695 52.414-52.414 88.602-118.297 104.914-189.625 80.828 90.555 130.031 209.898 130.031 340.539 0 282.32-229.68 512-512 512zM182.203 56.703c89.156-75.266 204.258-120.703 329.797-120.703s240.641 45.445 329.797 120.703c-8.211 74.594-41.734 144.523-95.164 197.953-62.688 62.688-146.016 97.211-234.633 97.211-168.781 0-311.477-128.758-329.797-295.164z" />
<glyph unicode="&#xe91f;" glyph-name="Campaign_Wise" d="M994 96h-340.376l-13.162-39.486c-4.084-12.25-15.548-20.514-28.462-20.514h-200c-12.914 0-24.378 8.264-28.462 20.514l-13.162 39.486h-340.376c-16.568 0-30-13.432-30-30v-20c0-60.752 49.248-110 110-110h804c60.752 0 110 49.248 110 110v20c0 16.568-13.432 30-30 30zM342 436c27.57 0 50 22.43 50 50v40c0 27.57-22.43 50-50 50s-50-22.43-50-50v-40c0-27.57 22.43-50 50-50zM342 376c-61.362 0-112.928-42.73-126.506-100h253.014c-13.58 57.27-65.146 100-126.508 100zM420.46 135.486l13.164-39.486h156.754l13.162 39.486c4.084 12.25 15.548 20.514 28.46 20.514h332v510c0 39.852-26.044 73.716-62 85.518v-141.518c0-49.626-40.374-90-90-90-39.268 0-72.742 25.282-85.008 60.42l-124.992 52.080v-92.5c0-16.568-13.432-30-30-30s-30 13.432-30 30v110h-30c-61.43 0-112.196 46.408-119.156 106h-242.844c-49.626 0-90-40.374-90-90v-510h332c12.912 0 24.376-8.264 28.46-20.514zM152 246c0 74.314 42.892 138.788 105.214 169.998-15.742 19.032-25.214 43.432-25.214 70.002v40c0 60.654 49.346 110 110 110s110-49.346 110-110v-40c0-26.57-9.472-50.97-25.214-70.002 62.322-31.21 105.214-95.684 105.214-169.998 0-16.568-13.432-30-30-30h-320c-16.568 0-30 13.432-30 30zM782 610c0-16.568 13.432-30 30-30s30 13.432 30 30v320c0 16.568-13.432 30-30 30s-30-13.432-30-30v-12.5l-180-75v-145l180-75zM512 710h30v120h-30c-33.138 0-60-26.862-60-60s26.862-60 60-60z" />
<glyph unicode="&#xe920;" glyph-name="Lead_Stage" d="M1019.956 913.060c-5.39 9.256-15.262 14.94-25.956 14.94h-964c-10.694 0-20.566-5.684-25.958-14.942-5.36-9.258-5.39-20.654-0.086-29.94l96.35-165.118h823.388l96.35 165.118c5.302 9.288 5.274 20.684-0.088 29.942zM254.59 448l85.712-150h343.396l85.712 150zM134.59 658l85.716-150h583.388l85.716 150zM362 238v-240c0-16.582 13.418-30 30-30h240c16.582 0 30 13.418 30 30v240h-300z" />
<glyph unicode="&#xe921;" glyph-name="Research-Lead-Box" horiz-adv-x="900" d="M209.983 838.031c-49.349 0-89.354-40.005-89.354-89.354s40.005-89.354 89.354-89.354c49.349 0 89.354 40.005 89.354 89.354v0c0 49.349-40.005 89.354-89.354 89.354v0zM720.195 778.164c-1.554 0.142-3.36 0.223-5.186 0.223-33.311 0-60.314-27.004-60.314-60.314s27.004-60.314 60.314-60.314c1.826 0 3.632 0.081 5.417 0.24l-0.231-0.017c31.003 2.756 55.128 28.606 55.128 60.091s-24.125 57.335-54.897 60.074l-0.231 0.017zM479.832 960c-66.374 0-120.182-53.807-120.182-120.182s53.807-120.182 120.182-120.182c66.374 0 120.182 53.807 120.182 120.182v0c0.001 0.133 0.001 0.29 0.001 0.448 0 66.128-53.607 119.735-119.735 119.735-0.157 0-0.315 0-0.472-0.001h0.024zM137.606 418.066l180.049-180.049h264.935l180.049 180.049h-625.033zM898.010 579.351c-4.728 10.924-15.298 18.485-27.665 18.764l-0.035 0.001h-840.377c-12.44-0.158-23.064-7.768-27.625-18.565l-0.075-0.199c-1.452-3.368-2.296-7.29-2.296-11.409 0-8.321 3.446-15.837 8.99-21.198l68.811-68.811h744.768l71.037 68.803c4.546 5.28 7.315 12.203 7.315 19.773 0 4.662-1.050 9.078-2.926 13.026l0.079-0.184zM360.098 177.703v-151.902c0.092-11.631 6.707-21.696 16.362-26.727l0.168-0.080 120.182-59.867c3.645-1.977 7.981-3.14 12.589-3.14 0.286 0 0.572 0.004 0.856 0.013l-0.042-0.001c0.085-0.001 0.186-0.001 0.288-0.001 5.697 0 11.004 1.666 15.462 4.537l-0.113-0.068c8.617 5.343 14.275 14.741 14.297 25.463v211.773z" />
</font>
</defs>
</svg>
