<?xml version="1.0" encoding="UTF-8"?><svg id="Layer_1" xmlns="http://www.w3.org/2000/svg" viewBox="0 0 140 43"><defs><style>.cls-1{fill:#156356;}.cls-2{fill:#c99764;}.cls-3{fill:#191919;}.cls-4{fill:#fdd65b;}</style></defs><path class="cls-3" d="M51.8,3.3v1.04h-2.7v8.76h-1.29V4.34h-2.72v-1.04h6.71Z"/><path class="cls-3" d="M54.52,12.74c-.59-.33-1.06-.79-1.39-1.4-.34-.6-.5-1.31-.5-2.1s.17-1.48.52-2.09c.35-.61.82-1.07,1.42-1.39.6-.32,1.27-.49,2.01-.49s1.41.16,2.01.49c.6.32,1.07.79,1.42,1.39.35.6.52,1.3.52,2.1s-.18,1.5-.53,2.1c-.36.61-.84,1.07-1.44,1.4-.61.33-1.28.49-2.02.49s-1.39-.16-1.98-.49ZM57.81,11.78c.41-.22.74-.54.99-.97.25-.43.38-.96.38-1.58s-.12-1.14-.37-1.58c-.25-.43-.57-.75-.97-.96-.4-.21-.83-.32-1.29-.32s-.91.11-1.3.32c-.39.21-.71.53-.95.96-.24.43-.36.96-.36,1.58s.12,1.16.35,1.59c.23.43.54.75.93.96.39.21.82.32,1.28.32s.9-.11,1.31-.32Z"/><path class="cls-3" d="M72.31,5.4l-2.43,7.71h-1.34l-1.88-6.12-1.88,6.12h-1.34l-2.45-7.71h1.32l1.79,6.47,1.93-6.47h1.32l1.89,6.49,1.76-6.49h1.28Z"/><path class="cls-3" d="M73.3,7.15c.32-.6.77-1.06,1.33-1.39.56-.33,1.19-.49,1.88-.49s1.28.15,1.78.44c.5.29.88.66,1.12,1.1v-1.41h1.31v7.71h-1.31v-1.43c-.26.45-.64.82-1.14,1.12s-1.1.44-1.77.44-1.32-.17-1.88-.51c-.56-.34-1-.81-1.32-1.42-.32-.61-.48-1.3-.48-2.08s.16-1.48.48-2.07ZM79.06,7.72c-.24-.43-.56-.76-.96-.99-.4-.23-.85-.34-1.33-.34s-.93.11-1.32.34c-.4.23-.72.55-.95.98-.24.43-.36.94-.36,1.52s.12,1.1.36,1.54.55.77.95,1c.4.23.84.34,1.32.34s.93-.11,1.33-.34c.4-.23.72-.56.96-1,.24-.44.36-.94.36-1.53s-.12-1.09-.36-1.52Z"/><path class="cls-3" d="M84.9,5.62c.42-.24.94-.37,1.54-.37v1.32h-.34c-1.45,0-2.18.78-2.18,2.34v4.19h-1.29v-7.71h1.29v1.25c.23-.44.55-.78.97-1.03Z"/><path class="cls-3" d="M87.66,7.15c.32-.6.77-1.06,1.33-1.39.56-.33,1.2-.49,1.9-.49.61,0,1.17.14,1.69.42.52.28.92.64,1.19,1.09V2.7h1.31v10.41h-1.31v-1.45c-.26.46-.64.84-1.14,1.13s-1.09.44-1.76.44-1.32-.17-1.88-.51c-.56-.34-1.01-.81-1.33-1.42-.32-.61-.48-1.3-.48-2.08s.16-1.48.48-2.07ZM93.42,7.72c-.24-.43-.56-.76-.96-.99-.4-.23-.85-.34-1.33-.34s-.92.11-1.32.34c-.4.23-.72.55-.95.98-.24.43-.36.94-.36,1.52s.12,1.1.36,1.54c.24.44.55.77.95,1,.4.23.84.34,1.32.34s.93-.11,1.33-.34c.4-.23.72-.56.96-1,.24-.44.36-.94.36-1.53s-.12-1.09-.36-1.52Z"/><path class="cls-3" d="M98.14,12.93c-.47-.2-.85-.48-1.12-.84-.28-.36-.43-.78-.46-1.25h1.34c.04.38.22.7.55.94.33.24.76.37,1.29.37.49,0,.88-.11,1.17-.32s.43-.49.43-.82-.15-.59-.45-.75c-.3-.16-.77-.33-1.41-.49-.58-.15-1.05-.3-1.42-.46s-.68-.38-.94-.69-.39-.71-.39-1.2c0-.39.12-.75.36-1.08.24-.33.57-.59,1.01-.78s.93-.29,1.49-.29c.86,0,1.56.22,2.09.65.53.43.82,1.02.85,1.77h-1.29c-.03-.4-.19-.73-.49-.97-.3-.24-.7-.37-1.2-.37-.46,0-.83.1-1.11.3s-.41.45-.41.77c0,.25.08.46.25.63.17.16.37.3.63.39s.6.21,1.05.33c.56.15,1.01.3,1.37.44s.65.36.9.65c.25.29.38.67.39,1.14,0,.42-.12.8-.36,1.14s-.57.6-1,.79c-.43.19-.93.29-1.49.29-.6,0-1.13-.1-1.61-.3Z"/><path class="cls-1" d="M54.81,24.96c-.32.59-.82,1.06-1.5,1.42-.68.36-1.54.54-2.58.54h-2.12v4.8h-2.54v-12.51h4.66c.98,0,1.81.17,2.5.5.69.33,1.21.79,1.55,1.38.34.59.52,1.25.52,1.99,0,.67-.16,1.3-.48,1.88ZM52.17,24.41c.34-.32.51-.76.51-1.34,0-1.22-.69-1.83-2.07-1.83h-2.01v3.64h2.01c.7,0,1.22-.16,1.56-.47Z"/><path class="cls-1" d="M56.68,24.05c.4-.78.95-1.37,1.65-1.79.69-.42,1.47-.63,2.33-.63.75,0,1.4.15,1.97.45.56.3,1.01.68,1.35,1.13v-1.42h2.56v9.93h-2.56v-1.45c-.33.47-.78.85-1.35,1.16-.57.3-1.24.46-1.98.46-.85,0-1.62-.22-2.31-.65-.69-.43-1.24-1.04-1.65-1.82-.4-.78-.61-1.68-.61-2.7s.2-1.89.61-2.67ZM63.61,25.19c-.24-.44-.57-.77-.98-1-.41-.23-.85-.35-1.32-.35s-.91.11-1.3.34c-.4.23-.72.56-.97.99-.25.44-.37.95-.37,1.55s.12,1.12.37,1.57c.25.45.57.79.98,1.03.4.24.84.36,1.3.36s.91-.12,1.32-.35c.41-.23.74-.57.98-1,.24-.44.36-.96.36-1.57s-.12-1.13-.36-1.57Z"/><path class="cls-1" d="M68.63,24.06c.42-.77,1.01-1.37,1.76-1.79.75-.42,1.61-.64,2.57-.64,1.24,0,2.27.31,3.09.92.82.62,1.36,1.48,1.64,2.59h-2.74c-.14-.43-.39-.77-.73-1.01s-.77-.37-1.28-.37c-.73,0-1.3.26-1.72.78-.42.52-.63,1.26-.63,2.21s.21,1.68.63,2.2c.42.52,1,.78,1.72.78,1.03,0,1.7-.45,2.01-1.36h2.74c-.28,1.08-.83,1.93-1.65,2.56-.82.63-1.85.95-3.08.95-.97,0-1.82-.21-2.57-.64-.75-.42-1.34-1.02-1.76-1.79-.42-.77-.63-1.67-.63-2.7s.21-1.93.63-2.7Z"/><path class="cls-1" d="M85.14,31.72l-3.41-4.23v4.23h-2.54v-13.26h2.54v7.55l3.37-4.21h3.3l-4.42,4.98,4.46,4.95h-3.3Z"/><path class="cls-1" d="M89.37,24.05c.4-.78.95-1.37,1.65-1.79.69-.42,1.47-.63,2.33-.63.75,0,1.4.15,1.97.45.56.3,1.01.68,1.35,1.13v-1.42h2.56v9.93h-2.56v-1.45c-.33.47-.78.85-1.35,1.16-.57.3-1.24.46-1.98.46-.85,0-1.62-.22-2.31-.65-.69-.43-1.24-1.04-1.65-1.82-.41-.78-.61-1.68-.61-2.7s.2-1.89.61-2.67ZM96.3,25.19c-.24-.44-.57-.77-.98-1-.41-.23-.85-.35-1.32-.35s-.91.11-1.31.34c-.4.23-.72.56-.97.99-.25.44-.37.95-.37,1.55s.12,1.12.37,1.57c.25.45.57.79.98,1.03.4.24.84.36,1.3.36s.91-.12,1.32-.35c.41-.23.74-.57.98-1,.24-.44.36-.96.36-1.57s-.12-1.13-.36-1.57Z"/><path class="cls-1" d="M107.25,22.07c.57.29,1.01.67,1.34,1.14v-1.42h2.56v10c0,.92-.19,1.74-.56,2.46-.37.72-.94,1.3-1.69,1.72-.75.42-1.66.64-2.72.64-1.43,0-2.59-.33-3.51-.99-.91-.66-1.43-1.55-1.55-2.69h2.52c.13.45.42.82.86,1.08.44.27.98.4,1.6.4.74,0,1.33-.22,1.79-.65.46-.44.69-1.1.69-1.98v-1.54c-.33.47-.78.85-1.35,1.17-.57.31-1.23.47-1.97.47-.85,0-1.62-.22-2.32-.65-.7-.43-1.25-1.04-1.66-1.82-.41-.78-.61-1.68-.61-2.7s.2-1.89.61-2.67c.4-.78.95-1.37,1.65-1.79.69-.42,1.47-.63,2.33-.63.75,0,1.41.15,1.97.44ZM108.23,25.19c-.24-.44-.57-.77-.98-1-.41-.23-.85-.35-1.32-.35s-.91.11-1.31.34c-.4.23-.72.56-.97.99-.25.44-.37.95-.37,1.55s.12,1.12.37,1.57c.25.45.57.79.98,1.03.4.24.84.36,1.3.36s.91-.12,1.32-.35c.41-.23.74-.57.98-1,.24-.44.36-.96.36-1.57s-.12-1.13-.36-1.57Z"/><path class="cls-1" d="M115.8,21.79v9.93h-2.54v-9.93h2.54Z"/><path class="cls-1" d="M126.4,22.77c.74.75,1.11,1.79,1.11,3.13v5.82h-2.54v-5.48c0-.79-.2-1.39-.6-1.82-.4-.42-.94-.64-1.63-.64s-1.25.21-1.66.64c-.41.42-.61,1.03-.61,1.82v5.48h-2.54v-9.93h2.54v1.24c.34-.43.77-.77,1.3-1.01.53-.24,1.1-.37,1.73-.37,1.2,0,2.16.37,2.9,1.12Z"/><path class="cls-1" d="M135.6,22.08c.57.29,1.01.67,1.34,1.14v-1.42h2.56v10c0,.92-.19,1.74-.56,2.46-.37.72-.94,1.3-1.69,1.72-.75.42-1.66.64-2.72.64-1.43,0-2.59-.33-3.51-.99-.91-.66-1.43-1.55-1.55-2.69h2.52c.13.45.42.82.86,1.08.44.27.98.4,1.6.4.74,0,1.33-.22,1.79-.65.46-.44.69-1.1.69-1.98v-1.54c-.33.47-.78.85-1.35,1.17-.57.31-1.23.47-1.97.47-.85,0-1.62-.22-2.32-.65-.7-.43-1.25-1.04-1.66-1.82-.41-.78-.61-1.68-.61-2.7s.2-1.89.61-2.67c.4-.78.95-1.37,1.65-1.79.69-.42,1.47-.63,2.33-.63.75,0,1.41.15,1.97.44ZM136.58,25.2c-.24-.44-.57-.77-.98-1-.41-.23-.85-.35-1.32-.35s-.91.11-1.31.34c-.4.23-.72.56-.97.99-.25.44-.37.95-.37,1.55s.12,1.12.37,1.57c.25.45.57.79.98,1.03.4.24.84.36,1.3.36s.91-.12,1.32-.35c.41-.23.74-.57.98-1,.24-.44.36-.96.36-1.57s-.12-1.13-.36-1.57Z"/><polygon class="cls-1" points="37.51 29.92 26.57 40.3 26.57 3.3 37.51 3.3 37.51 29.92"/><polygon class="cls-2" points=".51 14.24 14.41 3.3 37.51 3.3 26.57 14.24 .51 14.24"/><path class="cls-4" d="M.51,19.97h13.3c3.88,0,7.04,3.15,7.04,7.04v13.3H.51v-20.34h0Z"/><rect class="cls-1" x="113.24" y="18.19" width="2.58" height="2.58"/></svg>